<svg width="20" height="20" viewBox="0 0 20 20" fill="none" xmlns="http://www.w3.org/2000/svg">
<path d="M9.58073 7.70801H1.66406C1.3224 7.70801 1.03906 7.42467 1.03906 7.08301C1.03906 6.74134 1.3224 6.45801 1.66406 6.45801H9.58073C9.9224 6.45801 10.2057 6.74134 10.2057 7.08301C10.2057 7.42467 9.9224 7.70801 9.58073 7.70801Z" fill="#71839B"/>
<path d="M6.66667 14.375H5C4.65833 14.375 4.375 14.0917 4.375 13.75C4.375 13.4083 4.65833 13.125 5 13.125H6.66667C7.00833 13.125 7.29167 13.4083 7.29167 13.75C7.29167 14.0917 7.00833 14.375 6.66667 14.375Z" fill="#71839B"/>
<path d="M12.0833 14.375H8.75C8.40833 14.375 8.125 14.0917 8.125 13.75C8.125 13.4083 8.40833 13.125 8.75 13.125H12.0833C12.425 13.125 12.7083 13.4083 12.7083 13.75C12.7083 14.0917 12.425 14.375 12.0833 14.375Z" fill="#71839B"/>
<path d="M14.6307 17.7087H5.36406C2.0474 17.7087 1.03906 16.7087 1.03906 13.4253V6.57533C1.03906 3.29199 2.0474 2.29199 5.36406 2.29199H12.0807C12.4224 2.29199 12.7057 2.57533 12.7057 2.91699C12.7057 3.25866 12.4224 3.54199 12.0807 3.54199H5.36406C2.7474 3.54199 2.28906 3.99199 2.28906 6.57533V13.417C2.28906 16.0003 2.7474 16.4503 5.36406 16.4503H14.6224C17.2391 16.4503 17.6974 16.0003 17.6974 13.417V10.017C17.6974 9.67533 17.9807 9.39199 18.3224 9.39199C18.6641 9.39199 18.9474 9.67533 18.9474 10.017V13.417C18.9557 16.7087 17.9474 17.7087 14.6307 17.7087Z" fill="#71839B"/>
<path d="M12.9319 9.53338C12.6069 9.53338 12.2986 9.41671 12.0819 9.19171C11.8152 8.92504 11.6986 8.54171 11.7569 8.14171L11.9236 6.95838C11.9652 6.65838 12.1486 6.30004 12.3569 6.09171L15.4486 3.00004C16.6736 1.77504 17.7402 2.47504 18.2736 3.00004C18.7986 3.52504 19.4986 4.59171 18.2736 5.82504L15.1819 8.91671C14.9652 9.13338 14.6069 9.30838 14.3152 9.35004L13.1319 9.51671C13.0652 9.52504 12.9986 9.53338 12.9319 9.53338ZM16.8569 3.56671C16.6902 3.56671 16.5402 3.68338 16.3319 3.88338L13.2486 6.97504C13.2236 7.00838 13.1736 7.10004 13.1652 7.14171L12.9986 8.26671L14.1319 8.10838C14.1736 8.10004 14.2652 8.05004 14.2986 8.02504L17.3902 4.93338C17.7819 4.54171 17.8402 4.32504 17.3902 3.88338C17.1736 3.66671 17.0152 3.56671 16.8569 3.56671Z" fill="#71839B"/>
<path d="M17.3922 6.45029C17.3338 6.45029 17.2755 6.44196 17.2255 6.42529C16.0838 6.10029 15.1755 5.20029 14.8588 4.05862C14.7672 3.72529 14.9588 3.38362 15.2922 3.28362C15.6255 3.19196 15.9672 3.38362 16.0672 3.71696C16.2755 4.44196 16.8505 5.01696 17.5755 5.22529C17.9088 5.31696 18.1005 5.66696 18.0088 5.99196C17.9172 6.26696 17.6672 6.45029 17.3922 6.45029Z" fill="#71839B"/>
</svg>
