<svg width="939" height="257" viewBox="0 0 939 257" fill="none" xmlns="http://www.w3.org/2000/svg">
<path d="M336.887 124L334 126.887L331.113 124L334 121.113L336.887 124ZM334 124.5H240V123.5H334V124.5Z" fill="#081131"/>
<path d="M690.887 124L688 126.887L685.113 124L688 121.113L690.887 124ZM688 124.5H594V123.5H688V124.5Z" fill="#081131"/>
<path d="M272.548 91.878V102H271.176V91.878H272.548ZM276 102H274.684V95.154H275.874L276.014 96.204C276.448 95.42 277.316 94.958 278.282 94.958C280.088 94.958 280.914 96.064 280.914 97.814V102H279.598V98.108C279.598 96.722 278.954 96.162 277.946 96.162C276.714 96.162 276 97.044 276 98.374V102ZM284.518 102L281.76 95.154H283.16L284.658 98.976C284.896 99.62 285.092 100.194 285.204 100.614C285.316 100.166 285.54 99.578 285.778 98.976L287.304 95.154H288.676L285.82 102H284.518ZM290.367 93.53C289.891 93.53 289.499 93.138 289.499 92.662C289.499 92.172 289.891 91.794 290.367 91.794C290.843 91.794 291.235 92.172 291.235 92.662C291.235 93.138 290.843 93.53 290.367 93.53ZM289.723 102V95.154H291.039V102H289.723ZM294.882 102H293.566V96.26H292.222V95.154H293.566V93.012H294.882V95.154H296.226V96.26H294.882V102ZM300.293 102.168C298.277 102.168 296.891 100.712 296.891 98.584C296.891 96.442 298.249 94.958 300.237 94.958C302.183 94.958 303.457 96.302 303.457 98.332V98.822L298.165 98.836C298.263 100.278 299.019 101.076 300.321 101.076C301.343 101.076 302.015 100.656 302.239 99.872H303.471C303.135 101.342 301.987 102.168 300.293 102.168ZM300.237 96.064C299.089 96.064 298.361 96.75 298.193 97.954H302.141C302.141 96.82 301.399 96.064 300.237 96.064Z" fill="#081131"/>
<path d="M562.196 6.138V4.878H569.658V6.138H566.62V15H565.248V6.138H562.196ZM573.899 8.098V9.302H573.311C572.065 9.302 571.295 10.058 571.295 11.374V15H569.979V8.168H571.211L571.295 9.204C571.575 8.49 572.261 8.014 573.199 8.014C573.437 8.014 573.633 8.042 573.899 8.098ZM576.862 15.168C575.392 15.168 574.524 14.342 574.524 13.096C574.524 11.836 575.462 11.052 577.072 10.926L579.228 10.758V10.562C579.228 9.414 578.542 9.008 577.618 9.008C576.512 9.008 575.882 9.498 575.882 10.324H574.734C574.734 8.896 575.91 7.958 577.674 7.958C579.368 7.958 580.516 8.854 580.516 10.702V15H579.396L579.256 13.894C578.906 14.678 577.968 15.168 576.862 15.168ZM577.24 14.146C578.486 14.146 579.242 13.334 579.242 12.046V11.682L577.492 11.822C576.33 11.934 575.854 12.382 575.854 13.054C575.854 13.782 576.386 14.146 577.24 14.146ZM585.083 15.168C583.095 15.168 581.891 13.684 581.891 11.598C581.891 9.498 583.109 7.958 585.139 7.958C586.189 7.958 587.071 8.42 587.533 9.26V4.696H588.835V15H587.659L587.547 13.754C587.099 14.692 586.175 15.168 585.083 15.168ZM585.349 13.978C586.693 13.978 587.519 12.984 587.519 11.556C587.519 10.156 586.693 9.148 585.349 9.148C584.005 9.148 583.221 10.156 583.221 11.556C583.221 12.97 584.005 13.978 585.349 13.978ZM593.687 15.168C591.671 15.168 590.285 13.712 590.285 11.584C590.285 9.442 591.643 7.958 593.631 7.958C595.577 7.958 596.851 9.302 596.851 11.332V11.822L591.559 11.836C591.657 13.278 592.413 14.076 593.715 14.076C594.737 14.076 595.409 13.656 595.633 12.872H596.865C596.529 14.342 595.381 15.168 593.687 15.168ZM593.631 9.064C592.483 9.064 591.755 9.75 591.587 10.954H595.535C595.535 9.82 594.793 9.064 593.631 9.064ZM607.721 10.702H603.745V15H602.373V4.878H608.477V6.138H603.745V9.456H607.721V10.702ZM612.336 15.168C610.32 15.168 608.934 13.712 608.934 11.584C608.934 9.442 610.292 7.958 612.28 7.958C614.226 7.958 615.5 9.302 615.5 11.332V11.822L610.208 11.836C610.306 13.278 611.062 14.076 612.364 14.076C613.386 14.076 614.058 13.656 614.282 12.872H615.514C615.178 14.342 614.03 15.168 612.336 15.168ZM612.28 9.064C611.132 9.064 610.404 9.75 610.236 10.954H614.184C614.184 9.82 613.442 9.064 612.28 9.064ZM619.924 15.168C617.908 15.168 616.522 13.712 616.522 11.584C616.522 9.442 617.88 7.958 619.868 7.958C621.814 7.958 623.088 9.302 623.088 11.332V11.822L617.796 11.836C617.894 13.278 618.65 14.076 619.952 14.076C620.974 14.076 621.646 13.656 621.87 12.872H623.102C622.766 14.342 621.618 15.168 619.924 15.168ZM619.868 9.064C618.72 9.064 617.992 9.75 617.824 10.954H621.772C621.772 9.82 621.03 9.064 619.868 9.064ZM631.018 9.764H630.01V8.854L632.88 6.096H628.33V4.878H634.616V5.984L631.844 8.63C633.566 8.84 634.868 10.002 634.868 11.822C634.868 13.866 633.328 15.168 631.27 15.168C629.282 15.168 627.854 13.95 627.854 11.85H629.212C629.212 13.166 630.024 13.936 631.298 13.936C632.614 13.936 633.468 13.096 633.468 11.794C633.468 10.576 632.628 9.764 631.018 9.764ZM639.451 15.168C637.379 15.168 636.035 13.852 636.035 11.836H637.393C637.393 13.138 638.191 13.936 639.479 13.936C640.851 13.936 641.733 13.026 641.733 11.654C641.733 10.352 640.907 9.386 639.493 9.386C638.639 9.386 637.855 9.792 637.393 10.366L636.231 10.072L637.463 4.878H642.531V6.138H638.457L637.785 8.826C638.317 8.42 638.989 8.21 639.745 8.21C641.803 8.21 643.133 9.652 643.133 11.598C643.133 13.698 641.635 15.168 639.451 15.168ZM649.333 7.272C649.333 8.77 648.269 9.848 646.771 9.848C645.287 9.848 644.223 8.77 644.223 7.272C644.223 5.76 645.287 4.682 646.771 4.682C648.269 4.682 649.333 5.76 649.333 7.272ZM654.667 4.892L646.981 15H645.637L653.323 4.892H654.667ZM648.255 7.272C648.255 6.362 647.653 5.732 646.771 5.732C645.903 5.732 645.301 6.362 645.301 7.272C645.301 8.168 645.903 8.798 646.771 8.798C647.639 8.798 648.255 8.168 648.255 7.272ZM656.109 12.606C656.109 14.104 655.031 15.182 653.547 15.182C652.063 15.182 650.985 14.104 650.985 12.606C650.985 11.094 652.063 10.03 653.547 10.03C655.031 10.03 656.109 11.094 656.109 12.606ZM655.017 12.606C655.017 11.696 654.429 11.066 653.547 11.066C652.679 11.066 652.077 11.696 652.077 12.606C652.077 13.502 652.679 14.132 653.547 14.132C654.415 14.132 655.017 13.502 655.017 12.606Z" fill="#FFA500"/>
<path d="M429.196 244.138V242.878H436.658V244.138H433.62V253H432.248V244.138H429.196ZM440.899 246.098V247.302H440.311C439.065 247.302 438.295 248.058 438.295 249.374V253H436.979V246.168H438.211L438.295 247.204C438.575 246.49 439.261 246.014 440.199 246.014C440.437 246.014 440.633 246.042 440.899 246.098ZM443.862 253.168C442.392 253.168 441.524 252.342 441.524 251.096C441.524 249.836 442.462 249.052 444.072 248.926L446.228 248.758V248.562C446.228 247.414 445.542 247.008 444.618 247.008C443.512 247.008 442.882 247.498 442.882 248.324H441.734C441.734 246.896 442.91 245.958 444.674 245.958C446.368 245.958 447.516 246.854 447.516 248.702V253H446.396L446.256 251.894C445.906 252.678 444.968 253.168 443.862 253.168ZM444.24 252.146C445.486 252.146 446.242 251.334 446.242 250.046V249.682L444.492 249.822C443.33 249.934 442.854 250.382 442.854 251.054C442.854 251.782 443.386 252.146 444.24 252.146ZM452.083 253.168C450.095 253.168 448.891 251.684 448.891 249.598C448.891 247.498 450.109 245.958 452.139 245.958C453.189 245.958 454.071 246.42 454.533 247.26V242.696H455.835V253H454.659L454.547 251.754C454.099 252.692 453.175 253.168 452.083 253.168ZM452.349 251.978C453.693 251.978 454.519 250.984 454.519 249.556C454.519 248.156 453.693 247.148 452.349 247.148C451.005 247.148 450.221 248.156 450.221 249.556C450.221 250.97 451.005 251.978 452.349 251.978ZM460.687 253.168C458.671 253.168 457.285 251.712 457.285 249.584C457.285 247.442 458.643 245.958 460.631 245.958C462.577 245.958 463.851 247.302 463.851 249.332V249.822L458.559 249.836C458.657 251.278 459.413 252.076 460.715 252.076C461.737 252.076 462.409 251.656 462.633 250.872H463.865C463.529 252.342 462.381 253.168 460.687 253.168ZM460.631 247.064C459.483 247.064 458.755 247.75 458.587 248.954H462.535C462.535 247.82 461.793 247.064 460.631 247.064ZM474.721 248.702H470.745V253H469.373V242.878H475.477V244.138H470.745V247.456H474.721V248.702ZM479.336 253.168C477.32 253.168 475.934 251.712 475.934 249.584C475.934 247.442 477.292 245.958 479.28 245.958C481.226 245.958 482.5 247.302 482.5 249.332V249.822L477.208 249.836C477.306 251.278 478.062 252.076 479.364 252.076C480.386 252.076 481.058 251.656 481.282 250.872H482.514C482.178 252.342 481.03 253.168 479.336 253.168ZM479.28 247.064C478.132 247.064 477.404 247.75 477.236 248.954H481.184C481.184 247.82 480.442 247.064 479.28 247.064ZM486.924 253.168C484.908 253.168 483.522 251.712 483.522 249.584C483.522 247.442 484.88 245.958 486.868 245.958C488.814 245.958 490.088 247.302 490.088 249.332V249.822L484.796 249.836C484.894 251.278 485.65 252.076 486.952 252.076C487.974 252.076 488.646 251.656 488.87 250.872H490.102C489.766 252.342 488.618 253.168 486.924 253.168ZM486.868 247.064C485.72 247.064 484.992 247.75 484.824 248.954H488.772C488.772 247.82 488.03 247.064 486.868 247.064ZM497.052 244.11H494.924V242.878H498.368V253H497.052V244.11ZM503.567 253.168C501.495 253.168 500.151 251.852 500.151 249.836H501.509C501.509 251.138 502.307 251.936 503.595 251.936C504.967 251.936 505.849 251.026 505.849 249.654C505.849 248.352 505.023 247.386 503.609 247.386C502.755 247.386 501.971 247.792 501.509 248.366L500.347 248.072L501.579 242.878H506.647V244.138H502.573L501.901 246.826C502.433 246.42 503.105 246.21 503.861 246.21C505.919 246.21 507.249 247.652 507.249 249.598C507.249 251.698 505.751 253.168 503.567 253.168ZM513.448 245.272C513.448 246.77 512.384 247.848 510.886 247.848C509.402 247.848 508.338 246.77 508.338 245.272C508.338 243.76 509.402 242.682 510.886 242.682C512.384 242.682 513.448 243.76 513.448 245.272ZM518.782 242.892L511.096 253H509.752L517.438 242.892H518.782ZM512.37 245.272C512.37 244.362 511.768 243.732 510.886 243.732C510.018 243.732 509.416 244.362 509.416 245.272C509.416 246.168 510.018 246.798 510.886 246.798C511.754 246.798 512.37 246.168 512.37 245.272ZM520.224 250.606C520.224 252.104 519.146 253.182 517.662 253.182C516.178 253.182 515.1 252.104 515.1 250.606C515.1 249.094 516.178 248.03 517.662 248.03C519.146 248.03 520.224 249.094 520.224 250.606ZM519.132 250.606C519.132 249.696 518.544 249.066 517.662 249.066C516.794 249.066 516.192 249.696 516.192 250.606C516.192 251.502 516.794 252.132 517.662 252.132C518.53 252.132 519.132 251.502 519.132 250.606Z" fill="#FFA500"/>
<path d="M626.548 91.878V102H625.176V91.878H626.548ZM630 102H628.684V95.154H629.874L630.014 96.204C630.448 95.42 631.316 94.958 632.282 94.958C634.088 94.958 634.914 96.064 634.914 97.814V102H633.598V98.108C633.598 96.722 632.954 96.162 631.946 96.162C630.714 96.162 630 97.044 630 98.374V102ZM638.518 102L635.76 95.154H637.16L638.658 98.976C638.896 99.62 639.092 100.194 639.204 100.614C639.316 100.166 639.54 99.578 639.778 98.976L641.304 95.154H642.676L639.82 102H638.518ZM644.367 93.53C643.891 93.53 643.499 93.138 643.499 92.662C643.499 92.172 643.891 91.794 644.367 91.794C644.843 91.794 645.235 92.172 645.235 92.662C645.235 93.138 644.843 93.53 644.367 93.53ZM643.723 102V95.154H645.039V102H643.723ZM648.882 102H647.566V96.26H646.222V95.154H647.566V93.012H648.882V95.154H650.226V96.26H648.882V102ZM654.293 102.168C652.277 102.168 650.891 100.712 650.891 98.584C650.891 96.442 652.249 94.958 654.237 94.958C656.183 94.958 657.457 96.302 657.457 98.332V98.822L652.165 98.836C652.263 100.278 653.019 101.076 654.321 101.076C655.343 101.076 656.015 100.656 656.239 99.872H657.471C657.135 101.342 655.987 102.168 654.293 102.168ZM654.237 96.064C653.089 96.064 652.361 96.75 652.193 97.954H656.141C656.141 96.82 655.399 96.064 654.237 96.064Z" fill="#081131"/>
<g filter="url(#filter0_d_1953_32588)">
<rect x="18" y="86" width="201" height="75" rx="11" fill="#FFEAC3"/>
<rect x="17.4" y="85.4" width="202.2" height="76.2" rx="11.6" stroke="#FFD281" stroke-width="1.2"/>
</g>
<rect x="21" y="89" width="101" height="69" rx="11" fill="white"/>
<path d="M139.28 131H137.24L142.52 116.54H144.7L150 131H147.94L146.64 127.4H140.56L139.28 131ZM143.36 119.66L141.16 125.7H146.06L143.84 119.66C143.74 119.38 143.64 119.04 143.6 118.82C143.56 119.02 143.46 119.36 143.36 119.66ZM157.478 118.14C154.358 118.14 152.478 120.44 152.478 123.86C152.478 127.36 154.518 129.38 157.498 129.38C159.958 129.38 161.938 128.12 161.938 125.2V124.78H157.098V123.04H163.778V131.02H162.138L161.998 129.06C161.218 130.32 159.458 131.24 157.338 131.24C153.238 131.24 150.418 128.28 150.418 123.82C150.418 119.42 153.258 116.3 157.518 116.3C160.678 116.3 163.138 118.12 163.618 120.9H161.538C160.998 119.06 159.398 118.14 157.478 118.14ZM175.996 131H167.176V116.54H175.996V118.34H169.136V122.86H175.316V124.6H169.136V129.18H175.996V131ZM180.796 131H178.836V116.54H180.796L188.196 127.72V116.54H190.156V131H188.196L180.796 119.82V131ZM192.124 118.34V116.54H202.784V118.34H198.444V131H196.484V118.34H192.124Z" fill="#081131"/>
<path d="M79.356 125.402V118.878H80.728V125.318C80.728 126.942 81.624 127.838 83.234 127.838C84.83 127.838 85.712 126.928 85.712 125.318V118.878H87.098V125.402C87.098 127.726 85.614 129.168 83.234 129.168C80.84 129.168 79.356 127.74 79.356 125.402ZM88.5404 127.012H89.8004C89.8004 127.712 90.3324 128.132 91.2004 128.132C92.1244 128.132 92.6564 127.754 92.6564 127.124C92.6564 126.662 92.4324 126.382 91.7184 126.2L90.5144 125.92C89.2964 125.626 88.7224 125.024 88.7224 124.016C88.7224 122.756 89.7864 121.958 91.2984 121.958C92.7964 121.958 93.7764 122.798 93.8044 124.1H92.5444C92.5164 123.414 92.0544 122.98 91.2564 122.98C90.4304 122.98 89.9684 123.344 89.9684 123.974C89.9684 124.436 90.3044 124.744 90.9764 124.912L92.1804 125.206C93.3424 125.486 93.9164 126.018 93.9164 127.04C93.9164 128.342 92.7964 129.168 91.1724 129.168C89.5624 129.168 88.5404 128.314 88.5404 127.012ZM98.3298 129.168C96.3138 129.168 94.9278 127.712 94.9278 125.584C94.9278 123.442 96.2858 121.958 98.2738 121.958C100.22 121.958 101.494 123.302 101.494 125.332V125.822L96.2018 125.836C96.2998 127.278 97.0558 128.076 98.3578 128.076C99.3798 128.076 100.052 127.656 100.276 126.872H101.508C101.172 128.342 100.024 129.168 98.3298 129.168ZM98.2738 123.064C97.1258 123.064 96.3978 123.75 96.2298 124.954H100.178C100.178 123.82 99.4358 123.064 98.2738 123.064ZM106.884 122.098V123.302H106.296C105.05 123.302 104.28 124.058 104.28 125.374V129H102.964V122.168H104.196L104.28 123.204C104.56 122.49 105.246 122.014 106.184 122.014C106.422 122.014 106.618 122.042 106.884 122.098Z" fill="#081131"/>
<path opacity="0.4" d="M51.75 142.5C62.1053 142.5 70.5 134.105 70.5 123.75C70.5 113.395 62.1053 105 51.75 105C41.3947 105 33 113.395 33 123.75C33 134.105 41.3947 142.5 51.75 142.5Z" fill="#FFA8A8"/>
<path d="M51.75 114.244C47.8688 114.244 44.7188 117.394 44.7188 121.275C44.7188 125.082 47.7 128.175 51.6562 128.288C51.7125 128.288 51.7875 128.288 51.825 128.288C51.8625 128.288 51.9187 128.288 51.9562 128.288C51.975 128.288 51.9938 128.288 51.9938 128.288C55.7812 128.157 58.7625 125.082 58.7812 121.275C58.7812 117.394 55.6312 114.244 51.75 114.244Z" fill="#FFA500"/>
<path d="M64.4641 137.532C61.1266 140.607 56.6641 142.5 51.7516 142.5C46.8391 142.5 42.3766 140.607 39.0391 137.532C39.4891 135.825 40.7078 134.269 42.4891 133.069C47.6078 129.657 55.9328 129.657 61.0141 133.069C62.8141 134.269 64.0141 135.825 64.4641 137.532Z" fill="#FFA500"/>
<g filter="url(#filter1_d_1953_32588)">
<rect x="361" y="86" width="201" height="75" rx="11" fill="#FFEAC3"/>
<rect x="360.4" y="85.4" width="202.2" height="76.2" rx="11.6" stroke="#FFD281" stroke-width="1.2"/>
</g>
<rect x="364" y="89" width="101" height="69" rx="11" fill="white"/>
<path d="M507.85 133H505.3L511.9 114.925H514.625L521.25 133H518.675L517.05 128.5H509.45L507.85 133ZM512.95 118.825L510.2 126.375H516.325L513.55 118.825C513.425 118.475 513.3 118.05 513.25 117.775C513.2 118.025 513.075 118.45 512.95 118.825Z" fill="#081131"/>
<path d="M422.356 125.402V118.878H423.728V125.318C423.728 126.942 424.624 127.838 426.234 127.838C427.83 127.838 428.712 126.928 428.712 125.318V118.878H430.098V125.402C430.098 127.726 428.614 129.168 426.234 129.168C423.84 129.168 422.356 127.74 422.356 125.402ZM431.54 127.012H432.8C432.8 127.712 433.332 128.132 434.2 128.132C435.124 128.132 435.656 127.754 435.656 127.124C435.656 126.662 435.432 126.382 434.718 126.2L433.514 125.92C432.296 125.626 431.722 125.024 431.722 124.016C431.722 122.756 432.786 121.958 434.298 121.958C435.796 121.958 436.776 122.798 436.804 124.1H435.544C435.516 123.414 435.054 122.98 434.256 122.98C433.43 122.98 432.968 123.344 432.968 123.974C432.968 124.436 433.304 124.744 433.976 124.912L435.18 125.206C436.342 125.486 436.916 126.018 436.916 127.04C436.916 128.342 435.796 129.168 434.172 129.168C432.562 129.168 431.54 128.314 431.54 127.012ZM441.33 129.168C439.314 129.168 437.928 127.712 437.928 125.584C437.928 123.442 439.286 121.958 441.274 121.958C443.22 121.958 444.494 123.302 444.494 125.332V125.822L439.202 125.836C439.3 127.278 440.056 128.076 441.358 128.076C442.38 128.076 443.052 127.656 443.276 126.872H444.508C444.172 128.342 443.024 129.168 441.33 129.168ZM441.274 123.064C440.126 123.064 439.398 123.75 439.23 124.954H443.178C443.178 123.82 442.436 123.064 441.274 123.064ZM449.884 122.098V123.302H449.296C448.05 123.302 447.28 124.058 447.28 125.374V129H445.964V122.168H447.196L447.28 123.204C447.56 122.49 448.246 122.014 449.184 122.014C449.422 122.014 449.618 122.042 449.884 122.098Z" fill="#081131"/>
<path opacity="0.4" d="M394.75 142.5C405.105 142.5 413.5 134.105 413.5 123.75C413.5 113.395 405.105 105 394.75 105C384.395 105 376 113.395 376 123.75C376 134.105 384.395 142.5 394.75 142.5Z" fill="#FFA8A8"/>
<path d="M394.75 114.244C390.869 114.244 387.719 117.394 387.719 121.275C387.719 125.082 390.7 128.175 394.656 128.288C394.712 128.288 394.787 128.288 394.825 128.288C394.862 128.288 394.919 128.288 394.956 128.288C394.975 128.288 394.994 128.288 394.994 128.288C398.781 128.157 401.762 125.082 401.781 121.275C401.781 117.394 398.631 114.244 394.75 114.244Z" fill="#FF3D00"/>
<path d="M407.464 137.532C404.127 140.607 399.664 142.5 394.752 142.5C389.839 142.5 385.377 140.607 382.039 137.532C382.489 135.825 383.708 134.269 385.489 133.069C390.608 129.657 398.933 129.657 404.014 133.069C405.814 134.269 407.014 135.825 407.464 137.532Z" fill="#FF3D00"/>
<g filter="url(#filter2_d_1953_32588)">
<rect x="720" y="86" width="201" height="75" rx="11" fill="#FFEAC3"/>
<rect x="719.4" y="85.4" width="202.2" height="76.2" rx="11.6" stroke="#FFD281" stroke-width="1.2"/>
</g>
<rect x="723" y="89" width="101" height="69" rx="11" fill="white"/>
<path d="M866.1 133V114.925H873C876.525 114.925 878.675 116.725 878.675 119.7C878.675 121.775 877.775 123.175 875.975 123.925C877.975 124.575 879 126.025 879 128.175C879 131.175 876.825 133 873.25 133H866.1ZM872.85 117.1H868.55V122.9H873C875.025 122.9 876.175 121.8 876.175 119.925C876.175 118.125 874.975 117.1 872.85 117.1ZM873.2 125.025H868.55V130.825H873.2C875.3 130.825 876.475 129.75 876.475 127.875C876.475 126.075 875.275 125.025 873.2 125.025Z" fill="#081131"/>
<path d="M781.356 125.402V118.878H782.728V125.318C782.728 126.942 783.624 127.838 785.234 127.838C786.83 127.838 787.712 126.928 787.712 125.318V118.878H789.098V125.402C789.098 127.726 787.614 129.168 785.234 129.168C782.84 129.168 781.356 127.74 781.356 125.402ZM790.54 127.012H791.8C791.8 127.712 792.332 128.132 793.2 128.132C794.124 128.132 794.656 127.754 794.656 127.124C794.656 126.662 794.432 126.382 793.718 126.2L792.514 125.92C791.296 125.626 790.722 125.024 790.722 124.016C790.722 122.756 791.786 121.958 793.298 121.958C794.796 121.958 795.776 122.798 795.804 124.1H794.544C794.516 123.414 794.054 122.98 793.256 122.98C792.43 122.98 791.968 123.344 791.968 123.974C791.968 124.436 792.304 124.744 792.976 124.912L794.18 125.206C795.342 125.486 795.916 126.018 795.916 127.04C795.916 128.342 794.796 129.168 793.172 129.168C791.562 129.168 790.54 128.314 790.54 127.012ZM800.33 129.168C798.314 129.168 796.928 127.712 796.928 125.584C796.928 123.442 798.286 121.958 800.274 121.958C802.22 121.958 803.494 123.302 803.494 125.332V125.822L798.202 125.836C798.3 127.278 799.056 128.076 800.358 128.076C801.38 128.076 802.052 127.656 802.276 126.872H803.508C803.172 128.342 802.024 129.168 800.33 129.168ZM800.274 123.064C799.126 123.064 798.398 123.75 798.23 124.954H802.178C802.178 123.82 801.436 123.064 800.274 123.064ZM808.884 122.098V123.302H808.296C807.05 123.302 806.28 124.058 806.28 125.374V129H804.964V122.168H806.196L806.28 123.204C806.56 122.49 807.246 122.014 808.184 122.014C808.422 122.014 808.618 122.042 808.884 122.098Z" fill="#081131"/>
<path opacity="0.4" d="M753.75 142.5C764.105 142.5 772.5 134.105 772.5 123.75C772.5 113.395 764.105 105 753.75 105C743.395 105 735 113.395 735 123.75C735 134.105 743.395 142.5 753.75 142.5Z" fill="#B5FF7A"/>
<path d="M753.75 114.244C749.869 114.244 746.719 117.394 746.719 121.275C746.719 125.082 749.7 128.175 753.656 128.288C753.712 128.288 753.787 128.288 753.825 128.288C753.862 128.288 753.919 128.288 753.956 128.288C753.975 128.288 753.994 128.288 753.994 128.288C757.781 128.157 760.762 125.082 760.781 121.275C760.781 117.394 757.631 114.244 753.75 114.244Z" fill="#7EDF1D"/>
<path d="M766.464 137.532C763.127 140.607 758.664 142.5 753.752 142.5C748.839 142.5 744.377 140.607 741.039 137.532C741.489 135.825 742.708 134.269 744.489 133.069C749.608 129.657 757.933 129.657 763.014 133.069C764.814 134.269 766.014 135.825 766.464 137.532Z" fill="#7EDF1D"/>
<path d="M779.5 84.5V29H440V84.5" stroke="#FFBB3F" stroke-dasharray="2 2"/>
<path d="M842 164V221H107V164" stroke="#FFBB3F" stroke-dasharray="2 2"/>
<defs>
<filter id="filter0_d_1953_32588" x="0.796875" y="75.7998" width="235.406" height="109.4" filterUnits="userSpaceOnUse" color-interpolation-filters="sRGB">
<feFlood flood-opacity="0" result="BackgroundImageFix"/>
<feColorMatrix in="SourceAlpha" type="matrix" values="0 0 0 0 0 0 0 0 0 0 0 0 0 0 0 0 0 0 127 0" result="hardAlpha"/>
<feOffset dy="7"/>
<feGaussianBlur stdDeviation="8"/>
<feComposite in2="hardAlpha" operator="out"/>
<feColorMatrix type="matrix" values="0 0 0 0 0.645833 0 0 0 0 0.645833 0 0 0 0 0.645833 0 0 0 0.25 0"/>
<feBlend mode="normal" in2="BackgroundImageFix" result="effect1_dropShadow_1953_32588"/>
<feBlend mode="normal" in="SourceGraphic" in2="effect1_dropShadow_1953_32588" result="shape"/>
</filter>
<filter id="filter1_d_1953_32588" x="343.797" y="75.7998" width="235.406" height="109.4" filterUnits="userSpaceOnUse" color-interpolation-filters="sRGB">
<feFlood flood-opacity="0" result="BackgroundImageFix"/>
<feColorMatrix in="SourceAlpha" type="matrix" values="0 0 0 0 0 0 0 0 0 0 0 0 0 0 0 0 0 0 127 0" result="hardAlpha"/>
<feOffset dy="7"/>
<feGaussianBlur stdDeviation="8"/>
<feComposite in2="hardAlpha" operator="out"/>
<feColorMatrix type="matrix" values="0 0 0 0 0.645833 0 0 0 0 0.645833 0 0 0 0 0.645833 0 0 0 0.25 0"/>
<feBlend mode="normal" in2="BackgroundImageFix" result="effect1_dropShadow_1953_32588"/>
<feBlend mode="normal" in="SourceGraphic" in2="effect1_dropShadow_1953_32588" result="shape"/>
</filter>
<filter id="filter2_d_1953_32588" x="702.797" y="75.7998" width="235.406" height="109.4" filterUnits="userSpaceOnUse" color-interpolation-filters="sRGB">
<feFlood flood-opacity="0" result="BackgroundImageFix"/>
<feColorMatrix in="SourceAlpha" type="matrix" values="0 0 0 0 0 0 0 0 0 0 0 0 0 0 0 0 0 0 127 0" result="hardAlpha"/>
<feOffset dy="7"/>
<feGaussianBlur stdDeviation="8"/>
<feComposite in2="hardAlpha" operator="out"/>
<feColorMatrix type="matrix" values="0 0 0 0 0.645833 0 0 0 0 0.645833 0 0 0 0 0.645833 0 0 0 0.25 0"/>
<feBlend mode="normal" in2="BackgroundImageFix" result="effect1_dropShadow_1953_32588"/>
<feBlend mode="normal" in="SourceGraphic" in2="effect1_dropShadow_1953_32588" result="shape"/>
</filter>
</defs>
</svg>
