<svg width="1115" height="283" viewBox="0 0 1115 283" fill="none" xmlns="http://www.w3.org/2000/svg">
<path d="M711.592 12.264V21H710.416V12.264H707.308V11.228H714.7V12.264H711.592ZM715.573 21V13.776H716.693V15.106H716.763C716.893 14.7607 717.127 14.4527 717.463 14.182C717.799 13.9113 718.261 13.776 718.849 13.776H719.283V14.896H718.625C718.018 14.896 717.542 15.0127 717.197 15.246C716.861 15.47 716.693 15.7547 716.693 16.1V21H715.573ZM725.909 21C725.489 21 725.185 20.888 724.999 20.664C724.821 20.44 724.709 20.16 724.663 19.824H724.593C724.434 20.272 724.173 20.608 723.809 20.832C723.445 21.056 723.011 21.168 722.507 21.168C721.741 21.168 721.144 20.972 720.715 20.58C720.295 20.188 720.085 19.656 720.085 18.984C720.085 18.3027 720.332 17.78 720.827 17.416C721.331 17.052 722.11 16.87 723.165 16.87H724.593V16.156C724.593 15.6427 724.453 15.2507 724.173 14.98C723.893 14.7093 723.463 14.574 722.885 14.574C722.446 14.574 722.077 14.672 721.779 14.868C721.489 15.064 721.247 15.3253 721.051 15.652L720.379 15.022C720.575 14.63 720.887 14.2987 721.317 14.028C721.746 13.748 722.287 13.608 722.941 13.608C723.818 13.608 724.499 13.8227 724.985 14.252C725.47 14.6813 725.713 15.2787 725.713 16.044V20.02H726.539V21H725.909ZM722.689 20.216C722.969 20.216 723.225 20.1833 723.459 20.118C723.692 20.0527 723.893 19.9593 724.061 19.838C724.229 19.7167 724.359 19.5767 724.453 19.418C724.546 19.2593 724.593 19.0867 724.593 18.9V17.71H723.109C722.465 17.71 721.993 17.8033 721.695 17.99C721.405 18.1767 721.261 18.4473 721.261 18.802V19.096C721.261 19.4507 721.387 19.726 721.639 19.922C721.9 20.118 722.25 20.216 722.689 20.216ZM732.757 19.824H732.701C732.263 20.72 731.558 21.168 730.587 21.168C730.139 21.168 729.733 21.0793 729.369 20.902C729.005 20.7247 728.693 20.4727 728.431 20.146C728.179 19.8193 727.983 19.4227 727.843 18.956C727.713 18.4893 727.647 17.9667 727.647 17.388C727.647 16.8093 727.713 16.2867 727.843 15.82C727.983 15.3533 728.179 14.9567 728.431 14.63C728.693 14.3033 729.005 14.0513 729.369 13.874C729.733 13.6967 730.139 13.608 730.587 13.608C731.091 13.608 731.521 13.72 731.875 13.944C732.239 14.1587 732.515 14.4947 732.701 14.952H732.757V10.64H733.877V21H732.757V19.824ZM730.895 20.16C731.147 20.16 731.385 20.1273 731.609 20.062C731.843 19.9967 732.043 19.9033 732.211 19.782C732.379 19.6513 732.51 19.4973 732.603 19.32C732.706 19.1333 732.757 18.9233 732.757 18.69V16.002C732.757 15.806 732.706 15.624 732.603 15.456C732.51 15.2787 732.379 15.1293 732.211 15.008C732.043 14.8867 731.843 14.7933 731.609 14.728C731.385 14.6533 731.147 14.616 730.895 14.616C730.261 14.616 729.761 14.8167 729.397 15.218C729.033 15.61 728.851 16.128 728.851 16.772V18.004C728.851 18.648 729.033 19.1707 729.397 19.572C729.761 19.964 730.261 20.16 730.895 20.16ZM738.974 21.168C738.48 21.168 738.032 21.0793 737.63 20.902C737.238 20.7247 736.898 20.4727 736.608 20.146C736.328 19.81 736.109 19.4133 735.95 18.956C735.801 18.4893 735.726 17.9667 735.726 17.388C735.726 16.8187 735.801 16.3007 735.95 15.834C736.109 15.3673 736.328 14.9707 736.608 14.644C736.898 14.308 737.238 14.0513 737.63 13.874C738.032 13.6967 738.48 13.608 738.974 13.608C739.46 13.608 739.894 13.6967 740.276 13.874C740.659 14.0513 740.986 14.2987 741.256 14.616C741.527 14.924 741.732 15.2927 741.872 15.722C742.022 16.1513 742.096 16.6227 742.096 17.136V17.668H736.902V18.004C736.902 18.312 736.949 18.6013 737.042 18.872C737.145 19.1333 737.285 19.362 737.462 19.558C737.649 19.754 737.873 19.908 738.134 20.02C738.405 20.132 738.708 20.188 739.044 20.188C739.502 20.188 739.898 20.0807 740.234 19.866C740.58 19.6513 740.846 19.3433 741.032 18.942L741.83 19.516C741.597 20.0107 741.233 20.412 740.738 20.72C740.244 21.0187 739.656 21.168 738.974 21.168ZM738.974 14.546C738.666 14.546 738.386 14.602 738.134 14.714C737.882 14.8167 737.663 14.966 737.476 15.162C737.299 15.358 737.159 15.5913 737.056 15.862C736.954 16.1233 736.902 16.4127 736.902 16.73V16.828H740.892V16.674C740.892 16.03 740.715 15.5167 740.36 15.134C740.015 14.742 739.553 14.546 738.974 14.546ZM747.363 21V11.228H753.187V12.264H748.539V15.54H752.781V16.576H748.539V21H747.363ZM757.431 21.168C756.937 21.168 756.489 21.0793 756.087 20.902C755.695 20.7247 755.355 20.4727 755.065 20.146C754.785 19.81 754.566 19.4133 754.407 18.956C754.258 18.4893 754.183 17.9667 754.183 17.388C754.183 16.8187 754.258 16.3007 754.407 15.834C754.566 15.3673 754.785 14.9707 755.065 14.644C755.355 14.308 755.695 14.0513 756.087 13.874C756.489 13.6967 756.937 13.608 757.431 13.608C757.917 13.608 758.351 13.6967 758.733 13.874C759.116 14.0513 759.443 14.2987 759.713 14.616C759.984 14.924 760.189 15.2927 760.329 15.722C760.479 16.1513 760.553 16.6227 760.553 17.136V17.668H755.359V18.004C755.359 18.312 755.406 18.6013 755.499 18.872C755.602 19.1333 755.742 19.362 755.919 19.558C756.106 19.754 756.33 19.908 756.591 20.02C756.862 20.132 757.165 20.188 757.501 20.188C757.959 20.188 758.355 20.0807 758.691 19.866C759.037 19.6513 759.303 19.3433 759.489 18.942L760.287 19.516C760.054 20.0107 759.69 20.412 759.195 20.72C758.701 21.0187 758.113 21.168 757.431 21.168ZM757.431 14.546C757.123 14.546 756.843 14.602 756.591 14.714C756.339 14.8167 756.12 14.966 755.933 15.162C755.756 15.358 755.616 15.5913 755.513 15.862C755.411 16.1233 755.359 16.4127 755.359 16.73V16.828H759.349V16.674C759.349 16.03 759.172 15.5167 758.817 15.134C758.472 14.742 758.01 14.546 757.431 14.546ZM765.115 21.168C764.62 21.168 764.172 21.0793 763.771 20.902C763.379 20.7247 763.038 20.4727 762.749 20.146C762.469 19.81 762.25 19.4133 762.091 18.956C761.942 18.4893 761.867 17.9667 761.867 17.388C761.867 16.8187 761.942 16.3007 762.091 15.834C762.25 15.3673 762.469 14.9707 762.749 14.644C763.038 14.308 763.379 14.0513 763.771 13.874C764.172 13.6967 764.62 13.608 765.115 13.608C765.6 13.608 766.034 13.6967 766.417 13.874C766.8 14.0513 767.126 14.2987 767.397 14.616C767.668 14.924 767.873 15.2927 768.013 15.722C768.162 16.1513 768.237 16.6227 768.237 17.136V17.668H763.043V18.004C763.043 18.312 763.09 18.6013 763.183 18.872C763.286 19.1333 763.426 19.362 763.603 19.558C763.79 19.754 764.014 19.908 764.275 20.02C764.546 20.132 764.849 20.188 765.185 20.188C765.642 20.188 766.039 20.0807 766.375 19.866C766.72 19.6513 766.986 19.3433 767.173 18.942L767.971 19.516C767.738 20.0107 767.374 20.412 766.879 20.72C766.384 21.0187 765.796 21.168 765.115 21.168ZM765.115 14.546C764.807 14.546 764.527 14.602 764.275 14.714C764.023 14.8167 763.804 14.966 763.617 15.162C763.44 15.358 763.3 15.5913 763.197 15.862C763.094 16.1233 763.043 16.4127 763.043 16.73V16.828H767.033V16.674C767.033 16.03 766.856 15.5167 766.501 15.134C766.156 14.742 765.694 14.546 765.115 14.546Z" fill="#081131"/>
<path d="M777.441 12.78C778.308 12.78 778.948 12.6 779.361 12.24C779.775 11.8667 779.981 11.3933 779.981 10.82V10.68C779.981 10.04 779.781 9.55333 779.381 9.22C778.981 8.87333 778.441 8.7 777.761 8.7C777.095 8.7 776.528 8.85333 776.061 9.16C775.595 9.45333 775.201 9.86667 774.881 10.4L773.381 9.1C773.595 8.79333 773.835 8.5 774.101 8.22C774.368 7.94 774.681 7.7 775.041 7.5C775.401 7.28667 775.808 7.12 776.261 7C776.715 6.86667 777.235 6.8 777.821 6.8C778.475 6.8 779.081 6.88 779.641 7.04C780.201 7.2 780.681 7.44 781.081 7.76C781.481 8.06667 781.795 8.44667 782.021 8.9C782.248 9.34 782.361 9.84 782.361 10.4C782.361 10.84 782.288 11.24 782.141 11.6C782.008 11.96 781.815 12.28 781.561 12.56C781.321 12.8267 781.035 13.0467 780.701 13.22C780.381 13.3933 780.041 13.52 779.681 13.6V13.7C780.081 13.78 780.455 13.9133 780.801 14.1C781.161 14.2733 781.475 14.5067 781.741 14.8C782.008 15.08 782.215 15.42 782.361 15.82C782.521 16.2067 782.601 16.6533 782.601 17.16C782.601 17.7733 782.481 18.3333 782.241 18.84C782.001 19.3333 781.661 19.76 781.221 20.12C780.795 20.48 780.275 20.76 779.661 20.96C779.048 21.1467 778.368 21.24 777.621 21.24C776.968 21.24 776.395 21.1667 775.901 21.02C775.408 20.8867 774.968 20.7067 774.581 20.48C774.208 20.24 773.875 19.9733 773.581 19.68C773.301 19.3733 773.055 19.06 772.841 18.74L774.501 17.44C774.675 17.72 774.855 17.98 775.041 18.22C775.241 18.4467 775.461 18.6467 775.701 18.82C775.955 18.98 776.235 19.1067 776.541 19.2C776.861 19.2933 777.221 19.34 777.621 19.34C778.475 19.34 779.128 19.14 779.581 18.74C780.035 18.3267 780.261 17.76 780.261 17.04V16.9C780.261 16.18 780.021 15.6333 779.541 15.26C779.061 14.8867 778.381 14.7 777.501 14.7H776.021V12.78H777.441ZM794.353 9H788.153L787.793 13.94H787.933C788.093 13.66 788.26 13.4133 788.433 13.2C788.607 12.9733 788.807 12.78 789.033 12.62C789.26 12.46 789.52 12.34 789.813 12.26C790.107 12.1667 790.453 12.12 790.853 12.12C791.453 12.12 792.007 12.22 792.513 12.42C793.033 12.62 793.48 12.9067 793.853 13.28C794.24 13.6533 794.54 14.1133 794.753 14.66C794.967 15.1933 795.073 15.8 795.073 16.48C795.073 17.1733 794.96 17.8133 794.733 18.4C794.52 18.9867 794.2 19.4933 793.773 19.92C793.347 20.3333 792.82 20.66 792.193 20.9C791.58 21.1267 790.88 21.24 790.093 21.24C789.467 21.24 788.913 21.1667 788.433 21.02C787.953 20.8867 787.527 20.7067 787.153 20.48C786.793 20.24 786.473 19.9733 786.193 19.68C785.927 19.3733 785.687 19.06 785.473 18.74L787.113 17.44C787.287 17.72 787.467 17.9733 787.653 18.2C787.84 18.4267 788.053 18.6267 788.293 18.8C788.533 18.9733 788.8 19.1067 789.093 19.2C789.4 19.2933 789.747 19.34 790.133 19.34C790.96 19.34 791.593 19.1133 792.033 18.66C792.487 18.2067 792.713 17.58 792.713 16.78V16.54C792.713 15.74 792.487 15.1133 792.033 14.66C791.593 14.2067 790.96 13.98 790.133 13.98C789.533 13.98 789.053 14.0933 788.693 14.32C788.333 14.5467 788.027 14.8 787.773 15.08L785.913 14.82L786.433 7.04H794.353V9ZM799.806 21L809.486 7.04H811.506L801.826 21H799.806ZM800.706 14.72C799.626 14.72 798.799 14.3867 798.226 13.72C797.652 13.04 797.366 12.0533 797.366 10.76C797.366 9.46667 797.652 8.48667 798.226 7.82C798.799 7.14 799.626 6.8 800.706 6.8C801.786 6.8 802.612 7.14 803.186 7.82C803.759 8.48667 804.046 9.46667 804.046 10.76C804.046 12.0533 803.759 13.04 803.186 13.72C802.612 14.3867 801.786 14.72 800.706 14.72ZM800.706 13.38C801.652 13.38 802.126 12.6933 802.126 11.32V10.2C802.126 8.82667 801.652 8.14 800.706 8.14C799.759 8.14 799.286 8.82667 799.286 10.2V11.32C799.286 12.6933 799.759 13.38 800.706 13.38ZM810.606 21.24C809.526 21.24 808.699 20.9067 808.126 20.24C807.552 19.56 807.266 18.5733 807.266 17.28C807.266 15.9867 807.552 15.0067 808.126 14.34C808.699 13.66 809.526 13.32 810.606 13.32C811.686 13.32 812.512 13.66 813.086 14.34C813.659 15.0067 813.946 15.9867 813.946 17.28C813.946 18.5733 813.659 19.56 813.086 20.24C812.512 20.9067 811.686 21.24 810.606 21.24ZM810.606 19.9C811.552 19.9 812.026 19.2133 812.026 17.84V16.72C812.026 15.3467 811.552 14.66 810.606 14.66C809.659 14.66 809.186 15.3467 809.186 16.72V17.84C809.186 19.2133 809.659 19.9 810.606 19.9Z" fill="#FFA500"/>
<path d="M274.592 12.264V21H273.416V12.264H270.308V11.228H277.7V12.264H274.592ZM278.573 21V13.776H279.693V15.106H279.763C279.893 14.7607 280.127 14.4527 280.463 14.182C280.799 13.9113 281.261 13.776 281.849 13.776H282.283V14.896H281.625C281.018 14.896 280.542 15.0127 280.197 15.246C279.861 15.47 279.693 15.7547 279.693 16.1V21H278.573ZM288.909 21C288.489 21 288.185 20.888 287.999 20.664C287.821 20.44 287.709 20.16 287.663 19.824H287.593C287.434 20.272 287.173 20.608 286.809 20.832C286.445 21.056 286.011 21.168 285.507 21.168C284.741 21.168 284.144 20.972 283.715 20.58C283.295 20.188 283.085 19.656 283.085 18.984C283.085 18.3027 283.332 17.78 283.827 17.416C284.331 17.052 285.11 16.87 286.165 16.87H287.593V16.156C287.593 15.6427 287.453 15.2507 287.173 14.98C286.893 14.7093 286.463 14.574 285.885 14.574C285.446 14.574 285.077 14.672 284.779 14.868C284.489 15.064 284.247 15.3253 284.051 15.652L283.379 15.022C283.575 14.63 283.887 14.2987 284.317 14.028C284.746 13.748 285.287 13.608 285.941 13.608C286.818 13.608 287.499 13.8227 287.985 14.252C288.47 14.6813 288.713 15.2787 288.713 16.044V20.02H289.539V21H288.909ZM285.689 20.216C285.969 20.216 286.225 20.1833 286.459 20.118C286.692 20.0527 286.893 19.9593 287.061 19.838C287.229 19.7167 287.359 19.5767 287.453 19.418C287.546 19.2593 287.593 19.0867 287.593 18.9V17.71H286.109C285.465 17.71 284.993 17.8033 284.695 17.99C284.405 18.1767 284.261 18.4473 284.261 18.802V19.096C284.261 19.4507 284.387 19.726 284.639 19.922C284.9 20.118 285.25 20.216 285.689 20.216ZM295.757 19.824H295.701C295.263 20.72 294.558 21.168 293.587 21.168C293.139 21.168 292.733 21.0793 292.369 20.902C292.005 20.7247 291.693 20.4727 291.431 20.146C291.179 19.8193 290.983 19.4227 290.843 18.956C290.713 18.4893 290.647 17.9667 290.647 17.388C290.647 16.8093 290.713 16.2867 290.843 15.82C290.983 15.3533 291.179 14.9567 291.431 14.63C291.693 14.3033 292.005 14.0513 292.369 13.874C292.733 13.6967 293.139 13.608 293.587 13.608C294.091 13.608 294.521 13.72 294.875 13.944C295.239 14.1587 295.515 14.4947 295.701 14.952H295.757V10.64H296.877V21H295.757V19.824ZM293.895 20.16C294.147 20.16 294.385 20.1273 294.609 20.062C294.843 19.9967 295.043 19.9033 295.211 19.782C295.379 19.6513 295.51 19.4973 295.603 19.32C295.706 19.1333 295.757 18.9233 295.757 18.69V16.002C295.757 15.806 295.706 15.624 295.603 15.456C295.51 15.2787 295.379 15.1293 295.211 15.008C295.043 14.8867 294.843 14.7933 294.609 14.728C294.385 14.6533 294.147 14.616 293.895 14.616C293.261 14.616 292.761 14.8167 292.397 15.218C292.033 15.61 291.851 16.128 291.851 16.772V18.004C291.851 18.648 292.033 19.1707 292.397 19.572C292.761 19.964 293.261 20.16 293.895 20.16ZM301.974 21.168C301.48 21.168 301.032 21.0793 300.63 20.902C300.238 20.7247 299.898 20.4727 299.608 20.146C299.328 19.81 299.109 19.4133 298.95 18.956C298.801 18.4893 298.726 17.9667 298.726 17.388C298.726 16.8187 298.801 16.3007 298.95 15.834C299.109 15.3673 299.328 14.9707 299.608 14.644C299.898 14.308 300.238 14.0513 300.63 13.874C301.032 13.6967 301.48 13.608 301.974 13.608C302.46 13.608 302.894 13.6967 303.276 13.874C303.659 14.0513 303.986 14.2987 304.256 14.616C304.527 14.924 304.732 15.2927 304.872 15.722C305.022 16.1513 305.096 16.6227 305.096 17.136V17.668H299.902V18.004C299.902 18.312 299.949 18.6013 300.042 18.872C300.145 19.1333 300.285 19.362 300.462 19.558C300.649 19.754 300.873 19.908 301.134 20.02C301.405 20.132 301.708 20.188 302.044 20.188C302.502 20.188 302.898 20.0807 303.234 19.866C303.58 19.6513 303.846 19.3433 304.032 18.942L304.83 19.516C304.597 20.0107 304.233 20.412 303.738 20.72C303.244 21.0187 302.656 21.168 301.974 21.168ZM301.974 14.546C301.666 14.546 301.386 14.602 301.134 14.714C300.882 14.8167 300.663 14.966 300.476 15.162C300.299 15.358 300.159 15.5913 300.056 15.862C299.954 16.1233 299.902 16.4127 299.902 16.73V16.828H303.892V16.674C303.892 16.03 303.715 15.5167 303.36 15.134C303.015 14.742 302.553 14.546 301.974 14.546ZM310.363 21V11.228H316.187V12.264H311.539V15.54H315.781V16.576H311.539V21H310.363ZM320.431 21.168C319.937 21.168 319.489 21.0793 319.087 20.902C318.695 20.7247 318.355 20.4727 318.065 20.146C317.785 19.81 317.566 19.4133 317.407 18.956C317.258 18.4893 317.183 17.9667 317.183 17.388C317.183 16.8187 317.258 16.3007 317.407 15.834C317.566 15.3673 317.785 14.9707 318.065 14.644C318.355 14.308 318.695 14.0513 319.087 13.874C319.489 13.6967 319.937 13.608 320.431 13.608C320.917 13.608 321.351 13.6967 321.733 13.874C322.116 14.0513 322.443 14.2987 322.713 14.616C322.984 14.924 323.189 15.2927 323.329 15.722C323.479 16.1513 323.553 16.6227 323.553 17.136V17.668H318.359V18.004C318.359 18.312 318.406 18.6013 318.499 18.872C318.602 19.1333 318.742 19.362 318.919 19.558C319.106 19.754 319.33 19.908 319.591 20.02C319.862 20.132 320.165 20.188 320.501 20.188C320.959 20.188 321.355 20.0807 321.691 19.866C322.037 19.6513 322.303 19.3433 322.489 18.942L323.287 19.516C323.054 20.0107 322.69 20.412 322.195 20.72C321.701 21.0187 321.113 21.168 320.431 21.168ZM320.431 14.546C320.123 14.546 319.843 14.602 319.591 14.714C319.339 14.8167 319.12 14.966 318.933 15.162C318.756 15.358 318.616 15.5913 318.513 15.862C318.411 16.1233 318.359 16.4127 318.359 16.73V16.828H322.349V16.674C322.349 16.03 322.172 15.5167 321.817 15.134C321.472 14.742 321.01 14.546 320.431 14.546ZM328.115 21.168C327.62 21.168 327.172 21.0793 326.771 20.902C326.379 20.7247 326.038 20.4727 325.749 20.146C325.469 19.81 325.25 19.4133 325.091 18.956C324.942 18.4893 324.867 17.9667 324.867 17.388C324.867 16.8187 324.942 16.3007 325.091 15.834C325.25 15.3673 325.469 14.9707 325.749 14.644C326.038 14.308 326.379 14.0513 326.771 13.874C327.172 13.6967 327.62 13.608 328.115 13.608C328.6 13.608 329.034 13.6967 329.417 13.874C329.8 14.0513 330.126 14.2987 330.397 14.616C330.668 14.924 330.873 15.2927 331.013 15.722C331.162 16.1513 331.237 16.6227 331.237 17.136V17.668H326.043V18.004C326.043 18.312 326.09 18.6013 326.183 18.872C326.286 19.1333 326.426 19.362 326.603 19.558C326.79 19.754 327.014 19.908 327.275 20.02C327.546 20.132 327.849 20.188 328.185 20.188C328.642 20.188 329.039 20.0807 329.375 19.866C329.72 19.6513 329.986 19.3433 330.173 18.942L330.971 19.516C330.738 20.0107 330.374 20.412 329.879 20.72C329.384 21.0187 328.796 21.168 328.115 21.168ZM328.115 14.546C327.807 14.546 327.527 14.602 327.275 14.714C327.023 14.8167 326.804 14.966 326.617 15.162C326.44 15.358 326.3 15.5913 326.197 15.862C326.094 16.1233 326.043 16.4127 326.043 16.73V16.828H330.033V16.674C330.033 16.03 329.856 15.5167 329.501 15.134C329.156 14.742 328.694 14.546 328.115 14.546Z" fill="#081131"/>
<path d="M340.441 12.78C341.308 12.78 341.948 12.6 342.361 12.24C342.775 11.8667 342.981 11.3933 342.981 10.82V10.68C342.981 10.04 342.781 9.55333 342.381 9.22C341.981 8.87333 341.441 8.7 340.761 8.7C340.095 8.7 339.528 8.85333 339.061 9.16C338.595 9.45333 338.201 9.86667 337.881 10.4L336.381 9.1C336.595 8.79333 336.835 8.5 337.101 8.22C337.368 7.94 337.681 7.7 338.041 7.5C338.401 7.28667 338.808 7.12 339.261 7C339.715 6.86667 340.235 6.8 340.821 6.8C341.475 6.8 342.081 6.88 342.641 7.04C343.201 7.2 343.681 7.44 344.081 7.76C344.481 8.06667 344.795 8.44667 345.021 8.9C345.248 9.34 345.361 9.84 345.361 10.4C345.361 10.84 345.288 11.24 345.141 11.6C345.008 11.96 344.815 12.28 344.561 12.56C344.321 12.8267 344.035 13.0467 343.701 13.22C343.381 13.3933 343.041 13.52 342.681 13.6V13.7C343.081 13.78 343.455 13.9133 343.801 14.1C344.161 14.2733 344.475 14.5067 344.741 14.8C345.008 15.08 345.215 15.42 345.361 15.82C345.521 16.2067 345.601 16.6533 345.601 17.16C345.601 17.7733 345.481 18.3333 345.241 18.84C345.001 19.3333 344.661 19.76 344.221 20.12C343.795 20.48 343.275 20.76 342.661 20.96C342.048 21.1467 341.368 21.24 340.621 21.24C339.968 21.24 339.395 21.1667 338.901 21.02C338.408 20.8867 337.968 20.7067 337.581 20.48C337.208 20.24 336.875 19.9733 336.581 19.68C336.301 19.3733 336.055 19.06 335.841 18.74L337.501 17.44C337.675 17.72 337.855 17.98 338.041 18.22C338.241 18.4467 338.461 18.6467 338.701 18.82C338.955 18.98 339.235 19.1067 339.541 19.2C339.861 19.2933 340.221 19.34 340.621 19.34C341.475 19.34 342.128 19.14 342.581 18.74C343.035 18.3267 343.261 17.76 343.261 17.04V16.9C343.261 16.18 343.021 15.6333 342.541 15.26C342.061 14.8867 341.381 14.7 340.501 14.7H339.021V12.78H340.441ZM357.353 9H351.153L350.793 13.94H350.933C351.093 13.66 351.26 13.4133 351.433 13.2C351.607 12.9733 351.807 12.78 352.033 12.62C352.26 12.46 352.52 12.34 352.813 12.26C353.107 12.1667 353.453 12.12 353.853 12.12C354.453 12.12 355.007 12.22 355.513 12.42C356.033 12.62 356.48 12.9067 356.853 13.28C357.24 13.6533 357.54 14.1133 357.753 14.66C357.967 15.1933 358.073 15.8 358.073 16.48C358.073 17.1733 357.96 17.8133 357.733 18.4C357.52 18.9867 357.2 19.4933 356.773 19.92C356.347 20.3333 355.82 20.66 355.193 20.9C354.58 21.1267 353.88 21.24 353.093 21.24C352.467 21.24 351.913 21.1667 351.433 21.02C350.953 20.8867 350.527 20.7067 350.153 20.48C349.793 20.24 349.473 19.9733 349.193 19.68C348.927 19.3733 348.687 19.06 348.473 18.74L350.113 17.44C350.287 17.72 350.467 17.9733 350.653 18.2C350.84 18.4267 351.053 18.6267 351.293 18.8C351.533 18.9733 351.8 19.1067 352.093 19.2C352.4 19.2933 352.747 19.34 353.133 19.34C353.96 19.34 354.593 19.1133 355.033 18.66C355.487 18.2067 355.713 17.58 355.713 16.78V16.54C355.713 15.74 355.487 15.1133 355.033 14.66C354.593 14.2067 353.96 13.98 353.133 13.98C352.533 13.98 352.053 14.0933 351.693 14.32C351.333 14.5467 351.027 14.8 350.773 15.08L348.913 14.82L349.433 7.04H357.353V9ZM362.806 21L372.486 7.04H374.506L364.826 21H362.806ZM363.706 14.72C362.626 14.72 361.799 14.3867 361.226 13.72C360.652 13.04 360.366 12.0533 360.366 10.76C360.366 9.46667 360.652 8.48667 361.226 7.82C361.799 7.14 362.626 6.8 363.706 6.8C364.786 6.8 365.612 7.14 366.186 7.82C366.759 8.48667 367.046 9.46667 367.046 10.76C367.046 12.0533 366.759 13.04 366.186 13.72C365.612 14.3867 364.786 14.72 363.706 14.72ZM363.706 13.38C364.652 13.38 365.126 12.6933 365.126 11.32V10.2C365.126 8.82667 364.652 8.14 363.706 8.14C362.759 8.14 362.286 8.82667 362.286 10.2V11.32C362.286 12.6933 362.759 13.38 363.706 13.38ZM373.606 21.24C372.526 21.24 371.699 20.9067 371.126 20.24C370.552 19.56 370.266 18.5733 370.266 17.28C370.266 15.9867 370.552 15.0067 371.126 14.34C371.699 13.66 372.526 13.32 373.606 13.32C374.686 13.32 375.512 13.66 376.086 14.34C376.659 15.0067 376.946 15.9867 376.946 17.28C376.946 18.5733 376.659 19.56 376.086 20.24C375.512 20.9067 374.686 21.24 373.606 21.24ZM373.606 19.9C374.552 19.9 375.026 19.2133 375.026 17.84V16.72C375.026 15.3467 374.552 14.66 373.606 14.66C372.659 14.66 372.186 15.3467 372.186 16.72V17.84C372.186 19.2133 372.659 19.9 373.606 19.9Z" fill="#FFA500"/>
<path d="M507.592 269.264V278H506.416V269.264H503.308V268.228H510.7V269.264H507.592ZM511.573 278V270.776H512.693V272.106H512.763C512.893 271.761 513.127 271.453 513.463 271.182C513.799 270.911 514.261 270.776 514.849 270.776H515.283V271.896H514.625C514.018 271.896 513.542 272.013 513.197 272.246C512.861 272.47 512.693 272.755 512.693 273.1V278H511.573ZM521.909 278C521.489 278 521.185 277.888 520.999 277.664C520.821 277.44 520.709 277.16 520.663 276.824H520.593C520.434 277.272 520.173 277.608 519.809 277.832C519.445 278.056 519.011 278.168 518.507 278.168C517.741 278.168 517.144 277.972 516.715 277.58C516.295 277.188 516.085 276.656 516.085 275.984C516.085 275.303 516.332 274.78 516.827 274.416C517.331 274.052 518.11 273.87 519.165 273.87H520.593V273.156C520.593 272.643 520.453 272.251 520.173 271.98C519.893 271.709 519.463 271.574 518.885 271.574C518.446 271.574 518.077 271.672 517.779 271.868C517.489 272.064 517.247 272.325 517.051 272.652L516.379 272.022C516.575 271.63 516.887 271.299 517.317 271.028C517.746 270.748 518.287 270.608 518.941 270.608C519.818 270.608 520.499 270.823 520.985 271.252C521.47 271.681 521.713 272.279 521.713 273.044V277.02H522.539V278H521.909ZM518.689 277.216C518.969 277.216 519.225 277.183 519.459 277.118C519.692 277.053 519.893 276.959 520.061 276.838C520.229 276.717 520.359 276.577 520.453 276.418C520.546 276.259 520.593 276.087 520.593 275.9V274.71H519.109C518.465 274.71 517.993 274.803 517.695 274.99C517.405 275.177 517.261 275.447 517.261 275.802V276.096C517.261 276.451 517.387 276.726 517.639 276.922C517.9 277.118 518.25 277.216 518.689 277.216ZM528.757 276.824H528.701C528.263 277.72 527.558 278.168 526.587 278.168C526.139 278.168 525.733 278.079 525.369 277.902C525.005 277.725 524.693 277.473 524.431 277.146C524.179 276.819 523.983 276.423 523.843 275.956C523.713 275.489 523.647 274.967 523.647 274.388C523.647 273.809 523.713 273.287 523.843 272.82C523.983 272.353 524.179 271.957 524.431 271.63C524.693 271.303 525.005 271.051 525.369 270.874C525.733 270.697 526.139 270.608 526.587 270.608C527.091 270.608 527.521 270.72 527.875 270.944C528.239 271.159 528.515 271.495 528.701 271.952H528.757V267.64H529.877V278H528.757V276.824ZM526.895 277.16C527.147 277.16 527.385 277.127 527.609 277.062C527.843 276.997 528.043 276.903 528.211 276.782C528.379 276.651 528.51 276.497 528.603 276.32C528.706 276.133 528.757 275.923 528.757 275.69V273.002C528.757 272.806 528.706 272.624 528.603 272.456C528.51 272.279 528.379 272.129 528.211 272.008C528.043 271.887 527.843 271.793 527.609 271.728C527.385 271.653 527.147 271.616 526.895 271.616C526.261 271.616 525.761 271.817 525.397 272.218C525.033 272.61 524.851 273.128 524.851 273.772V275.004C524.851 275.648 525.033 276.171 525.397 276.572C525.761 276.964 526.261 277.16 526.895 277.16ZM534.974 278.168C534.48 278.168 534.032 278.079 533.63 277.902C533.238 277.725 532.898 277.473 532.608 277.146C532.328 276.81 532.109 276.413 531.95 275.956C531.801 275.489 531.726 274.967 531.726 274.388C531.726 273.819 531.801 273.301 531.95 272.834C532.109 272.367 532.328 271.971 532.608 271.644C532.898 271.308 533.238 271.051 533.63 270.874C534.032 270.697 534.48 270.608 534.974 270.608C535.46 270.608 535.894 270.697 536.276 270.874C536.659 271.051 536.986 271.299 537.256 271.616C537.527 271.924 537.732 272.293 537.872 272.722C538.022 273.151 538.096 273.623 538.096 274.136V274.668H532.902V275.004C532.902 275.312 532.949 275.601 533.042 275.872C533.145 276.133 533.285 276.362 533.462 276.558C533.649 276.754 533.873 276.908 534.134 277.02C534.405 277.132 534.708 277.188 535.044 277.188C535.502 277.188 535.898 277.081 536.234 276.866C536.58 276.651 536.846 276.343 537.032 275.942L537.83 276.516C537.597 277.011 537.233 277.412 536.738 277.72C536.244 278.019 535.656 278.168 534.974 278.168ZM534.974 271.546C534.666 271.546 534.386 271.602 534.134 271.714C533.882 271.817 533.663 271.966 533.476 272.162C533.299 272.358 533.159 272.591 533.056 272.862C532.954 273.123 532.902 273.413 532.902 273.73V273.828H536.892V273.674C536.892 273.03 536.715 272.517 536.36 272.134C536.015 271.742 535.553 271.546 534.974 271.546ZM543.363 278V268.228H549.187V269.264H544.539V272.54H548.781V273.576H544.539V278H543.363ZM553.431 278.168C552.937 278.168 552.489 278.079 552.087 277.902C551.695 277.725 551.355 277.473 551.065 277.146C550.785 276.81 550.566 276.413 550.407 275.956C550.258 275.489 550.183 274.967 550.183 274.388C550.183 273.819 550.258 273.301 550.407 272.834C550.566 272.367 550.785 271.971 551.065 271.644C551.355 271.308 551.695 271.051 552.087 270.874C552.489 270.697 552.937 270.608 553.431 270.608C553.917 270.608 554.351 270.697 554.733 270.874C555.116 271.051 555.443 271.299 555.713 271.616C555.984 271.924 556.189 272.293 556.329 272.722C556.479 273.151 556.553 273.623 556.553 274.136V274.668H551.359V275.004C551.359 275.312 551.406 275.601 551.499 275.872C551.602 276.133 551.742 276.362 551.919 276.558C552.106 276.754 552.33 276.908 552.591 277.02C552.862 277.132 553.165 277.188 553.501 277.188C553.959 277.188 554.355 277.081 554.691 276.866C555.037 276.651 555.303 276.343 555.489 275.942L556.287 276.516C556.054 277.011 555.69 277.412 555.195 277.72C554.701 278.019 554.113 278.168 553.431 278.168ZM553.431 271.546C553.123 271.546 552.843 271.602 552.591 271.714C552.339 271.817 552.12 271.966 551.933 272.162C551.756 272.358 551.616 272.591 551.513 272.862C551.411 273.123 551.359 273.413 551.359 273.73V273.828H555.349V273.674C555.349 273.03 555.172 272.517 554.817 272.134C554.472 271.742 554.01 271.546 553.431 271.546ZM561.115 278.168C560.62 278.168 560.172 278.079 559.771 277.902C559.379 277.725 559.038 277.473 558.749 277.146C558.469 276.81 558.25 276.413 558.091 275.956C557.942 275.489 557.867 274.967 557.867 274.388C557.867 273.819 557.942 273.301 558.091 272.834C558.25 272.367 558.469 271.971 558.749 271.644C559.038 271.308 559.379 271.051 559.771 270.874C560.172 270.697 560.62 270.608 561.115 270.608C561.6 270.608 562.034 270.697 562.417 270.874C562.8 271.051 563.126 271.299 563.397 271.616C563.668 271.924 563.873 272.293 564.013 272.722C564.162 273.151 564.237 273.623 564.237 274.136V274.668H559.043V275.004C559.043 275.312 559.09 275.601 559.183 275.872C559.286 276.133 559.426 276.362 559.603 276.558C559.79 276.754 560.014 276.908 560.275 277.02C560.546 277.132 560.849 277.188 561.185 277.188C561.642 277.188 562.039 277.081 562.375 276.866C562.72 276.651 562.986 276.343 563.173 275.942L563.971 276.516C563.738 277.011 563.374 277.412 562.879 277.72C562.384 278.019 561.796 278.168 561.115 278.168ZM561.115 271.546C560.807 271.546 560.527 271.602 560.275 271.714C560.023 271.817 559.804 271.966 559.617 272.162C559.44 272.358 559.3 272.591 559.197 272.862C559.094 273.123 559.043 273.413 559.043 273.73V273.828H563.033V273.674C563.033 273.03 562.856 272.517 562.501 272.134C562.156 271.742 561.694 271.546 561.115 271.546Z" fill="#081131"/>
<path d="M569.961 278V276.12H573.881V265.68H573.721L570.481 269.14L569.101 267.9L572.661 264.04H576.101V276.12H579.501V278H569.961ZM590.353 266H584.153L583.793 270.94H583.933C584.093 270.66 584.26 270.413 584.433 270.2C584.607 269.973 584.807 269.78 585.033 269.62C585.26 269.46 585.52 269.34 585.813 269.26C586.107 269.167 586.453 269.12 586.853 269.12C587.453 269.12 588.007 269.22 588.513 269.42C589.033 269.62 589.48 269.907 589.853 270.28C590.24 270.653 590.54 271.113 590.753 271.66C590.967 272.193 591.073 272.8 591.073 273.48C591.073 274.173 590.96 274.813 590.733 275.4C590.52 275.987 590.2 276.493 589.773 276.92C589.347 277.333 588.82 277.66 588.193 277.9C587.58 278.127 586.88 278.24 586.093 278.24C585.467 278.24 584.913 278.167 584.433 278.02C583.953 277.887 583.527 277.707 583.153 277.48C582.793 277.24 582.473 276.973 582.193 276.68C581.927 276.373 581.687 276.06 581.473 275.74L583.113 274.44C583.287 274.72 583.467 274.973 583.653 275.2C583.84 275.427 584.053 275.627 584.293 275.8C584.533 275.973 584.8 276.107 585.093 276.2C585.4 276.293 585.747 276.34 586.133 276.34C586.96 276.34 587.593 276.113 588.033 275.66C588.487 275.207 588.713 274.58 588.713 273.78V273.54C588.713 272.74 588.487 272.113 588.033 271.66C587.593 271.207 586.96 270.98 586.133 270.98C585.533 270.98 585.053 271.093 584.693 271.32C584.333 271.547 584.027 271.8 583.773 272.08L581.913 271.82L582.433 264.04H590.353V266ZM595.806 278L605.486 264.04H607.506L597.826 278H595.806ZM596.706 271.72C595.626 271.72 594.799 271.387 594.226 270.72C593.652 270.04 593.366 269.053 593.366 267.76C593.366 266.467 593.652 265.487 594.226 264.82C594.799 264.14 595.626 263.8 596.706 263.8C597.786 263.8 598.612 264.14 599.186 264.82C599.759 265.487 600.046 266.467 600.046 267.76C600.046 269.053 599.759 270.04 599.186 270.72C598.612 271.387 597.786 271.72 596.706 271.72ZM596.706 270.38C597.652 270.38 598.126 269.693 598.126 268.32V267.2C598.126 265.827 597.652 265.14 596.706 265.14C595.759 265.14 595.286 265.827 595.286 267.2V268.32C595.286 269.693 595.759 270.38 596.706 270.38ZM606.606 278.24C605.526 278.24 604.699 277.907 604.126 277.24C603.552 276.56 603.266 275.573 603.266 274.28C603.266 272.987 603.552 272.007 604.126 271.34C604.699 270.66 605.526 270.32 606.606 270.32C607.686 270.32 608.512 270.66 609.086 271.34C609.659 272.007 609.946 272.987 609.946 274.28C609.946 275.573 609.659 276.56 609.086 277.24C608.512 277.907 607.686 278.24 606.606 278.24ZM606.606 276.9C607.552 276.9 608.026 276.213 608.026 274.84V273.72C608.026 272.347 607.552 271.66 606.606 271.66C605.659 271.66 605.186 272.347 605.186 273.72V274.84C605.186 276.213 605.659 276.9 606.606 276.9Z" fill="#FFA500"/>
<path d="M975 97V41H547V80.5" stroke="#081131" stroke-dasharray="2 2"/>
<path d="M494.5 96.5V41H155V82" stroke="#081131" stroke-dasharray="2 2"/>
<path d="M547 89L541.804 80L552.196 80L547 89Z" fill="#081131"/>
<path d="M155 89L149.804 80L160.196 80L155 89Z" fill="#081131"/>
<path d="M397 146L392 148.887V143.113L397 146ZM261 145.5H392.5V146.5H261V145.5Z" fill="url(#paint0_linear_2592_10295)"/>
<path d="M337.72 137V136.16H338.896V129.464H337.72V128.624H341.08V129.464H339.904V136.16H341.08V137H337.72ZM342.825 137V130.808H343.785V131.816H343.833C343.985 131.464 344.197 131.184 344.469 130.976C344.749 130.768 345.121 130.664 345.585 130.664C346.225 130.664 346.729 130.872 347.097 131.288C347.473 131.696 347.661 132.276 347.661 133.028V137H346.701V133.196C346.701 132.084 346.233 131.528 345.297 131.528C345.105 131.528 344.917 131.552 344.733 131.6C344.557 131.648 344.397 131.72 344.253 131.816C344.109 131.912 343.993 132.036 343.905 132.188C343.825 132.332 343.785 132.504 343.785 132.704V137H342.825ZM350.919 137L348.747 130.808H349.707L350.787 133.88L351.459 135.992H351.519L352.191 133.88L353.295 130.808H354.219L352.035 137H350.919ZM355.938 129.356C355.73 129.356 355.578 129.308 355.482 129.212C355.394 129.108 355.35 128.976 355.35 128.816V128.66C355.35 128.5 355.394 128.372 355.482 128.276C355.578 128.172 355.73 128.12 355.938 128.12C356.146 128.12 356.294 128.172 356.382 128.276C356.478 128.372 356.526 128.5 356.526 128.66V128.816C356.526 128.976 356.478 129.108 356.382 129.212C356.294 129.308 356.146 129.356 355.938 129.356ZM355.458 130.808H356.418V137H355.458V130.808ZM359.826 137C359.49 137 359.234 136.908 359.058 136.724C358.89 136.532 358.806 136.284 358.806 135.98V131.648H357.786V130.808H358.362C358.57 130.808 358.71 130.768 358.782 130.688C358.862 130.6 358.902 130.452 358.902 130.244V129.092H359.766V130.808H361.122V131.648H359.766V136.16H361.026V137H359.826ZM364.946 137.144C364.522 137.144 364.138 137.068 363.794 136.916C363.458 136.764 363.166 136.548 362.918 136.268C362.678 135.98 362.49 135.64 362.354 135.248C362.226 134.848 362.162 134.4 362.162 133.904C362.162 133.416 362.226 132.972 362.354 132.572C362.49 132.172 362.678 131.832 362.918 131.552C363.166 131.264 363.458 131.044 363.794 130.892C364.138 130.74 364.522 130.664 364.946 130.664C365.362 130.664 365.734 130.74 366.062 130.892C366.39 131.044 366.67 131.256 366.902 131.528C367.134 131.792 367.31 132.108 367.43 132.476C367.558 132.844 367.622 133.248 367.622 133.688V134.144H363.17V134.432C363.17 134.696 363.21 134.944 363.29 135.176C363.378 135.4 363.498 135.596 363.65 135.764C363.81 135.932 364.002 136.064 364.226 136.16C364.458 136.256 364.718 136.304 365.006 136.304C365.398 136.304 365.738 136.212 366.026 136.028C366.322 135.844 366.55 135.58 366.71 135.236L367.394 135.728C367.194 136.152 366.882 136.496 366.458 136.76C366.034 137.016 365.53 137.144 364.946 137.144ZM364.946 131.468C364.682 131.468 364.442 131.516 364.226 131.612C364.01 131.7 363.822 131.828 363.662 131.996C363.51 132.164 363.39 132.364 363.302 132.596C363.214 132.82 363.17 133.068 363.17 133.34V133.424H366.59V133.292C366.59 132.74 366.438 132.3 366.134 131.972C365.838 131.636 365.442 131.468 364.946 131.468Z" fill="#081131"/>
<path d="M854 146L849 148.887V143.113L854 146ZM718 145.5H849.5V146.5H718V145.5Z" fill="url(#paint1_linear_2592_10295)"/>
<path d="M794.72 137V136.16H795.896V129.464H794.72V128.624H798.08V129.464H796.904V136.16H798.08V137H794.72ZM799.825 137V130.808H800.785V131.816H800.833C800.985 131.464 801.197 131.184 801.469 130.976C801.749 130.768 802.121 130.664 802.585 130.664C803.225 130.664 803.729 130.872 804.097 131.288C804.473 131.696 804.661 132.276 804.661 133.028V137H803.701V133.196C803.701 132.084 803.233 131.528 802.297 131.528C802.105 131.528 801.917 131.552 801.733 131.6C801.557 131.648 801.397 131.72 801.253 131.816C801.109 131.912 800.993 132.036 800.905 132.188C800.825 132.332 800.785 132.504 800.785 132.704V137H799.825ZM807.919 137L805.747 130.808H806.707L807.787 133.88L808.459 135.992H808.519L809.191 133.88L810.295 130.808H811.219L809.035 137H807.919ZM812.938 129.356C812.73 129.356 812.578 129.308 812.482 129.212C812.394 129.108 812.35 128.976 812.35 128.816V128.66C812.35 128.5 812.394 128.372 812.482 128.276C812.578 128.172 812.73 128.12 812.938 128.12C813.146 128.12 813.294 128.172 813.382 128.276C813.478 128.372 813.526 128.5 813.526 128.66V128.816C813.526 128.976 813.478 129.108 813.382 129.212C813.294 129.308 813.146 129.356 812.938 129.356ZM812.458 130.808H813.418V137H812.458V130.808ZM816.826 137C816.49 137 816.234 136.908 816.058 136.724C815.89 136.532 815.806 136.284 815.806 135.98V131.648H814.786V130.808H815.362C815.57 130.808 815.71 130.768 815.782 130.688C815.862 130.6 815.902 130.452 815.902 130.244V129.092H816.766V130.808H818.122V131.648H816.766V136.16H818.026V137H816.826ZM821.946 137.144C821.522 137.144 821.138 137.068 820.794 136.916C820.458 136.764 820.166 136.548 819.918 136.268C819.678 135.98 819.49 135.64 819.354 135.248C819.226 134.848 819.162 134.4 819.162 133.904C819.162 133.416 819.226 132.972 819.354 132.572C819.49 132.172 819.678 131.832 819.918 131.552C820.166 131.264 820.458 131.044 820.794 130.892C821.138 130.74 821.522 130.664 821.946 130.664C822.362 130.664 822.734 130.74 823.062 130.892C823.39 131.044 823.67 131.256 823.902 131.528C824.134 131.792 824.31 132.108 824.43 132.476C824.558 132.844 824.622 133.248 824.622 133.688V134.144H820.17V134.432C820.17 134.696 820.21 134.944 820.29 135.176C820.378 135.4 820.498 135.596 820.65 135.764C820.81 135.932 821.002 136.064 821.226 136.16C821.458 136.256 821.718 136.304 822.006 136.304C822.398 136.304 822.738 136.212 823.026 136.028C823.322 135.844 823.55 135.58 823.71 135.236L824.394 135.728C824.194 136.152 823.882 136.496 823.458 136.76C823.034 137.016 822.53 137.144 821.946 137.144ZM821.946 131.468C821.682 131.468 821.442 131.516 821.226 131.612C821.01 131.7 820.822 131.828 820.662 131.996C820.51 132.164 820.39 132.364 820.302 132.596C820.214 132.82 820.17 133.068 820.17 133.34V133.424H823.59V133.292C823.59 132.74 823.438 132.3 823.134 131.972C822.838 131.636 822.442 131.468 821.946 131.468Z" fill="#081131"/>
<rect y="98" width="201" height="75" rx="11" fill="#FAFAFA"/>
<rect x="5" y="103" width="99" height="65" rx="11" fill="white"/>
<path d="M127.05 145L125.475 140.275H118.95L117.425 145H114.55L120.5 127.55H124.05L130 145H127.05ZM122.275 130.15H122.15L119.625 137.85H124.775L122.275 130.15ZM143.903 146.225C143.903 147.575 143.386 148.592 142.353 149.275C141.319 149.958 139.636 150.3 137.303 150.3C136.236 150.3 135.328 150.225 134.578 150.075C133.844 149.942 133.236 149.742 132.753 149.475C132.286 149.208 131.944 148.883 131.728 148.5C131.511 148.117 131.403 147.675 131.403 147.175C131.403 146.458 131.594 145.9 131.978 145.5C132.378 145.1 132.928 144.825 133.628 144.675V144.4C132.644 144.083 132.153 143.417 132.153 142.4C132.153 141.733 132.378 141.225 132.828 140.875C133.278 140.508 133.819 140.25 134.453 140.1V140C133.686 139.633 133.094 139.125 132.678 138.475C132.278 137.808 132.078 137.033 132.078 136.15C132.078 134.817 132.519 133.742 133.403 132.925C134.303 132.108 135.586 131.7 137.253 131.7C138.169 131.7 138.953 131.833 139.603 132.1V131.75C139.603 131.167 139.736 130.717 140.003 130.4C140.286 130.067 140.719 129.9 141.303 129.9H143.303V132.1H140.653V132.625C141.236 133.008 141.686 133.508 142.003 134.125C142.319 134.725 142.478 135.4 142.478 136.15C142.478 137.467 142.028 138.533 141.128 139.35C140.228 140.15 138.944 140.55 137.278 140.55C136.644 140.55 136.078 140.483 135.578 140.35C135.244 140.467 134.953 140.633 134.703 140.85C134.453 141.05 134.328 141.317 134.328 141.65C134.328 142 134.486 142.25 134.803 142.4C135.119 142.55 135.569 142.625 136.153 142.625H139.353C140.953 142.625 142.111 142.95 142.828 143.6C143.544 144.233 143.903 145.108 143.903 146.225ZM141.353 146.525C141.353 146.075 141.178 145.717 140.828 145.45C140.494 145.183 139.878 145.05 138.978 145.05H134.578C133.978 145.4 133.678 145.9 133.678 146.55C133.678 147.083 133.886 147.508 134.303 147.825C134.736 148.158 135.461 148.325 136.478 148.325H138.178C140.294 148.325 141.353 147.725 141.353 146.525ZM137.278 138.575C138.078 138.575 138.694 138.4 139.128 138.05C139.578 137.683 139.803 137.125 139.803 136.375V135.875C139.803 135.125 139.578 134.575 139.128 134.225C138.694 133.858 138.078 133.675 137.278 133.675C136.478 133.675 135.853 133.858 135.403 134.225C134.969 134.575 134.753 135.125 134.753 135.875V136.375C134.753 137.125 134.969 137.683 135.403 138.05C135.853 138.4 136.478 138.575 137.278 138.575ZM150.884 145.3C149.951 145.3 149.117 145.142 148.384 144.825C147.651 144.508 147.026 144.058 146.509 143.475C145.992 142.875 145.592 142.158 145.309 141.325C145.042 140.475 144.909 139.533 144.909 138.5C144.909 137.467 145.042 136.533 145.309 135.7C145.592 134.85 145.992 134.133 146.509 133.55C147.026 132.95 147.651 132.492 148.384 132.175C149.117 131.858 149.951 131.7 150.884 131.7C151.834 131.7 152.667 131.867 153.384 132.2C154.117 132.533 154.726 133 155.209 133.6C155.692 134.183 156.051 134.867 156.284 135.65C156.534 136.433 156.659 137.275 156.659 138.175V139.2H147.734V139.625C147.734 140.625 148.026 141.45 148.609 142.1C149.209 142.733 150.059 143.05 151.159 143.05C151.959 143.05 152.634 142.875 153.184 142.525C153.734 142.175 154.201 141.7 154.584 141.1L156.184 142.675C155.701 143.475 155.001 144.117 154.084 144.6C153.167 145.067 152.101 145.3 150.884 145.3ZM150.884 133.825C150.417 133.825 149.984 133.908 149.584 134.075C149.201 134.242 148.867 134.475 148.584 134.775C148.317 135.075 148.109 135.433 147.959 135.85C147.809 136.267 147.734 136.725 147.734 137.225V137.4H153.784V137.15C153.784 136.15 153.526 135.35 153.009 134.75C152.492 134.133 151.784 133.825 150.884 133.825ZM159.676 145V132H162.401V134.15H162.526C162.809 133.45 163.234 132.867 163.801 132.4C164.384 131.933 165.176 131.7 166.176 131.7C167.509 131.7 168.542 132.142 169.276 133.025C170.026 133.892 170.401 135.133 170.401 136.75V145H167.676V137.1C167.676 135.067 166.859 134.05 165.226 134.05C164.876 134.05 164.526 134.1 164.176 134.2C163.842 134.283 163.542 134.417 163.276 134.6C163.009 134.783 162.792 135.017 162.626 135.3C162.476 135.583 162.401 135.917 162.401 136.3V145H159.676ZM177.778 145C176.828 145 176.111 144.758 175.628 144.275C175.144 143.775 174.903 143.075 174.903 142.175V134.225H172.878V132H173.978C174.428 132 174.736 131.9 174.903 131.7C175.086 131.5 175.178 131.175 175.178 130.725V128.45H177.628V132H180.353V134.225H177.628V142.775H180.153V145H177.778Z" fill="#081131"/>
<path d="M44.316 149.624V154.784C44.316 155.496 44.452 156.032 44.724 156.392C44.996 156.752 45.46 156.932 46.116 156.932C46.772 156.932 47.236 156.752 47.508 156.392C47.78 156.032 47.916 155.496 47.916 154.784V149.624H49.248V154.568C49.248 155.184 49.192 155.716 49.08 156.164C48.968 156.612 48.788 156.984 48.54 157.28C48.292 157.568 47.968 157.784 47.568 157.928C47.176 158.072 46.692 158.144 46.116 158.144C45.54 158.144 45.052 158.072 44.652 157.928C44.26 157.784 43.94 157.568 43.692 157.28C43.444 156.984 43.264 156.612 43.152 156.164C43.04 155.716 42.984 155.184 42.984 154.568V149.624H44.316ZM53.1426 158.144C52.5506 158.144 52.0546 158.04 51.6546 157.832C51.2546 157.624 50.9066 157.336 50.6106 156.968L51.4506 156.2C51.6826 156.48 51.9386 156.7 52.2186 156.86C52.5066 157.012 52.8386 157.088 53.2146 157.088C53.5986 157.088 53.8826 157.016 54.0666 156.872C54.2586 156.72 54.3546 156.512 54.3546 156.248C54.3546 156.048 54.2866 155.88 54.1506 155.744C54.0226 155.6 53.7946 155.508 53.4666 155.468L52.8906 155.396C52.2506 155.316 51.7466 155.132 51.3786 154.844C51.0186 154.548 50.8386 154.112 50.8386 153.536C50.8386 153.232 50.8946 152.964 51.0066 152.732C51.1186 152.492 51.2746 152.292 51.4746 152.132C51.6826 151.964 51.9266 151.836 52.2066 151.748C52.4946 151.66 52.8106 151.616 53.1546 151.616C53.7146 151.616 54.1706 151.704 54.5226 151.88C54.8826 152.056 55.2026 152.3 55.4826 152.612L54.6786 153.38C54.5186 153.188 54.3066 153.024 54.0426 152.888C53.7866 152.744 53.4906 152.672 53.1546 152.672C52.7946 152.672 52.5266 152.744 52.3506 152.888C52.1826 153.032 52.0986 153.22 52.0986 153.452C52.0986 153.692 52.1746 153.872 52.3266 153.992C52.4786 154.112 52.7226 154.2 53.0586 154.256L53.6346 154.328C54.3226 154.432 54.8226 154.636 55.1346 154.94C55.4546 155.236 55.6146 155.636 55.6146 156.14C55.6146 156.444 55.5546 156.72 55.4346 156.968C55.3226 157.208 55.1586 157.416 54.9426 157.592C54.7266 157.768 54.4666 157.904 54.1626 158C53.8586 158.096 53.5186 158.144 53.1426 158.144ZM59.5403 158.144C59.0923 158.144 58.6923 158.068 58.3403 157.916C57.9883 157.764 57.6883 157.548 57.4403 157.268C57.1923 156.98 57.0003 156.636 56.8643 156.236C56.7363 155.828 56.6723 155.376 56.6723 154.88C56.6723 154.384 56.7363 153.936 56.8643 153.536C57.0003 153.128 57.1923 152.784 57.4403 152.504C57.6883 152.216 57.9883 151.996 58.3403 151.844C58.6923 151.692 59.0923 151.616 59.5403 151.616C59.9963 151.616 60.3963 151.696 60.7403 151.856C61.0923 152.016 61.3843 152.24 61.6163 152.528C61.8483 152.808 62.0203 153.136 62.1323 153.512C62.2523 153.888 62.3123 154.292 62.3123 154.724V155.216H58.0283V155.42C58.0283 155.9 58.1683 156.296 58.4483 156.608C58.7363 156.912 59.1443 157.064 59.6723 157.064C60.0563 157.064 60.3803 156.98 60.6443 156.812C60.9083 156.644 61.1323 156.416 61.3163 156.128L62.0843 156.884C61.8523 157.268 61.5163 157.576 61.0763 157.808C60.6363 158.032 60.1243 158.144 59.5403 158.144ZM59.5403 152.636C59.3163 152.636 59.1083 152.676 58.9163 152.756C58.7323 152.836 58.5723 152.948 58.4363 153.092C58.3083 153.236 58.2083 153.408 58.1363 153.608C58.0643 153.808 58.0283 154.028 58.0283 154.268V154.352H60.9323V154.232C60.9323 153.752 60.8083 153.368 60.5603 153.08C60.3123 152.784 59.9723 152.636 59.5403 152.636ZM63.7602 158V151.76H65.0682V152.96H65.1282C65.2162 152.64 65.4002 152.36 65.6802 152.12C65.9602 151.88 66.3482 151.76 66.8442 151.76H67.1922V153.02H66.6762C66.1562 153.02 65.7562 153.104 65.4762 153.272C65.2042 153.44 65.0682 153.688 65.0682 154.016V158H63.7602Z" fill="#081131"/>
<path opacity="0.4" d="M54.9998 140C63.8363 140 70.9997 132.836 70.9997 124C70.9997 115.163 63.8363 108 54.9998 108C46.1634 108 39 115.163 39 124C39 132.836 46.1634 140 54.9998 140Z" fill="#FFE7BA"/>
<path d="M54.9999 115.888C51.688 115.888 49 118.576 49 121.888C49 125.136 51.544 127.776 54.9199 127.872C54.9679 127.872 55.0319 127.872 55.0639 127.872C55.0959 127.872 55.1439 127.872 55.1759 127.872C55.1919 127.872 55.2079 127.872 55.2079 127.872C58.4399 127.76 60.9839 125.136 60.9999 121.888C60.9999 118.576 58.3119 115.888 54.9999 115.888Z" fill="#FFA500"/>
<path d="M65.852 135.76C63.0041 138.384 59.1961 140 55.0041 140C50.8122 140 47.0042 138.384 44.1562 135.76C44.5402 134.304 45.5802 132.976 47.1002 131.952C51.4682 129.04 58.5721 129.04 62.9081 131.952C64.444 132.976 65.468 134.304 65.852 135.76Z" fill="#FFA500"/>
<rect x="457" y="98" width="201" height="75" rx="11" fill="#FAFAFA"/>
<rect x="462" y="103" width="99" height="65" rx="11" fill="white"/>
<path d="M584.05 145L582.475 140.275H575.95L574.425 145H571.55L577.5 127.55H581.05L587 145H584.05ZM579.275 130.15H579.15L576.625 137.85H581.775L579.275 130.15Z" fill="#081131"/>
<path d="M501.316 149.624V154.784C501.316 155.496 501.452 156.032 501.724 156.392C501.996 156.752 502.46 156.932 503.116 156.932C503.772 156.932 504.236 156.752 504.508 156.392C504.78 156.032 504.916 155.496 504.916 154.784V149.624H506.248V154.568C506.248 155.184 506.192 155.716 506.08 156.164C505.968 156.612 505.788 156.984 505.54 157.28C505.292 157.568 504.968 157.784 504.568 157.928C504.176 158.072 503.692 158.144 503.116 158.144C502.54 158.144 502.052 158.072 501.652 157.928C501.26 157.784 500.94 157.568 500.692 157.28C500.444 156.984 500.264 156.612 500.152 156.164C500.04 155.716 499.984 155.184 499.984 154.568V149.624H501.316ZM510.143 158.144C509.551 158.144 509.055 158.04 508.655 157.832C508.255 157.624 507.907 157.336 507.611 156.968L508.451 156.2C508.683 156.48 508.939 156.7 509.219 156.86C509.507 157.012 509.839 157.088 510.215 157.088C510.599 157.088 510.883 157.016 511.067 156.872C511.259 156.72 511.355 156.512 511.355 156.248C511.355 156.048 511.287 155.88 511.151 155.744C511.023 155.6 510.795 155.508 510.467 155.468L509.891 155.396C509.251 155.316 508.747 155.132 508.379 154.844C508.019 154.548 507.839 154.112 507.839 153.536C507.839 153.232 507.895 152.964 508.007 152.732C508.119 152.492 508.275 152.292 508.475 152.132C508.683 151.964 508.927 151.836 509.207 151.748C509.495 151.66 509.811 151.616 510.155 151.616C510.715 151.616 511.171 151.704 511.523 151.88C511.883 152.056 512.203 152.3 512.483 152.612L511.679 153.38C511.519 153.188 511.307 153.024 511.043 152.888C510.787 152.744 510.491 152.672 510.155 152.672C509.795 152.672 509.527 152.744 509.351 152.888C509.183 153.032 509.099 153.22 509.099 153.452C509.099 153.692 509.175 153.872 509.327 153.992C509.479 154.112 509.723 154.2 510.059 154.256L510.635 154.328C511.323 154.432 511.823 154.636 512.135 154.94C512.455 155.236 512.615 155.636 512.615 156.14C512.615 156.444 512.555 156.72 512.435 156.968C512.323 157.208 512.159 157.416 511.943 157.592C511.727 157.768 511.467 157.904 511.163 158C510.859 158.096 510.519 158.144 510.143 158.144ZM516.54 158.144C516.092 158.144 515.692 158.068 515.34 157.916C514.988 157.764 514.688 157.548 514.44 157.268C514.192 156.98 514 156.636 513.864 156.236C513.736 155.828 513.672 155.376 513.672 154.88C513.672 154.384 513.736 153.936 513.864 153.536C514 153.128 514.192 152.784 514.44 152.504C514.688 152.216 514.988 151.996 515.34 151.844C515.692 151.692 516.092 151.616 516.54 151.616C516.996 151.616 517.396 151.696 517.74 151.856C518.092 152.016 518.384 152.24 518.616 152.528C518.848 152.808 519.02 153.136 519.132 153.512C519.252 153.888 519.312 154.292 519.312 154.724V155.216H515.028V155.42C515.028 155.9 515.168 156.296 515.448 156.608C515.736 156.912 516.144 157.064 516.672 157.064C517.056 157.064 517.38 156.98 517.644 156.812C517.908 156.644 518.132 156.416 518.316 156.128L519.084 156.884C518.852 157.268 518.516 157.576 518.076 157.808C517.636 158.032 517.124 158.144 516.54 158.144ZM516.54 152.636C516.316 152.636 516.108 152.676 515.916 152.756C515.732 152.836 515.572 152.948 515.436 153.092C515.308 153.236 515.208 153.408 515.136 153.608C515.064 153.808 515.028 154.028 515.028 154.268V154.352H517.932V154.232C517.932 153.752 517.808 153.368 517.56 153.08C517.312 152.784 516.972 152.636 516.54 152.636ZM520.76 158V151.76H522.068V152.96H522.128C522.216 152.64 522.4 152.36 522.68 152.12C522.96 151.88 523.348 151.76 523.844 151.76H524.192V153.02H523.676C523.156 153.02 522.756 153.104 522.476 153.272C522.204 153.44 522.068 153.688 522.068 154.016V158H520.76Z" fill="#081131"/>
<path d="M602.592 133.264V142H601.416V133.264H598.308V132.228H605.7V133.264H602.592ZM606.573 142V134.776H607.693V136.106H607.763C607.893 135.761 608.127 135.453 608.463 135.182C608.799 134.911 609.261 134.776 609.849 134.776H610.283V135.896H609.625C609.018 135.896 608.542 136.013 608.197 136.246C607.861 136.47 607.693 136.755 607.693 137.1V142H606.573ZM616.909 142C616.489 142 616.185 141.888 615.999 141.664C615.821 141.44 615.709 141.16 615.663 140.824H615.593C615.434 141.272 615.173 141.608 614.809 141.832C614.445 142.056 614.011 142.168 613.507 142.168C612.741 142.168 612.144 141.972 611.715 141.58C611.295 141.188 611.085 140.656 611.085 139.984C611.085 139.303 611.332 138.78 611.827 138.416C612.331 138.052 613.11 137.87 614.165 137.87H615.593V137.156C615.593 136.643 615.453 136.251 615.173 135.98C614.893 135.709 614.463 135.574 613.885 135.574C613.446 135.574 613.077 135.672 612.779 135.868C612.489 136.064 612.247 136.325 612.051 136.652L611.379 136.022C611.575 135.63 611.887 135.299 612.317 135.028C612.746 134.748 613.287 134.608 613.941 134.608C614.818 134.608 615.499 134.823 615.985 135.252C616.47 135.681 616.713 136.279 616.713 137.044V141.02H617.539V142H616.909ZM613.689 141.216C613.969 141.216 614.225 141.183 614.459 141.118C614.692 141.053 614.893 140.959 615.061 140.838C615.229 140.717 615.359 140.577 615.453 140.418C615.546 140.259 615.593 140.087 615.593 139.9V138.71H614.109C613.465 138.71 612.993 138.803 612.695 138.99C612.405 139.177 612.261 139.447 612.261 139.802V140.096C612.261 140.451 612.387 140.726 612.639 140.922C612.9 141.118 613.25 141.216 613.689 141.216ZM623.757 140.824H623.701C623.263 141.72 622.558 142.168 621.587 142.168C621.139 142.168 620.733 142.079 620.369 141.902C620.005 141.725 619.693 141.473 619.431 141.146C619.179 140.819 618.983 140.423 618.843 139.956C618.713 139.489 618.647 138.967 618.647 138.388C618.647 137.809 618.713 137.287 618.843 136.82C618.983 136.353 619.179 135.957 619.431 135.63C619.693 135.303 620.005 135.051 620.369 134.874C620.733 134.697 621.139 134.608 621.587 134.608C622.091 134.608 622.521 134.72 622.875 134.944C623.239 135.159 623.515 135.495 623.701 135.952H623.757V131.64H624.877V142H623.757V140.824ZM621.895 141.16C622.147 141.16 622.385 141.127 622.609 141.062C622.843 140.997 623.043 140.903 623.211 140.782C623.379 140.651 623.51 140.497 623.603 140.32C623.706 140.133 623.757 139.923 623.757 139.69V137.002C623.757 136.806 623.706 136.624 623.603 136.456C623.51 136.279 623.379 136.129 623.211 136.008C623.043 135.887 622.843 135.793 622.609 135.728C622.385 135.653 622.147 135.616 621.895 135.616C621.261 135.616 620.761 135.817 620.397 136.218C620.033 136.61 619.851 137.128 619.851 137.772V139.004C619.851 139.648 620.033 140.171 620.397 140.572C620.761 140.964 621.261 141.16 621.895 141.16ZM629.974 142.168C629.48 142.168 629.032 142.079 628.63 141.902C628.238 141.725 627.898 141.473 627.608 141.146C627.328 140.81 627.109 140.413 626.95 139.956C626.801 139.489 626.726 138.967 626.726 138.388C626.726 137.819 626.801 137.301 626.95 136.834C627.109 136.367 627.328 135.971 627.608 135.644C627.898 135.308 628.238 135.051 628.63 134.874C629.032 134.697 629.48 134.608 629.974 134.608C630.46 134.608 630.894 134.697 631.276 134.874C631.659 135.051 631.986 135.299 632.256 135.616C632.527 135.924 632.732 136.293 632.872 136.722C633.022 137.151 633.096 137.623 633.096 138.136V138.668H627.902V139.004C627.902 139.312 627.949 139.601 628.042 139.872C628.145 140.133 628.285 140.362 628.462 140.558C628.649 140.754 628.873 140.908 629.134 141.02C629.405 141.132 629.708 141.188 630.044 141.188C630.502 141.188 630.898 141.081 631.234 140.866C631.58 140.651 631.846 140.343 632.032 139.942L632.83 140.516C632.597 141.011 632.233 141.412 631.738 141.72C631.244 142.019 630.656 142.168 629.974 142.168ZM629.974 135.546C629.666 135.546 629.386 135.602 629.134 135.714C628.882 135.817 628.663 135.966 628.476 136.162C628.299 136.358 628.159 136.591 628.056 136.862C627.954 137.123 627.902 137.413 627.902 137.73V137.828H631.892V137.674C631.892 137.03 631.715 136.517 631.36 136.134C631.015 135.742 630.553 135.546 629.974 135.546Z" fill="#081131"/>
<rect x="914" y="98" width="201" height="75" rx="11" fill="#FAFAFA"/>
<rect x="919" y="103" width="99" height="65" rx="11" fill="white"/>
<path d="M1030.15 127.55H1037.88C1039.33 127.55 1040.46 127.958 1041.28 128.775C1042.11 129.592 1042.53 130.683 1042.53 132.05C1042.53 132.7 1042.43 133.258 1042.25 133.725C1042.07 134.175 1041.83 134.55 1041.55 134.85C1041.27 135.133 1040.94 135.35 1040.58 135.5C1040.21 135.633 1039.85 135.717 1039.5 135.75V135.9C1039.85 135.917 1040.23 136 1040.65 136.15C1041.08 136.3 1041.48 136.542 1041.85 136.875C1042.22 137.192 1042.53 137.608 1042.78 138.125C1043.03 138.625 1043.15 139.242 1043.15 139.975C1043.15 140.675 1043.03 141.333 1042.8 141.95C1042.58 142.567 1042.28 143.1 1041.88 143.55C1041.48 144 1041 144.358 1040.45 144.625C1039.9 144.875 1039.3 145 1038.65 145H1030.15V127.55ZM1032.98 142.575H1037.83C1038.56 142.575 1039.13 142.383 1039.55 142C1039.97 141.617 1040.18 141.067 1040.18 140.35V139.5C1040.18 138.783 1039.97 138.233 1039.55 137.85C1039.13 137.467 1038.56 137.275 1037.83 137.275H1032.98V142.575ZM1032.98 134.925H1037.35C1038.05 134.925 1038.59 134.75 1038.98 134.4C1039.36 134.033 1039.55 133.517 1039.55 132.85V132.05C1039.55 131.383 1039.36 130.875 1038.98 130.525C1038.59 130.158 1038.05 129.975 1037.35 129.975H1032.98V134.925Z" fill="#081131"/>
<path d="M1059.59 132.264V141H1058.42V132.264H1055.31V131.228H1062.7V132.264H1059.59ZM1063.57 141V133.776H1064.69V135.106H1064.76C1064.89 134.761 1065.13 134.453 1065.46 134.182C1065.8 133.911 1066.26 133.776 1066.85 133.776H1067.28V134.896H1066.62C1066.02 134.896 1065.54 135.013 1065.2 135.246C1064.86 135.47 1064.69 135.755 1064.69 136.1V141H1063.57ZM1073.91 141C1073.49 141 1073.19 140.888 1073 140.664C1072.82 140.44 1072.71 140.16 1072.66 139.824H1072.59C1072.43 140.272 1072.17 140.608 1071.81 140.832C1071.44 141.056 1071.01 141.168 1070.51 141.168C1069.74 141.168 1069.14 140.972 1068.71 140.58C1068.29 140.188 1068.08 139.656 1068.08 138.984C1068.08 138.303 1068.33 137.78 1068.83 137.416C1069.33 137.052 1070.11 136.87 1071.16 136.87H1072.59V136.156C1072.59 135.643 1072.45 135.251 1072.17 134.98C1071.89 134.709 1071.46 134.574 1070.88 134.574C1070.45 134.574 1070.08 134.672 1069.78 134.868C1069.49 135.064 1069.25 135.325 1069.05 135.652L1068.38 135.022C1068.57 134.63 1068.89 134.299 1069.32 134.028C1069.75 133.748 1070.29 133.608 1070.94 133.608C1071.82 133.608 1072.5 133.823 1072.98 134.252C1073.47 134.681 1073.71 135.279 1073.71 136.044V140.02H1074.54V141H1073.91ZM1070.69 140.216C1070.97 140.216 1071.23 140.183 1071.46 140.118C1071.69 140.053 1071.89 139.959 1072.06 139.838C1072.23 139.717 1072.36 139.577 1072.45 139.418C1072.55 139.259 1072.59 139.087 1072.59 138.9V137.71H1071.11C1070.46 137.71 1069.99 137.803 1069.69 137.99C1069.41 138.177 1069.26 138.447 1069.26 138.802V139.096C1069.26 139.451 1069.39 139.726 1069.64 139.922C1069.9 140.118 1070.25 140.216 1070.69 140.216ZM1080.76 139.824H1080.7C1080.26 140.72 1079.56 141.168 1078.59 141.168C1078.14 141.168 1077.73 141.079 1077.37 140.902C1077.01 140.725 1076.69 140.473 1076.43 140.146C1076.18 139.819 1075.98 139.423 1075.84 138.956C1075.71 138.489 1075.65 137.967 1075.65 137.388C1075.65 136.809 1075.71 136.287 1075.84 135.82C1075.98 135.353 1076.18 134.957 1076.43 134.63C1076.69 134.303 1077.01 134.051 1077.37 133.874C1077.73 133.697 1078.14 133.608 1078.59 133.608C1079.09 133.608 1079.52 133.72 1079.88 133.944C1080.24 134.159 1080.51 134.495 1080.7 134.952H1080.76V130.64H1081.88V141H1080.76V139.824ZM1078.9 140.16C1079.15 140.16 1079.39 140.127 1079.61 140.062C1079.84 139.997 1080.04 139.903 1080.21 139.782C1080.38 139.651 1080.51 139.497 1080.6 139.32C1080.71 139.133 1080.76 138.923 1080.76 138.69V136.002C1080.76 135.806 1080.71 135.624 1080.6 135.456C1080.51 135.279 1080.38 135.129 1080.21 135.008C1080.04 134.887 1079.84 134.793 1079.61 134.728C1079.39 134.653 1079.15 134.616 1078.9 134.616C1078.26 134.616 1077.76 134.817 1077.4 135.218C1077.03 135.61 1076.85 136.128 1076.85 136.772V138.004C1076.85 138.648 1077.03 139.171 1077.4 139.572C1077.76 139.964 1078.26 140.16 1078.9 140.16ZM1086.97 141.168C1086.48 141.168 1086.03 141.079 1085.63 140.902C1085.24 140.725 1084.9 140.473 1084.61 140.146C1084.33 139.81 1084.11 139.413 1083.95 138.956C1083.8 138.489 1083.73 137.967 1083.73 137.388C1083.73 136.819 1083.8 136.301 1083.95 135.834C1084.11 135.367 1084.33 134.971 1084.61 134.644C1084.9 134.308 1085.24 134.051 1085.63 133.874C1086.03 133.697 1086.48 133.608 1086.97 133.608C1087.46 133.608 1087.89 133.697 1088.28 133.874C1088.66 134.051 1088.99 134.299 1089.26 134.616C1089.53 134.924 1089.73 135.293 1089.87 135.722C1090.02 136.151 1090.1 136.623 1090.1 137.136V137.668H1084.9V138.004C1084.9 138.312 1084.95 138.601 1085.04 138.872C1085.15 139.133 1085.29 139.362 1085.46 139.558C1085.65 139.754 1085.87 139.908 1086.13 140.02C1086.41 140.132 1086.71 140.188 1087.04 140.188C1087.5 140.188 1087.9 140.081 1088.23 139.866C1088.58 139.651 1088.85 139.343 1089.03 138.942L1089.83 139.516C1089.6 140.011 1089.23 140.412 1088.74 140.72C1088.24 141.019 1087.66 141.168 1086.97 141.168ZM1086.97 134.546C1086.67 134.546 1086.39 134.602 1086.13 134.714C1085.88 134.817 1085.66 134.966 1085.48 135.162C1085.3 135.358 1085.16 135.591 1085.06 135.862C1084.95 136.123 1084.9 136.413 1084.9 136.73V136.828H1088.89V136.674C1088.89 136.03 1088.72 135.517 1088.36 135.134C1088.02 134.742 1087.55 134.546 1086.97 134.546Z" fill="#081131"/>
<path d="M958.316 149.624V154.784C958.316 155.496 958.452 156.032 958.724 156.392C958.996 156.752 959.46 156.932 960.116 156.932C960.772 156.932 961.236 156.752 961.508 156.392C961.78 156.032 961.916 155.496 961.916 154.784V149.624H963.248V154.568C963.248 155.184 963.192 155.716 963.08 156.164C962.968 156.612 962.788 156.984 962.54 157.28C962.292 157.568 961.968 157.784 961.568 157.928C961.176 158.072 960.692 158.144 960.116 158.144C959.54 158.144 959.052 158.072 958.652 157.928C958.26 157.784 957.94 157.568 957.692 157.28C957.444 156.984 957.264 156.612 957.152 156.164C957.04 155.716 956.984 155.184 956.984 154.568V149.624H958.316ZM967.143 158.144C966.551 158.144 966.055 158.04 965.655 157.832C965.255 157.624 964.907 157.336 964.611 156.968L965.451 156.2C965.683 156.48 965.939 156.7 966.219 156.86C966.507 157.012 966.839 157.088 967.215 157.088C967.599 157.088 967.883 157.016 968.067 156.872C968.259 156.72 968.355 156.512 968.355 156.248C968.355 156.048 968.287 155.88 968.151 155.744C968.023 155.6 967.795 155.508 967.467 155.468L966.891 155.396C966.251 155.316 965.747 155.132 965.379 154.844C965.019 154.548 964.839 154.112 964.839 153.536C964.839 153.232 964.895 152.964 965.007 152.732C965.119 152.492 965.275 152.292 965.475 152.132C965.683 151.964 965.927 151.836 966.207 151.748C966.495 151.66 966.811 151.616 967.155 151.616C967.715 151.616 968.171 151.704 968.523 151.88C968.883 152.056 969.203 152.3 969.483 152.612L968.679 153.38C968.519 153.188 968.307 153.024 968.043 152.888C967.787 152.744 967.491 152.672 967.155 152.672C966.795 152.672 966.527 152.744 966.351 152.888C966.183 153.032 966.099 153.22 966.099 153.452C966.099 153.692 966.175 153.872 966.327 153.992C966.479 154.112 966.723 154.2 967.059 154.256L967.635 154.328C968.323 154.432 968.823 154.636 969.135 154.94C969.455 155.236 969.615 155.636 969.615 156.14C969.615 156.444 969.555 156.72 969.435 156.968C969.323 157.208 969.159 157.416 968.943 157.592C968.727 157.768 968.467 157.904 968.163 158C967.859 158.096 967.519 158.144 967.143 158.144ZM973.54 158.144C973.092 158.144 972.692 158.068 972.34 157.916C971.988 157.764 971.688 157.548 971.44 157.268C971.192 156.98 971 156.636 970.864 156.236C970.736 155.828 970.672 155.376 970.672 154.88C970.672 154.384 970.736 153.936 970.864 153.536C971 153.128 971.192 152.784 971.44 152.504C971.688 152.216 971.988 151.996 972.34 151.844C972.692 151.692 973.092 151.616 973.54 151.616C973.996 151.616 974.396 151.696 974.74 151.856C975.092 152.016 975.384 152.24 975.616 152.528C975.848 152.808 976.02 153.136 976.132 153.512C976.252 153.888 976.312 154.292 976.312 154.724V155.216H972.028V155.42C972.028 155.9 972.168 156.296 972.448 156.608C972.736 156.912 973.144 157.064 973.672 157.064C974.056 157.064 974.38 156.98 974.644 156.812C974.908 156.644 975.132 156.416 975.316 156.128L976.084 156.884C975.852 157.268 975.516 157.576 975.076 157.808C974.636 158.032 974.124 158.144 973.54 158.144ZM973.54 152.636C973.316 152.636 973.108 152.676 972.916 152.756C972.732 152.836 972.572 152.948 972.436 153.092C972.308 153.236 972.208 153.408 972.136 153.608C972.064 153.808 972.028 154.028 972.028 154.268V154.352H974.932V154.232C974.932 153.752 974.808 153.368 974.56 153.08C974.312 152.784 973.972 152.636 973.54 152.636ZM977.76 158V151.76H979.068V152.96H979.128C979.216 152.64 979.4 152.36 979.68 152.12C979.96 151.88 980.348 151.76 980.844 151.76H981.192V153.02H980.676C980.156 153.02 979.756 153.104 979.476 153.272C979.204 153.44 979.068 153.688 979.068 154.016V158H977.76Z" fill="#081131"/>
<path d="M1062 193V242H53L53 204" stroke="#081131" stroke-width="0.9" stroke-dasharray="1.8 1.8"/>
<path d="M53 193L47.8038 202L58.1962 202L53 193Z" fill="#081131"/>
<path opacity="0.4" d="M512 140C520.837 140 528 132.836 528 124C528 115.163 520.837 108 512 108C503.164 108 496 115.163 496 124C496 132.836 503.164 140 512 140Z" fill="#FFA8A8"/>
<path d="M512 115.888C508.688 115.888 506 118.576 506 121.888C506 125.136 508.544 127.776 511.92 127.872C511.968 127.872 512.032 127.872 512.064 127.872C512.096 127.872 512.144 127.872 512.176 127.872C512.192 127.872 512.208 127.872 512.208 127.872C515.44 127.76 517.984 125.136 518 121.888C518 118.576 515.312 115.888 512 115.888Z" fill="#FF3D00"/>
<path d="M522.845 135.76C519.997 138.384 516.189 140 511.997 140C507.805 140 503.996 138.384 501.148 135.76C501.532 134.304 502.572 132.976 504.092 131.952C508.461 129.04 515.565 129.04 519.901 131.952C521.437 132.976 522.461 134.304 522.845 135.76Z" fill="#FF3D00"/>
<path opacity="0.4" d="M969 140C977.836 140 985 132.836 985 124C985 115.163 977.836 108 969 108C960.163 108 953 115.163 953 124C953 132.836 960.163 140 969 140Z" fill="#B5FF7A"/>
<path d="M969 115.888C965.688 115.888 963 118.576 963 121.888C963 125.136 965.544 127.776 968.92 127.872C968.968 127.872 969.032 127.872 969.064 127.872C969.096 127.872 969.144 127.872 969.176 127.872C969.192 127.872 969.208 127.872 969.208 127.872C972.44 127.76 974.984 125.136 975 121.888C975 118.576 972.312 115.888 969 115.888Z" fill="#7EDF1D"/>
<path d="M979.844 135.76C976.996 138.384 973.188 140 968.996 140C964.804 140 960.996 138.384 958.148 135.76C958.532 134.304 959.572 132.976 961.092 131.952C965.46 129.04 972.564 129.04 976.9 131.952C978.436 132.976 979.46 134.304 979.844 135.76Z" fill="#7EDF1D"/>
<defs>
<linearGradient id="paint0_linear_2592_10295" x1="361.119" y1="146" x2="295.145" y2="146" gradientUnits="userSpaceOnUse">
<stop stop-color="#081131"/>
<stop offset="1" stop-color="#FAFAFA"/>
</linearGradient>
<linearGradient id="paint1_linear_2592_10295" x1="818.119" y1="146" x2="752.145" y2="146" gradientUnits="userSpaceOnUse">
<stop stop-color="#081131"/>
<stop offset="1" stop-color="#FAFAFA"/>
</linearGradient>
</defs>
</svg>
