<svg width="35" height="35" viewBox="0 0 35 35" fill="none" xmlns="http://www.w3.org/2000/svg">
<path d="M6.92578 25.375V9.625C6.92578 7.4375 7.85911 6.5625 10.1779 6.5625H11.6945C14.0133 6.5625 14.9466 7.4375 14.9466 9.625V25.375C14.9466 27.5625 14.0133 28.4375 11.6945 28.4375H10.1779C7.85911 28.4375 6.92578 27.5625 6.92578 25.375Z" stroke="#FFA500" stroke-width="1.5" stroke-linecap="round" stroke-linejoin="round"/>
<path d="M19.3242 22.4584V12.5417C19.3242 10.3542 20.2576 9.47919 22.5763 9.47919H24.093C26.4117 9.47919 27.3451 10.3542 27.3451 12.5417V22.4584C27.3451 24.6459 26.4117 25.5209 24.093 25.5209H22.5763C20.2576 25.5209 19.3242 24.6459 19.3242 22.4584Z" stroke="#FFA500" stroke-width="1.5" stroke-linecap="round" stroke-linejoin="round"/>
<path opacity="0.4" d="M2.91797 17.5H6.41797" stroke="#FFA500" stroke-width="1.5" stroke-linecap="round" stroke-linejoin="round"/>
<path opacity="0.4" d="M16.043 17.5H18.9596" stroke="#FFA500" stroke-width="1.5" stroke-linecap="round" stroke-linejoin="round"/>
<path opacity="0.4" d="M32.0831 17.5H28.1602" stroke="#FFA500" stroke-width="1.5" stroke-linecap="round" stroke-linejoin="round"/>
</svg>
