<svg width="65" height="65" viewBox="0 0 65 65" fill="none" xmlns="http://www.w3.org/2000/svg">
<rect x="0.5" y="0.5" width="64" height="64" rx="8.5" fill="#FFA500" stroke="#FFA500"/>
<path d="M35.3192 45.9998C36.2219 45.9998 37.0092 45.2126 37.0092 44.3098V40.3629H38.1376C38.8148 40.3629 39.2661 39.9114 39.2661 39.2344V27.9614H25.7354V39.2345C25.7354 39.9116 26.1868 40.363 26.8638 40.363H27.9924V44.3099C27.9924 45.2127 28.7794 45.9999 29.6824 45.9999C30.585 45.9999 31.3723 45.2127 31.3723 44.3099V40.363H33.6292V44.3099C33.6291 45.2126 34.4164 45.9998 35.3192 45.9998Z" fill="white"/>
<path d="M42.0846 39.2345C42.9873 39.2345 43.7744 38.4474 43.7744 37.5445V29.6507C43.7744 28.7527 42.9874 27.9614 42.0846 27.9614C41.1817 27.9614 40.3945 28.7528 40.3945 29.6507V37.5445C40.3945 38.4472 41.1816 39.2345 42.0846 39.2345Z" fill="white"/>
<path d="M22.9164 39.2345C23.8193 39.2345 24.6065 38.4474 24.6065 37.5445V29.6507C24.6065 28.7527 23.8194 27.9614 22.9164 27.9614C22.0137 27.9614 21.2266 28.7528 21.2266 29.6507V37.5445C21.2266 38.4472 22.0137 39.2345 22.9164 39.2345Z" fill="white"/>
<path d="M37.9118 19.1703C37.6862 18.9432 37.3503 18.9432 37.1247 19.1703L35.6112 20.6787L35.5414 20.7484C34.6439 20.299 33.6377 20.0746 32.5172 20.0724C32.5117 20.0724 32.5063 20.0723 32.5008 20.0723H32.5007C32.495 20.0723 32.4898 20.0724 32.4841 20.0724C31.3637 20.0746 30.3575 20.299 29.4601 20.7484L29.3901 20.6787L27.8766 19.1703C27.6509 18.9432 27.3152 18.9432 27.0896 19.1703C26.8638 19.396 26.8638 19.7311 27.0896 19.9567L28.5536 21.421C28.0819 21.736 27.6541 22.1214 27.2821 22.5623C26.3915 23.6179 25.8234 24.9918 25.7453 26.4804C25.7446 26.4959 25.7431 26.5112 25.7424 26.5267C25.7376 26.628 25.7354 26.7299 25.7354 26.8322H39.266C39.266 26.73 39.2636 26.6281 39.259 26.5267C39.2583 26.5112 39.2568 26.4959 39.2559 26.4804C39.1779 24.9918 38.6097 23.6179 37.7191 22.5624C37.3473 22.1215 36.9193 21.7361 36.4476 21.4211L37.9118 19.9568C38.1376 19.7311 38.1376 19.3961 37.9118 19.1703ZM29.6802 24.8619C29.2133 24.8619 28.8348 24.4834 28.8348 24.0165C28.8348 23.5496 29.2133 23.1712 29.6802 23.1712C30.147 23.1712 30.5256 23.5496 30.5256 24.0165C30.5256 24.4834 30.147 24.8619 29.6802 24.8619ZM35.3212 24.8619C34.8543 24.8619 34.4758 24.4834 34.4758 24.0165C34.4758 23.5496 34.8542 23.1712 35.3212 23.1712C35.788 23.1712 36.1665 23.5496 36.1665 24.0165C36.1665 24.4834 35.7881 24.8619 35.3212 24.8619Z" fill="white"/>
</svg>
