<svg width="20" height="20" viewBox="0 0 20 20" fill="none" xmlns="http://www.w3.org/2000/svg">
<path d="M12.991 4.16666H12.7077V1.66666C12.7077 1.32499 12.4243 1.04166 12.0827 1.04166C11.741 1.04166 11.4577 1.32499 11.4577 1.66666V4.16666H8.54102V1.66666C8.54102 1.32499 8.25768 1.04166 7.91602 1.04166C7.57435 1.04166 7.29102 1.32499 7.29102 1.66666V4.16666H7.00768C6.13268 4.16666 5.41602 4.88332 5.41602 5.75832V9.99999C5.41602 11.8333 6.66602 13.3333 8.74935 13.3333H9.37435V18.3333C9.37435 18.675 9.65768 18.9583 9.99935 18.9583C10.341 18.9583 10.6243 18.675 10.6243 18.3333V13.3333H11.2493C13.3327 13.3333 14.5827 11.8333 14.5827 9.99999V5.75832C14.5827 4.88332 13.866 4.16666 12.991 4.16666Z" fill="#FFA500"/>
</svg>
