<svg width="50" height="50" viewBox="0 0 50 50" fill="none" xmlns="http://www.w3.org/2000/svg">
<path opacity="0.4" d="M40.2083 16.4996V27.2288C40.2083 33.6455 36.5417 36.3954 31.0417 36.3954H12.7292C11.7917 36.3954 10.8958 36.3122 10.0625 36.1247C9.54166 36.0414 9.04167 35.8955 8.58334 35.7288C5.45834 34.5622 3.5625 31.8538 3.5625 27.2288V16.4996C3.5625 10.0829 7.22915 7.33301 12.7292 7.33301H31.0417C35.7083 7.33301 39.0625 9.31216 39.9583 13.833C40.1042 14.6663 40.2083 15.5204 40.2083 16.4996Z" fill="#FAA71A"/>
<path d="M46.4583 22.7496V33.4788C46.4583 39.8955 42.7917 42.6454 37.2917 42.6454H18.9792C17.4375 42.6454 16.0417 42.4372 14.8334 41.9789C12.3542 41.0622 10.6667 39.1664 10.0625 36.1247C10.8958 36.3122 11.7917 36.3954 12.7292 36.3954H31.0417C36.5417 36.3954 40.2083 33.6455 40.2083 27.2288V16.4996C40.2083 15.5204 40.125 14.6455 39.9583 13.833C43.9167 14.6663 46.4583 17.4579 46.4583 22.7496Z" fill="#FAA71A"/>
<path d="M21.875 27.3751C24.9126 27.3751 27.3751 24.9126 27.3751 21.875C27.3751 18.8375 24.9126 16.375 21.875 16.375C18.8375 16.375 16.375 18.8375 16.375 21.875C16.375 24.9126 18.8375 27.3751 21.875 27.3751Z" fill="#FAA71A"/>
<path d="M9.96094 17.1875C9.10677 17.1875 8.39844 17.8958 8.39844 18.75V25C8.39844 25.8542 9.10677 26.5625 9.96094 26.5625C10.8151 26.5625 11.5234 25.8542 11.5234 25V18.75C11.5234 17.8958 10.8359 17.1875 9.96094 17.1875Z" fill="#FAA71A"/>
<path d="M33.7734 17.1875C32.9193 17.1875 32.2109 17.8958 32.2109 18.75V25C32.2109 25.8542 32.9193 26.5625 33.7734 26.5625C34.6276 26.5625 35.3359 25.8542 35.3359 25V18.75C35.3359 17.8958 34.6484 17.1875 33.7734 17.1875Z" fill="#FAA71A"/>
</svg>
