<svg xmlns="http://www.w3.org/2000/svg" xmlns:xlink="http://www.w3.org/1999/xlink" width="17" height="17" viewBox="0 0 17 17">
  <defs>
    <clipPath id="clip-path">
      <rect id="Rectangle_19233" data-name="Rectangle 19233" width="17" height="17" transform="translate(1292 934)" fill="#6e3333" opacity="0.33"/>
    </clipPath>
  </defs>
  <g id="Mask_Group_221" data-name="Mask Group 221" transform="translate(-1292 -934)" clip-path="url(#clip-path)">
    <path id="Path_43160" data-name="Path 43160" d="M753.12,1131c-2.835,0-5.055,1.334-5.055,3.033v1.746a8.244,8.244,0,0,0-1.011-.061c-2.835,0-5.055,1.334-5.055,3.033v5.392c0,1.7,2.22,3.033,5.055,3.033,2.3,0,4.189-.876,4.825-2.109a8.358,8.358,0,0,0,1.24.088c2.835,0,5.055-1.334,5.055-3.033v-8.087C758.175,1132.334,755.955,1131,753.12,1131Zm3.707,8.424c0,.8-1.585,1.685-3.707,1.685a7.11,7.11,0,0,1-1.011-.067V1139.7a8.308,8.308,0,0,0,1.011.061,6.99,6.99,0,0,0,3.707-.95Zm-13.479,1.409a7.705,7.705,0,0,0,7.413,0v.613c0,.8-1.585,1.685-3.707,1.685s-3.707-.889-3.707-1.685Zm13.479-4.1c0,.8-1.585,1.685-3.707,1.685a7.723,7.723,0,0,1-1.055-.074,2.674,2.674,0,0,0-1.15-1.57,8.092,8.092,0,0,0,2.205.3,6.99,6.99,0,0,0,3.707-.95Zm-3.707-4.381c2.122,0,3.707.89,3.707,1.685s-1.585,1.685-3.707,1.685-3.707-.89-3.707-1.685S751,1132.348,753.12,1132.348Zm-6.066,4.718c2.122,0,3.707.889,3.707,1.685s-1.585,1.685-3.707,1.685-3.707-.89-3.707-1.685S744.933,1137.066,747.055,1137.066Zm0,8.761c-2.122,0-3.707-.89-3.707-1.685v-.613a7.705,7.705,0,0,0,7.413,0v.613C750.761,1144.937,749.176,1145.827,747.055,1145.827Zm6.066-2.022a7.11,7.11,0,0,1-1.011-.067V1142.4a8.308,8.308,0,0,0,1.011.061,6.99,6.99,0,0,0,3.707-.95v.613C756.827,1142.916,755.242,1143.805,753.12,1143.805Z" transform="translate(550.825 -196.175)" fill="#777e90"/>
  </g>
</svg>
