<svg width="20" height="20" viewBox="0 0 20 20" fill="none" xmlns="http://www.w3.org/2000/svg">
<path d="M18.3333 4.04167V13.95C18.3333 14.7583 17.675 15.5 16.8667 15.6L16.6083 15.6333C15.2417 15.8167 13.3167 16.3833 11.7667 17.0333C11.225 17.2583 10.625 16.85 10.625 16.2583V4.66667C10.625 4.35834 10.8 4.075 11.075 3.925C12.6 3.1 14.9083 2.36667 16.475 2.23334H16.525C17.525 2.23334 18.3333 3.04167 18.3333 4.04167Z" fill="#FFA500"/>
<path d="M8.92682 3.925C7.40182 3.1 5.09349 2.36667 3.52682 2.23334H3.46849C2.46849 2.23334 1.66016 3.04167 1.66016 4.04167V13.95C1.66016 14.7583 2.31849 15.5 3.12682 15.6L3.38516 15.6333C4.75182 15.8167 6.67682 16.3833 8.22682 17.0333C8.76849 17.2583 9.36849 16.85 9.36849 16.2583V4.66667C9.36849 4.35 9.20182 4.075 8.92682 3.925ZM4.16849 6.45H6.04349C6.38516 6.45 6.66849 6.73334 6.66849 7.075C6.66849 7.425 6.38516 7.7 6.04349 7.7H4.16849C3.82682 7.7 3.54349 7.425 3.54349 7.075C3.54349 6.73334 3.82682 6.45 4.16849 6.45ZM6.66849 10.2H4.16849C3.82682 10.2 3.54349 9.925 3.54349 9.575C3.54349 9.23334 3.82682 8.95 4.16849 8.95H6.66849C7.01016 8.95 7.29349 9.23334 7.29349 9.575C7.29349 9.925 7.01016 10.2 6.66849 10.2Z" fill="#FFA500"/>
</svg>
