<svg xmlns="http://www.w3.org/2000/svg" xmlns:xlink="http://www.w3.org/1999/xlink" width="17" height="17" viewBox="0 0 17 17">
  <defs>
    <clipPath id="clip-path">
      <rect id="Rectangle_19237" data-name="Rectangle 19237" width="17" height="17" transform="translate(1388 935)" fill="#6e3333" opacity="0.33"/>
    </clipPath>
  </defs>
  <g id="Mask_Group_225" data-name="Mask Group 225" transform="translate(-1388 -935)" clip-path="url(#clip-path)">
    <path id="Path_43592" data-name="Path 43592" d="M756.715,1469.924l-2.469-2.472A4.932,4.932,0,0,0,750.74,1466h-3.2a3.544,3.544,0,0,0-3.542,3.542v9.917a3.544,3.544,0,0,0,3.542,3.542h7.083a3.544,3.544,0,0,0,3.542-3.542v-6.035a4.936,4.936,0,0,0-1.452-3.506Zm-1,1a3.587,3.587,0,0,1,.57.744h-3.075a.71.71,0,0,1-.708-.708v-3.074a3.788,3.788,0,0,1,.744.567l2.469,2.472Zm1.037,8.536a2.129,2.129,0,0,1-2.125,2.125h-7.083a2.129,2.129,0,0,1-2.125-2.125v-9.917a2.129,2.129,0,0,1,2.125-2.125h3.2c.115,0,.23.007.344.014v3.527a2.129,2.129,0,0,0,2.125,2.125h3.525c.011.113.016.227.016.34Zm-3.187-4.25H748.6a1.772,1.772,0,0,0-1.771,1.771v1.417a1.772,1.772,0,0,0,1.771,1.771h4.958a1.772,1.772,0,0,0,1.771-1.771v-1.417A1.772,1.772,0,0,0,753.563,1475.208Zm.354,3.188a.357.357,0,0,1-.354.354H748.6a.357.357,0,0,1-.354-.354v-1.417a.352.352,0,0,1,.354-.354h4.958a.352.352,0,0,1,.354.354Zm-7.083-5.312a.709.709,0,0,1,.708-.708h1.417a.708.708,0,1,1,0,1.417h-1.417A.709.709,0,0,1,746.833,1473.083Zm0-2.833a.709.709,0,0,1,.708-.708h1.417a.708.708,0,0,1,0,1.417h-1.417A.709.709,0,0,1,746.833,1470.25Z" transform="translate(645 -531)" fill="#777e90"/>
  </g>
</svg>
