<svg width="50" height="50" viewBox="0 0 50 50" fill="none" xmlns="http://www.w3.org/2000/svg">
<rect width="50" height="50" rx="7" fill="#FAFAFF"/>
<path d="M28 35.75H22C16.57 35.75 14.25 33.43 14.25 28V22C14.25 16.57 16.57 14.25 22 14.25H28C33.43 14.25 35.75 16.57 35.75 22V28C35.75 33.43 33.43 35.75 28 35.75ZM22 15.75C17.39 15.75 15.75 17.39 15.75 22V28C15.75 32.61 17.39 34.25 22 34.25H28C32.61 34.25 34.25 32.61 34.25 28V22C34.25 17.39 32.61 15.75 28 15.75H22Z" fill="#081131"/>
<path d="M21.5698 29.0201C21.3798 29.0201 21.1898 28.9501 21.0398 28.8001C20.7498 28.5101 20.7498 28.0301 21.0398 27.7401L27.5898 21.1902C27.8798 20.9002 28.3598 20.9002 28.6498 21.1902C28.9398 21.4802 28.9398 21.9602 28.6498 22.2502L22.0998 28.8001C21.9498 28.9501 21.7598 29.0201 21.5698 29.0201Z" fill="#081131"/>
<path d="M21.98 24.1104C20.89 24.1104 20 23.2204 20 22.1304C20 21.0404 20.89 20.1504 21.98 20.1504C23.07 20.1504 23.96 21.0404 23.96 22.1304C23.96 23.2204 23.07 24.1104 21.98 24.1104ZM21.98 21.6604C21.72 21.6604 21.5 21.8704 21.5 22.1404C21.5 22.4104 21.71 22.6204 21.98 22.6204C22.25 22.6204 22.46 22.4104 22.46 22.1404C22.46 21.8704 22.24 21.6604 21.98 21.6604Z" fill="#081131"/>
<path d="M28.519 29.8409C27.429 29.8409 26.5391 28.9508 26.5391 27.8608C26.5391 26.7708 27.429 25.8809 28.519 25.8809C29.609 25.8809 30.4991 26.7708 30.4991 27.8608C30.4991 28.9508 29.609 29.8409 28.519 29.8409ZM28.519 27.3909C28.259 27.3909 28.0391 27.6008 28.0391 27.8708C28.0391 28.1408 28.249 28.3509 28.519 28.3509C28.789 28.3509 28.9991 28.1408 28.9991 27.8708C28.9991 27.6008 28.789 27.3909 28.519 27.3909Z" fill="#081131"/>
</svg>
