<svg width="50" height="50" viewBox="0 0 50 50" fill="none" xmlns="http://www.w3.org/2000/svg">
<rect width="50" height="50" rx="7" fill="#FAFAFF"/>
<path d="M20.4995 28.2495C20.3095 28.2495 20.1195 28.1795 19.9695 28.0295C19.6795 27.7395 19.6795 27.2595 19.9695 26.9695L23.1695 23.7695C23.3295 23.6095 23.5395 23.5295 23.7695 23.5495C23.9895 23.5695 24.1895 23.6895 24.3195 23.8795L25.4095 25.5195L28.9595 21.9695C29.2495 21.6795 29.7295 21.6795 30.0195 21.9695C30.3095 22.2595 30.3095 22.7395 30.0195 23.0295L25.8195 27.2295C25.6595 27.3895 25.4495 27.4695 25.2195 27.4495C24.9995 27.4295 24.7995 27.3095 24.6695 27.1195L23.5795 25.4795L21.0295 28.0295C20.8795 28.1795 20.6895 28.2495 20.4995 28.2495Z" fill="#292D32"/>
<path d="M29.5 25.25C29.09 25.25 28.75 24.91 28.75 24.5V23.25H27.5C27.09 23.25 26.75 22.91 26.75 22.5C26.75 22.09 27.09 21.75 27.5 21.75H29.5C29.91 21.75 30.25 22.09 30.25 22.5V24.5C30.25 24.91 29.91 25.25 29.5 25.25Z" fill="#292D32"/>
<path d="M28 35.75H22C16.57 35.75 14.25 33.43 14.25 28V22C14.25 16.57 16.57 14.25 22 14.25H28C33.43 14.25 35.75 16.57 35.75 22V28C35.75 33.43 33.43 35.75 28 35.75ZM22 15.75C17.39 15.75 15.75 17.39 15.75 22V28C15.75 32.61 17.39 34.25 22 34.25H28C32.61 34.25 34.25 32.61 34.25 28V22C34.25 17.39 32.61 15.75 28 15.75H22Z" fill="#292D32"/>
</svg>
