<svg width="50" height="50" viewBox="0 0 50 50" fill="none" xmlns="http://www.w3.org/2000/svg">
<rect width="50" height="50" rx="7" fill="#FAFAFF"/>
<mask id="mask0_4591_11355" style="mask-type:alpha" maskUnits="userSpaceOnUse" x="13" y="13" width="24" height="24">
<rect x="13" y="13" width="24" height="24" fill="#D9D9D9"/>
</mask>
<g mask="url(#mask0_4591_11355)">
<path d="M21.9064 36.79H16.9414C15.8805 36.79 14.8631 36.3685 14.113 35.6184C13.3628 34.8683 12.9414 33.8508 12.9414 32.79V27.79C12.9414 26.7291 13.3628 25.7117 14.113 24.9615C14.8631 24.2114 15.8805 23.79 16.9414 23.79H25.7984C26.3396 23.7902 26.8716 23.9302 27.3428 24.1963C27.8141 24.4624 28.2087 24.8457 28.4884 25.309L31.7054 21.774C31.9715 21.4814 32.2926 21.2441 32.6505 21.0756C33.0084 20.9072 33.3959 20.811 33.791 20.7924C34.186 20.7738 34.5809 20.8333 34.953 20.9674C35.325 21.1015 35.667 21.3076 35.9594 21.574C36.5428 22.1099 36.8924 22.8535 36.933 23.6446C36.9736 24.4357 36.7019 25.2112 36.1764 25.804L29.3764 33.441C28.4375 34.494 27.2867 35.3367 25.9993 35.9138C24.712 36.491 23.3172 36.7896 21.9064 36.79ZM16.9414 25.79C16.411 25.79 15.9023 26.0007 15.5272 26.3758C15.1521 26.7508 14.9414 27.2595 14.9414 27.79V32.79C14.9414 33.3204 15.1521 33.8291 15.5272 34.2042C15.9023 34.5793 16.411 34.79 16.9414 34.79H21.9064C23.0343 34.7895 24.1494 34.5507 25.1786 34.0892C26.2078 33.6277 27.1278 32.9539 27.8784 32.112L34.6834 24.474C34.8601 24.275 34.9515 24.0145 34.9381 23.7487C34.9246 23.483 34.8073 23.2331 34.6114 23.053C34.4122 22.8739 34.1511 22.7796 33.8834 22.79C33.7507 22.7956 33.6205 22.8276 33.5003 22.8841C33.3801 22.9405 33.2724 23.0204 33.1834 23.119L28.7574 27.99C28.5631 28.5277 28.2264 29.0027 27.7833 29.3641C27.3402 29.7255 26.8073 29.9598 26.2414 30.042L21.0804 30.78C20.8178 30.8176 20.5511 30.7495 20.3388 30.5904C20.1265 30.4314 19.9861 30.1945 19.9484 29.932C19.9107 29.6694 19.9789 29.4026 20.138 29.1904C20.297 28.9781 20.5338 28.8376 20.7964 28.8L25.9584 28.063C26.2449 28.0229 26.5056 27.8756 26.6877 27.6508C26.8698 27.426 26.9598 27.1404 26.9395 26.8518C26.9192 26.5632 26.7901 26.293 26.5783 26.0959C26.3664 25.8989 26.0877 25.7895 25.7984 25.79H16.9414Z" fill="#081131"/>
<mask id="mask1_4591_11355" style="mask-type:alpha" maskUnits="userSpaceOnUse" x="4" y="4" width="36" height="22">
<rect x="39.9785" y="18.3789" width="33.7384" height="14.6689" transform="rotate(168.595 39.9785 18.3789)" fill="#D9D9D9"/>
</mask>
<g mask="url(#mask1_4591_11355)">
<path d="M26.1893 27.8957C27.6113 27.6088 28.9162 26.9067 29.9392 25.8782C30.9622 24.8497 31.6571 23.541 31.9363 22.1174C32.2154 20.6939 32.0662 19.2196 31.5074 17.8809C30.9487 16.5423 30.0055 15.3993 28.7972 14.5967C27.5889 13.794 26.1697 13.3677 24.7191 13.3716C23.2684 13.3756 21.8516 13.8096 20.6476 14.6188C19.4437 15.4279 18.5067 16.576 17.9552 17.9177C17.4037 19.2594 17.2625 20.7345 17.5493 22.1564C17.9359 24.0622 19.0627 25.7368 20.6825 26.8127C22.3023 27.8887 24.2827 28.2781 26.1893 27.8957ZM23.5303 14.7147C24.7153 14.4757 25.9445 14.5934 27.0626 15.053C28.1807 15.5125 29.1374 16.2933 29.8117 17.2966C30.486 18.2999 30.8477 19.4807 30.8509 20.6895C30.8542 21.8983 30.499 23.081 29.8301 24.0879C29.1612 25.0949 28.2088 25.8809 27.0932 26.3465C25.9776 26.8121 24.749 26.9365 23.5628 26.7039C22.3765 26.4712 21.2859 25.8921 20.4288 25.0396C19.5717 24.1872 18.9866 23.0997 18.7476 21.9147C18.4289 20.3259 18.7535 18.6755 19.6501 17.3257C20.5467 15.9759 21.9422 15.0369 23.5303 14.7147Z" fill="#081131"/>
</g>
</g>
</svg>
