<svg width="50" height="50" viewBox="0 0 50 50" fill="none" xmlns="http://www.w3.org/2000/svg">
<rect width="50" height="50" rx="7" fill="#FAFAFF"/>
<path d="M19.8809 31.9001C19.4709 31.9001 19.1309 31.5601 19.1309 31.1501V29.0801C19.1309 28.6701 19.4709 28.3301 19.8809 28.3301C20.2909 28.3301 20.6309 28.6701 20.6309 29.0801V31.1501C20.6309 31.5701 20.2909 31.9001 19.8809 31.9001Z" fill="#081131"/>
<path d="M25 31.9C24.59 31.9 24.25 31.56 24.25 31.15V27C24.25 26.59 24.59 26.25 25 26.25C25.41 26.25 25.75 26.59 25.75 27V31.15C25.75 31.57 25.41 31.9 25 31.9Z" fill="#081131"/>
<path d="M30.1191 31.8997C29.7091 31.8997 29.3691 31.5597 29.3691 31.1497V24.9297C29.3691 24.5197 29.7091 24.1797 30.1191 24.1797C30.5291 24.1797 30.8691 24.5197 30.8691 24.9297V31.1497C30.8691 31.5697 30.5391 31.8997 30.1191 31.8997Z" fill="#081131"/>
<path d="M19.8796 26.1794C19.5396 26.1794 19.2396 25.9494 19.1496 25.6094C19.0496 25.2094 19.2896 24.7994 19.6996 24.6994C23.3796 23.7794 26.6196 21.7694 29.0896 18.8994L29.5496 18.3594C29.8196 18.0494 30.2896 18.0094 30.6096 18.2794C30.9196 18.5494 30.9596 19.0194 30.6896 19.3394L30.2296 19.8794C27.5596 22.9994 24.0396 25.1694 20.0596 26.1594C19.9996 26.1794 19.9396 26.1794 19.8796 26.1794Z" fill="#081131"/>
<path d="M30.1195 22.5196C29.7095 22.5196 29.3695 22.1796 29.3695 21.7696V19.5996H27.1895C26.7795 19.5996 26.4395 19.2596 26.4395 18.8496C26.4395 18.4396 26.7795 18.0996 27.1895 18.0996H30.1195C30.5295 18.0996 30.8695 18.4396 30.8695 18.8496V21.7796C30.8695 22.1896 30.5395 22.5196 30.1195 22.5196Z" fill="#081131"/>
<path d="M28 35.75H22C16.57 35.75 14.25 33.43 14.25 28V22C14.25 16.57 16.57 14.25 22 14.25H28C33.43 14.25 35.75 16.57 35.75 22V28C35.75 33.43 33.43 35.75 28 35.75ZM22 15.75C17.39 15.75 15.75 17.39 15.75 22V28C15.75 32.61 17.39 34.25 22 34.25H28C32.61 34.25 34.25 32.61 34.25 28V22C34.25 17.39 32.61 15.75 28 15.75H22Z" fill="#081131"/>
</svg>
