<svg width="76" height="76" viewBox="0 0 76 76" fill="none" xmlns="http://www.w3.org/2000/svg">
<circle cx="38" cy="38" r="38" fill="#FFF7F0"/>
<path d="M48.9167 33.8541C48.9167 37.2499 46.4167 40.052 43.1667 40.5416V40.4791C42.8438 36.4374 39.5625 33.1562 35.4896 32.8333H35.4584C35.948 29.5833 38.75 27.0833 42.1459 27.0833C45.8855 27.0833 48.9167 30.1145 48.9167 33.8541Z" fill="#FF9A3B"/>
<path d="M41.6042 40.6042C41.3438 37.3021 38.698 34.6563 35.3959 34.3958C35.2188 34.3854 35.0313 34.375 34.8542 34.375C31.1146 34.375 28.0834 37.4063 28.0834 41.1458C28.0834 44.8854 31.1146 47.9167 34.8542 47.9167C38.5938 47.9167 41.625 44.8854 41.625 41.1458C41.625 40.9688 41.6146 40.7812 41.6042 40.6042ZM35.7709 42.0625L34.8542 43.75L33.9375 42.0625L32.25 41.1458L33.9375 40.2292L34.8542 38.5417L35.7709 40.2292L37.4584 41.1458L35.7709 42.0625Z" fill="#FF9A3B"/>
</svg>
