<svg width="20" height="20" viewBox="0 0 20 20" fill="none" xmlns="http://www.w3.org/2000/svg">
<path d="M19.1667 12.6836C18.825 12.6836 18.5417 12.9669 18.5417 13.3086C18.5417 15.7753 16.825 17.8419 14.5167 18.3836L14.7417 18.0086C14.9167 17.7086 14.825 17.3253 14.525 17.1503C14.2334 16.9753 13.8417 17.0669 13.6667 17.3669L12.7917 18.8253C12.675 19.0169 12.675 19.2586 12.7834 19.4503C12.8917 19.6503 13.1 19.7669 13.325 19.7669C16.8834 19.7669 19.7834 16.8669 19.7834 13.3086C19.7917 12.9669 19.5084 12.6836 19.1667 12.6836Z" fill="#FFA500"/>
<path d="M6.66536 0.183594C3.10703 0.183594 0.207031 3.08359 0.207031 6.64193C0.207031 6.98359 0.490365 7.26693 0.832031 7.26693C1.1737 7.26693 1.45703 6.98359 1.45703 6.64193C1.45703 4.17526 3.1737 2.10859 5.48203 1.56693L5.25703 1.94193C5.08203 2.24193 5.1737 2.62526 5.4737 2.80026C5.76537 2.97526 6.15703 2.88359 6.33203 2.58359L7.20703 1.12526C7.31536 0.933594 7.3237 0.70026 7.20703 0.50026C7.0987 0.308594 6.89037 0.183594 6.66536 0.183594Z" fill="#FFA500"/>
<path d="M17.9159 7.22467C17.9159 9.79134 16.0492 11.908 13.6076 12.2997C13.6076 12.2913 13.6076 12.2913 13.6076 12.283C13.3659 9.17467 10.8492 6.64134 7.69922 6.39134C8.09089 3.94967 10.2076 2.08301 12.7742 2.08301C15.6159 2.08301 17.9159 4.38301 17.9159 7.22467Z" fill="#FFA500"/>
<path d="M8.17396 11.8333C8.17396 11.7083 8.03229 11.5166 7.85729 11.5166H6.14062V12.1416H7.85729C8.03229 12.1499 8.17396 12.0083 8.17396 11.8333Z" fill="#FFA500"/>
<path d="M8.19062 13.4004H7.85729H6.14062V14.0254H8.19896C8.46563 14.0254 8.64896 13.8587 8.64896 13.7087C8.64896 13.5587 8.45729 13.4004 8.19062 13.4004Z" fill="#FFA500"/>
<path d="M12.357 12.375C12.1654 9.85 10.1487 7.83333 7.6237 7.64167C7.49036 7.63333 7.36536 7.625 7.2237 7.625C4.38203 7.625 2.08203 9.925 2.08203 12.775C2.08203 15.6167 4.38203 17.9167 7.2237 17.9167C10.0654 17.9167 12.3737 15.6167 12.3737 12.775C12.3737 12.6333 12.3654 12.5083 12.357 12.375ZM8.19036 15.275H7.64036V15.5917C7.64036 15.9333 7.35703 16.2167 7.01536 16.2167C6.6737 16.2167 6.39036 15.9333 6.39036 15.5917V15.275H5.51536C5.1737 15.275 4.89036 14.9917 4.89036 14.65V12.775V10.9C4.89036 10.5583 5.1737 10.275 5.51536 10.275H6.39036V9.95833C6.39036 9.61667 6.6737 9.33333 7.01536 9.33333C7.35703 9.33333 7.64036 9.61667 7.64036 9.95833V10.275H7.85703C8.69036 10.275 9.4237 11.0083 9.4237 11.8417C9.4237 12.0833 9.36536 12.3083 9.26536 12.5167C9.6487 12.8 9.89036 13.2333 9.89036 13.7167C9.89036 14.575 9.13203 15.275 8.19036 15.275Z" fill="#FFA500"/>
</svg>
