<svg width="50" height="50" viewBox="0 0 50 50" fill="none" xmlns="http://www.w3.org/2000/svg">
<path opacity="0.4" d="M14.0843 45.8337H35.9177C41.6677 45.8337 43.9593 42.3128 44.2302 38.0212L45.3135 20.8128C45.6052 16.3128 42.0218 12.5003 37.501 12.5003C36.2302 12.5003 35.0635 11.7712 34.4802 10.6462L32.9802 7.62533C32.0218 5.72949 29.5218 4.16699 27.3968 4.16699H22.626C20.4802 4.16699 17.9802 5.72949 17.0218 7.62533L15.5218 10.6462C14.9385 11.7712 13.7718 12.5003 12.501 12.5003C7.98017 12.5003 4.39683 16.3128 4.6885 20.8128L5.77183 38.0212C6.02183 42.3128 8.33433 45.8337 14.0843 45.8337Z" fill="#FFA500"/>
<path d="M28.125 18.2295H21.875C21.0208 18.2295 20.3125 17.5212 20.3125 16.667C20.3125 15.8128 21.0208 15.1045 21.875 15.1045H28.125C28.9792 15.1045 29.6875 15.8128 29.6875 16.667C29.6875 17.5212 28.9792 18.2295 28.125 18.2295Z" fill="#FFA500"/>
<path d="M25.0026 37.7708C28.8916 37.7708 32.0443 34.6182 32.0443 30.7292C32.0443 26.8402 28.8916 23.6875 25.0026 23.6875C21.1136 23.6875 17.9609 26.8402 17.9609 30.7292C17.9609 34.6182 21.1136 37.7708 25.0026 37.7708Z" fill="#FFA500"/>
</svg>
