<svg width="40" height="40" viewBox="0 0 40 40" fill="none" xmlns="http://www.w3.org/2000/svg">
<path opacity="0.4" d="M27.0658 6.08301H12.9324C8.81576 6.08301 5.48242 9.43301 5.48242 13.533V29.2163C5.48242 33.3163 8.83242 36.6663 12.9324 36.6663H27.0491C31.1658 36.6663 34.4991 33.3163 34.4991 29.2163V13.533C34.5158 9.41634 31.1658 6.08301 27.0658 6.08301Z" fill="#FFA500"/>
<path d="M23.9169 3.33301H16.0836C14.3503 3.33301 12.9336 4.73301 12.9336 6.46634V8.03301C12.9336 9.76634 14.3336 11.1663 16.0669 11.1663H23.9169C25.6503 11.1663 27.0503 9.76634 27.0503 8.03301V6.46634C27.0669 4.73301 25.6503 3.33301 23.9169 3.33301Z" fill="#FFA500"/>
<path d="M18.0173 28.2504C17.7007 28.2504 17.384 28.1337 17.134 27.8837L14.634 25.3837C14.1507 24.9004 14.1507 24.1004 14.634 23.6171C15.1173 23.1337 15.9173 23.1337 16.4007 23.6171L18.0173 25.2337L23.8007 19.4504C24.284 18.9671 25.084 18.9671 25.5673 19.4504C26.0507 19.9337 26.0507 20.7337 25.5673 21.2171L18.9007 27.8837C18.6673 28.1337 18.334 28.2504 18.0173 28.2504Z" fill="#FFA500"/>
</svg>
