<svg width="20" height="20" viewBox="0 0 20 20" fill="none" xmlns="http://www.w3.org/2000/svg">
<path d="M13.1513 1.66669H6.8513C3.7013 1.66669 2.91797 2.50835 2.91797 5.86669V15.25C2.91797 17.4667 4.13464 17.9917 5.60964 16.4084L5.61797 16.4C6.3013 15.675 7.34297 15.7334 7.93464 16.525L8.7763 17.65C9.4513 18.5417 10.543 18.5417 11.218 17.65L12.0596 16.525C12.6596 15.725 13.7013 15.6667 14.3846 16.4C15.868 17.9834 17.0763 17.4584 17.0763 15.2417V5.86669C17.0846 2.50835 16.3013 1.66669 13.1513 1.66669ZM13.0513 12.1084C12.9263 12.2334 12.768 12.2917 12.6096 12.2917C12.4513 12.2917 12.293 12.2334 12.168 12.1084L11.5513 11.4917C11.068 11.8084 10.4846 12 9.85964 12C8.15964 12 6.7763 10.6167 6.7763 8.91669C6.7763 7.21669 8.1513 5.83335 9.85964 5.83335C11.568 5.83335 12.943 7.21669 12.943 8.91669C12.943 9.54169 12.7513 10.125 12.4346 10.6084L13.0513 11.225C13.293 11.4667 13.293 11.8667 13.0513 12.1084Z" fill="#FFA500"/>
</svg>
