<svg
    width="10"
    height="12"
    viewBox="0 0 10 12"
    fill="none"
    xmlns="http://www.w3.org/2000/svg"
>
    <path
        d="M9.2703 5.43076C9.01183 4.84336 8.64182 4.32288 8.1713 3.8856L7.78548 3.52741C7.72848 3.47649 7.6384 3.49923 7.61317 3.57172L7.44085 4.07196C7.33337 4.38583 7.13597 4.70631 6.85618 5.02165C6.84196 5.0372 6.82253 5.04674 6.80179 5.0485C6.78075 5.05041 6.76001 5.04307 6.74478 5.0284C6.72622 5.0124 6.71694 4.98819 6.71839 4.96398C6.76741 4.15648 6.52881 3.24582 6.00636 2.25474C5.57413 1.43125 4.97364 0.788677 4.22318 0.34083L3.67564 0.0147767C3.60399 -0.0282178 3.51261 0.0281299 3.51652 0.112651L3.54568 0.756394C3.56555 1.19632 3.51522 1.58532 3.39585 1.90859C3.24993 2.30419 3.04049 2.67177 2.77274 3.00164C2.58447 3.23232 2.37372 3.44025 2.1431 3.62C1.58496 4.05317 1.12488 4.61782 0.813327 5.24953C0.49916 5.88814 0.333374 6.60305 0.333374 7.31928C0.333374 7.95231 0.456662 8.56524 0.700627 9.14339C0.936615 9.69997 1.27326 10.2017 1.70158 10.6307C2.13106 11.0599 2.62958 11.3979 3.1851 11.6327C3.76049 11.8767 4.3704 12.0001 5.00019 12.0001C5.62983 12.0001 6.23974 11.8767 6.81513 11.634C7.37065 11.3992 7.87047 11.0626 8.29865 10.6321C8.72812 10.2028 9.06492 9.70129 9.29945 9.14457C9.54342 8.56656 9.66671 7.95349 9.66671 7.3206C9.66671 6.666 9.53414 6.03033 9.2703 5.43076Z"
        fill="url(#paint0_linear_17270_403)"
    />
    <defs>
        <linearGradient
            id="paint0_linear_17270_403"
            x1="5.00004"
            y1="0"
            x2="5.00004"
            y2="12.0001"
            gradientUnits="userSpaceOnUse"
        >
            <stop stop-color="#FDC80D" />
            <stop
                offset="1"
                stop-color="#FA8E03"
            />
        </linearGradient>
    </defs>
</svg>