<svg width="21" height="20" viewBox="0 0 21 20" fill="none" xmlns="http://www.w3.org/2000/svg">
<path d="M9.9987 11.4583H5.83203C5.49036 11.4583 5.20703 11.175 5.20703 10.8333C5.20703 10.4917 5.49036 10.2083 5.83203 10.2083H9.9987C10.3404 10.2083 10.6237 10.4917 10.6237 10.8333C10.6237 11.175 10.3404 11.4583 9.9987 11.4583Z" fill="#71839B"/>
<path d="M13.332 14.7917H5.83203C5.49036 14.7917 5.20703 14.5083 5.20703 14.1667C5.20703 13.825 5.49036 13.5417 5.83203 13.5417H13.332C13.6737 13.5417 13.957 13.825 13.957 14.1667C13.957 14.5083 13.6737 14.7917 13.332 14.7917Z" fill="#71839B"/>
<path d="M12.5013 18.9583H7.5013C2.9763 18.9583 1.04297 17.025 1.04297 12.5V7.50001C1.04297 2.97501 2.9763 1.04167 7.5013 1.04167H11.668C12.0096 1.04167 12.293 1.32501 12.293 1.66667C12.293 2.00834 12.0096 2.29167 11.668 2.29167H7.5013C3.65964 2.29167 2.29297 3.65834 2.29297 7.50001V12.5C2.29297 16.3417 3.65964 17.7083 7.5013 17.7083H12.5013C16.343 17.7083 17.7096 16.3417 17.7096 12.5V8.33334C17.7096 7.99167 17.993 7.70834 18.3346 7.70834C18.6763 7.70834 18.9596 7.99167 18.9596 8.33334V12.5C18.9596 17.025 17.0263 18.9583 12.5013 18.9583Z" fill="#71839B"/>
<path d="M19.1924 4.24405C19.2491 4.1458 19.247 4.02331 19.1907 3.92768C19.1306 3.82996 19.0287 3.77113 18.912 3.77165L18.1187 3.78428C17.9436 3.78506 17.8069 3.92934 17.8077 4.10446C17.8085 4.27958 17.9528 4.41625 18.1279 4.41547L18.2749 4.413C17.523 5.17735 16.3256 5.36902 15.3576 4.81018C15.2084 4.72404 15.0133 4.77633 14.9271 4.92552C14.841 5.07472 14.8954 5.26624 15.0482 5.35447C16.4965 6.19064 18.3562 5.69234 19.1924 4.24405Z" fill="#71839B"/>
<path d="M18.5747 1.94736C18.6608 1.79816 18.6122 1.60511 18.4593 1.51687C17.011 0.6807 15.1513 1.17901 14.3152 2.62729C14.2563 2.72918 14.2605 2.84803 14.3148 2.9473C14.3748 3.04503 14.4767 3.10385 14.5934 3.10333L15.3831 3.0886C15.5603 3.08418 15.7006 2.942 15.6941 2.76842C15.6933 2.5933 15.549 2.45663 15.3739 2.45741L15.2269 2.45988C15.9767 1.69917 17.1762 1.50386 18.1442 2.06271C18.297 2.15094 18.4885 2.09655 18.5747 1.94736Z" fill="#71839B"/>
</svg>
