<svg width="21" height="20" viewBox="0 0 21 20" fill="none" xmlns="http://www.w3.org/2000/svg">
<path d="M16.4993 7.85C16.4827 7.85 16.466 7.85833 16.4493 7.85833C16.366 7.875 16.2827 7.88333 16.191 7.9C15.841 7.93333 15.466 7.91667 15.0827 7.84167C14.9827 7.81667 14.8993 7.8 14.8077 7.76667C14.5327 7.7 14.2743 7.59167 14.0327 7.45C13.9327 7.4 13.8327 7.33333 13.741 7.275C13.341 7 12.9993 6.65833 12.7243 6.25833C12.666 6.16667 12.5993 6.06667 12.5493 5.96667C12.4077 5.725 12.2993 5.46667 12.2327 5.19167C12.1993 5.1 12.1827 5.01667 12.1577 4.91667C12.0827 4.53333 12.066 4.15833 12.0993 3.80833C12.116 3.71667 12.1243 3.63333 12.141 3.55C12.141 3.53333 12.1493 3.51667 12.1493 3.5C12.2493 2.98333 11.866 2.5 11.3327 2.5H6.26602C6.14935 2.5 6.03268 2.50833 5.92435 2.51667C5.82435 2.525 5.73268 2.53333 5.63268 2.55C5.53268 2.55833 5.43268 2.575 5.34102 2.59167C3.33268 2.88333 2.04935 4.15833 1.75768 6.175C1.74102 6.26667 1.72435 6.36667 1.71602 6.46667C1.69935 6.56667 1.69102 6.65833 1.68268 6.75833C1.67435 6.86667 1.66602 6.98333 1.66602 7.1V13.7333C1.66602 13.85 1.67435 13.9667 1.68268 14.075C1.69102 14.175 1.69935 14.2667 1.71602 14.3667C1.72435 14.4667 1.74102 14.5667 1.75768 14.6583C2.04935 16.675 3.33268 17.95 5.34102 18.2417C5.43268 18.2583 5.53268 18.275 5.63268 18.2833C5.73268 18.3 5.82435 18.3083 5.92435 18.3167C6.03268 18.325 6.14935 18.3333 6.26602 18.3333H12.8993C13.016 18.3333 13.1327 18.325 13.241 18.3167C13.341 18.3083 13.4327 18.3 13.5327 18.2833C13.6327 18.275 13.7327 18.2583 13.8243 18.2417C15.8327 17.95 17.116 16.675 17.4077 14.6583C17.4243 14.5667 17.441 14.4667 17.4493 14.3667C17.466 14.2667 17.4743 14.175 17.4827 14.075C17.491 13.9667 17.4993 13.85 17.4993 13.7333V8.66667C17.4993 8.13333 17.016 7.75 16.4993 7.85ZM5.62435 10.4167H9.79102C10.1327 10.4167 10.416 10.7 10.416 11.0417C10.416 11.3833 10.1327 11.6667 9.79102 11.6667H5.62435C5.28268 11.6667 4.99935 11.3833 4.99935 11.0417C4.99935 10.7 5.28268 10.4167 5.62435 10.4167ZM13.1243 15H5.62435C5.28268 15 4.99935 14.7167 4.99935 14.375C4.99935 14.0333 5.28268 13.75 5.62435 13.75H13.1243C13.466 13.75 13.7493 14.0333 13.7493 14.375C13.7493 14.7167 13.466 15 13.1243 15Z" fill="#FFA500"/>
<path d="M19.1963 4.24405C19.253 4.1458 19.2509 4.02331 19.1946 3.92768C19.1345 3.82996 19.0327 3.77113 18.9159 3.77165L18.1226 3.78428C17.9475 3.78506 17.8108 3.92934 17.8116 4.10446C17.8124 4.27958 17.9567 4.41625 18.1318 4.41547L18.2788 4.413C17.527 5.17735 16.3295 5.36902 15.3615 4.81018C15.2123 4.72404 15.0172 4.77633 14.931 4.92552C14.8449 5.07472 14.8993 5.26624 15.0521 5.35447C16.5004 6.19064 18.3601 5.69234 19.1963 4.24405Z" fill="#FFA500"/>
<path d="M18.5766 1.94736C18.6628 1.79816 18.6141 1.60511 18.4613 1.51687C17.013 0.6807 15.1533 1.17901 14.3171 2.62729C14.2583 2.72918 14.2625 2.84803 14.3167 2.9473C14.3768 3.04503 14.4786 3.10385 14.5954 3.10333L15.385 3.0886C15.5623 3.08418 15.7026 2.942 15.6961 2.76842C15.6953 2.5933 15.551 2.45663 15.3759 2.45741L15.2289 2.45988C15.9786 1.69917 17.1782 1.50386 18.1461 2.06271C18.299 2.15094 18.4905 2.09655 18.5766 1.94736Z" fill="#FFA500"/>
</svg>
