<svg width="54" height="53" viewBox="0 0 54 53" fill="none" xmlns="http://www.w3.org/2000/svg">
<path d="M39.1949 41.4287L20.2862 44.5624C11.9474 45.9443 8.99374 43.8305 7.61178 35.4917L7.4551 34.5463C7.32662 33.771 7.86297 33.0216 8.63823 32.8931C10.4535 32.5923 11.6997 30.8509 11.3989 29.0357C11.098 27.2204 9.35667 25.9742 7.54143 26.275C6.76617 26.4035 6.01673 25.8672 5.88825 25.0919L5.73156 24.1465C4.3496 15.8077 6.46346 12.854 14.8022 11.472L33.711 8.33835C42.0497 6.95639 45.0034 9.07025 46.3854 17.409L46.6988 19.2999C46.8272 20.0751 46.2909 20.8246 45.5156 20.9531C43.7004 21.2539 42.4542 22.9953 42.755 24.8105C43.0558 26.6257 44.7972 27.872 46.6124 27.5711C47.3877 27.4427 48.1371 27.979 48.2656 28.7543C49.6476 37.093 47.5337 40.0467 39.1949 41.4287ZM10.4982 35.3242C11.614 41.8225 13.1603 42.8291 19.8161 41.7261L38.7249 38.5924C45.0404 37.5457 46.3871 36.1763 45.6172 30.4754C42.8067 30.2806 40.3981 28.1736 39.9187 25.2806C39.4392 22.3875 41.0582 19.613 43.6556 18.522L43.5491 17.8791C42.4303 11.1286 40.9504 10.0528 34.181 11.1747L15.2723 14.3084C8.61639 15.4114 7.47756 16.863 8.51774 23.3739C11.3282 23.5686 13.7557 25.6726 14.2352 28.5656C14.7146 31.4586 13.0956 34.2332 10.4982 35.3242Z" fill="#F7F7F7"/>
<path d="M21.7263 18.0956C20.9511 18.224 20.2016 17.6877 20.0731 16.9124L19.2897 12.1852C19.1612 11.41 19.6976 10.6605 20.4728 10.5321C21.2481 10.4036 21.9975 10.9399 22.126 11.7152L22.9095 16.4424C23.0379 17.2176 22.5016 17.9671 21.7263 18.0956Z" fill="#F7F7F7"/>
<path d="M24.0227 31.9558C23.2474 32.0843 22.498 31.548 22.3695 30.7727L21.2194 23.8332C21.0909 23.0579 21.6273 22.3085 22.4025 22.18C23.1778 22.0515 23.9272 22.5879 24.0557 23.3631L25.2058 30.3027C25.3374 31.0968 24.7979 31.8274 24.0227 31.9558Z" fill="#F7F7F7"/>
<path d="M25.9568 43.6224C25.1815 43.7509 24.4321 43.2145 24.3036 42.4393L23.5202 37.7121C23.3917 36.9368 23.9281 36.1874 24.7033 36.0589C25.4786 35.9304 26.228 36.4668 26.3565 37.242L27.1399 41.9692C27.2684 42.7445 26.7321 43.4939 25.9568 43.6224Z" fill="#F7F7F7"/>
</svg>
