<svg width="66" height="66" viewBox="0 0 66 66" fill="none" xmlns="http://www.w3.org/2000/svg">
<g clip-path="url(#clip0_2150_10901)">
<path d="M53.3204 25.6199C53.384 25.2745 53.3419 24.9178 53.1995 24.5967C51.5751 19.1817 47.9017 14.6144 42.9608 11.8667C38.02 9.11911 32.202 8.40816 26.7449 9.8852C21.2879 11.3622 16.6227 14.9106 13.7422 19.7752C10.8618 24.6398 9.99348 30.4364 11.3221 35.9315C11.3287 36.2035 11.4033 36.4694 11.539 36.7052C11.6747 36.941 11.8673 37.139 12.0991 37.2813L28.62 45.3543L31.8081 56.9431C31.8941 57.2557 32.1007 57.5213 32.3825 57.6815C32.6644 57.8417 32.9983 57.8834 33.3109 57.7975L45.4261 54.4645C45.7386 54.3785 46.0043 54.1719 46.1645 53.89C46.3247 53.6082 46.3664 53.2743 46.2804 52.9617L43.0922 41.3729L53.1668 25.9833C53.2387 25.872 53.2907 25.7491 53.3204 25.6199ZM41.0004 40.0975L39.7119 40.452L40.1918 28.9866C40.185 28.8602 40.1701 28.7345 40.1473 28.61C39.7851 27.2257 39.9651 25.7553 40.6506 24.4992C41.3361 23.2431 42.4753 22.2961 43.8356 21.8518C45.1958 21.4075 46.6743 21.4993 47.9691 22.1085C49.264 22.7177 50.2773 23.7983 50.8021 25.1295L41.0004 40.0975ZM33.5285 42.1531L26.9461 32.0812C26.5523 30.6497 26.7432 29.1203 27.477 27.8296C28.2108 26.5388 29.4273 25.5925 30.8588 25.1986C32.2903 24.8048 33.8197 24.9958 35.1104 25.7296C36.4012 26.4633 37.3475 27.6798 37.7414 29.1114L37.2369 41.1329L33.5285 42.1531ZM29.7651 43.1884L13.7065 35.3516C13.4244 33.9208 13.7118 32.4364 14.5076 31.2142C15.3033 29.9921 16.5445 29.1287 17.9672 28.8078C19.3898 28.4869 20.8815 28.7338 22.1248 29.496C23.3681 30.2583 24.2649 31.4756 24.6244 32.8889C24.6685 33.0075 24.72 33.1232 24.7788 33.2352L31.0536 42.8339L29.7651 43.1884ZM27.2773 12.1799C31.0595 11.1574 35.0629 11.3055 38.7592 12.6046C42.4556 13.9037 45.6714 16.2928 47.9823 19.4568C46.5051 18.984 44.9221 18.9525 43.4273 19.3661C42.1088 19.7285 40.9041 20.4205 39.9268 21.3769C38.9494 22.3333 38.2315 23.5226 37.8405 24.833C36.8356 23.9078 35.6118 23.2536 34.2843 22.9318C32.9568 22.6101 31.5692 22.6313 30.2522 22.9936C28.9352 23.356 27.732 24.0474 26.7559 25.0029C25.7798 25.9584 25.0628 27.1466 24.6725 28.4556C23.8881 27.7323 22.9676 27.1723 21.9646 26.8083C20.9617 26.4442 19.8963 26.2834 18.8306 26.3351C17.7649 26.3868 16.7201 26.65 15.7571 27.1095C14.7941 27.5689 13.9322 28.2154 13.2215 29.0112C13.5914 25.1147 15.132 21.4214 17.6409 18.4172C20.1497 15.4129 23.5091 13.2385 27.2773 12.1799ZM43.5991 52.4317L33.8409 55.1162L31.1521 45.3423L40.9103 42.6578L43.5991 52.4317Z" fill="#F6F6F6"/>
</g>
<defs>
<clipPath id="clip0_2150_10901">
<rect width="52.1518" height="52.1518" fill="white" transform="translate(0.945312 14.7754) rotate(-15.3819)"/>
</clipPath>
</defs>
</svg>
