<svg width="30" height="30" viewBox="0 0 30 30" fill="none" xmlns="http://www.w3.org/2000/svg">
<path opacity="0.4" d="M22.5 25.6252H21.25V25.3127C21.25 23.9377 20.125 22.8127 18.75 22.8127H15.9375V19.9502C15.625 19.9877 15.3125 20.0002 15 20.0002C14.6875 20.0002 14.375 19.9877 14.0625 19.9502V22.8127H11.25C9.875 22.8127 8.75 23.9377 8.75 25.3127V25.6252H7.5C6.9875 25.6252 6.5625 26.0502 6.5625 26.5627C6.5625 27.0752 6.9875 27.5002 7.5 27.5002H22.5C23.0125 27.5002 23.4375 27.0752 23.4375 26.5627C23.4375 26.0502 23.0125 25.6252 22.5 25.6252Z" fill="#FFA500"/>
<path opacity="0.4" d="M6.89961 14.55C6.07461 14.2375 5.34961 13.725 4.77461 13.15C3.61211 11.8625 2.84961 10.325 2.84961 8.525C2.84961 6.725 4.26211 5.3125 6.06211 5.3125H6.76211C6.43711 5.975 6.24961 6.7125 6.24961 7.5V11.25C6.24961 12.425 6.47461 13.5375 6.89961 14.55Z" fill="#FFA500"/>
<path opacity="0.4" d="M27.1496 8.525C27.1496 10.325 26.3871 11.8625 25.2246 13.15C24.6496 13.725 23.9246 14.2375 23.0996 14.55C23.5246 13.5375 23.7496 12.425 23.7496 11.25V7.5C23.7496 6.7125 23.5621 5.975 23.2371 5.3125H23.9371C25.7371 5.3125 27.1496 6.725 27.1496 8.525Z" fill="#FFA500"/>
<path d="M18.75 2.5H11.25C8.4875 2.5 6.25 4.7375 6.25 7.5V11.25C6.25 16.0875 10.1625 20 15 20C19.8375 20 23.75 16.0875 23.75 11.25V7.5C23.75 4.7375 21.5125 2.5 18.75 2.5ZM18.55 10.5625L17.775 11.5125C17.65 11.65 17.5625 11.925 17.575 12.1125L17.65 13.3375C17.7 14.0875 17.1625 14.475 16.4625 14.2L15.325 13.75C15.15 13.6875 14.85 13.6875 14.675 13.75L13.5375 14.2C12.8375 14.475 12.3 14.0875 12.35 13.3375L12.425 12.1125C12.4375 11.925 12.35 11.65 12.225 11.5125L11.45 10.5625C10.9625 9.9875 11.175 9.35 11.9 9.1625L13.0875 8.8625C13.275 8.8125 13.5 8.6375 13.6 8.475L14.2625 7.45C14.675 6.8125 15.325 6.8125 15.7375 7.45L16.4 8.475C16.5 8.6375 16.725 8.8125 16.9125 8.8625L18.1 9.1625C18.825 9.35 19.0375 9.9875 18.55 10.5625Z" fill="#FFA500"/>
<path opacity="0.4" d="M18.5507 10.5623L17.7757 11.5123C17.6507 11.6498 17.5632 11.9248 17.5757 12.1123L17.6507 13.3373C17.7007 14.0873 17.1632 14.4748 16.4632 14.1998L15.3257 13.7498C15.1507 13.6873 14.8507 13.6873 14.6757 13.7498L13.5382 14.1998C12.8382 14.4748 12.3007 14.0873 12.3507 13.3373L12.4257 12.1123C12.4382 11.9248 12.3507 11.6498 12.2257 11.5123L11.4507 10.5623C10.9632 9.9873 11.1757 9.3498 11.9007 9.1623L13.0882 8.8623C13.2757 8.8123 13.5007 8.6373 13.6007 8.4748L14.2632 7.4498C14.6757 6.8123 15.3257 6.8123 15.7382 7.4498L16.4007 8.4748C16.5007 8.6373 16.7257 8.8123 16.9132 8.8623L18.1007 9.1623C18.8257 9.3498 19.0382 9.9873 18.5507 10.5623Z" fill="#FFA500"/>
</svg>
