<svg width="25" height="25" viewBox="0 0 25 25" fill="none" xmlns="http://www.w3.org/2000/svg">
<path d="M19.679 4.52499C18.2457 3.86944 16.7235 3.39166 15.1346 3.125C14.9346 3.46945 14.7123 3.93611 14.5568 4.30278C12.8668 4.05833 11.189 4.05833 9.52233 4.30278C9.36677 3.93611 9.13343 3.46945 8.94453 3.125C7.34456 3.39166 5.82234 3.86944 4.39901 4.52499C1.52124 8.76942 0.743457 12.9138 1.13235 17.0027C3.04345 18.3916 4.88791 19.2361 6.70013 19.7917C7.14458 19.1916 7.54458 18.5472 7.88903 17.8694C7.23347 17.625 6.61125 17.325 6.01125 16.9694C6.1668 16.8583 6.32237 16.7361 6.46681 16.6139C10.089 18.2694 14.0124 18.2694 17.5901 16.6139C17.7457 16.7361 17.8901 16.8583 18.0457 16.9694C17.4456 17.325 16.8235 17.625 16.1679 17.8694C16.5123 18.5472 16.9124 19.1916 17.3568 19.7917C19.1679 19.2361 21.0235 18.3916 22.9245 17.0027C23.4023 12.2694 22.1679 8.15836 19.679 4.52499ZM8.38902 14.4805C7.30012 14.4805 6.41123 13.4917 6.41123 12.2806C6.41123 11.0695 7.2779 10.0805 8.38902 10.0805C9.489 10.0805 10.389 11.0695 10.3667 12.2806C10.3667 13.4917 9.489 14.4805 8.38902 14.4805ZM15.6902 14.4805C14.6012 14.4805 13.7112 13.4917 13.7112 12.2806C13.7112 11.0695 14.579 10.0805 15.6902 10.0805C16.7901 10.0805 17.6901 11.0695 17.6679 12.2806C17.6679 13.4917 16.8012 14.4805 15.6902 14.4805Z" fill="#5865F2"/>
</svg>
