<svg width="58" height="58" viewBox="0 0 58 58" fill="none" xmlns="http://www.w3.org/2000/svg">
<mask id="mask0_2343_33062" style="mask-type:alpha" maskUnits="userSpaceOnUse" x="0" y="0" width="58" height="58">
<rect width="58" height="58" fill="#D9D9D9"/>
</mask>
<g mask="url(#mask0_2343_33062)">
</g>
<rect x="5.5" y="7.5" width="47" height="43" rx="7.5" fill="white"/>
<path d="M34 20.5H24C21 20.5 19 22 19 25.5V32.5C19 36 21 37.5 24 37.5H34C37 37.5 39 36 39 32.5V25.5C39 22 37 20.5 34 20.5ZM34.47 26.59L31.34 29.09C30.68 29.62 29.84 29.88 29 29.88C28.16 29.88 27.31 29.62 26.66 29.09L23.53 26.59C23.21 26.33 23.16 25.85 23.41 25.53C23.67 25.21 24.14 25.15 24.46 25.41L27.59 27.91C28.35 28.52 29.64 28.52 30.4 27.91L33.53 25.41C33.85 25.15 34.33 25.2 34.58 25.53C34.84 25.85 34.79 26.33 34.47 26.59Z" fill="#292D32"/>
<rect x="5.5" y="7.5" width="47" height="43" rx="7.5" stroke="#ECECEC"/>
</svg>
