<svg width="25" height="25" viewBox="0 0 25 25" fill="none" xmlns="http://www.w3.org/2000/svg">
<path d="M13.7019 24.8818H2.20743C1.47565 24.8818 0.882812 24.2887 0.882812 23.5572V2.20644C0.882812 1.47476 1.47574 0.881836 2.20743 0.881836H23.5583C24.2898 0.881836 24.8828 1.47476 24.8828 2.20644V23.5572C24.8828 24.2887 24.2897 24.8818 23.5583 24.8818H17.4425V15.5877H20.5621L21.0291 11.9656H17.4425V9.65315C17.4425 8.60448 17.7337 7.88984 19.2374 7.88984L21.1555 7.88901V4.64938C20.8238 4.60524 19.6853 4.50662 18.3606 4.50662C15.5952 4.50662 13.7019 6.1946 13.7019 9.29444V11.9656H10.5744V15.5877H13.7019V24.8818Z" fill="#1976D2"/>
</svg>
