<svg width="30" height="30" viewBox="0 0 30 30" fill="none" xmlns="http://www.w3.org/2000/svg">
<path opacity="0.4" d="M27.5 9.7625V18.95C27.1375 18.775 26.7375 18.65 26.2875 18.575L25.9 18.5125L25.575 17.8375C24.8875 16.4375 23.7625 15.625 22.5 15.625C21.2375 15.625 20.1125 16.4375 19.425 17.8375L19.0875 18.5125L18.7125 18.575C17.225 18.825 16.15 19.65 15.7625 20.825C15.3875 22.0125 15.775 23.3125 16.8375 24.3875L17.225 24.775L17.1875 24.925C16.9375 26.0375 17.0375 26.8875 17.275 27.5H9.7625C5.2125 27.5 2.5 24.7875 2.5 20.2375V9.7625C2.5 5.2125 5.2125 2.5 9.7625 2.5H20.2375C24.7875 2.5 27.5 5.2125 27.5 9.7625Z" fill="#FFA500"/>
<path d="M23.8999 18.6748L24.2999 19.4873C24.4999 19.8873 25.0124 20.2623 25.4374 20.3373L25.9749 20.4248C27.6124 20.6998 27.9874 21.8998 26.8249 23.0748L26.3249 23.5748C25.9874 23.9123 25.8124 24.5623 25.9124 25.0373L25.9749 25.3373C26.4249 27.3123 25.3749 28.0748 23.6624 27.0373L23.2999 26.8123C22.8624 26.5498 22.1374 26.5498 21.6999 26.8123L21.3374 27.0373C19.6124 28.0748 18.5749 27.3123 19.0249 25.3373L19.0874 25.0373C19.1874 24.5748 19.0124 23.9123 18.6749 23.5748L18.1749 23.0748C17.0124 21.8873 17.3874 20.6998 19.0249 20.4248L19.5624 20.3373C19.9999 20.2623 20.4999 19.8873 20.6999 19.4873L21.0999 18.6748C21.8749 17.1123 23.1249 17.1123 23.8999 18.6748Z" fill="#FFA500"/>
<path fill-rule="evenodd" clip-rule="evenodd" d="M20.1616 9.89679C20.5708 10.214 20.6454 10.8029 20.3281 11.2121L17.4351 14.9442C16.6915 15.8847 15.3204 16.0562 14.364 15.3171L14.3574 15.312L12.0742 13.5154C11.9332 13.4082 11.7364 13.4349 11.6293 13.5731C11.6292 13.5732 11.6294 13.573 11.6293 13.5731L8.65488 17.4348C8.33894 17.845 7.75028 17.9214 7.34009 17.6055C6.92989 17.2895 6.85348 16.7009 7.16943 16.2907L10.1453 12.427C10.8877 11.4663 12.2642 11.2926 13.2229 12.0334L13.2294 12.0385L15.5126 13.8351C15.6552 13.9434 15.856 13.9155 15.9624 13.7836L18.8462 10.0634C19.1635 9.65416 19.7523 9.57957 20.1616 9.89679Z" fill="#FFA500"/>
</svg>
