<svg width="76" height="76" viewBox="0 0 76 76" fill="none" xmlns="http://www.w3.org/2000/svg">
<circle cx="38" cy="38" r="38" fill="#FAFAFA"/>
<g clip-path="url(#clip0_3422_10770)">
<path d="M47.7474 47.75V51H45.5807V47.75C45.5807 46.5551 44.609 45.5833 43.4141 45.5833H32.5807C31.3858 45.5833 30.4141 46.5551 30.4141 47.75V51H28.2474V47.75C28.2474 45.3602 30.1909 43.4167 32.5807 43.4167H43.4141C45.8039 43.4167 47.7474 45.3602 47.7474 47.75ZM48.8307 31.5V36.9167H46.6641V41.25H29.3307V36.9167H27.1641V31.5H29.3307V30.4167C29.3307 28.6248 30.7889 27.1667 32.5807 27.1667H36.9141V25H39.0807V27.1667H43.4141C45.2059 27.1667 46.6641 28.6248 46.6641 30.4167V31.5H48.8307ZM44.4974 30.4167C44.4974 29.8187 44.011 29.3333 43.4141 29.3333H32.5807C31.9838 29.3333 31.4974 29.8187 31.4974 30.4167V39.0833H44.4974V30.4167ZM35.2891 32.5833C34.3921 32.5833 33.6641 33.3113 33.6641 34.2083C33.6641 35.1053 34.3921 35.8333 35.2891 35.8333C36.1861 35.8333 36.9141 35.1053 36.9141 34.2083C36.9141 33.3113 36.1861 32.5833 35.2891 32.5833ZM40.7057 32.5833C39.8087 32.5833 39.0807 33.3113 39.0807 34.2083C39.0807 35.1053 39.8087 35.8333 40.7057 35.8333C41.6027 35.8333 42.3307 35.1053 42.3307 34.2083C42.3307 33.3113 41.6027 32.5833 40.7057 32.5833Z" fill="#71839B"/>
</g>
<defs>
<clipPath id="clip0_3422_10770">
<rect width="26" height="26" fill="white" transform="translate(25 25)"/>
</clipPath>
</defs>
</svg>
