<svg width="76" height="76" viewBox="0 0 76 76" fill="none" xmlns="http://www.w3.org/2000/svg">
<circle cx="38" cy="38" r="38" fill="#FAFAFA"/>
<path d="M38.0031 51.4374C37.1656 51.4374 36.3156 51.2249 35.5656 50.7874L28.1406 46.4999C26.6406 45.6249 25.7031 44.0124 25.7031 42.2749V33.7249C25.7031 31.9874 26.6406 30.3749 28.1406 29.4999L35.5656 25.2124C37.0656 24.3374 38.9281 24.3374 40.4406 25.2124L47.8656 29.4999C49.3656 30.3749 50.3031 31.9874 50.3031 33.7249V42.2749C50.3031 44.0124 49.3656 45.6249 47.8656 46.4999L40.4406 50.7874C39.6906 51.2249 38.8406 51.4374 38.0031 51.4374ZM38.0031 26.4374C37.4906 26.4374 36.9656 26.5749 36.5031 26.8374L29.0781 31.1249C28.1531 31.6624 27.5781 32.6499 27.5781 33.7249V42.2749C27.5781 43.3374 28.1531 44.3374 29.0781 44.8749L36.5031 49.1624C37.4281 49.6999 38.5781 49.6999 39.5031 49.1624L46.9281 44.8749C47.8531 44.3374 48.4281 43.3499 48.4281 42.2749V33.7249C48.4281 32.6624 47.8531 31.6624 46.9281 31.1249L39.5031 26.8374C39.0406 26.5749 38.5156 26.4374 38.0031 26.4374Z" fill="#71839B"/>
<path d="M37.9984 37.6878C35.8734 37.6878 34.1484 35.9627 34.1484 33.8377C34.1484 31.7127 35.8734 29.9878 37.9984 29.9878C40.1234 29.9878 41.8484 31.7127 41.8484 33.8377C41.8484 35.9627 40.1234 37.6878 37.9984 37.6878ZM37.9984 31.8628C36.9109 31.8628 36.0234 32.7502 36.0234 33.8377C36.0234 34.9252 36.9109 35.8128 37.9984 35.8128C39.0859 35.8128 39.9734 34.9252 39.9734 33.8377C39.9734 32.7502 39.0859 31.8628 37.9984 31.8628Z" fill="#71839B"/>
<path d="M43 44.7624C42.4875 44.7624 42.0625 44.3374 42.0625 43.8249C42.0625 42.0999 40.2375 40.6875 38 40.6875C35.7625 40.6875 33.9375 42.0999 33.9375 43.8249C33.9375 44.3374 33.5125 44.7624 33 44.7624C32.4875 44.7624 32.0625 44.3374 32.0625 43.8249C32.0625 41.0624 34.725 38.8125 38 38.8125C41.275 38.8125 43.9375 41.0624 43.9375 43.8249C43.9375 44.3374 43.5125 44.7624 43 44.7624Z" fill="#71839B"/>
</svg>
