<svg width="20" height="20" viewBox="0 0 20 20" fill="none" xmlns="http://www.w3.org/2000/svg">
<path d="M18.3327 15.8333V18.3333H1.66602V15.8333C1.66602 15.375 2.04102 15 2.49935 15H17.4993C17.9577 15 18.3327 15.375 18.3327 15.8333Z" fill="#FFA500" stroke="#FFA500" stroke-width="1.5" stroke-miterlimit="10" stroke-linecap="round" stroke-linejoin="round"/>
<path d="M5.83268 9.16667H4.16602V15H5.83268V9.16667Z" fill="#FFA500"/>
<path d="M9.16667 9.16667H7.5V15H9.16667V9.16667Z" fill="#FFA500"/>
<path d="M12.5007 9.16667H10.834V15H12.5007V9.16667Z" fill="#FFA500"/>
<path d="M15.8327 9.16667H14.166V15H15.8327V9.16667Z" fill="#FFA500"/>
<path d="M19.1673 18.9583H0.833984C0.492318 18.9583 0.208984 18.675 0.208984 18.3333C0.208984 17.9917 0.492318 17.7083 0.833984 17.7083H19.1673C19.509 17.7083 19.7923 17.9917 19.7923 18.3333C19.7923 18.675 19.509 18.9583 19.1673 18.9583Z" fill="#FFA500"/>
<path d="M17.8077 4.79167L10.3077 1.79167C10.141 1.725 9.85768 1.725 9.69102 1.79167L2.19102 4.79167C1.89935 4.90833 1.66602 5.25 1.66602 5.56667V8.33333C1.66602 8.79167 2.04102 9.16667 2.49935 9.16667H17.4993C17.9577 9.16667 18.3327 8.79167 18.3327 8.33333V5.56667C18.3327 5.25 18.0994 4.90833 17.8077 4.79167ZM9.99935 7.08333C9.30768 7.08333 8.74935 6.525 8.74935 5.83333C8.74935 5.14167 9.30768 4.58333 9.99935 4.58333C10.691 4.58333 11.2493 5.14167 11.2493 5.83333C11.2493 6.525 10.691 7.08333 9.99935 7.08333Z" fill="#FFA500"/>
</svg>
