<svg width="20" height="20" viewBox="0 0 20 20" fill="none" xmlns="http://www.w3.org/2000/svg">
<path d="M13.491 1.66667H6.50768C3.47435 1.66667 1.66602 3.47501 1.66602 6.50834V13.4833C1.66602 16.525 3.47435 18.3333 6.50768 18.3333H13.4827C16.516 18.3333 18.3243 16.525 18.3243 13.4917V6.50834C18.3327 3.47501 16.5243 1.66667 13.491 1.66667ZM6.35768 15.125C6.35768 15.4667 6.07435 15.75 5.73268 15.75C5.39102 15.75 5.10768 15.4667 5.10768 15.125V13.4C5.10768 13.0583 5.39102 12.775 5.73268 12.775C6.07435 12.775 6.35768 13.0583 6.35768 13.4V15.125ZM10.6243 15.125C10.6243 15.4667 10.341 15.75 9.99935 15.75C9.65768 15.75 9.37435 15.4667 9.37435 15.125V11.6667C9.37435 11.325 9.65768 11.0417 9.99935 11.0417C10.341 11.0417 10.6243 11.325 10.6243 11.6667V15.125ZM14.891 15.125C14.891 15.4667 14.6077 15.75 14.266 15.75C13.9243 15.75 13.641 15.4667 13.641 15.125V9.94167C13.641 9.60001 13.9243 9.31667 14.266 9.31667C14.6077 9.31667 14.891 9.60001 14.891 9.94167V15.125ZM14.891 7.30834C14.891 7.65001 14.6077 7.93334 14.266 7.93334C13.9243 7.93334 13.641 7.65001 13.641 7.30834V6.50001C11.516 8.68334 8.85768 10.225 5.88268 10.9667C5.83268 10.9833 5.78268 10.9833 5.73268 10.9833C5.44935 10.9833 5.19935 10.7917 5.12435 10.5083C5.04102 10.175 5.24102 9.83334 5.58268 9.75001C8.39102 9.05001 10.891 7.57501 12.8743 5.49167H11.8327C11.491 5.49167 11.2077 5.20834 11.2077 4.86667C11.2077 4.52501 11.491 4.24167 11.8327 4.24167H14.2743C14.3077 4.24167 14.3327 4.25834 14.366 4.25834C14.4077 4.26667 14.4493 4.26667 14.491 4.28334C14.5327 4.30001 14.566 4.32501 14.6077 4.35001C14.6327 4.36667 14.6577 4.37501 14.6827 4.39167C14.691 4.40001 14.691 4.40834 14.6993 4.40834C14.7327 4.44167 14.7577 4.47501 14.7827 4.50834C14.8077 4.54167 14.8327 4.56667 14.841 4.60001C14.8577 4.63334 14.8577 4.66667 14.866 4.70834C14.8743 4.75001 14.891 4.79167 14.891 4.84167C14.891 4.85001 14.8993 4.85834 14.8993 4.86667V7.30834H14.891Z" fill="#FFA500"/>
</svg>
