<svg width="20" height="20" viewBox="0 0 20 20" fill="none" xmlns="http://www.w3.org/2000/svg">
<path d="M13.491 1.66667H6.50768C3.47435 1.66667 1.66602 3.47501 1.66602 6.50834V13.4833C1.66602 16.525 3.47435 18.3333 6.50768 18.3333H13.4827C16.516 18.3333 18.3243 16.525 18.3243 13.4917V6.50834C18.3327 3.47501 16.5243 1.66667 13.491 1.66667ZM14.066 9.60834C14.066 9.93334 13.8077 10.1917 13.4827 10.1917C13.1577 10.1917 12.8993 9.93334 12.8993 9.60834V9.45834L10.6327 11.725C10.5077 11.85 10.341 11.9083 10.166 11.8917C9.99102 11.875 9.83268 11.7833 9.74102 11.6333L8.89102 10.3667L6.90768 12.35C6.79102 12.4667 6.64935 12.5167 6.49935 12.5167C6.34935 12.5167 6.19935 12.4583 6.09102 12.35C5.86602 12.125 5.86602 11.7583 6.09102 11.525L8.57435 9.04167C8.69935 8.91667 8.86602 8.85834 9.04102 8.87501C9.21602 8.89167 9.37435 8.98334 9.46602 9.13334L10.316 10.4L12.0743 8.64167H11.9243C11.5993 8.64167 11.341 8.38334 11.341 8.05834C11.341 7.73334 11.5993 7.47501 11.9243 7.47501H13.4743C13.5493 7.47501 13.6243 7.49167 13.6993 7.51667C13.841 7.57501 13.9577 7.69167 14.016 7.83334C14.0493 7.90834 14.0577 7.98334 14.0577 8.05834V9.60834H14.066Z" fill="#FFA500"/>
</svg>
