<svg width="72" height="72" viewBox="0 0 72 72" fill="none" xmlns="http://www.w3.org/2000/svg">
<path d="M33.7788 12.8999V17.7583C33.7788 19.6358 32.6996 21.3479 31.0072 22.1569L24.4853 25.2775C22.1494 26.3962 19.4144 24.8434 19.176 22.2647L18.924 19.5205C18.8072 18.2486 19.0713 17.0191 19.6284 15.9536C20.4723 14.3432 20.3676 12.4035 19.3642 10.8872C17.9542 8.75322 17.3516 6.09558 17.8555 3.41209C18.2278 1.43336 19.9559 0 21.9694 0H21.9701C24.3365 0 26.606 0.940235 28.2791 2.61388L30.3925 4.728C32.5599 6.89534 33.7788 9.83534 33.7788 12.8999Z" fill="url(#paint0_linear_2021_33783)"/>
<path d="M33.2385 9.41211H18.5547C18.7834 9.92599 19.0545 10.4187 19.3636 10.8874C20.3674 12.4036 20.4719 14.3434 19.6276 15.9528C19.0714 17.0187 18.806 18.2483 18.9232 19.5203L19.1759 22.2648C19.4145 24.8427 22.149 26.3956 24.4841 25.2775L31.0065 22.1561C32.6992 21.3472 33.7777 19.6361 33.7777 17.7585V12.8992C33.7777 11.7048 33.5928 10.5302 33.2385 9.41211Z" fill="url(#paint1_linear_2021_33783)"/>
<path d="M33.0125 15.6512C33.0125 11.3101 29.1731 7.79102 24.4369 7.79102C22.247 7.79102 20.2499 8.54447 18.7344 9.78259C18.9226 10.1632 19.1321 10.5329 19.366 10.8872C20.3692 12.4034 20.474 14.3432 19.6301 15.9536C19.0731 17.019 18.8091 18.2485 18.9258 19.5204L19.1377 21.8286C20.5966 22.8815 22.436 23.5114 24.4369 23.5114C29.1732 23.5113 33.0125 19.9922 33.0125 15.6512Z" fill="url(#paint2_linear_2021_33783)"/>
<path d="M27.9832 19.7331C31.6609 19.7331 34.6422 17.9971 34.6422 15.8558C34.6422 13.7144 31.6609 11.9785 27.9832 11.9785C24.3056 11.9785 21.3242 13.7144 21.3242 15.8558C21.3242 17.9971 24.3056 19.7331 27.9832 19.7331Z" fill="url(#paint3_linear_2021_33783)"/>
<path d="M52.3718 15.9536C52.9303 17.0191 53.1944 18.2486 53.076 19.5205L52.824 22.2647C52.5872 24.8434 49.8521 26.396 47.5148 25.2775L40.9942 22.1569C39.3004 21.348 38.2227 19.6358 38.2227 17.7583V12.8993C38.2227 9.83449 39.4402 6.89506 41.6074 4.72786L43.7228 2.61289C45.3957 0.939812 47.6647 0 50.0307 0C52.0441 0 53.7723 1.43336 54.1445 3.41195C54.65 6.09544 54.0459 8.75308 52.6358 10.8871C51.6341 12.4035 51.5295 14.3432 52.3718 15.9536Z" fill="url(#paint4_linear_2021_33783)"/>
<path d="M52.6368 10.8874C52.946 10.4187 53.217 9.92599 53.4457 9.41211H38.762C38.4076 10.5302 38.2227 11.7048 38.2227 12.8992V17.7585C38.2227 19.6361 39.3012 21.3472 40.994 22.1561L47.5149 25.2775C49.8528 26.3956 52.5874 24.8427 52.8245 22.2648L53.0758 19.5203C53.1944 18.2483 52.9304 17.0187 52.3714 15.9528C51.53 14.3434 51.6344 12.4036 52.6368 10.8874Z" fill="url(#paint5_linear_2021_33783)"/>
<path d="M38.9922 15.6512C38.9922 11.3101 42.8316 7.79102 47.5678 7.79102C49.7577 7.79102 51.7548 8.54447 53.2704 9.78259C53.0822 10.1632 52.8728 10.5329 52.6387 10.8872C51.6355 12.4034 51.5308 14.3432 52.3746 15.9536C52.9317 17.019 53.1957 18.2485 53.0789 19.5204L52.867 21.8286C51.4081 22.8815 49.5687 23.5114 47.5678 23.5114C42.8315 23.5113 38.9922 19.9922 38.9922 15.6512Z" fill="url(#paint6_linear_2021_33783)"/>
<path d="M44.0184 19.7331C47.6961 19.7331 50.6774 17.9971 50.6774 15.8558C50.6774 13.7144 47.6961 11.9785 44.0184 11.9785C40.3407 11.9785 37.3594 13.7144 37.3594 15.8558C37.3594 17.9971 40.3407 19.7331 44.0184 19.7331Z" fill="url(#paint7_linear_2021_33783)"/>
<path d="M41.3384 15.7799C41.3805 18.7268 39.0251 21.1498 36.0776 21.1919C33.1301 21.234 30.7067 18.879 30.6646 15.9321C30.6225 12.9852 32.9779 10.5622 35.9254 10.5201C38.8729 10.4782 41.2965 12.833 41.3384 15.7799Z" fill="url(#paint8_linear_2021_33783)"/>
<path d="M65.2524 71.247H6.74601C4.85834 71.247 3.32812 69.7168 3.32812 67.8291V32.1962C3.32812 30.3085 4.85834 28.7783 6.74601 28.7783H65.2524C67.14 28.7783 68.6702 30.3085 68.6702 32.1962V67.829C68.6702 69.7168 67.14 71.247 65.2524 71.247Z" fill="url(#paint9_linear_2021_33783)"/>
<path d="M65.2524 28.7783H6.74601C4.85834 28.7783 3.32812 30.3085 3.32812 32.1962V35.7834C3.32812 35.7834 22.5592 56.0273 37.6258 71.2469H65.2524C67.14 71.2469 68.6702 69.7167 68.6702 67.829V32.1961C68.6702 30.3085 67.14 28.7783 65.2524 28.7783Z" fill="url(#paint10_linear_2021_33783)"/>
<path d="M41.0945 71.9998H30.9033C29.8823 71.9998 29.0547 71.1722 29.0547 70.1512V30.6269C29.0547 29.6059 29.8823 28.7783 30.9033 28.7783H41.0945C42.1155 28.7783 42.9431 29.6059 42.9431 30.6269V70.1512C42.9431 71.1722 42.1155 71.9998 41.0945 71.9998Z" fill="url(#paint11_linear_2021_33783)"/>
<path d="M29.0547 30.6269V62.5164C31.9556 65.4917 34.8607 68.4538 37.6257 71.2469H42.5811C42.8077 70.9401 42.9432 70.5619 42.9432 70.1512V30.6269C42.9432 29.6059 42.1156 28.7783 41.0946 28.7783H30.9034C29.8823 28.7783 29.0547 29.6059 29.0547 30.6269Z" fill="url(#paint12_linear_2021_33783)"/>
<path d="M67.2494 36.0002H4.75059C2.12697 36.0002 0 33.8732 0 31.2496V24.4254C0 21.8018 2.12697 19.6748 4.75059 19.6748H67.2494C69.873 19.6748 72 21.8018 72 24.4254V31.2496C72 33.8732 69.873 36.0002 67.2494 36.0002Z" fill="url(#paint13_linear_2021_33783)"/>
<path d="M42.0102 36.8515H29.9879C29.4726 36.8515 29.0547 36.4337 29.0547 35.9183V19.7564C29.0547 19.2411 29.4724 18.8232 29.9879 18.8232H42.0102C42.5255 18.8232 42.9433 19.241 42.9433 19.7564V35.9183C42.9432 36.4336 42.5255 36.8515 42.0102 36.8515Z" fill="url(#paint14_linear_2021_33783)"/>
<path d="M42.9436 19.7564V35.9183C42.9436 36.4336 42.5257 36.8515 42.0105 36.8515H31.9375L29.0547 33.9687V19.7564C29.0547 19.7282 29.0561 19.7014 29.0589 19.6745C29.0999 19.1974 29.5008 18.8232 29.9879 18.8232H42.0105C42.4975 18.8232 42.8985 19.1974 42.9394 19.6745C42.9422 19.7014 42.9436 19.7282 42.9436 19.7564Z" fill="url(#paint15_linear_2021_33783)"/>
<path d="M36.0008 18.823L35.8891 18.7488C32.0808 16.219 27.0169 16.7247 23.784 19.9577L20.0158 23.7258C19.4813 24.2603 19.86 25.1742 20.6157 25.1742H21.0525C22.4956 25.1742 23.6654 26.3439 23.6654 27.7871C23.6654 28.5429 24.5792 28.9214 25.1137 28.3869L33.5784 19.9223C34.2261 19.2745 35.0868 18.8839 36.0008 18.823Z" fill="url(#paint16_linear_2021_33783)"/>
<path d="M36 18.823L36.1117 18.7488C39.92 16.219 44.9839 16.7247 48.2168 19.9577L51.985 23.7258C52.5195 24.2603 52.141 25.1742 51.3851 25.1742H50.9483C49.5052 25.1742 48.3354 26.3439 48.3354 27.7871C48.3354 28.5429 47.4216 28.9214 46.8871 28.3869L38.4224 19.9223C37.7747 19.2745 36.914 18.8839 36 18.823Z" fill="url(#paint17_linear_2021_33783)"/>
<defs>
<linearGradient id="paint0_linear_2021_33783" x1="20.3734" y1="9.69346" x2="32.8363" y2="22.1564" gradientUnits="userSpaceOnUse">
<stop stop-color="#FEE45A"/>
<stop offset="1" stop-color="#FEA613"/>
</linearGradient>
<linearGradient id="paint1_linear_2021_33783" x1="25.7519" y1="13.8009" x2="27.0695" y2="19.6361" gradientUnits="userSpaceOnUse">
<stop stop-color="#FEA613" stop-opacity="0"/>
<stop offset="1" stop-color="#E94444"/>
</linearGradient>
<linearGradient id="paint2_linear_2021_33783" x1="27.3752" y1="13.2245" x2="38.1516" y2="4.32005" gradientUnits="userSpaceOnUse">
<stop stop-color="#FEA613" stop-opacity="0"/>
<stop offset="1" stop-color="#E94444"/>
</linearGradient>
<linearGradient id="paint3_linear_2021_33783" x1="27.8836" y1="16.3687" x2="29.6038" y2="7.5148" gradientUnits="userSpaceOnUse">
<stop stop-color="#FEA613" stop-opacity="0"/>
<stop offset="1" stop-color="#E94444"/>
</linearGradient>
<linearGradient id="paint4_linear_2021_33783" x1="45.1413" y1="10.0369" x2="56.351" y2="21.2466" gradientUnits="userSpaceOnUse">
<stop stop-color="#FEE45A"/>
<stop offset="1" stop-color="#FEA613"/>
</linearGradient>
<linearGradient id="paint5_linear_2021_33783" x1="46.6824" y1="13.1349" x2="44.7999" y2="19.1585" gradientUnits="userSpaceOnUse">
<stop stop-color="#FEA613" stop-opacity="0"/>
<stop offset="1" stop-color="#E94444"/>
</linearGradient>
<linearGradient id="paint6_linear_2021_33783" x1="44.6295" y1="13.2245" x2="33.8531" y2="4.32005" gradientUnits="userSpaceOnUse">
<stop stop-color="#FEA613" stop-opacity="0"/>
<stop offset="1" stop-color="#E94444"/>
</linearGradient>
<linearGradient id="paint7_linear_2021_33783" x1="44.1181" y1="16.3687" x2="42.398" y2="7.5148" gradientUnits="userSpaceOnUse">
<stop stop-color="#FEA613" stop-opacity="0"/>
<stop offset="1" stop-color="#E94444"/>
</linearGradient>
<linearGradient id="paint8_linear_2021_33783" x1="34.2759" y1="13.4057" x2="39.273" y2="20.4138" gradientUnits="userSpaceOnUse">
<stop stop-color="#FEE45A"/>
<stop offset="1" stop-color="#FEA613"/>
</linearGradient>
<linearGradient id="paint9_linear_2021_33783" x1="28.4828" y1="34.3705" x2="49.3769" y2="77.8528" gradientUnits="userSpaceOnUse">
<stop stop-color="#FFB46F"/>
<stop offset="1" stop-color="#E93D3D"/>
</linearGradient>
<linearGradient id="paint10_linear_2021_33783" x1="35.9992" y1="57.4586" x2="35.9992" y2="32.9763" gradientUnits="userSpaceOnUse">
<stop stop-color="#5B3374" stop-opacity="0"/>
<stop offset="1" stop-color="#FFEF9B"/>
</linearGradient>
<linearGradient id="paint11_linear_2021_33783" x1="29.0547" y1="50.389" x2="42.9431" y2="50.389" gradientUnits="userSpaceOnUse">
<stop stop-color="#FEE45A"/>
<stop offset="1" stop-color="white"/>
</linearGradient>
<linearGradient id="paint12_linear_2021_33783" x1="35.9989" y1="48.0939" x2="35.9989" y2="34.025" gradientUnits="userSpaceOnUse">
<stop stop-color="#FEA613" stop-opacity="0"/>
<stop offset="1" stop-color="#E94444"/>
</linearGradient>
<linearGradient id="paint13_linear_2021_33783" x1="2.26472" y1="35.0545" x2="10.1937" y2="10.9533" gradientUnits="userSpaceOnUse">
<stop stop-color="#FF8439"/>
<stop offset="0.5362" stop-color="#FFB53D"/>
<stop offset="1" stop-color="#FFCF3D"/>
</linearGradient>
<linearGradient id="paint14_linear_2021_33783" x1="32.437" y1="25.2252" x2="40.9076" y2="31.4369" gradientUnits="userSpaceOnUse">
<stop stop-color="#FEE45A"/>
<stop offset="1" stop-color="#FEA613"/>
</linearGradient>
<linearGradient id="paint15_linear_2021_33783" x1="39.0085" y1="33.135" x2="33.0791" y2="20.5703" gradientUnits="userSpaceOnUse">
<stop stop-color="#FEA613" stop-opacity="0"/>
<stop offset="1" stop-color="white"/>
</linearGradient>
<linearGradient id="paint16_linear_2021_33783" x1="25.8638" y1="19.731" x2="29.396" y2="23.2632" gradientUnits="userSpaceOnUse">
<stop stop-color="#FEE45A"/>
<stop offset="1" stop-color="#FEA613"/>
</linearGradient>
<linearGradient id="paint17_linear_2021_33783" x1="46.137" y1="19.731" x2="42.6048" y2="23.2632" gradientUnits="userSpaceOnUse">
<stop stop-color="#FEE45A"/>
<stop offset="1" stop-color="#FEA613"/>
</linearGradient>
</defs>
</svg>
