<svg width="44" height="44" viewBox="0 0 44 44" fill="none" xmlns="http://www.w3.org/2000/svg">
<rect x="0.5" y="0.5" width="43" height="43" rx="21.5" fill="#171515"/>
<rect x="0.5" y="0.5" width="43" height="43" rx="21.5" stroke="#171515"/>
<path d="M18.3825 32.263C19.1088 32.263 19.3141 31.9788 19.3141 31.6156C19.3141 31.2524 19.3141 30.463 19.2983 29.3419C15.5246 30.1472 14.7193 27.5419 14.7193 27.5419C14.1035 26.0103 13.2035 25.584 13.2035 25.584C11.972 24.763 13.2983 24.7788 13.2983 24.7788C14.6562 24.8735 15.3825 26.1524 15.3825 26.1524C16.5983 28.2051 18.5562 27.6051 19.3298 27.2577C19.393 26.5788 19.693 25.9314 20.1983 25.4577C17.1825 25.1261 14.0088 23.9735 14.0088 18.8577C13.993 17.5314 14.4983 16.2367 15.4141 15.2735C15.2562 14.9419 14.7983 13.584 15.5246 11.7367C15.5246 11.7367 16.6614 11.3735 19.2667 13.1103C21.493 12.5103 23.8298 12.5103 26.0562 13.1103C28.6298 11.3893 29.7825 11.7367 29.7825 11.7367C30.5088 13.5682 30.0509 14.9261 29.9246 15.2735C30.8404 16.2367 31.3298 17.5314 31.3141 18.8577C31.3141 23.9893 28.1404 25.1103 25.1088 25.4419C25.5825 25.8367 26.0246 26.6577 26.0246 27.9051C26.0246 29.7051 26.0088 31.1261 26.0088 31.5524C26.0088 31.8998 26.1667 32.184 26.9404 32.184L18.3825 32.263Z" fill="white"/>
</svg>
