<svg width="25" height="25" viewBox="0 0 25 25" fill="none" xmlns="http://www.w3.org/2000/svg">
<path fill-rule="evenodd" clip-rule="evenodd" d="M12.5026 2.08301C6.7474 2.08301 2.08594 6.74447 2.08594 12.4997C2.08594 17.109 5.06771 21.0023 9.20833 22.3825C9.72917 22.4736 9.92448 22.1611 9.92448 21.8877C9.92448 21.6403 9.91146 20.82 9.91146 19.9476C7.29427 20.4294 6.61719 19.3096 6.40885 18.7236C6.29167 18.4242 5.78385 17.4997 5.34115 17.2523C4.97656 17.057 4.45573 16.5752 5.32812 16.5622C6.14844 16.5492 6.73437 17.3174 6.92969 17.6299C7.86719 19.2054 9.36458 18.7627 9.96354 18.4893C10.0547 17.8122 10.3281 17.3564 10.6276 17.096C8.3099 16.8356 5.88802 15.9372 5.88802 11.9528C5.88802 10.82 6.29167 9.88249 6.95573 9.15332C6.85156 8.8929 6.48698 7.82519 7.0599 6.3929C7.0599 6.3929 7.93229 6.11947 9.92448 7.46061C10.7578 7.22624 11.6432 7.10905 12.5286 7.10905C13.4141 7.10905 14.2995 7.22624 15.1328 7.46061C17.125 6.10645 17.9974 6.3929 17.9974 6.3929C18.5703 7.82519 18.2057 8.8929 18.1016 9.15332C18.7656 9.88249 19.1693 10.807 19.1693 11.9528C19.1693 15.9502 16.7344 16.8356 14.4167 17.096C14.7943 17.4215 15.1198 18.0465 15.1198 19.0231C15.1198 20.4163 15.1068 21.5361 15.1068 21.8877C15.1068 22.1611 15.3021 22.4867 15.8229 22.3825C17.8908 21.6844 19.6877 20.3554 20.9607 18.5825C22.2337 16.8097 22.9187 14.6822 22.9193 12.4997C22.9193 6.74447 18.2578 2.08301 12.5026 2.08301Z" fill="#171515"/>
</svg>
