<svg width="20" height="20" viewBox="0 0 20 20" fill="none" xmlns="http://www.w3.org/2000/svg">
<path d="M10.0013 12.0832C10.5538 12.0832 11.0837 11.8637 11.4744 11.473C11.8651 11.0823 12.0846 10.5524 12.0846 9.99984C12.0846 9.4473 11.8651 8.9174 11.4744 8.5267C11.0837 8.136 10.5538 7.9165 10.0013 7.9165C9.44877 7.9165 8.91886 8.136 8.52816 8.5267C8.13746 8.9174 7.91797 9.4473 7.91797 9.99984C7.91797 10.5524 8.13746 11.0823 8.52816 11.473C8.91886 11.8637 9.44877 12.0832 10.0013 12.0832Z" fill="white" fill-opacity="0.5"/>
<path fill-rule="evenodd" clip-rule="evenodd" d="M5.4612 5.25813L0.832031 9.99979L5.4612 14.7415C6.04965 15.3504 6.75465 15.8347 7.5342 16.1654C8.31375 16.4961 9.15189 16.6666 9.9987 16.6666C10.8455 16.6666 11.6836 16.4961 12.4632 16.1654C13.2427 15.8347 13.9477 15.3504 14.5362 14.7415L19.1654 9.99979L14.5362 5.25813C13.9477 4.64919 13.2427 4.16493 12.4632 3.83419C11.6836 3.50345 10.8455 3.33301 9.9987 3.33301C9.15189 3.33301 8.31375 3.50345 7.5342 3.83419C6.75465 4.16493 6.04965 4.64919 5.4612 5.25813ZM14.1654 9.99979C14.1654 11.1049 13.7264 12.1647 12.945 12.9461C12.1636 13.7275 11.1038 14.1665 9.9987 14.1665C8.89363 14.1665 7.83382 13.7275 7.05242 12.9461C6.27102 12.1647 5.83203 11.1049 5.83203 9.99979C5.83203 8.89472 6.27102 7.83492 7.05242 7.05351C7.83382 6.27211 8.89363 5.83313 9.9987 5.83313C11.1038 5.83313 12.1636 6.27211 12.945 7.05351C13.7264 7.83492 14.1654 8.89472 14.1654 9.99979Z" fill="white" fill-opacity="0.5"/>
</svg>
