<svg width="6" height="9" viewBox="0 0 6 9" fill="none" xmlns="http://www.w3.org/2000/svg">
<path d="M4.62482 3.17501L1.75607 0.306257C1.63896 0.18985 1.48056 0.124512 1.31544 0.124512C1.15032 0.124512 0.991917 0.18985 0.874815 0.306257C0.816235 0.364359 0.769739 0.433485 0.738008 0.509647C0.706278 0.585809 0.689941 0.6675 0.689941 0.750007C0.689941 0.832515 0.706278 0.914206 0.738008 0.990368C0.769739 1.06653 0.816235 1.13566 0.874815 1.19376L3.74982 4.05626C3.8084 4.11436 3.85489 4.18349 3.88662 4.25965C3.91835 4.33581 3.93469 4.4175 3.93469 4.50001C3.93469 4.58251 3.91835 4.66421 3.88662 4.74037C3.85489 4.81653 3.8084 4.88566 3.74982 4.94376L0.874815 7.80626C0.757126 7.92312 0.690679 8.08194 0.690093 8.2478C0.689507 8.41365 0.75483 8.57294 0.871691 8.69063C0.988552 8.80832 1.14738 8.87477 1.31323 8.87536C1.47908 8.87594 1.63838 8.81062 1.75607 8.69376L4.62482 5.82501C4.97594 5.47344 5.17317 4.99688 5.17317 4.50001C5.17317 4.00313 4.97594 3.52657 4.62482 3.17501Z" fill="#222138"/>
</svg>
