<svg width="10" height="10" viewBox="0 0 10 10" fill="none" xmlns="http://www.w3.org/2000/svg">
<path d="M3.7099 8.61263C3.63073 8.61263 3.55156 8.58346 3.48906 8.52096C3.36823 8.40013 3.36823 8.20013 3.48906 8.0793L6.20573 5.36263C6.40573 5.16263 6.40573 4.83763 6.20573 4.63763L3.48906 1.92096C3.36823 1.80013 3.36823 1.60013 3.48906 1.4793C3.6099 1.35846 3.8099 1.35846 3.93073 1.4793L6.6474 4.19596C6.8599 4.40846 6.98073 4.69596 6.98073 5.00013C6.98073 5.3043 6.86406 5.5918 6.6474 5.8043L3.93073 8.52096C3.86823 8.5793 3.78906 8.61263 3.7099 8.61263Z" fill="#808080"/>
</svg>
