<svg width="20" height="20" viewBox="0 0 20 20" fill="none" xmlns="http://www.w3.org/2000/svg">
<path d="M7.61492 17.311V14.7629C7.61492 14.1124 8.14608 13.5851 8.8013 13.5851H11.1964C11.5111 13.5851 11.8129 13.7092 12.0353 13.93C12.2578 14.1509 12.3828 14.4505 12.3828 14.7629V17.311C12.3808 17.5814 12.4877 17.8414 12.6796 18.0333C12.8715 18.2252 13.1326 18.3332 13.4051 18.3332H15.0391C15.8023 18.3351 16.5349 18.0355 17.0752 17.5005C17.6156 16.9655 17.9193 16.239 17.9193 15.4814V8.22222C17.9193 7.61022 17.646 7.02971 17.1731 6.63706L11.6143 2.22973C10.6473 1.45697 9.26186 1.48192 8.32376 2.28899L2.89178 6.63706C2.39655 7.01813 2.10056 7.60037 2.08594 8.22222V15.4739C2.08594 17.053 3.37542 18.3332 4.96608 18.3332H6.56285C7.12863 18.3332 7.58843 17.88 7.59253 17.3184L7.61492 17.311Z" fill="#F7931A"/>
</svg>
