<svg width="24" height="24" viewBox="0 0 24 24" fill="none" xmlns="http://www.w3.org/2000/svg">
<path d="M9.22 11.778C10.0448 11.778 10.8359 11.4503 11.4191 10.8671C12.0023 10.2838 12.33 9.49281 12.33 8.66798C12.33 7.84316 12.0023 7.05212 11.4191 6.46888C10.8359 5.88564 10.0448 5.55798 9.22 5.55798C8.39518 5.55798 7.60414 5.88564 7.0209 6.46888C6.43766 7.05212 6.11 7.84316 6.11 8.66798C6.11 9.49281 6.43766 10.2838 7.0209 10.8671C7.60414 11.4503 8.39518 11.778 9.22 11.778ZM6.11 13.778C5.28518 13.778 4.49414 14.1056 3.9109 14.6889C3.32766 15.2721 3 16.0632 3 16.888V18.442H15.44V16.887C15.44 16.0622 15.1123 15.2711 14.5291 14.6879C13.9459 14.1046 13.1548 13.777 12.33 13.777L6.11 13.778ZM21 18.442H17.44V16.887C17.44 15.717 17.046 14.639 16.385 13.777H17.89C18.7148 13.777 19.5059 14.1046 20.0891 14.6879C20.6723 15.2711 21 16.0622 21 16.887V18.442ZM14.33 8.66798C14.3313 9.67315 14.0349 10.6562 13.478 11.493C13.9518 11.7111 14.4729 11.8066 14.9933 11.7706C15.5137 11.7345 16.0167 11.5682 16.456 11.2868C16.8952 11.0055 17.2567 10.6182 17.507 10.1605C17.7574 9.70289 17.8886 9.18963 17.8886 8.66798C17.8886 8.14634 17.7574 7.63308 17.507 7.17544C17.2567 6.71779 16.8952 6.33047 16.456 6.04912C16.0167 5.76777 15.5137 5.60143 14.9933 5.56541C14.4729 5.52939 13.9518 5.62484 13.478 5.84298C14.016 6.65198 14.33 7.62298 14.33 8.66798Z" fill="#71839B"/>
</svg>
