<svg width="20" height="20" viewBox="0 0 20 20" fill="none" xmlns="http://www.w3.org/2000/svg">
<path d="M14.9993 2.5H4.99935C3.15768 2.5 1.66602 3.98333 1.66602 5.80833V14.1917C1.66602 16.0167 3.15768 17.5 4.99935 17.5H14.9993C16.841 17.5 18.3327 16.0167 18.3327 14.1917V5.80833C18.3327 3.98333 16.841 2.5 14.9993 2.5ZM7.08268 5.975C8.14102 5.975 9.00768 6.84167 9.00768 7.9C9.00768 8.95833 8.14102 9.825 7.08268 9.825C6.02435 9.825 5.15768 8.95833 5.15768 7.9C5.15768 6.84167 6.02435 5.975 7.08268 5.975ZM10.3077 13.8833C10.2327 13.9667 10.116 14.0167 9.99935 14.0167H4.16602C4.04935 14.0167 3.93268 13.9667 3.85768 13.8833C3.81953 13.8404 3.79031 13.7902 3.77171 13.7359C3.75311 13.6815 3.74551 13.624 3.74935 13.5667C3.819 12.887 4.12189 12.2524 4.60652 11.7709C5.09114 11.2893 5.7276 10.9904 6.40768 10.925C6.85393 10.8833 7.3031 10.8833 7.74935 10.925C9.14935 11.0583 10.2743 12.1667 10.4077 13.5667C10.4243 13.6833 10.3827 13.8 10.3077 13.8833V13.8833ZM15.8327 13.9583H14.166C13.8243 13.9583 13.541 13.675 13.541 13.3333C13.541 12.9917 13.8243 12.7083 14.166 12.7083H15.8327C16.1743 12.7083 16.4577 12.9917 16.4577 13.3333C16.4577 13.675 16.1743 13.9583 15.8327 13.9583ZM15.8327 10.625H12.4993C12.1577 10.625 11.8743 10.3417 11.8743 10C11.8743 9.65833 12.1577 9.375 12.4993 9.375H15.8327C16.1743 9.375 16.4577 9.65833 16.4577 10C16.4577 10.3417 16.1743 10.625 15.8327 10.625ZM15.8327 7.29167H11.666C11.3243 7.29167 11.041 7.00833 11.041 6.66667C11.041 6.325 11.3243 6.04167 11.666 6.04167H15.8327C16.1743 6.04167 16.4577 6.325 16.4577 6.66667C16.4577 7.00833 16.1743 7.29167 15.8327 7.29167Z" fill="#FFA500"/>
</svg>
