<svg width="20" height="20" viewBox="0 0 20 20" fill="none" xmlns="http://www.w3.org/2000/svg">
<path d="M16.5013 7.85C16.4846 7.85 16.468 7.85833 16.4513 7.85833C16.368 7.875 16.2846 7.88333 16.193 7.9C15.843 7.93333 15.468 7.91667 15.0846 7.84167C14.9846 7.81667 14.9013 7.8 14.8096 7.76667C14.5346 7.7 14.2763 7.59167 14.0346 7.45C13.9346 7.4 13.8346 7.33333 13.743 7.275C13.343 7 13.0013 6.65833 12.7263 6.25833C12.668 6.16667 12.6013 6.06667 12.5513 5.96667C12.4096 5.725 12.3013 5.46667 12.2346 5.19167C12.2013 5.1 12.1846 5.01667 12.1596 4.91667C12.0846 4.53333 12.068 4.15833 12.1013 3.80833C12.118 3.71667 12.1263 3.63333 12.143 3.55C12.143 3.53333 12.1513 3.51667 12.1513 3.5C12.2513 2.98333 11.868 2.5 11.3346 2.5H6.26797C6.1513 2.5 6.03464 2.50833 5.9263 2.51667C5.8263 2.525 5.73464 2.53333 5.63464 2.55C5.53464 2.55833 5.43464 2.575 5.34297 2.59167C3.33464 2.88333 2.0513 4.15833 1.75964 6.175C1.74297 6.26667 1.7263 6.36667 1.71797 6.46667C1.7013 6.56667 1.69297 6.65833 1.68464 6.75833C1.6763 6.86667 1.66797 6.98333 1.66797 7.1V13.7333C1.66797 13.85 1.6763 13.9667 1.68464 14.075C1.69297 14.175 1.7013 14.2667 1.71797 14.3667C1.7263 14.4667 1.74297 14.5667 1.75964 14.6583C2.0513 16.675 3.33464 17.95 5.34297 18.2417C5.43464 18.2583 5.53464 18.275 5.63464 18.2833C5.73464 18.3 5.8263 18.3083 5.9263 18.3167C6.03464 18.325 6.1513 18.3333 6.26797 18.3333H12.9013C13.018 18.3333 13.1346 18.325 13.243 18.3167C13.343 18.3083 13.4346 18.3 13.5346 18.2833C13.6346 18.275 13.7346 18.2583 13.8263 18.2417C15.8346 17.95 17.118 16.675 17.4096 14.6583C17.4263 14.5667 17.443 14.4667 17.4513 14.3667C17.468 14.2667 17.4763 14.175 17.4846 14.075C17.493 13.9667 17.5013 13.85 17.5013 13.7333V8.66667C17.5013 8.13333 17.018 7.75 16.5013 7.85ZM5.6263 10.4167H9.79297C10.1346 10.4167 10.418 10.7 10.418 11.0417C10.418 11.3833 10.1346 11.6667 9.79297 11.6667H5.6263C5.28464 11.6667 5.0013 11.3833 5.0013 11.0417C5.0013 10.7 5.28464 10.4167 5.6263 10.4167ZM13.1263 15H5.6263C5.28464 15 5.0013 14.7167 5.0013 14.375C5.0013 14.0333 5.28464 13.75 5.6263 13.75H13.1263C13.468 13.75 13.7513 14.0333 13.7513 14.375C13.7513 14.7167 13.468 15 13.1263 15Z" fill="#FFA500"/>
<path d="M13.7262 6.82225C13.382 6.43106 13.0377 6.02423 12.8187 5.53916C12.5996 5.0228 12.537 4.4282 12.6465 3.8649C12.7561 3.30159 13.0064 2.76958 13.3663 2.31581C13.335 2.707 13.4759 3.11383 13.7419 3.41113C13.5854 2.66006 13.8357 1.84639 14.3365 1.2518C14.8372 0.657203 15.5257 0.266 16.2454 0C15.8855 0.375536 15.8386 0.97013 15.9794 1.47085C16.1203 1.97156 16.4176 2.4097 16.6836 2.86346C16.9496 3.31723 17.1999 3.78665 17.2156 4.30301C17.3564 4.03701 17.5129 3.771 17.6068 3.47371C17.7006 3.17641 17.7476 2.86346 17.6694 2.56616C17.951 2.91041 18.1075 3.25464 18.1857 3.69277C18.2639 4.1309 18.2483 4.58467 18.2014 5.0228C18.1388 5.50787 18.0136 6.00858 17.7476 6.4154C17.4347 6.90048 16.9339 7.24471 16.3863 7.43248C15.4161 7.60461 14.4616 7.46378 13.7262 6.82225Z" fill="#F3705A"/>
<path d="M14.9127 7.40125C16.1958 7.90197 17.4632 6.38417 16.7591 5.21062C16.7591 5.19497 16.7434 5.19497 16.7434 5.17933C16.806 5.82087 16.6496 6.29029 16.3523 6.5563C16.5087 6.18077 16.3992 5.74264 16.2114 5.3671C16.0237 5.00722 15.7577 4.67862 15.5542 4.33438C15.3508 3.97449 15.1944 3.56765 15.2882 3.16083C14.9127 3.44248 14.6467 3.86496 14.5372 4.31873C14.4276 4.77249 14.4902 5.27322 14.6936 5.6957C14.4589 5.52358 14.2868 5.24193 14.2712 4.94462C14.0208 5.24193 13.8643 5.6331 13.88 6.02429C13.88 6.63454 14.3651 7.18219 14.9127 7.40125Z" fill="#FFD15C"/>
</svg>
