<svg width="15" height="15" viewBox="0 0 15 15" fill="none" xmlns="http://www.w3.org/2000/svg">
<path d="M7.5 13.75C4.05625 13.75 1.25 10.9438 1.25 7.5C1.25 4.05625 4.05625 1.25 7.5 1.25C10.9437 1.25 13.75 4.05625 13.75 7.5C13.75 10.9438 10.9437 13.75 7.5 13.75ZM7.03125 10C7.03125 10.2563 7.24375 10.4688 7.5 10.4688C7.75625 10.4688 7.96875 10.2563 7.96875 10V6.875C7.96875 6.61875 7.75625 6.40625 7.5 6.40625C7.24375 6.40625 7.03125 6.61875 7.03125 6.875V10ZM8.075 4.7625C8.04375 4.68125 8 4.61875 7.94375 4.55625C7.88125 4.5 7.8125 4.45625 7.7375 4.425C7.6625 4.39375 7.58125 4.375 7.5 4.375C7.41875 4.375 7.3375 4.39375 7.2625 4.425C7.1875 4.45625 7.11875 4.5 7.05625 4.55625C7 4.61875 6.95625 4.68125 6.925 4.7625C6.89375 4.8375 6.875 4.91875 6.875 5C6.875 5.08125 6.89375 5.1625 6.925 5.2375C6.95625 5.3125 7 5.38125 7.05625 5.44375C7.11875 5.5 7.1875 5.54375 7.2625 5.575C7.4125 5.6375 7.5875 5.6375 7.7375 5.575C7.8125 5.54375 7.88125 5.5 7.94375 5.44375C8 5.38125 8.04375 5.3125 8.075 5.2375C8.10625 5.1625 8.125 5.08125 8.125 5C8.125 4.91875 8.10625 4.8375 8.075 4.7625Z" fill="white" fill-opacity="0.5"/>
</svg>
