<svg width="60" height="60" viewBox="0 0 60 60" fill="none" xmlns="http://www.w3.org/2000/svg">
<circle cx="30" cy="30" r="30" fill="#FAFAFA"/>
<path d="M36.9604 38.8392H32.6747C32.2354 38.8392 31.8711 38.4749 31.8711 38.0356C31.8711 37.5963 32.2354 37.2321 32.6747 37.2321H36.9604C37.3997 37.2321 37.764 37.5963 37.764 38.0356C37.764 38.4749 37.3997 38.8392 36.9604 38.8392Z" fill="#71839B"/>
<path d="M34.8192 40.9821C34.3799 40.9821 34.0156 40.6178 34.0156 40.1785V35.8928C34.0156 35.4535 34.3799 35.0892 34.8192 35.0892C35.2585 35.0892 35.6228 35.4535 35.6228 35.8928V40.1785C35.6228 40.6178 35.2585 40.9821 34.8192 40.9821Z" fill="#71839B"/>
<path d="M30.1698 29.5928C30.1376 29.5928 30.1162 29.5928 30.0841 29.5928C30.0305 29.5821 29.9555 29.5821 29.8912 29.5928C26.7841 29.4963 24.4376 27.0535 24.4376 24.0428C24.4269 22.5642 25.0055 21.1713 26.0555 20.1213C27.1055 19.0713 28.4984 18.4821 29.9876 18.4821C33.0519 18.4821 35.5484 20.9785 35.5484 24.0428C35.5484 27.0535 33.2019 29.4856 30.2019 29.5928C30.1912 29.5928 30.1805 29.5928 30.1698 29.5928ZM29.9876 20.0892C28.9269 20.0892 27.9412 20.5071 27.1912 21.2463C26.4519 21.9963 26.0448 22.9821 26.0448 24.0321C26.0448 26.1749 27.7162 27.9106 29.8484 27.9749C29.9126 27.9642 30.0519 27.9642 30.1912 27.9749C32.3019 27.8785 33.9412 26.1535 33.9412 24.0321C33.9412 21.8678 32.1626 20.0892 29.9876 20.0892Z" fill="#71839B"/>
<path d="M29.9886 41.3143C27.8029 41.3143 25.735 40.7464 24.1708 39.6964C22.6815 38.7 21.8672 37.3393 21.8672 35.8714C21.8672 34.4035 22.6922 33.0536 24.1708 32.0678C27.3743 29.925 32.5815 29.925 35.785 32.0678C36.1493 32.3143 36.2565 32.8178 36.01 33.1821C35.7636 33.5571 35.26 33.6536 34.8958 33.4071C32.2279 31.6286 27.7279 31.6286 25.06 33.4071C24.0315 34.0928 23.4743 34.9607 23.4743 35.8714C23.4743 36.7821 24.0315 37.6714 25.06 38.3571C26.3565 39.225 28.1029 39.6964 29.9779 39.6964C30.4172 39.6964 30.7815 40.0607 30.7815 40.5C30.7815 40.9393 30.4279 41.3143 29.9886 41.3143Z" fill="#71839B"/>
</svg>
