<svg width="60" height="60" viewBox="0 0 60 60" fill="none" xmlns="http://www.w3.org/2000/svg">
<circle cx="30" cy="30" r="30" fill="#FAFAFA"/>
<path d="M39.6401 41.5178H20.3544C19.9151 41.5178 19.5508 41.1535 19.5508 40.7142C19.5508 40.2749 19.9151 39.9106 20.3544 39.9106H39.6401C40.0794 39.9106 40.4436 40.2749 40.4436 40.7142C40.4436 41.1535 40.0794 41.5178 39.6401 41.5178Z" fill="#71839B"/>
<path d="M23.14 38.3036H21.4258C20.3972 38.3036 19.5508 37.4572 19.5508 36.4286V27.1929C19.5508 26.1643 20.3972 25.3179 21.4258 25.3179H23.14C24.1686 25.3179 25.015 26.1643 25.015 27.1929V36.4286C25.015 37.4572 24.1686 38.3036 23.14 38.3036ZM21.4258 26.9143C21.2758 26.9143 21.1579 27.0321 21.1579 27.1821V36.4286C21.1579 36.5786 21.2758 36.6964 21.4258 36.6964H23.14C23.29 36.6964 23.4079 36.5786 23.4079 36.4286V27.1929C23.4079 27.0429 23.29 26.925 23.14 26.925H21.4258V26.9143Z" fill="#71839B"/>
<path d="M30.8549 38.3036H29.1406C28.1121 38.3036 27.2656 37.4572 27.2656 36.4286V23.775C27.2656 22.7465 28.1121 21.9 29.1406 21.9H30.8549C31.8835 21.9 32.7299 22.7465 32.7299 23.775V36.4286C32.7299 37.4572 31.8835 38.3036 30.8549 38.3036ZM29.1406 23.5072C28.9906 23.5072 28.8728 23.625 28.8728 23.775V36.4286C28.8728 36.5786 28.9906 36.6965 29.1406 36.6965H30.8549C31.0049 36.6965 31.1227 36.5786 31.1227 36.4286V23.775C31.1227 23.625 31.0049 23.5072 30.8549 23.5072H29.1406Z" fill="#71839B"/>
<path d="M38.5697 38.3035H36.8555C35.8269 38.3035 34.9805 37.4571 34.9805 36.4285V20.3571C34.9805 19.3285 35.8269 18.4821 36.8555 18.4821H38.5697C39.5983 18.4821 40.4447 19.3285 40.4447 20.3571V36.4285C40.4447 37.4571 39.5983 38.3035 38.5697 38.3035ZM36.8555 20.0892C36.7055 20.0892 36.5876 20.2071 36.5876 20.3571V36.4285C36.5876 36.5785 36.7055 36.6963 36.8555 36.6963H38.5697C38.7197 36.6963 38.8376 36.5785 38.8376 36.4285V20.3571C38.8376 20.2071 38.7197 20.0892 38.5697 20.0892H36.8555Z" fill="#71839B"/>
</svg>
