<svg width="60" height="60" viewBox="0 0 60 60" fill="none" xmlns="http://www.w3.org/2000/svg">
<circle cx="30" cy="30" r="30" fill="#FAFAFA"/>
<path d="M25.7329 38.8392H24.6186C22.4651 38.8392 21.4258 37.8428 21.4258 35.7856V24.2142C21.4258 22.1571 22.4758 21.1606 24.6186 21.1606H25.7329C27.8758 21.1606 28.9258 22.1571 28.9258 24.2142V35.7856C28.9258 37.8428 27.8758 38.8392 25.7329 38.8392ZM24.6186 22.7678C23.2579 22.7678 23.0329 23.1321 23.0329 24.2142V35.7856C23.0329 36.8678 23.2579 37.2321 24.6186 37.2321H25.7329C27.0936 37.2321 27.3186 36.8678 27.3186 35.7856V24.2142C27.3186 23.1321 27.0936 22.7678 25.7329 22.7678H24.6186Z" fill="#71839B"/>
<path d="M34.8423 36.6964H33.728C31.5744 36.6964 30.5352 35.7 30.5352 33.6429V26.3572C30.5352 24.3 31.5852 23.3036 33.728 23.3036H34.8423C36.9959 23.3036 38.0352 24.3 38.0352 26.3572V33.6429C38.0352 35.7 36.9852 36.6964 34.8423 36.6964ZM33.728 24.9107C32.3673 24.9107 32.1423 25.275 32.1423 26.3572V33.6429C32.1423 34.725 32.3673 35.0893 33.728 35.0893H34.8423C36.203 35.0893 36.428 34.725 36.428 33.6429V26.3572C36.428 25.275 36.203 24.9107 34.8423 24.9107H33.728Z" fill="#71839B"/>
<path d="M21.8555 30.8036H19.284C18.8448 30.8036 18.4805 30.4393 18.4805 30C18.4805 29.5607 18.834 29.1964 19.284 29.1964H21.8555C22.2948 29.1964 22.659 29.5607 22.659 30C22.659 30.4393 22.3055 30.8036 21.8555 30.8036Z" fill="#71839B"/>
<path d="M31.0675 30.8036H28.9247C28.4854 30.8036 28.1211 30.4393 28.1211 30C28.1211 29.5607 28.4854 29.1964 28.9247 29.1964H31.0675C31.5068 29.1964 31.8711 29.5607 31.8711 30C31.8711 30.4393 31.5068 30.8036 31.0675 30.8036Z" fill="#71839B"/>
<path d="M40.7121 30.8036H37.8192C37.3799 30.8036 37.0156 30.4393 37.0156 30C37.0156 29.5607 37.3799 29.1964 37.8192 29.1964H40.7121C41.1513 29.1964 41.5156 29.5607 41.5156 30C41.5156 30.4393 41.1621 30.8036 40.7121 30.8036Z" fill="#71839B"/>
</svg>
