<svg width="312" height="176" viewBox="0 0 312 176" fill="none" xmlns="http://www.w3.org/2000/svg">
<g clip-path="url(#clip0_3742_10755)">
<mask id="mask0_3742_10755" style="mask-type:luminance" maskUnits="userSpaceOnUse" x="75" y="115" width="17" height="20">
<path d="M91.275 133.948L75.043 115.978C75.1771 116.124 75.3136 116.268 75.4599 116.407L91.692 134.377C91.5481 134.238 91.4091 134.097 91.275 133.948Z" fill="white"/>
</mask>
<g mask="url(#mask0_3742_10755)">
<path d="M75.4599 116.407L91.692 134.377C91.5481 134.238 91.4091 134.097 91.275 133.948L75.043 115.978C75.1771 116.124 75.3136 116.268 75.4599 116.407Z" fill="#2D4800"/>
</g>
<path d="M116.206 155.435L132.44 173.405L91.693 134.377L75.4609 116.407L116.206 155.435Z" fill="#A54D05"/>
<path d="M230.562 44.2075L246.795 62.1781C249.277 64.9261 249.757 69.1762 248.028 73.4847L231.796 55.5141C233.525 51.2056 233.047 46.9555 230.562 44.2075Z" fill="#A54D05"/>
<mask id="mask1_3742_10755" style="mask-type:luminance" maskUnits="userSpaceOnUse" x="230" y="44" width="20" height="30">
<path d="M230.562 44.2075L246.795 62.1781C249.277 64.9261 249.757 69.1762 248.028 73.4847L231.796 55.5141C233.525 51.2056 233.047 46.9555 230.562 44.2075Z" fill="white"/>
</mask>
<g mask="url(#mask1_3742_10755)">
<path d="M230.562 44.2075L246.795 62.1781C246.855 62.2464 246.916 62.3147 246.975 62.3854L230.743 44.4148C230.684 44.3441 230.623 44.2758 230.562 44.2075Z" fill="#A54D05"/>
<path d="M230.742 44.4124L246.974 62.3829C247.133 62.5707 247.281 62.7633 247.423 62.9633L231.191 44.9927C231.049 44.7927 230.901 44.6001 230.742 44.4124Z" fill="#A54D05"/>
<path d="M231.188 44.9951L247.42 62.9657C247.561 63.1681 247.695 63.3754 247.819 63.5899L231.587 45.6193C231.463 45.4048 231.331 45.1975 231.188 44.9951Z" fill="#A54D05"/>
<path d="M231.59 45.6194L247.822 63.59C247.951 63.8119 248.068 64.0411 248.178 64.2752L231.946 46.3046C231.836 46.0705 231.719 45.8413 231.59 45.6194Z" fill="#A54D05"/>
<path d="M231.945 46.3044L248.177 64.275C248.292 64.5213 248.394 64.7749 248.487 65.0334L232.255 47.0628C232.162 46.8043 232.06 46.5507 231.945 46.3044Z" fill="#A54D05"/>
<path d="M232.254 47.0603L248.486 65.0309C248.586 65.3113 248.674 65.6015 248.747 65.8941L232.515 47.9235C232.442 47.6284 232.354 47.3407 232.254 47.0603Z" fill="#A54D05"/>
<path d="M232.516 47.926L248.748 65.8966C248.831 66.2307 248.899 66.572 248.948 66.9183L232.716 48.9477C232.667 48.599 232.599 48.2601 232.516 47.926Z" fill="#A54D05"/>
<path d="M232.715 48.9478L248.947 66.9183C249.008 67.3548 249.044 67.8035 249.052 68.2594L232.82 50.2888C232.812 49.8329 232.778 49.3867 232.715 48.9478Z" fill="#A54D05"/>
<path d="M232.819 50.2888L249.052 68.2594C249.066 69.1616 248.974 70.0979 248.771 71.0513L232.539 53.0807C232.741 52.1273 232.834 51.191 232.819 50.2888Z" fill="#A54D05"/>
<path d="M232.543 53.0806L248.775 71.0512C248.694 71.4291 248.597 71.8119 248.482 72.1947L232.25 54.2242C232.365 53.8413 232.462 53.4609 232.543 53.0806Z" fill="#A54D05"/>
<path d="M232.246 54.2217L248.479 72.1923C248.349 72.6214 248.198 73.053 248.025 73.4846L231.793 55.514C231.966 55.0824 232.117 54.6508 232.246 54.2217Z" fill="#A54D05"/>
</g>
<path d="M128.339 156.9L144.571 174.871C142.237 175.78 139.914 176.095 137.819 175.841C135.725 175.588 133.857 174.769 132.435 173.406L116.203 155.435C117.625 156.798 119.492 157.617 121.587 157.871C123.682 158.124 126.005 157.81 128.339 156.9Z" fill="#A54D05"/>
<mask id="mask2_3742_10755" style="mask-type:luminance" maskUnits="userSpaceOnUse" x="116" y="155" width="29" height="21">
<path d="M128.339 156.9L144.571 174.871C142.237 175.78 139.914 176.095 137.819 175.841C135.725 175.588 133.857 174.769 132.435 173.406L116.203 155.435C117.625 156.798 119.492 157.617 121.587 157.871C123.682 158.124 126.005 157.81 128.339 156.9Z" fill="white"/>
</mask>
<g mask="url(#mask2_3742_10755)">
<path d="M128.342 156.9L144.574 174.871C144.574 174.871 144.554 174.878 144.545 174.883L128.312 156.913C128.312 156.913 128.332 156.905 128.342 156.9Z" fill="#A54D05"/>
<path d="M128.312 156.913L144.544 174.883C144.049 175.076 143.554 175.239 143.064 175.378L126.832 157.408C127.325 157.269 127.817 157.105 128.312 156.913Z" fill="#A54D05"/>
<path d="M126.831 157.408L143.063 175.378C141.246 175.89 139.464 176.041 137.823 175.841C135.728 175.588 133.861 174.769 132.439 173.406L116.207 155.435C117.629 156.798 119.496 157.617 121.591 157.871C123.232 158.068 125.014 157.92 126.831 157.408Z" fill="#A54D05"/>
</g>
<path d="M231.793 55.5142L248.028 73.4848L221.916 138.554L205.684 120.584L231.793 55.5142Z" fill="#A54D05"/>
<path d="M195.199 130.859L211.431 148.829L144.574 174.871L128.34 156.9L195.199 130.859Z" fill="#A54D05"/>
<path d="M205.684 120.584L221.916 138.554C220.095 143.095 216.098 147.011 211.431 148.83L195.199 130.859C199.866 129.04 203.863 125.124 205.684 120.584Z" fill="#A54D05"/>
<mask id="mask3_3742_10755" style="mask-type:luminance" maskUnits="userSpaceOnUse" x="195" y="120" width="27" height="29">
<path d="M205.684 120.584L221.916 138.554C220.095 143.095 216.098 147.011 211.431 148.83L195.199 130.859C199.866 129.04 203.863 125.124 205.684 120.584Z" fill="white"/>
</mask>
<g mask="url(#mask3_3742_10755)">
<path d="M205.686 120.584L221.918 138.554C221.718 139.054 221.491 139.544 221.24 140.027L205.008 122.057C205.259 121.574 205.486 121.084 205.686 120.584Z" fill="#A54D05"/>
<path d="M205.005 122.056L221.237 140.027C220.996 140.49 220.732 140.946 220.447 141.39L204.215 123.419C204.5 122.976 204.763 122.52 205.005 122.056Z" fill="#A54D05"/>
<path d="M204.214 123.42L220.446 141.39C220.215 141.751 219.971 142.105 219.713 142.451L203.48 124.48C203.739 124.134 203.983 123.78 204.214 123.42Z" fill="#A54D05"/>
<path d="M203.481 124.483L219.713 142.453C219.486 142.758 219.252 143.056 219.005 143.346L202.773 125.375C203.017 125.085 203.254 124.787 203.481 124.483Z" fill="#A54D05"/>
<path d="M202.777 125.373L219.009 143.343C218.78 143.614 218.544 143.88 218.302 144.141L202.07 126.17C202.314 125.912 202.551 125.646 202.777 125.373Z" fill="#A54D05"/>
<path d="M202.067 126.17L218.3 144.141C218.068 144.387 217.831 144.626 217.588 144.86L201.355 126.889C201.599 126.655 201.838 126.416 202.067 126.17Z" fill="#A54D05"/>
<path d="M201.358 126.889L217.59 144.86C217.354 145.087 217.11 145.311 216.861 145.526L200.629 127.555C200.878 127.338 201.121 127.116 201.358 126.889Z" fill="#A54D05"/>
<path d="M200.627 127.555L216.859 145.526C216.613 145.74 216.362 145.947 216.103 146.147L199.871 128.177C200.127 127.977 200.381 127.767 200.627 127.555Z" fill="#A54D05"/>
<path d="M199.872 128.177L216.104 146.147C215.846 146.35 215.582 146.545 215.314 146.735L199.082 128.764C199.35 128.577 199.614 128.379 199.872 128.177Z" fill="#A54D05"/>
<path d="M199.081 128.764L215.313 146.735C215.038 146.928 214.757 147.115 214.474 147.293L198.242 129.323C198.527 129.145 198.805 128.957 199.081 128.764Z" fill="#A54D05"/>
<path d="M198.241 129.323L214.473 147.293C214.175 147.479 213.875 147.657 213.568 147.827L197.336 129.857C197.641 129.689 197.943 129.511 198.241 129.323Z" fill="#A54D05"/>
<path d="M197.338 129.854L213.57 147.825C213.238 148.008 212.902 148.181 212.56 148.342L196.328 130.371C196.669 130.21 197.006 130.037 197.338 129.854Z" fill="#A54D05"/>
<path d="M196.331 130.371L212.563 148.342C212.19 148.517 211.814 148.681 211.431 148.829L195.199 130.859C195.582 130.71 195.958 130.547 196.331 130.371Z" fill="#A54D05"/>
</g>
<path d="M184.012 2.31214C186.107 2.56572 187.975 3.38501 189.396 4.74804L230.143 43.7786C232.987 46.4998 233.616 50.9766 231.794 55.5168L205.682 120.586C203.861 125.127 199.864 129.043 195.197 130.862L128.34 156.903C126.007 157.813 123.683 158.127 121.588 157.874C119.494 157.62 117.626 156.801 116.205 155.438L75.4599 116.407C72.6168 113.683 71.9877 109.207 73.8091 104.666L99.9189 39.5968C101.74 35.0567 105.737 31.1407 110.404 29.3241L177.263 3.2826C179.597 2.37309 181.92 2.05855 184.015 2.31214H184.012Z" fill="#FF9A3B"/>
<path d="M180.05 15.7351C182.382 15.9813 184.449 16.925 185.961 18.5197L217.284 51.547C220.03 54.4413 220.534 59.0401 218.608 63.6144L196.626 115.805C194.7 120.379 190.635 124.229 185.966 125.907L132.659 145.067C130.559 145.821 128.484 146.086 126.582 145.887C124.251 145.643 122.186 144.699 120.674 143.104L89.3465 110.072C86.6009 107.178 86.0986 102.577 88.0249 98.0048L110.007 45.8169C111.933 41.2426 115.998 37.3924 120.669 35.7149L173.977 16.5519C176.074 15.7985 178.151 15.5351 180.05 15.7326V15.7351Z" fill="url(#paint0_linear_3742_10755)"/>
<g filter="url(#filter0_d_3742_10755)">
<mask id="mask4_3742_10755" style="mask-type:luminance" maskUnits="userSpaceOnUse" x="127" y="46" width="62" height="68">
<path d="M173.19 46.1296L176.624 48.8071C186.169 56.2454 190.72 69.3479 187.249 83.1325C182.374 102.49 163.522 115.86 145.144 112.996C139.85 112.172 135.174 110.091 131.313 107.082L127.879 104.405C131.74 107.413 136.416 109.494 141.709 110.319C160.088 113.183 178.94 99.813 183.814 80.4551C187.285 66.6704 182.735 53.568 173.19 46.1296Z" fill="white"/>
</mask>
<g mask="url(#mask4_3742_10755)">
<path d="M173.191 46.1296L176.626 48.8071C177.087 49.1654 177.536 49.5384 177.972 49.9212L174.538 47.2438C174.101 46.8585 173.653 46.4879 173.191 46.1296Z" fill="#FFDA88"/>
<path d="M174.535 47.2463L177.969 49.9238C178.666 50.5373 179.331 51.1803 179.964 51.8551L176.53 49.1777C175.897 48.5028 175.229 47.8599 174.535 47.2463Z" fill="#FFDA88"/>
<path d="M176.531 49.1777L179.966 51.8552C180.64 52.5718 181.278 53.3252 181.879 54.1056L178.445 51.4281C177.844 50.6453 177.206 49.8943 176.531 49.1777Z" fill="#FFDA88"/>
<path d="M178.445 51.428L181.88 54.1054C182.542 54.9692 183.16 55.8699 183.732 56.8074L180.297 54.1299C179.728 53.1949 179.11 52.2918 178.445 51.428Z" fill="#FFDA88"/>
<path d="M180.297 54.1299L183.731 56.8073C184.433 57.9583 185.061 59.1608 185.61 60.4075L182.176 57.73C181.624 56.4834 180.996 55.2809 180.297 54.1299Z" fill="#FFDA88"/>
<path d="M182.176 57.7302L185.61 60.4076C186.452 62.3096 187.111 64.317 187.582 66.403L184.148 63.7256C183.68 61.6396 183.017 59.6322 182.176 57.7302Z" fill="#FFDA88"/>
<path d="M184.148 63.7256L187.583 66.403C188.228 69.2768 188.508 72.3027 188.38 75.4169L184.946 72.7395C185.073 69.6252 184.794 66.5993 184.148 63.7256Z" fill="#FFDA88"/>
<path d="M184.943 72.7395L188.378 75.4169C188.287 77.6305 187.992 79.8907 187.477 82.1706L184.043 79.4932C184.558 77.2133 184.852 74.9531 184.943 72.7395Z" fill="#FFDA88"/>
<path d="M184.045 79.4932L187.48 82.1706C187.408 82.4921 187.33 82.8111 187.249 83.1326C186.967 84.2492 186.641 85.3462 186.27 86.4186L182.836 83.7412C183.206 82.6663 183.535 81.5693 183.815 80.4552C183.896 80.1337 183.972 79.8122 184.045 79.4932Z" fill="#FFDA88"/>
<path d="M182.835 83.7437L186.269 86.4211C185.874 87.5622 185.43 88.6788 184.942 89.7685L181.508 87.091C181.998 86.0014 182.442 84.8848 182.835 83.7437Z" fill="#FFDA88"/>
<path d="M181.509 87.0911L184.944 89.7685C184.497 90.7648 184.012 91.7367 183.489 92.6864L180.055 90.009C180.577 89.0593 181.063 88.0874 181.509 87.0911Z" fill="#FFDA88"/>
<path d="M180.052 90.0088L183.486 92.6862C182.988 93.5918 182.458 94.4728 181.899 95.3317L178.465 92.6543C179.024 91.7954 179.556 90.9144 180.052 90.0088Z" fill="#FFDA88"/>
<path d="M178.464 92.6543L181.899 95.3317C181.347 96.1784 180.765 97.0005 180.157 97.7981L176.723 95.1207C177.331 94.3231 177.912 93.501 178.464 92.6543Z" fill="#FFDA88"/>
<path d="M176.724 95.1208L180.158 97.7983C179.542 98.6057 178.897 99.3885 178.227 100.144L174.793 97.467C175.463 96.7111 176.105 95.9282 176.724 95.1208Z" fill="#FFDA88"/>
<path d="M174.794 97.4644L178.228 100.142C177.531 100.927 176.808 101.683 176.059 102.409L172.625 99.7319C173.373 99.0055 174.097 98.2497 174.794 97.4644Z" fill="#FFDA88"/>
<path d="M172.624 99.7319L176.058 102.409C175.256 103.185 174.427 103.928 173.571 104.633L170.137 101.955C170.993 101.251 171.824 100.51 172.624 99.7319Z" fill="#FFDA88"/>
<path d="M170.137 101.956L173.572 104.633C172.593 105.438 171.582 106.194 170.54 106.901L167.105 104.223C168.148 103.519 169.159 102.761 170.137 101.956Z" fill="#FFDA88"/>
<path d="M167.106 104.223L170.54 106.901C169.272 107.759 167.959 108.542 166.61 109.244L163.176 106.567C164.525 105.865 165.837 105.082 167.106 104.223Z" fill="#FFDA88"/>
<path d="M163.174 106.564L166.608 109.242C160.005 112.675 152.537 114.147 145.144 112.996C139.85 112.172 135.174 110.091 131.313 107.082L127.879 104.405C131.74 107.413 136.416 109.494 141.709 110.319C149.101 111.47 156.568 109.997 163.174 106.564Z" fill="#FFDA88"/>
</g>
<path d="M182.361 80.0887L182.361 80.0886C187.051 61.4712 176.527 44.4079 159.133 41.6972C141.602 38.9658 123.42 51.7529 118.711 70.4478L182.361 80.0887ZM182.361 80.0887C177.655 98.7809 159.471 111.568 141.942 108.837M182.361 80.0887L141.942 108.837M141.942 108.837C124.547 106.126 114.024 89.0628 118.711 70.4479L141.942 108.837Z" fill="url(#paint1_linear_3742_10755)" stroke="url(#paint2_linear_3742_10755)" stroke-width="3"/>
</g>
<path d="M159.504 81.9926L158.812 85.436L135.428 84.2105L136.121 80.7672C136.248 80.1359 136.878 79.647 137.521 79.6807L158.566 80.7836C159.209 80.8173 159.631 81.3614 159.504 81.9926Z" fill="white" stroke="white" stroke-width="1.5" stroke-miterlimit="10" stroke-linecap="round" stroke-linejoin="round"/>
<path d="M143.815 71.8913L141.477 71.7688L139.861 79.8033L142.199 79.9259L143.815 71.8913Z" fill="white"/>
<path d="M148.491 72.1365L146.152 72.0139L144.537 80.0485L146.875 80.171L148.491 72.1365Z" fill="white"/>
<path d="M153.166 72.3816L150.828 72.259L149.212 80.2936L151.551 80.4161L153.166 72.3816Z" fill="white"/>
<path d="M157.842 72.6265L155.504 72.5039L153.888 80.5384L156.227 80.661L157.842 72.6265Z" fill="white"/>
<path d="M159.807 86.3581L134.085 85.0101C133.606 84.985 133.287 84.5739 133.382 84.1033C133.476 83.6327 133.952 83.2633 134.432 83.2884L160.153 84.6364C160.633 84.6615 160.952 85.0726 160.857 85.5432C160.762 86.0138 160.286 86.3832 159.807 86.3581Z" fill="white"/>
<path d="M161.825 66.7459L152.134 62.0624C151.918 61.9583 151.521 61.9375 151.269 62.0171L139.915 65.5977C139.474 65.7369 139.052 66.1904 138.964 66.6265L138.198 70.4372C138.071 71.0685 138.493 71.6125 139.136 71.6462L160.181 72.7492C160.824 72.7829 161.454 72.2939 161.581 71.6626L162.347 67.852C162.435 67.4158 162.202 66.9281 161.825 66.7459ZM150.236 69.3282C149.265 69.2774 148.636 68.4673 148.828 67.5146C149.02 66.562 149.958 65.834 150.928 65.8849C151.898 65.9357 152.527 66.7458 152.336 67.6984C152.144 68.6511 151.206 69.3791 150.236 69.3282Z" fill="white"/>
</g>
<path d="M203.844 11.5805C259.41 2.48159 289.471 6.79563 309.29 33.9842C321.846 68.071 265.599 120.172 183.659 150.354C101.719 180.537 25.1154 177.372 12.5596 143.285C5.19883 112.597 40.1015 78.744 93.8347 47.4781" stroke="#C1C1C1" stroke-dasharray="12 12"/>
<mask id="mask5_3742_10755" style="mask-type:luminance" maskUnits="userSpaceOnUse" x="6" y="137" width="31" height="34">
<path d="M28.8841 137.027L30.6089 138.371C35.4024 142.105 37.6876 148.682 35.9444 155.602C33.4965 165.32 24.029 172.031 14.7993 170.594C12.1408 170.18 9.79271 169.135 7.85363 167.625L6.12891 166.28C8.06799 167.791 10.4161 168.836 13.0746 169.249C22.3043 170.687 31.7718 163.976 34.2197 154.258C35.9629 147.338 33.6776 140.761 28.8841 137.027Z" fill="white"/>
</mask>
<g mask="url(#mask5_3742_10755)">
<path d="M28.8789 137.026L30.6036 138.37C30.8352 138.55 31.0607 138.737 31.28 138.93L29.5552 137.586C29.336 137.392 29.1105 137.206 28.8789 137.026Z" fill="#FFDA88"/>
<path d="M29.5625 137.587L31.2872 138.931C31.6371 139.239 31.9709 139.561 32.2888 139.9L30.5641 138.556C30.2462 138.217 29.9111 137.895 29.5625 137.587Z" fill="#FFDA88"/>
<path d="M30.5664 138.557L32.2911 139.901C32.6299 140.261 32.9502 140.639 33.252 141.031L31.5273 139.686C31.2255 139.293 30.9052 138.916 30.5664 138.557Z" fill="#FFDA88"/>
<path d="M31.5234 139.686L33.2482 141.03C33.5808 141.464 33.8912 141.916 34.1783 142.386L32.4536 141.042C32.1677 140.573 31.8573 140.12 31.5234 139.686Z" fill="#FFDA88"/>
<path d="M32.4531 141.043L34.1778 142.387C34.5302 142.965 34.8456 143.568 35.1215 144.194L33.3968 142.85C33.1196 142.224 32.8042 141.621 32.4531 141.043Z" fill="#FFDA88"/>
<path d="M33.3984 142.85L35.1232 144.194C35.5457 145.149 35.8771 146.157 36.1136 147.204L34.3889 145.86C34.1536 144.812 33.821 143.805 33.3984 142.85Z" fill="#FFDA88"/>
<path d="M34.3828 145.859L36.1075 147.203C36.4315 148.646 36.572 150.165 36.5079 151.728L34.7832 150.384C34.8473 148.821 34.7068 147.302 34.3828 145.859Z" fill="#FFDA88"/>
<path d="M34.7881 150.385L36.5128 151.729C36.4672 152.84 36.3194 153.974 36.0607 155.119L34.3359 153.775C34.5946 152.63 34.7425 151.496 34.7881 150.385Z" fill="#FFDA88"/>
<path d="M34.3378 153.775L36.0625 155.119C36.0268 155.28 35.9874 155.44 35.9467 155.602C35.8051 156.162 35.6412 156.713 35.4552 157.251L33.7305 155.907C33.9165 155.368 34.0816 154.817 34.222 154.258C34.2627 154.096 34.3009 153.935 34.3378 153.775Z" fill="#FFDA88"/>
<path d="M33.7251 155.908L35.4498 157.252C35.2515 157.825 35.0285 158.386 34.7833 158.933L33.0586 157.589C33.305 157.042 33.528 156.481 33.7251 155.908Z" fill="#FFDA88"/>
<path d="M33.0626 157.589L34.7873 158.933C34.5631 159.433 34.3192 159.921 34.0568 160.398L32.332 159.054C32.5944 158.577 32.8384 158.089 33.0626 157.589Z" fill="#FFDA88"/>
<path d="M32.3283 159.053L34.053 160.398C33.803 160.852 33.5369 161.294 33.256 161.726L31.5312 160.382C31.8121 159.95 32.0795 159.508 32.3283 159.053Z" fill="#FFDA88"/>
<path d="M31.5309 160.381L33.2556 161.725C32.9785 162.15 32.6865 162.563 32.381 162.963L30.6562 161.619C30.9618 161.219 31.2537 160.806 31.5309 160.381Z" fill="#FFDA88"/>
<path d="M30.6609 161.62L32.3857 162.964C32.0765 163.369 31.7524 163.762 31.4161 164.141L29.6914 162.797C30.0277 162.418 30.3505 162.025 30.6609 161.62Z" fill="#FFDA88"/>
<path d="M29.6867 162.796L31.4114 164.14C31.0615 164.534 30.6981 164.914 30.3224 165.278L28.5977 163.934C28.9734 163.57 29.3368 163.19 29.6867 162.796Z" fill="#FFDA88"/>
<path d="M28.6008 163.934L30.3255 165.278C29.9226 165.668 29.5062 166.041 29.0763 166.395L27.3516 165.051C27.7815 164.697 28.1991 164.325 28.6008 163.934Z" fill="#FFDA88"/>
<path d="M27.3508 165.051L29.0755 166.395C28.584 166.799 28.0764 167.178 27.5528 167.533L25.8281 166.189C26.3517 165.836 26.8593 165.455 27.3508 165.051Z" fill="#FFDA88"/>
<path d="M25.8251 166.188L27.5499 167.533C26.9129 167.964 26.2539 168.357 25.5763 168.709L23.8516 167.365C24.5291 167.013 25.1882 166.62 25.8251 166.188Z" fill="#FFDA88"/>
<path d="M23.8541 167.364L25.5788 168.708C22.2624 170.431 18.5124 171.17 14.7993 170.593C12.1408 170.179 9.79271 169.134 7.85363 167.624L6.12891 166.28C8.06799 167.79 10.4161 168.835 13.0746 169.249C16.7865 169.826 20.5365 169.087 23.8541 167.364Z" fill="#FFDA88"/>
</g>
<path d="M33.7382 154.136L33.7382 154.136C31.3463 163.632 22.1015 170.15 13.155 168.756C4.25298 167.369 -1.10381 158.643 1.28161 149.173C3.67478 139.676 12.9184 133.159 21.8661 134.552C30.7681 135.939 36.1249 144.665 33.7382 154.136Z" fill="url(#paint3_linear_3742_10755)" stroke="url(#paint4_linear_3742_10755)"/>
<mask id="mask6_3742_10755" style="mask-type:luminance" maskUnits="userSpaceOnUse" x="280" y="3" width="32" height="34">
<path d="M303.556 3.16357L305.281 4.50762C310.074 8.24165 312.359 14.819 310.616 21.7388C308.168 31.4564 298.701 38.168 289.471 36.7303C286.813 36.3164 284.465 35.2717 282.526 33.7614L280.801 32.4173C282.74 33.9277 285.088 34.9724 287.746 35.3863C296.976 36.824 306.444 30.1123 308.892 20.3948C310.635 13.4749 308.35 6.8976 303.556 3.16357Z" fill="white"/>
</mask>
<g mask="url(#mask6_3742_10755)">
<path d="M303.551 3.16357L305.276 4.50762C305.507 4.68749 305.733 4.87474 305.952 5.06693L304.227 3.72288C304.008 3.52946 303.782 3.34344 303.551 3.16357Z" fill="#B60000"/>
<path d="M304.234 3.72388L305.959 5.06793C306.309 5.37591 306.643 5.69868 306.961 6.03747L305.236 4.69342C304.918 4.35463 304.583 4.03186 304.234 3.72388Z" fill="#B60000"/>
<path d="M305.238 4.69312L306.963 6.03717C307.302 6.39689 307.622 6.7751 307.924 7.16686L306.199 5.82281C305.897 5.42982 305.577 5.05284 305.238 4.69312Z" fill="#B60000"/>
<path d="M306.195 5.82324L307.92 7.16729C308.253 7.60094 308.563 8.05306 308.85 8.52366L307.125 7.17961C306.84 6.71024 306.529 6.25689 306.195 5.82324Z" fill="#B60000"/>
<path d="M307.129 7.1792L308.854 8.52325C309.206 9.10103 309.521 9.70468 309.797 10.3305L308.073 8.98646C307.795 8.36063 307.48 7.75698 307.129 7.1792Z" fill="#B60000"/>
<path d="M308.07 8.98633L309.795 10.3304C310.218 11.2851 310.549 12.2929 310.786 13.34L309.061 11.996C308.825 10.9488 308.493 9.94108 308.07 8.98633Z" fill="#B60000"/>
<path d="M309.055 11.9966L310.779 13.3406C311.103 14.7832 311.244 16.3022 311.18 17.8656L309.455 16.5215C309.519 14.9582 309.379 13.4392 309.055 11.9966Z" fill="#B60000"/>
<path d="M309.46 16.522L311.185 17.866C311.139 18.9772 310.991 20.1119 310.733 21.2563L309.008 19.9123C309.267 18.7678 309.414 17.6332 309.46 16.522Z" fill="#B60000"/>
<path d="M309.01 19.9119L310.734 21.2559C310.699 21.4173 310.659 21.5775 310.619 21.7388C310.477 22.2994 310.313 22.8501 310.127 23.3884L308.402 22.0444C308.588 21.5048 308.753 20.9541 308.894 20.3948C308.935 20.2334 308.973 20.072 309.01 19.9119Z" fill="#B60000"/>
<path d="M308.401 22.0457L310.126 23.3897C309.927 23.9626 309.704 24.5231 309.459 25.0701L307.734 23.726C307.981 23.179 308.204 22.6185 308.401 22.0457Z" fill="#B60000"/>
<path d="M307.734 23.7256L309.459 25.0696C309.235 25.5698 308.991 26.0577 308.729 26.5344L307.004 25.1904C307.266 24.7136 307.51 24.2258 307.734 23.7256Z" fill="#B60000"/>
<path d="M307 25.1907L308.725 26.5347C308.475 26.9893 308.209 27.4316 307.928 27.8628L306.203 26.5187C306.484 26.0875 306.751 25.6453 307 25.1907Z" fill="#B60000"/>
<path d="M306.203 26.5186L307.928 27.8626C307.65 28.2876 307.358 28.7003 307.053 29.1007L305.328 27.7567C305.634 27.3563 305.926 26.9436 306.203 26.5186Z" fill="#B60000"/>
<path d="M305.333 27.7568L307.058 29.1009C306.748 29.5062 306.424 29.8992 306.088 30.2786L304.363 28.9346C304.7 28.5551 305.022 28.1621 305.333 27.7568Z" fill="#B60000"/>
<path d="M304.359 28.9331L306.083 30.2772C305.733 30.6714 305.37 31.0508 304.994 31.4155L303.27 30.0714C303.645 29.7068 304.009 29.3273 304.359 28.9331Z" fill="#B60000"/>
<path d="M303.273 30.0718L304.997 31.4158C304.595 31.8051 304.178 32.1784 303.748 32.532L302.023 31.1879C302.453 30.8344 302.871 30.4623 303.273 30.0718Z" fill="#B60000"/>
<path d="M302.023 31.188L303.747 32.532C303.256 32.9361 302.748 33.3156 302.225 33.6704L300.5 32.3263C301.024 31.9727 301.531 31.5921 302.023 31.188Z" fill="#B60000"/>
<path d="M300.497 32.3259L302.222 33.67C301.585 34.1012 300.926 34.4941 300.248 34.8465L298.523 33.5024C299.201 33.1501 299.86 32.7571 300.497 32.3259Z" fill="#B60000"/>
<path d="M298.526 33.5011L300.251 34.8452C296.934 36.5686 293.184 37.3078 289.471 36.73C286.813 36.3161 284.465 35.2714 282.526 33.761L280.801 32.417C282.74 33.9274 285.088 34.972 287.746 35.386C291.458 35.9638 295.208 35.2246 298.526 33.5011Z" fill="#B60000"/>
</g>
<path d="M308.41 20.2719L308.41 20.272C306.018 29.7675 296.773 36.2851 287.827 34.8916C278.925 33.5049 273.568 24.7785 275.953 15.3088C278.347 5.81198 287.59 -0.705612 296.538 0.687951C305.44 2.07457 310.797 10.801 308.41 20.2719Z" fill="url(#paint5_linear_3742_10755)" stroke="url(#paint6_linear_3742_10755)"/>
<path d="M23.0832 158.781L9.21696 157.872C8.9327 157.854 8.73202 157.605 8.77427 157.323C8.81652 157.041 9.08729 156.823 9.37155 156.842L23.2378 157.751C23.522 157.769 23.7227 158.018 23.6805 158.3C23.6382 158.582 23.3674 158.8 23.0832 158.781Z" fill="white"/>
<path d="M16.4462 145.857L14.5912 158.225L17.7111 158.429L19.5661 146.061C19.6795 145.305 19.4603 144.666 18.5243 144.605L17.9003 144.564C16.9643 144.503 16.5596 145.101 16.4462 145.857Z" fill="white"/>
<path d="M11.1454 149.673L9.90876 157.918L12.682 158.1L13.9187 149.854C14.0321 149.099 13.8475 148.462 13.0155 148.407L12.4609 148.371C11.6289 148.317 11.2588 148.917 11.1454 149.673Z" fill="white"/>
<path d="M20.3369 153.744L19.6155 158.554L22.3887 158.736L23.1101 153.926C23.2235 153.17 23.0389 152.534 22.2069 152.479L21.6523 152.443C20.8203 152.388 20.4502 152.989 20.3369 153.744Z" fill="white"/>
<path d="M297.89 13.0271C296.39 10.9111 293.262 10.5409 290.918 12.2019C289.271 13.354 288.438 15.194 288.582 16.9195L284.836 19.5646C284.572 19.7567 284.325 20.1677 284.301 20.4803L284.18 21.8984C284.147 22.3676 284.484 22.8545 284.939 22.974L286.316 23.3341C286.619 23.4159 287.087 23.3268 287.36 23.1291L288.013 22.6676C288.171 22.5614 288.218 22.3566 288.116 22.2132L287.134 20.8222C286.987 20.6142 287.057 20.3071 287.288 20.1438C287.519 19.9806 287.832 20.0177 287.979 20.2256L288.966 21.6238C289.062 21.7601 289.271 21.7848 289.422 21.6778L291.11 20.4911C292.68 21.2092 294.694 21.0336 296.335 19.8806C298.685 18.2204 299.384 15.1424 297.89 13.0271ZM293.313 17.5977C292.414 17.4912 291.846 16.6882 292.047 15.8051C292.247 14.922 293.14 14.2917 294.039 14.3981C294.939 14.5045 295.506 15.3076 295.305 16.1907C295.105 17.0738 294.212 17.7041 293.313 17.5977Z" fill="white"/>
<defs>
<filter id="filter0_d_3742_10755" x="100.098" y="39.8289" width="116.309" height="118.553" filterUnits="userSpaceOnUse" color-interpolation-filters="sRGB">
<feFlood flood-opacity="0" result="BackgroundImageFix"/>
<feColorMatrix in="SourceAlpha" type="matrix" values="0 0 0 0 0 0 0 0 0 0 0 0 0 0 0 0 0 0 127 0" result="hardAlpha"/>
<feOffset dx="6" dy="23"/>
<feGaussianBlur stdDeviation="11"/>
<feComposite in2="hardAlpha" operator="out"/>
<feColorMatrix type="matrix" values="0 0 0 0 0.658333 0 0 0 0 0.515055 0 0 0 0 0.0438889 0 0 0 0.47 0"/>
<feBlend mode="normal" in2="BackgroundImageFix" result="effect1_dropShadow_3742_10755"/>
<feBlend mode="normal" in="SourceGraphic" in2="effect1_dropShadow_3742_10755" result="shape"/>
</filter>
<linearGradient id="paint0_linear_3742_10755" x1="440.11" y1="265.887" x2="8.52796" y2="10.6931" gradientUnits="userSpaceOnUse">
<stop stop-color="#FF9A3B"/>
<stop offset="1" stop-color="#272727"/>
</linearGradient>
<linearGradient id="paint1_linear_3742_10755" x1="120.85" y1="52.2252" x2="194.608" y2="110.901" gradientUnits="userSpaceOnUse">
<stop stop-color="#F9D25C"/>
<stop offset="0.255208" stop-color="#FFC700"/>
<stop offset="1" stop-color="#E9B92D"/>
</linearGradient>
<linearGradient id="paint2_linear_3742_10755" x1="194.195" y1="77.8444" x2="129.114" y2="79.4972" gradientUnits="userSpaceOnUse">
<stop stop-color="white"/>
<stop offset="1" stop-color="white" stop-opacity="0"/>
</linearGradient>
<linearGradient id="paint3_linear_3742_10755" x1="2.60127" y1="140.087" x2="39.631" y2="169.557" gradientUnits="userSpaceOnUse">
<stop stop-color="#F9D25C"/>
<stop offset="0.255208" stop-color="#FFC700"/>
<stop offset="1" stop-color="#E9B92D"/>
</linearGradient>
<linearGradient id="paint4_linear_3742_10755" x1="39.4353" y1="152.948" x2="6.7516" y2="153.778" gradientUnits="userSpaceOnUse">
<stop stop-color="white"/>
<stop offset="1" stop-color="white" stop-opacity="0"/>
</linearGradient>
<linearGradient id="paint5_linear_3742_10755" x1="277.273" y1="6.22291" x2="314.303" y2="35.6928" gradientUnits="userSpaceOnUse">
<stop stop-color="#F95C5C"/>
<stop offset="0.255208" stop-color="#FF5C00"/>
<stop offset="0.927083" stop-color="#EB2929"/>
<stop offset="1" stop-color="#E9B92D"/>
</linearGradient>
<linearGradient id="paint6_linear_3742_10755" x1="314.107" y1="19.0836" x2="281.423" y2="19.914" gradientUnits="userSpaceOnUse">
<stop stop-color="white"/>
<stop offset="1" stop-color="white" stop-opacity="0"/>
</linearGradient>
<clipPath id="clip0_3742_10755">
<rect width="176.275" height="173.698" fill="white" transform="translate(72.7812 2.22656)"/>
</clipPath>
</defs>
</svg>
