<svg xmlns="http://www.w3.org/2000/svg" xmlns:xlink="http://www.w3.org/1999/xlink" width="17" height="17" viewBox="0 0 17 17">
  <defs>
    <clipPath id="clip-path">
      <rect id="Rectangle_19255" data-name="Rectangle 19255" width="17" height="17" transform="translate(-1639 15452)" fill="#6e3333" opacity="0.33"/>
    </clipPath>
  </defs>
  <g id="Mask_Group_238" data-name="Mask Group 238" transform="translate(1639 -15452)" clip-path="url(#clip-path)">
    <path id="Path_43598" data-name="Path 43598" d="M101.936,810.878h-1.211a3.576,3.576,0,0,0,1.211-2.787.7.7,0,0,0-1.394,0c0,1.827-1.652,2.46-2.909,2.676a6.51,6.51,0,0,0,.818-2.676,2.09,2.09,0,0,0-4.181,0,6.5,6.5,0,0,0,.818,2.676c-1.256-.217-2.909-.849-2.909-2.676a.7.7,0,0,0-1.394,0A3.578,3.578,0,0,0,92,810.878H90.787A2.788,2.788,0,0,0,88,813.665v.7a1.394,1.394,0,0,0,1.394,1.394v3.484a3.488,3.488,0,0,0,3.484,3.484h6.968a3.488,3.488,0,0,0,3.484-3.484v-3.484a1.394,1.394,0,0,0,1.394-1.394v-.7a2.788,2.788,0,0,0-2.787-2.787Zm-5.575-3.484a.7.7,0,0,1,.7.7,5.372,5.372,0,0,1-.7,2.1,5.372,5.372,0,0,1-.7-2.1.7.7,0,0,1,.7-.7Zm-6.968,6.271a1.394,1.394,0,0,1,1.394-1.394h4.878v2.09H89.394Zm1.394,5.575v-3.484h4.878v5.575H92.878a2.091,2.091,0,0,1-2.09-2.09Zm11.149,0a2.091,2.091,0,0,1-2.09,2.09H97.059v-5.575h4.878Zm-4.878-4.878v-2.09h4.878a1.394,1.394,0,0,1,1.394,1.394v.7Z" transform="translate(-1727 14646)" fill="#777e90"/>
  </g>
</svg>
