<svg width="20" height="20" viewBox="0 0 20 20" fill="none" xmlns="http://www.w3.org/2000/svg">
<path d="M7.49948 1.66669C5.31615 1.66669 3.54115 3.44169 3.54115 5.62502C3.54115 7.76669 5.21615 9.50002 7.39948 9.57502C7.46615 9.56669 7.53281 9.56669 7.58281 9.57502H7.64115C8.66561 9.54084 9.63663 9.10959 10.3489 8.37244C11.0611 7.6353 11.4588 6.65005 11.4578 5.62502C11.4578 3.44169 9.68281 1.66669 7.49948 1.66669ZM11.7328 11.7909C9.40781 10.2409 5.61615 10.2409 3.27448 11.7909C2.21615 12.4992 1.63281 13.4575 1.63281 14.4825C1.63281 15.5075 2.21615 16.4575 3.26615 17.1575C4.43281 17.9409 5.96615 18.3325 7.49948 18.3325C9.03281 18.3325 10.5661 17.9409 11.7328 17.1575C12.7828 16.4492 13.3661 15.4992 13.3661 14.4659C13.3578 13.4409 12.7828 12.4909 11.7328 11.7909V11.7909ZM16.6578 6.11502C16.7911 7.73169 15.6411 9.14835 14.0495 9.34002H14.0078C13.9578 9.34002 13.9078 9.34002 13.8661 9.35669C13.0578 9.39835 12.3161 9.14002 11.7578 8.66502C12.6161 7.89835 13.1078 6.74835 13.0078 5.49835C12.9506 4.84836 12.7299 4.2234 12.3661 3.68169C12.8028 3.46925 13.2846 3.36624 13.7699 3.38154C14.2553 3.39683 14.7296 3.52998 15.152 3.76948C15.5745 4.00899 15.9323 4.34766 16.1946 4.75629C16.4569 5.16493 16.6159 5.63124 16.6578 6.11502V6.11502Z" fill="#FFA500"/>
<path d="M18.3229 13.825C18.2563 14.6333 17.7396 15.3333 16.8729 15.8083C16.0396 16.2667 14.9896 16.4833 13.9479 16.4583C14.5479 15.9167 14.8979 15.2417 14.9646 14.525C15.0479 13.4917 14.5563 12.5 13.5729 11.7083C13.0146 11.2667 12.3646 10.9167 11.6562 10.6583C13.4979 10.125 15.8146 10.4833 17.2396 11.6333C18.0062 12.25 18.3979 13.025 18.3229 13.825V13.825Z" fill="#FFA500"/>
</svg>
