<svg width="11" height="21" viewBox="0 0 11 21" fill="none" xmlns="http://www.w3.org/2000/svg">
<path d="M3.46073 11.5349C3.32405 11.3994 3.21555 11.2381 3.14152 11.0604C3.06748 10.8827 3.02936 10.692 3.02936 10.4995C3.02936 10.307 3.06748 10.1164 3.14152 9.93869C3.21555 9.76098 3.32405 9.59968 3.46073 9.46411L10.1545 2.78495C10.2912 2.64937 10.3997 2.48808 10.4737 2.31037C10.5477 2.13266 10.5859 1.94205 10.5859 1.74953C10.5859 1.55701 10.5477 1.3664 10.4737 1.18869C10.3997 1.01098 10.2912 0.849682 10.1545 0.714111C9.88125 0.442495 9.51163 0.290039 9.12636 0.290039C8.74109 0.290039 8.37147 0.442495 8.09823 0.714111L1.40448 7.40786C0.585188 8.22818 0.125 9.34015 0.125 10.4995C0.125 11.6589 0.585188 12.7709 1.40448 13.5912L8.09823 20.2849C8.36986 20.5544 8.73649 20.7063 9.11907 20.7079C9.31099 20.709 9.50125 20.6722 9.67893 20.5996C9.85661 20.527 10.0182 20.4201 10.1545 20.2849C10.2912 20.1494 10.3997 19.9881 10.4737 19.8104C10.5477 19.6327 10.5859 19.442 10.5859 19.2495C10.5859 19.057 10.5477 18.8664 10.4737 18.6887C10.3997 18.511 10.2912 18.3497 10.1545 18.2141L3.46073 11.5349Z" fill="#838999"/>
</svg>
