<svg width="303" height="302" viewBox="0 0 303 302" fill="none" xmlns="http://www.w3.org/2000/svg">
<mask id="mask0_1408_6108" style="mask-type:alpha" maskUnits="userSpaceOnUse" x="0" y="0" width="303" height="302">
<rect width="303" height="302" fill="#D9D9D9"/>
</mask>
<g mask="url(#mask0_1408_6108)">
<g filter="url(#filter0_b_1408_6108)">
<circle cx="152" cy="151" r="147" fill="white" fill-opacity="0.32"/>
</g>
<g clip-path="url(#clip0_1408_6108)">
<path d="M85.4529 30.8322L80.3465 21.9294L76.2544 24.2749L81.3608 33.1846C82.706 32.3817 84.0724 31.5928 85.4529 30.8322Z" fill="#FF9A3B"/>
<path d="M72.1197 39.2208L66.1329 30.9238L64.6045 32.0296L70.5983 40.3407C71.1054 39.9674 71.6126 39.5941 72.1197 39.2279V39.2208Z" fill="#FF9A3B"/>
<path d="M97.0463 25.1343L92.9048 15.7456L91.1792 16.5063L95.3207 25.8879C95.8912 25.6273 96.4757 25.3808 97.0533 25.1343H97.0463Z" fill="#FF9A3B"/>
<path d="M138.531 14.4918L137.481 4.1875L135.608 4.37767L136.657 14.682C137.284 14.6116 137.911 14.5552 138.538 14.4918H138.531Z" fill="#FF9A3B"/>
<path d="M110.477 20.1264L107.336 10.3433L105.54 10.9208L108.688 20.711C109.287 20.5138 109.886 20.3166 110.484 20.1264H110.477Z" fill="#FF9A3B"/>
<path d="M124.36 16.5625L122.247 6.46948L120.401 6.85686L122.514 16.9569C123.127 16.8231 123.74 16.6893 124.36 16.5696V16.5625Z" fill="#FF9A3B"/>
<path d="M41.5308 69.2393L33.3042 63.2244L32.1914 64.7457L40.418 70.7607C40.7842 70.2536 41.1575 69.7394 41.5308 69.2393Z" fill="#FF9A3B"/>
<path d="M17.8724 121.078L7.9625 118.937L7.56104 120.782L17.4639 122.923C17.5907 122.303 17.7315 121.691 17.8654 121.078H17.8724Z" fill="#FF9A3B"/>
<path d="M15.5202 135.228L5.43424 134.136L5.22998 136.009L15.316 137.101C15.3794 136.474 15.4498 135.847 15.5202 135.228Z" fill="#FF9A3B"/>
<path d="M21.6898 107.245L12.0687 104.083L11.4771 105.879L21.1052 109.041C21.2954 108.442 21.4856 107.844 21.6898 107.245Z" fill="#FF9A3B"/>
<path d="M34.3186 79.9732L25.5215 74.8528L23.1479 78.9308L31.9521 84.0513C32.7198 82.6779 33.5016 81.3115 34.3186 79.9662V79.9732Z" fill="#FF9A3B"/>
<path d="M151.462 13.8791C152.399 13.8791 153.329 13.8932 154.259 13.9143L154.294 3.50432L149.575 3.49023L149.54 13.9002C150.18 13.8932 150.814 13.8791 151.462 13.8791Z" fill="#FF9A3B"/>
<path d="M50.666 58.1883L43.0945 51.3281L41.8267 52.7297L49.3982 59.5899C49.8208 59.118 50.2363 58.6531 50.666 58.1883Z" fill="#FF9A3B"/>
<path d="M26.9581 93.9048L17.7103 89.7493L16.9355 91.4678L26.1904 95.6234C26.444 95.0458 26.6975 94.4683 26.9581 93.8978V93.9048Z" fill="#FF9A3B"/>
<path d="M195.053 20.9715L198.307 11.0687L196.511 10.4771L193.257 20.3869C193.856 20.5771 194.455 20.7673 195.053 20.9715Z" fill="#FF9A3B"/>
<path d="M271.276 84.6147L280.46 79.3534L278.115 75.2612L268.923 80.5296C269.733 81.8749 270.515 83.2413 271.276 84.6218V84.6147Z" fill="#FF9A3B"/>
<path d="M253.999 60.1253L261.873 53.082L260.612 51.6733L252.745 58.7166C253.168 59.1815 253.583 59.6534 253.999 60.1253Z" fill="#FF9A3B"/>
<path d="M262.901 71.3171L271.466 65.1331L270.36 63.6047L261.781 69.7958C262.155 70.3029 262.528 70.81 262.894 71.3171H262.901Z" fill="#FF9A3B"/>
<path d="M276.967 96.1728L286.644 91.9046L285.883 90.179L276.213 94.4472C276.473 95.0177 276.72 95.6023 276.967 96.1728Z" fill="#FF9A3B"/>
<path d="M287.644 137.559L298.209 136.481L298.019 134.608L287.454 135.686C287.525 136.312 287.588 136.932 287.644 137.559Z" fill="#FF9A3B"/>
<path d="M285.553 123.416L295.92 121.247L295.533 119.402L285.158 121.571C285.292 122.184 285.426 122.796 285.553 123.416Z" fill="#FF9A3B"/>
<path d="M281.981 109.569L292.053 106.336L291.476 104.54L281.404 107.78C281.601 108.379 281.798 108.978 281.988 109.576L281.981 109.569Z" fill="#FF9A3B"/>
<path d="M208.358 26.2401L212.641 16.7035L210.922 15.9287L206.64 25.4653C207.217 25.7189 207.788 25.9724 208.365 26.233L208.358 26.2401Z" fill="#FF9A3B"/>
<path d="M167.134 14.7735L168.254 4.42691L166.38 4.22266L165.26 14.5622C165.887 14.6256 166.514 14.7031 167.134 14.7735Z" fill="#FF9A3B"/>
<path d="M14.6464 150.688C14.6464 149.836 14.6605 148.983 14.6817 148.131L4.51116 148.096L4.49707 152.815L14.6817 152.85C14.6676 152.132 14.6535 151.413 14.6535 150.688H14.6464Z" fill="#FF9A3B"/>
<path d="M181.255 17.14L183.453 6.9625L181.608 6.56104L179.41 16.7386C180.03 16.8654 180.643 17.0062 181.255 17.14Z" fill="#FF9A3B"/>
<path d="M243.983 49.9125L251.069 42.0945L249.667 40.8267L242.582 48.6447C243.053 49.0673 243.518 49.4829 243.983 49.9125Z" fill="#FF9A3B"/>
<path d="M232.96 40.7914L239.172 32.3042L237.651 31.1914L231.439 39.6856C231.946 40.0519 232.46 40.4252 232.96 40.7984V40.7914Z" fill="#FF9A3B"/>
<path d="M222.255 33.6003L227.53 24.5215L223.452 22.1479L218.169 31.2267C219.543 31.9945 220.909 32.7833 222.248 33.5933L222.255 33.6003Z" fill="#FF9A3B"/>
<path d="M60.9001 48.1447L54.0752 40.5168L52.6665 41.7776L59.4844 49.3984C59.9493 48.9758 60.4212 48.5603 60.8931 48.1447H60.9001Z" fill="#FF9A3B"/>
<path d="M231.101 261.937L237.257 270.466L238.785 269.36L232.622 260.824C232.115 261.197 231.608 261.57 231.101 261.937Z" fill="#FF9A3B"/>
<path d="M217.817 270.346L223.036 279.46L227.128 277.115L221.895 267.987C220.55 268.797 219.183 269.579 217.81 270.346H217.817Z" fill="#FF9A3B"/>
<path d="M242.271 253.006L249.308 260.873L250.716 259.612L243.68 251.745C243.215 252.167 242.743 252.583 242.271 253.006Z" fill="#FF9A3B"/>
<path d="M206.266 276.072L210.492 285.637L212.218 284.877L207.992 275.305C207.421 275.565 206.844 275.812 206.266 276.065V276.072Z" fill="#FF9A3B"/>
<path d="M252.463 242.969L260.296 250.062L261.563 248.66L253.724 241.56C253.309 242.032 252.886 242.504 252.463 242.969Z" fill="#FF9A3B"/>
<path d="M179.016 284.729L181.15 294.92L182.995 294.533L180.861 284.327C180.248 284.461 179.635 284.602 179.016 284.729Z" fill="#FF9A3B"/>
<path d="M192.87 281.115L196.061 291.046L197.857 290.469L194.666 280.531C194.067 280.728 193.469 280.925 192.87 281.115Z" fill="#FF9A3B"/>
<path d="M261.549 231.925L270.085 238.165L271.198 236.644L262.662 230.397C262.295 230.911 261.922 231.418 261.549 231.925Z" fill="#FF9A3B"/>
<path d="M285.066 180.213L295.427 182.453L295.829 180.608L285.475 178.375C285.348 178.995 285.207 179.608 285.073 180.22L285.066 180.213Z" fill="#FF9A3B"/>
<path d="M287.405 166.113L297.963 167.254L298.167 165.38L287.609 164.239C287.546 164.866 287.475 165.493 287.405 166.113Z" fill="#FF9A3B"/>
<path d="M288.243 148.54C288.257 149.258 288.271 149.969 288.271 150.695C288.271 151.554 288.257 152.406 288.236 153.259L298.878 153.294L298.892 148.575L288.236 148.54H288.243Z" fill="#FF9A3B"/>
<path d="M276.037 207.309L285.679 211.64L286.454 209.922L276.798 205.583C276.544 206.161 276.291 206.738 276.037 207.309Z" fill="#FF9A3B"/>
<path d="M268.712 221.212L277.868 226.537L280.242 222.459L271.078 217.127C270.311 218.501 269.529 219.867 268.719 221.212H268.712Z" fill="#FF9A3B"/>
<path d="M281.27 194.004L291.321 197.307L291.912 195.511L281.855 192.208C281.664 192.807 281.467 193.405 281.27 194.004Z" fill="#FF9A3B"/>
<path d="M164.852 286.849L165.908 297.202L167.789 297.012L166.732 286.651C166.105 286.722 165.485 286.792 164.859 286.849H164.852Z" fill="#FF9A3B"/>
<path d="M15.2807 163.88L5.18066 164.908L5.37083 166.789L15.4709 165.76C15.4005 165.134 15.3371 164.507 15.2737 163.88H15.2807Z" fill="#FF9A3B"/>
<path d="M40.1856 230.298L31.9238 236.264L33.0296 237.792L41.2984 231.826C40.9251 231.319 40.5519 230.812 40.1856 230.305V230.298Z" fill="#FF9A3B"/>
<path d="M31.762 216.979L22.9297 222.043L25.2751 226.136L34.1215 221.064C33.3115 219.719 32.5297 218.353 31.762 216.979Z" fill="#FF9A3B"/>
<path d="M49.1374 241.497L41.5166 248.315L42.7773 249.723L50.3911 242.913C49.9685 242.448 49.553 241.976 49.1304 241.504L49.1374 241.497Z" fill="#FF9A3B"/>
<path d="M20.9855 191.961L11.3433 195.06L11.9208 196.857L21.5701 193.757C21.3729 193.159 21.1757 192.56 20.9855 191.961Z" fill="#FF9A3B"/>
<path d="M17.3867 178.072L7.46973 180.15L7.85711 181.995L17.7811 179.917C17.6473 179.305 17.5134 178.692 17.3867 178.072Z" fill="#FF9A3B"/>
<path d="M26.0287 205.386L16.7456 209.485L17.5063 211.211L26.7893 207.112C26.5287 206.541 26.2822 205.964 26.0287 205.386Z" fill="#FF9A3B"/>
<path d="M59.1955 251.71L52.3213 259.288L53.7229 260.556L60.6042 252.963C60.1323 252.548 59.6604 252.125 59.1955 251.703V251.71Z" fill="#FF9A3B"/>
<path d="M81.0153 267.994L75.8525 276.868L79.9306 279.242L85.1004 270.353C83.7269 269.585 82.3605 268.804 81.0153 267.994Z" fill="#FF9A3B"/>
<path d="M122.113 284.341L119.937 294.427L121.782 294.829L123.958 284.743C123.338 284.616 122.726 284.475 122.113 284.341Z" fill="#FF9A3B"/>
<path d="M108.294 280.552L105.083 290.321L106.879 290.912L110.09 281.136C109.492 280.946 108.893 280.749 108.294 280.552Z" fill="#FF9A3B"/>
<path d="M70.2743 260.81L64.2241 269.078L65.7455 270.191L71.7957 261.915C71.2815 261.549 70.7744 261.176 70.2673 260.802L70.2743 260.81Z" fill="#FF9A3B"/>
<path d="M136.249 286.658L135.136 296.963L137.01 297.167L138.13 286.863C137.503 286.799 136.876 286.736 136.256 286.665L136.249 286.658Z" fill="#FF9A3B"/>
<path d="M151.463 287.503C150.688 287.503 149.913 287.489 149.138 287.475L149.103 297.885L153.822 297.899L153.857 287.475C153.061 287.489 152.265 287.503 151.463 287.503Z" fill="#FF9A3B"/>
<path d="M94.9544 275.326L90.7495 284.686L92.4681 285.461L96.68 276.087C96.1024 275.833 95.5249 275.587 94.9544 275.326Z" fill="#FF9A3B"/>
</g>
</g>
<defs>
<filter id="filter0_b_1408_6108" x="-1" y="-2" width="306" height="306" filterUnits="userSpaceOnUse" color-interpolation-filters="sRGB">
<feFlood flood-opacity="0" result="BackgroundImageFix"/>
<feGaussianBlur in="BackgroundImageFix" stdDeviation="3"/>
<feComposite in2="SourceAlpha" operator="in" result="effect1_backgroundBlur_1408_6108"/>
<feBlend mode="normal" in="SourceGraphic" in2="effect1_backgroundBlur_1408_6108" result="shape"/>
</filter>
<clipPath id="clip0_1408_6108">
<rect width="294.409" height="294.409" fill="white" transform="translate(4.49023 3.49023)"/>
</clipPath>
</defs>
</svg>
