<svg width="30" height="30" viewBox="0 0 30 30" fill="none" xmlns="http://www.w3.org/2000/svg">
<path d="M21.3341 16.031L20.4444 16.9208C20.2028 17.1624 19.8021 17.1624 19.5605 16.9208C19.3189 16.6792 19.3189 16.2785 19.5605 16.0369L20.4502 15.1472C21.9941 13.6033 21.9941 11.0931 20.4502 9.54924C18.9064 8.00539 16.3962 8.00539 14.8523 9.54924L13.9684 10.4331C13.7268 10.6747 13.3261 10.6747 13.0846 10.4331C12.843 10.1915 12.8371 9.79672 13.0846 9.54924L13.9684 8.66535C16.0014 6.63242 19.3012 6.63242 21.3341 8.66535C23.3671 10.6983 23.3671 13.9981 21.3341 16.031Z" fill="#292D32"/>
<path d="M16.9168 20.4503L16.0329 21.3342C14 23.3671 10.7002 23.3671 8.66722 21.3342C6.63429 19.3013 6.63429 16.0015 8.66722 13.9685L9.55111 13.0846C9.7927 12.843 10.1934 12.843 10.435 13.0846C10.6766 13.3262 10.6766 13.7269 10.435 13.9685L9.55111 14.8524C8.00726 16.3963 8.00726 18.9065 9.55111 20.4503C11.095 21.9942 13.6052 21.9942 15.149 20.4503L16.0329 19.5664C16.2745 19.3249 16.6752 19.3249 16.9168 19.5664C17.1584 19.808 17.1584 20.2087 16.9168 20.4503Z" fill="#292D32"/>
<path d="M17.8016 13.0853L13.0875 17.7994C12.8459 18.041 12.4453 18.041 12.2037 17.7994C11.9621 17.5578 11.9621 17.1571 12.2037 16.9155L16.9177 12.2014C17.1593 11.9598 17.56 11.9598 17.8016 12.2014C18.0432 12.443 18.0432 12.8437 17.8016 13.0853Z" fill="#292D32"/>
</svg>
