<svg width="20" height="20" viewBox="0 0 20 20" fill="none" xmlns="http://www.w3.org/2000/svg">
<g clip-path="url(#clip0_50_7872)">
<path d="M11.8168 0.172907C11.6966 0.150793 11.5731 0.155371 11.4549 0.186317C11.3367 0.217263 11.2267 0.273819 11.1328 0.351981C11.0389 0.430142 10.9634 0.527996 10.9115 0.638611C10.8596 0.749226 10.8327 0.869896 10.8326 0.992074V3.39124C9.82362 3.25738 8.79736 3.35768 7.83339 3.68437C6.86942 4.01105 5.99363 4.55535 5.27392 5.27506C4.55421 5.99477 4.00992 6.87056 3.68323 7.83453C3.35654 8.7985 3.25624 9.82476 3.3901 10.8337H0.990938C0.86876 10.8338 0.74809 10.8607 0.637475 10.9126C0.52686 10.9645 0.429006 11.0401 0.350845 11.134C0.272683 11.2279 0.216126 11.3378 0.185181 11.456C0.154235 11.5742 0.149657 11.6977 0.171771 11.8179C0.501779 13.6108 1.31563 15.2794 2.52533 16.6433C3.73503 18.0072 5.29454 19.0144 7.03525 19.5561C8.77596 20.0978 10.6316 20.1533 12.4016 19.7167C14.1716 19.28 15.7885 18.3679 17.0776 17.0788C18.3667 15.7897 19.2789 14.1727 19.7155 12.4027C20.1521 10.6328 20.0966 8.77709 19.5549 7.03639C19.0132 5.29568 18.006 3.73616 16.6422 2.52647C15.2783 1.31677 13.6097 0.502916 11.8168 0.172907V0.172907ZM9.99927 11.6671C9.70789 11.6663 9.42184 11.5888 9.16983 11.4426C8.91781 11.2963 8.70869 11.0863 8.56344 10.8337H6.66594C6.44492 10.8337 6.23296 10.7459 6.07668 10.5897C5.9204 10.4334 5.8326 10.2214 5.8326 10.0004C5.8326 9.77939 5.9204 9.56743 6.07668 9.41115C6.23296 9.25487 6.44492 9.16707 6.66594 9.16707H8.56344C8.70868 8.91743 8.91629 8.70981 9.16594 8.56457V5.83374C9.16594 5.61273 9.25374 5.40077 9.41002 5.24449C9.5663 5.0882 9.77826 5.00041 9.99927 5.00041C10.2203 5.00041 10.4322 5.0882 10.5885 5.24449C10.7448 5.40077 10.8326 5.61273 10.8326 5.83374V8.56457C11.1505 8.74718 11.399 9.02976 11.5396 9.36833C11.6801 9.70689 11.7048 10.0824 11.6097 10.4365C11.5146 10.7905 11.3051 11.1031 11.0138 11.3257C10.7225 11.5483 10.3658 11.6683 9.99927 11.6671V11.6671ZM8.30927 0.0837402C8.47409 0.0837402 8.63521 0.132614 8.77225 0.224182C8.90929 0.31575 9.0161 0.445899 9.07917 0.598171C9.14224 0.750442 9.15875 0.917998 9.12659 1.07965C9.09444 1.2413 9.01507 1.38979 8.89853 1.50633C8.78198 1.62287 8.6335 1.70224 8.47185 1.73439C8.3102 1.76655 8.14264 1.75005 7.99037 1.68697C7.8381 1.6239 7.70795 1.51709 7.61638 1.38005C7.52481 1.24301 7.47594 1.08189 7.47594 0.917074C7.47594 0.69606 7.56374 0.484098 7.72002 0.327818C7.8763 0.171538 8.08826 0.0837402 8.30927 0.0837402V0.0837402ZM4.8926 1.54707C5.05742 1.54707 5.21854 1.59595 5.35558 1.68752C5.49262 1.77908 5.59943 1.90923 5.6625 2.0615C5.72558 2.21378 5.74208 2.38133 5.70993 2.54298C5.67777 2.70463 5.5984 2.85312 5.48186 2.96966C5.36532 3.08621 5.21683 3.16557 5.05518 3.19773C4.89353 3.22988 4.72597 3.21338 4.5737 3.15031C4.42143 3.08723 4.29128 2.98042 4.19971 2.84338C4.10815 2.70634 4.05927 2.54522 4.05927 2.38041C4.05883 2.15954 4.14609 1.94753 4.30187 1.79096C4.45766 1.63439 4.66924 1.54607 4.8901 1.54541L4.8926 1.54707ZM2.3151 4.03457C2.47992 4.03457 2.64104 4.08345 2.77808 4.17502C2.91512 4.26658 3.02193 4.39673 3.085 4.549C3.14808 4.70128 3.16458 4.86883 3.13243 5.03048C3.10027 5.19213 3.0209 5.34062 2.90436 5.45716C2.78782 5.57371 2.63933 5.65307 2.47768 5.68523C2.31603 5.71738 2.14847 5.70088 1.9962 5.63781C1.84393 5.57473 1.71378 5.46792 1.62221 5.33088C1.53065 5.19384 1.48177 5.03273 1.48177 4.86791C1.48177 4.64689 1.56957 4.43493 1.72585 4.27865C1.88213 4.12237 2.09409 4.03457 2.3151 4.03457V4.03457ZM0.981771 7.50707C1.14659 7.50707 1.30771 7.55595 1.44475 7.64752C1.58179 7.73908 1.6886 7.86923 1.75167 8.0215C1.81474 8.17378 1.83125 8.34133 1.79909 8.50298C1.76694 8.66463 1.68757 8.81312 1.57103 8.92966C1.45448 9.04621 1.306 9.12557 1.14435 9.15773C0.982695 9.18988 0.81514 9.17338 0.662868 9.11031C0.510596 9.04723 0.380447 8.94042 0.288879 8.80338C0.197312 8.66634 0.148438 8.50523 0.148438 8.34041C0.148437 8.11968 0.236006 7.90797 0.391926 7.75174C0.547846 7.59551 0.759379 7.50752 0.980104 7.50707H0.981771Z" fill="#FFA500"/>
</g>
<defs>
<clipPath id="clip0_50_7872">
<rect width="20" height="20" fill="white"/>
</clipPath>
</defs>
</svg>
