<svg width="131" height="34" viewBox="0 0 131 34" fill="none" xmlns="http://www.w3.org/2000/svg">
<path d="M34.8008 10.0989H39.3613C40.349 10.0989 41.1696 10.1797 41.8159 10.3494C42.4622 10.5111 42.9851 10.7696 43.3627 11.109C43.7476 11.4484 44.0163 11.8767 44.1688 12.3777C44.3286 12.8868 44.4012 13.4767 44.4012 14.1554C44.4012 14.9393 44.256 15.5857 43.9727 16.111C43.6895 16.6281 43.1739 17.0079 42.4332 17.2342V17.3231C44.0163 17.7675 44.8079 18.9311 44.8079 20.8139C44.8079 21.4927 44.728 22.1069 44.5755 22.6483C44.4157 23.1897 44.147 23.6503 43.7694 24.0139C43.3845 24.3775 42.8689 24.6684 42.2226 24.8624C41.5763 25.0563 40.7557 25.1533 39.768 25.1533H34.8008V10.0989ZM38.7586 16.3049C39.2379 16.3049 39.6518 16.2807 39.9931 16.2322C40.3417 16.1756 40.6177 16.0867 40.8428 15.9574C41.0679 15.8282 41.2277 15.6504 41.3294 15.416C41.431 15.1817 41.4891 14.8827 41.4891 14.5029C41.4891 14.115 41.4383 13.7999 41.3294 13.5736C41.2277 13.3393 41.0679 13.1615 40.8501 13.0322C40.6395 12.9029 40.3562 12.8221 40.0004 12.7817C39.6518 12.7413 39.2306 12.7252 38.7513 12.7252H37.7564V16.3049H38.7586ZM39.129 22.5028C39.6446 22.5028 40.0803 22.4705 40.4216 22.4139C40.7702 22.3574 41.0461 22.2604 41.2495 22.123C41.4601 21.9856 41.6053 21.7917 41.6852 21.5493C41.7723 21.3069 41.8087 20.9836 41.8087 20.5958C41.8087 20.2483 41.7651 19.9574 41.6852 19.7069C41.5981 19.4645 41.4601 19.2625 41.2567 19.1089C41.0534 18.9554 40.7774 18.8503 40.4289 18.7857C40.0803 18.721 39.6446 18.6887 39.1217 18.6887H37.7564V22.5109H39.129V22.5028Z" fill="#081131"/>
<path d="M50.0222 13.4443H47.1973V25.1533H50.0222V13.4443Z" fill="#081131"/>
<path d="M55.962 15.9089V21.1371C55.962 21.4846 55.9765 21.7674 56.0128 21.9775C56.0419 22.1957 56.1072 22.3654 56.1944 22.4866C56.2815 22.6159 56.405 22.6967 56.5647 22.7452C56.7245 22.7937 56.9206 22.8179 57.1675 22.8179C57.5015 22.8179 57.7848 22.7856 58.0026 22.729V25.1613C57.792 25.1856 57.5742 25.2179 57.3418 25.2341C57.1094 25.2583 56.877 25.2664 56.6374 25.2664C55.991 25.2664 55.4391 25.2098 54.9889 25.0967C54.5386 24.9836 54.1828 24.7815 53.9068 24.4906C53.6309 24.1997 53.4348 23.8038 53.3113 23.3028C53.1879 22.8018 53.1298 22.1634 53.1298 21.3957V15.9089H51.75V13.4443H53.1371V10.6646H55.962V13.4443H58.1406V15.917H55.962V15.9089Z" fill="#081131"/>
<path d="M79.0917 13.2423C79.9777 13.2423 80.7184 13.3231 81.3212 13.4928C81.9239 13.6544 82.4105 13.9049 82.7809 14.2201C83.1512 14.5352 83.4199 14.9312 83.5797 15.3999C83.7467 15.8685 83.8266 16.418 83.8266 17.0322V25.1452H81.2921L81.0234 23.7795C80.7983 24.2159 80.4062 24.5876 79.8325 24.8947C79.2588 25.2017 78.5398 25.3634 77.6684 25.3634C76.4847 25.3634 75.5914 25.0725 74.9814 24.4826C74.3714 23.9008 74.0664 22.9957 74.0664 21.7836C74.0664 20.4261 74.4295 19.4725 75.1702 18.923C75.9037 18.3736 76.9785 18.0988 78.3946 18.0988H81.0089V17.7998C81.0089 17.4524 80.9799 17.1534 80.9218 16.9109C80.8637 16.6685 80.7475 16.4665 80.5805 16.313C80.4134 16.1594 80.1883 16.0463 79.8978 15.9736C79.6073 15.9009 79.237 15.8685 78.765 15.8685C78.3873 15.8685 78.0097 15.8847 77.6321 15.9251C77.2544 15.9655 76.8841 16.014 76.521 16.0867V13.4201C76.9277 13.3635 77.3561 13.3231 77.8281 13.2908C78.2929 13.2585 78.7141 13.2423 79.0917 13.2423ZM78.3873 22.9553C79.0409 22.9553 79.5856 22.826 80.0431 22.5755C80.5006 22.3169 80.8128 21.9937 80.9944 21.5897V20.224H78.8085C78.1041 20.224 77.603 20.321 77.298 20.5069C76.993 20.6927 76.8405 21.0806 76.8405 21.6786C76.8405 22.1472 76.9567 22.4705 77.2036 22.6644C77.4505 22.8583 77.8427 22.9553 78.3873 22.9553Z" fill="#081131"/>
<path d="M89.6145 25.2745C89.0045 25.2745 88.4163 25.2422 87.8426 25.1775C87.2689 25.1129 86.7533 25.024 86.2812 24.9028V22.2766C86.7896 22.4543 87.3197 22.5836 87.8862 22.6806C88.4526 22.7776 88.9755 22.826 89.4548 22.826C90.0648 22.826 90.5078 22.7452 90.7837 22.5917C91.0597 22.4301 91.2049 22.123 91.2049 21.6624C91.2049 21.4281 91.1759 21.2341 91.125 21.0806C91.0742 20.919 90.9725 20.7897 90.82 20.6685C90.6748 20.5554 90.4642 20.4503 90.21 20.3534C89.9486 20.2564 89.6073 20.1513 89.1788 20.0382C88.6196 19.8928 88.1621 19.7311 87.799 19.5534C87.4359 19.3756 87.1454 19.1574 86.9421 18.9069C86.7315 18.6483 86.5935 18.3493 86.5136 17.9938C86.4338 17.6382 86.3974 17.218 86.3974 16.7251C86.3974 16.1756 86.4701 15.6827 86.6226 15.2544C86.7678 14.8181 87.0147 14.4544 87.356 14.1555C87.6901 13.8565 88.1258 13.6302 88.6632 13.4686C89.1933 13.307 89.8469 13.2343 90.6094 13.2343C91.1977 13.2343 91.7496 13.2747 92.2724 13.3474C92.7953 13.4201 93.2092 13.509 93.4925 13.6302L93.3763 16.0383C93.231 15.9979 93.0567 15.9494 92.8534 15.9009C92.6428 15.8524 92.4177 15.8039 92.178 15.7554C91.9384 15.715 91.6915 15.6746 91.4373 15.6423C91.1831 15.6181 90.9435 15.6019 90.7038 15.6019C90.0503 15.6019 89.6145 15.6827 89.3894 15.8362C89.157 15.9979 89.0481 16.2807 89.0481 16.6847C89.0481 16.8706 89.0699 17.0241 89.1134 17.1453C89.157 17.2584 89.2514 17.3635 89.3967 17.4443C89.5419 17.5332 89.738 17.6221 89.9922 17.7029C90.2463 17.7918 90.5804 17.8887 90.9943 18.0099C91.568 18.1716 92.0401 18.3413 92.4177 18.5433C92.7953 18.7372 93.093 18.9716 93.3182 19.2382C93.5433 19.5049 93.6885 19.8281 93.7757 20.216C93.8556 20.5958 93.8991 21.0564 93.8991 21.5897C93.8991 22.2846 93.8047 22.8664 93.6087 23.3351C93.4126 23.8038 93.1366 24.1836 92.7735 24.4745C92.4104 24.7654 91.9602 24.9755 91.43 25.1048C90.8926 25.2179 90.2899 25.2745 89.6145 25.2745Z" fill="#081131"/>
<path d="M105.918 8.66864V25.1452H103.369L103.159 23.521C102.948 24.0543 102.6 24.4907 102.12 24.8381C101.634 25.1856 100.907 25.3634 99.9489 25.3634C99.0919 25.3634 98.3875 25.2179 97.8429 24.9432C97.2982 24.6603 96.8698 24.2563 96.5575 23.7311C96.2452 23.1977 96.0346 22.5594 95.9184 21.8079C95.8022 21.0564 95.7441 20.216 95.7441 19.2948C95.7441 18.4544 95.8022 17.6705 95.9184 16.9352C96.0346 16.1999 96.2452 15.5534 96.5575 15.0039C96.8698 14.4544 97.2982 14.0181 97.8429 13.7029C98.3875 13.3878 99.0919 13.2262 99.9489 13.2262C100.907 13.2262 101.626 13.3797 102.098 13.6948C102.57 14.0019 102.912 14.4221 103.122 14.9393V8.66864H105.918ZM100.835 22.9796C101.314 22.9796 101.714 22.8988 102.026 22.7452C102.338 22.5836 102.585 22.3493 102.767 22.0341C102.948 21.719 103.079 21.323 103.144 20.8705C103.217 20.4099 103.253 19.8927 103.253 19.2948C103.253 18.7291 103.217 18.22 103.144 17.7675C103.072 17.3069 102.948 16.919 102.767 16.5958C102.585 16.2726 102.338 16.014 102.026 15.8362C101.714 15.6504 101.321 15.5615 100.835 15.5615C100.341 15.5615 99.9489 15.6584 99.6584 15.8685C99.3679 16.0706 99.1428 16.3453 98.9975 16.6766C98.8523 17.016 98.7506 17.412 98.7071 17.8564C98.6635 18.3089 98.6417 18.7857 98.6417 19.2867C98.6417 19.82 98.6635 20.3129 98.7071 20.7735C98.7506 21.226 98.8523 21.6139 99.0121 21.9452C99.1646 22.2685 99.3897 22.519 99.6874 22.7048C99.9707 22.8907 100.356 22.9796 100.835 22.9796Z" fill="#081131"/>
<path d="M113.166 13.2423C114.052 13.2423 114.793 13.3231 115.395 13.4928C115.998 13.6544 116.485 13.9049 116.855 14.2201C117.225 14.5352 117.494 14.9312 117.654 15.3999C117.821 15.8685 117.901 16.418 117.901 17.0322V25.1452H115.366L115.098 23.7795C114.873 24.2159 114.48 24.5876 113.907 24.8947C113.333 25.2017 112.614 25.3634 111.743 25.3634C110.559 25.3634 109.666 25.0725 109.056 24.4826C108.446 23.9008 108.141 22.9957 108.141 21.7836C108.141 20.4261 108.504 19.4725 109.244 18.923C109.978 18.3736 111.053 18.0988 112.469 18.0988H115.083V17.7998C115.083 17.4524 115.054 17.1534 114.996 16.9109C114.938 16.6685 114.822 16.4665 114.655 16.313C114.488 16.1594 114.263 16.0463 113.972 15.9736C113.689 15.9009 113.311 15.8685 112.839 15.8685C112.462 15.8685 112.084 15.8847 111.706 15.9251C111.329 15.9655 110.958 16.014 110.595 16.0867V13.4201C111.002 13.3635 111.43 13.3231 111.902 13.2908C112.367 13.2585 112.788 13.2423 113.166 13.2423ZM112.469 22.9553C113.122 22.9553 113.667 22.826 114.125 22.5755C114.582 22.3169 114.894 21.9937 115.076 21.5897V20.224H112.89C112.186 20.224 111.685 20.321 111.38 20.5069C111.074 20.6927 110.922 21.0806 110.922 21.6786C110.922 22.1472 111.038 22.4705 111.285 22.6644C111.532 22.8583 111.924 22.9553 112.469 22.9553Z" fill="#081131"/>
<path d="M130.471 13.4443V29.4845H127.646V23.5209C127.435 24.0704 127.094 24.5149 126.622 24.8543C126.15 25.1937 125.431 25.3633 124.472 25.3633C123.615 25.3633 122.911 25.2179 122.366 24.9432C121.822 24.6603 121.393 24.2563 121.081 23.731C120.769 23.1977 120.558 22.5593 120.442 21.8078C120.326 21.0563 120.268 20.2159 120.268 19.2947C120.268 18.4543 120.326 17.6705 120.442 16.9352C120.558 16.1998 120.769 15.5534 121.081 15.0039C121.393 14.4544 121.822 14.018 122.366 13.7029C122.911 13.3877 123.615 13.2261 124.472 13.2261C125.431 13.2261 126.15 13.3797 126.622 13.6948C127.094 14.01 127.435 14.4221 127.646 14.9392V13.4443H130.471ZM125.366 22.9795C125.845 22.9795 126.244 22.8987 126.557 22.7452C126.869 22.5836 127.116 22.3492 127.297 22.0341C127.479 21.719 127.61 21.323 127.675 20.8705C127.747 20.4099 127.784 19.8927 127.784 19.2947C127.784 18.7291 127.747 18.22 127.675 17.7675C127.602 17.3069 127.479 16.919 127.297 16.5958C127.116 16.2726 126.869 16.014 126.557 15.8362C126.244 15.6503 125.852 15.5615 125.366 15.5615C124.872 15.5615 124.48 15.6584 124.189 15.8685C123.899 16.0705 123.673 16.3453 123.528 16.6766C123.383 17.016 123.281 17.4119 123.238 17.8564C123.194 18.3089 123.172 18.7857 123.172 19.2867C123.172 19.82 123.194 20.3129 123.238 20.7735C123.281 21.226 123.383 21.6139 123.543 21.9452C123.695 22.2684 123.92 22.5189 124.218 22.7048C124.501 22.8907 124.886 22.9795 125.366 22.9795Z" fill="#081131"/>
<path d="M62.8972 14.0666H65.5333L68.9465 21.3553H69.0409L73.6813 8.29694H76.0124L70.5949 24.9997H68.1912L64.3423 17.1211H64.2479L62.1855 24.9997H59.8398L62.8972 14.0666Z" fill="#081131"/>
<path d="M75.954 5L71.3789 8.59591L77.4572 11.004L75.954 5Z" fill="#081131"/>
<path d="M48.6128 6.43835L45.6426 11.6262H51.5829L48.6128 6.43835Z" fill="#081131"/>
<path d="M70.5962 25.0078L70.6325 24.8785L68.9768 21.3634H68.9405L66.0356 15.1494L65.5273 14.0746H62.8984L64.6268 17.711L68.1925 25.0078H70.5962Z" fill="#081131"/>
<path d="M20.5973 16.3489L25.8713 9.73617L17.7369 0H0.480469V34H19.996L27.5205 23.7532L20.5973 16.3489ZM14.8165 5.34468L18.1922 9.81277L15.8215 11.7617L11.1144 5.34468H14.8165ZM5.59986 8.55319H6.9656L11.1058 14.5957H5.59986V8.55319ZM5.59986 29.0213C5.35935 29.0213 5.59986 21.7277 5.59986 21.7277H6.93124L11.8359 29.0213C11.8359 29.0213 5.84037 29.0213 5.59986 29.0213ZM17.5136 27.1064L12.1194 19.5319H16.4657L20.1248 24.5532L17.5136 27.1064Z" fill="url(#paint0_linear_32_7302)"/>
<defs>
<linearGradient id="paint0_linear_32_7302" x1="13.9978" y1="0.00382979" x2="13.9978" y2="34.0047" gradientUnits="userSpaceOnUse">
<stop offset="5.20186e-07" stop-color="#FFA700"/>
<stop offset="1" stop-color="#FF7F00"/>
</linearGradient>
</defs>
</svg>
