<svg width="20" height="20" viewBox="0 0 20 20" fill="none" xmlns="http://www.w3.org/2000/svg">
<path d="M3.95768 14.5V5.5C3.95768 4.25 4.49102 3.75 5.81602 3.75H6.68268C8.00768 3.75 8.54102 4.25 8.54102 5.5V14.5C8.54102 15.75 8.00768 16.25 6.68268 16.25H5.81602C4.49102 16.25 3.95768 15.75 3.95768 14.5ZM3.95768 10.625H2.29102C1.94935 10.625 1.66602 10.3417 1.66602 10C1.66602 9.65833 1.94935 9.375 2.29102 9.375H3.95768V10.625ZM11.041 9.375H8.54102V10.625H11.041V9.375ZM17.7077 10.625H15.6243V9.375H17.7077C18.0493 9.375 18.3327 9.65833 18.3327 10C18.3327 10.3417 18.0493 10.625 17.7077 10.625ZM11.041 12.8333V7.16667C11.041 5.91667 11.5743 5.41667 12.8993 5.41667H13.766C15.091 5.41667 15.6243 5.91667 15.6243 7.16667V12.8333C15.6243 14.0833 15.091 14.5833 13.766 14.5833H12.8993C11.5743 14.5833 11.041 14.0833 11.041 12.8333Z" fill="#FFA500"/>
</svg>
