<svg width="24" height="24" viewBox="0 0 24 24" fill="none" xmlns="http://www.w3.org/2000/svg">
<mask id="mask0_1262_28801" style="mask-type:alpha" maskUnits="userSpaceOnUse" x="0" y="0" width="24" height="24">
<rect width="24" height="24" fill="#D9D9D9"/>
</mask>
<g mask="url(#mask0_1262_28801)">
<path fill-rule="evenodd" clip-rule="evenodd" d="M23.9278 5.729C23.9292 5.73035 23.9306 5.73168 23.9321 5.73289C23.9669 5.76053 23.9784 5.80935 23.9543 5.84896L16.6778 17.7232L11.4464 9.18638L15.615 2.3835C15.7645 2.13981 16.0404 2 16.3176 2C16.3846 2 16.4513 2.01037 16.5168 2.02718C16.5688 2.04054 16.6202 2.05712 16.6691 2.08177L23.9181 5.72159C23.9219 5.72346 23.9249 5.72625 23.9278 5.729ZM9.14359 15.3807V7.63692L15.9977 18.8222L9.14359 15.3807ZM17.027 19.3395L22.6689 22.1722C23.4032 22.541 23.9983 22.2828 23.9983 21.596V7.96321L17.027 19.3395ZM0.886239 2.19475L7.958 5.74568C7.98438 5.75881 8.00112 5.78598 8.00112 5.81547V21.5974C8.00112 22.1023 7.72956 22.403 7.34241 22.403C7.20503 22.403 7.05296 22.365 6.89332 22.2848L0.664679 19.1575C0.299077 18.974 0 18.488 0 18.0776V2.74477C0 2.34101 0.217203 2.10032 0.52683 2.10032C0.636919 2.10032 0.758483 2.13072 0.886239 2.19475Z" fill="black"/>
</g>
</svg>
