<svg width="25" height="25" viewBox="0 0 25 25" fill="none" xmlns="http://www.w3.org/2000/svg">
<path d="M13.9654 12.7574C13.9654 16.3514 11.0717 19.265 7.50213 19.265C3.93251 19.265 1.03906 16.3523 1.03906 12.7574C1.03906 9.16254 3.93273 6.25 7.50213 6.25C11.0715 6.25 13.9654 9.16341 13.9654 12.7574ZM21.0557 12.7574C21.0557 16.1407 19.6088 18.8831 17.8241 18.8831C16.0394 18.8831 14.5924 16.1398 14.5924 12.7574C14.5924 9.37498 16.0394 6.63165 17.8241 6.63165C19.6088 6.63165 21.0557 9.37498 21.0557 12.7574ZM23.9557 12.7574C23.9557 15.7887 23.4468 18.2458 22.8191 18.2458C22.1914 18.2458 21.6825 15.7878 21.6825 12.7574C21.6825 9.727 22.1914 7.26898 22.8193 7.26898C23.4472 7.26898 23.9557 9.72635 23.9557 12.7574Z" fill="#66CDAA"/>
</svg>
