<svg width="25" height="25" viewBox="0 0 25 25" fill="none" xmlns="http://www.w3.org/2000/svg">
<path fill-rule="evenodd" clip-rule="evenodd" d="M12.5042 2.08301C6.63654 2.08301 2.08594 6.38138 2.08594 12.1884C2.08594 15.2256 3.33115 17.8493 5.35701 19.6612C5.52543 19.8137 5.6284 20.0244 5.63638 20.2543L5.69386 22.1085C5.69798 22.2449 5.73557 22.3781 5.80331 22.4965C5.87105 22.6149 5.96687 22.7148 6.08232 22.7874C6.19777 22.86 6.32931 22.9032 6.46535 22.913C6.60139 22.9228 6.73776 22.899 6.86244 22.8437L8.9306 21.9321C9.10701 21.8555 9.30257 21.8404 9.48616 21.8898C10.436 22.1509 11.4474 22.2921 12.501 22.2921C18.3687 22.2921 22.9193 17.9946 22.9193 12.1876C22.9193 6.38138 18.3695 2.08301 12.5042 2.08301ZM17.9743 9.97732L15.3658 14.1145C15.2676 14.2702 15.1383 14.4039 14.9859 14.5072C14.8335 14.6104 14.6613 14.681 14.4803 14.7144C14.2993 14.7479 14.1133 14.7435 13.9341 14.7015C13.7548 14.6595 13.5862 14.5808 13.4389 14.4705L11.3636 12.9155C11.2711 12.8465 11.1588 12.8092 11.0435 12.8092C10.9281 12.8092 10.8158 12.8465 10.7234 12.9155L7.92326 15.0412C7.55209 15.3245 7.06119 14.8767 7.31023 14.4824L9.91879 10.3453C10.017 10.1896 10.1463 10.0559 10.2987 9.9526C10.4511 9.84934 10.6232 9.77876 10.8043 9.74532C10.9853 9.71187 11.1713 9.71629 11.3505 9.75828C11.5298 9.80027 11.6983 9.87893 11.8457 9.9893L13.921 11.5442C14.0135 11.6133 14.1257 11.6506 14.2411 11.6506C14.3565 11.6506 14.4688 11.6133 14.5612 11.5442L17.3613 9.41858C17.7365 9.13122 18.2274 9.57902 17.9743 9.97732Z" fill="#838999"/>
</svg>
