<svg width="20" height="20" viewBox="0 0 20 20" fill="none" xmlns="http://www.w3.org/2000/svg">
<path d="M5.83464 1.66699H5.0013C2.5013 1.66699 1.66797 3.15866 1.66797 5.00033V5.83366V17.5003C1.66797 18.192 2.4513 18.5837 3.0013 18.167L4.4263 17.1003C4.75964 16.8503 5.2263 16.8837 5.5263 17.1837L6.90964 18.5753C7.23464 18.9003 7.76797 18.9003 8.09297 18.5753L9.49297 17.1753C9.78464 16.8837 10.2513 16.8503 10.5763 17.1003L12.0013 18.167C12.5513 18.5753 13.3346 18.1837 13.3346 17.5003V3.33366C13.3346 2.41699 14.0846 1.66699 15.0013 1.66699H5.83464ZM4.9763 11.6753C4.51797 11.6753 4.14297 11.3003 4.14297 10.842C4.14297 10.3837 4.51797 10.0087 4.9763 10.0087C5.43464 10.0087 5.80964 10.3837 5.80964 10.842C5.80964 11.3003 5.43464 11.6753 4.9763 11.6753ZM4.9763 8.34199C4.51797 8.34199 4.14297 7.96699 4.14297 7.50866C4.14297 7.05033 4.51797 6.67533 4.9763 6.67533C5.43464 6.67533 5.80964 7.05033 5.80964 7.50866C5.80964 7.96699 5.43464 8.34199 4.9763 8.34199ZM10.0013 11.467H7.5013C7.15964 11.467 6.8763 11.1837 6.8763 10.842C6.8763 10.5003 7.15964 10.217 7.5013 10.217H10.0013C10.343 10.217 10.6263 10.5003 10.6263 10.842C10.6263 11.1837 10.343 11.467 10.0013 11.467ZM10.0013 8.13366H7.5013C7.15964 8.13366 6.8763 7.85033 6.8763 7.50866C6.8763 7.16699 7.15964 6.88366 7.5013 6.88366H10.0013C10.343 6.88366 10.6263 7.16699 10.6263 7.50866C10.6263 7.85033 10.343 8.13366 10.0013 8.13366Z" fill="#FAA71A"/>
<path d="M15.007 1.66699V2.91699C15.557 2.91699 16.082 3.14199 16.4654 3.51699C16.8654 3.92533 17.082 4.45033 17.082 5.00033V7.01699C17.082 7.63366 16.807 7.91699 16.182 7.91699H14.582V3.34199C14.582 3.10866 14.7737 2.91699 15.007 2.91699V1.66699ZM15.007 1.66699C14.082 1.66699 13.332 2.41699 13.332 3.34199V9.16699H16.182C17.4987 9.16699 18.332 8.33366 18.332 7.01699V5.00033C18.332 4.08366 17.957 3.25033 17.357 2.64199C16.7487 2.04199 15.9237 1.67533 15.007 1.66699C15.0154 1.66699 15.007 1.66699 15.007 1.66699Z" fill="#FAA71A"/>
</svg>
