<svg width="20" height="20" viewBox="0 0 20 20" fill="none" xmlns="http://www.w3.org/2000/svg">
<path d="M18.3327 8.95834C18.6743 8.95834 18.9577 8.67501 18.9577 8.33334V7.50001C18.9577 3.82501 17.841 2.70834 14.166 2.70834H8.95768V4.58334C8.95768 4.92501 8.67435 5.20834 8.33268 5.20834C7.99102 5.20834 7.70768 4.92501 7.70768 4.58334V2.70834H5.83268C2.15768 2.70834 1.04102 3.82501 1.04102 7.50001V7.91668C1.04102 8.25834 1.32435 8.54168 1.66602 8.54168C2.46602 8.54168 3.12435 9.20001 3.12435 10C3.12435 10.8 2.46602 11.4583 1.66602 11.4583C1.32435 11.4583 1.04102 11.7417 1.04102 12.0833V12.5C1.04102 16.175 2.15768 17.2917 5.83268 17.2917H7.70768V15.4167C7.70768 15.075 7.99102 14.7917 8.33268 14.7917C8.67435 14.7917 8.95768 15.075 8.95768 15.4167V17.2917H14.166C17.841 17.2917 18.9577 16.175 18.9577 12.5C18.9577 12.1583 18.6743 11.875 18.3327 11.875C17.5327 11.875 16.8743 11.2167 16.8743 10.4167C16.8743 9.61668 17.5327 8.95834 18.3327 8.95834ZM8.95768 11.8083C8.95768 12.15 8.67435 12.4333 8.33268 12.4333C7.99102 12.4333 7.70768 12.15 7.70768 11.8083V8.19168C7.70768 7.85001 7.99102 7.56668 8.33268 7.56668C8.67435 7.56668 8.95768 7.85001 8.95768 8.19168V11.8083Z" fill="#FFA500"/>
</svg>
