<svg width="20" height="20" viewBox="0 0 20 20" fill="none" xmlns="http://www.w3.org/2000/svg">
<path d="M9.9987 18.3333C14.5904 18.3333 18.332 14.5916 18.332 9.99998C18.332 5.40831 14.5904 1.66665 9.9987 1.66665C5.40703 1.66665 1.66537 5.40831 1.66537 9.99998C1.66537 14.5916 5.40703 18.3333 9.9987 18.3333ZM10.6237 13.3333C10.6237 13.675 10.3404 13.9583 9.9987 13.9583C9.65703 13.9583 9.3737 13.675 9.3737 13.3333L9.3737 9.16665C9.3737 8.82498 9.65703 8.54165 9.9987 8.54165C10.3404 8.54165 10.6237 8.82498 10.6237 9.16665L10.6237 13.3333ZM9.23203 6.34998C9.2737 6.24165 9.33203 6.15831 9.40703 6.07498C9.49037 5.99998 9.58203 5.94165 9.68203 5.89998C9.78203 5.85831 9.89037 5.83331 9.9987 5.83331C10.107 5.83331 10.2154 5.85831 10.3154 5.89998C10.4154 5.94165 10.507 5.99998 10.5904 6.07498C10.6654 6.15831 10.7237 6.24165 10.7654 6.34998C10.807 6.44998 10.832 6.55831 10.832 6.66665C10.832 6.77498 10.807 6.88331 10.7654 6.98331C10.7237 7.08331 10.6654 7.17498 10.5904 7.25831C10.507 7.33331 10.4154 7.39165 10.3154 7.43331C10.1154 7.51665 9.88203 7.51665 9.68203 7.43331C9.58203 7.39165 9.49037 7.33331 9.40703 7.25831C9.33203 7.17498 9.2737 7.08331 9.23203 6.98331C9.19037 6.88331 9.16537 6.77498 9.16537 6.66665C9.16537 6.55831 9.19037 6.44998 9.23203 6.34998Z" fill="#FFA500"/>
</svg>
