<svg width="20" height="20" viewBox="0 0 20 20" fill="none" xmlns="http://www.w3.org/2000/svg">
<path d="M4.16536 12.5C3.31536 12.5 2.53203 12.825 1.94036 13.3583C1.80703 13.475 1.68203 13.6 1.5737 13.7417C1.10703 14.3167 0.832031 15.0417 0.832031 15.8333C0.832031 17.675 2.33203 19.1667 4.16536 19.1667C4.96536 19.1667 5.69036 18.8833 6.26536 18.425C6.73203 18.0333 7.0987 17.525 7.2987 16.9417C7.43203 16.6 7.4987 16.225 7.4987 15.8333C7.4987 14 6.00703 12.5 4.16536 12.5ZM6.16536 15.1917C6.16536 15.425 5.98203 15.6 5.75703 15.6C5.53203 15.6 5.3487 15.425 5.3487 15.1917V15.1083C5.3487 15.0167 5.28203 14.9417 5.19036 14.9417H3.5237C3.60703 15.1 3.59036 15.2917 3.45703 15.425C3.38203 15.5 3.28203 15.5417 3.16536 15.5417C3.06536 15.5417 2.95703 15.5 2.88203 15.425L2.28203 14.825C2.2487 14.7917 2.21536 14.7417 2.19036 14.6917C2.15703 14.5917 2.15703 14.4833 2.19036 14.3833C2.21536 14.3417 2.24036 14.2833 2.28203 14.25L2.88203 13.6583C3.04036 13.4917 3.2987 13.4917 3.4487 13.6583C3.58203 13.7833 3.5987 13.9833 3.51536 14.1333H5.19036C5.7237 14.1333 6.15703 14.5667 6.15703 15.1083V15.1917H6.16536ZM5.16536 18.1333C5.05703 18.1333 4.9487 18.1 4.8737 18.0167C4.74036 17.8917 4.7237 17.6917 4.80703 17.5417H3.13203C2.5987 17.5417 2.16536 17.1083 2.16536 16.5667V16.4833C2.16536 16.25 2.3487 16.075 2.5737 16.075C2.7987 16.075 2.98203 16.25 2.98203 16.4833V16.5667C2.98203 16.6583 3.0487 16.7333 3.14036 16.7333H4.81536C4.73203 16.575 4.7487 16.3833 4.88203 16.25C5.04036 16.0917 5.2987 16.0917 5.4487 16.25L6.0487 16.85C6.08203 16.8833 6.11536 16.9333 6.14036 16.9833C6.1737 17.0833 6.1737 17.1917 6.14036 17.2917C6.11536 17.3333 6.08203 17.3833 6.0487 17.4167L5.4487 18.0083C5.3737 18.0917 5.26536 18.1333 5.16536 18.1333Z" fill="#FFA500"/>
<path d="M12.3737 3.29134V6.45801H11.1237V3.29134C11.1237 3.06634 10.9237 2.95801 10.7904 2.95801C10.7487 2.95801 10.707 2.96634 10.6654 2.98301L4.05703 5.47467C3.61536 5.64134 3.33203 6.05801 3.33203 6.53301V7.09134C2.5737 7.65801 2.08203 8.56634 2.08203 9.59134V6.53301C2.08203 5.54134 2.69036 4.65801 3.61536 4.30801L10.232 1.80801C10.4154 1.74134 10.607 1.70801 10.7904 1.70801C11.6237 1.70801 12.3737 2.38301 12.3737 3.29134Z" fill="#FFA500"/>
<path d="M17.9179 12.0837V12.917C17.9179 13.142 17.7429 13.3253 17.5095 13.3337H16.2929C15.8512 13.3337 15.4512 13.0087 15.4179 12.5753C15.3929 12.317 15.4929 12.0753 15.6595 11.9087C15.8095 11.7503 16.0179 11.667 16.2429 11.667H17.5012C17.7429 11.6753 17.9179 11.8587 17.9179 12.0837Z" fill="#FFA500"/>
<path d="M16.232 10.7913H17.082C17.5404 10.7913 17.9154 10.4163 17.9154 9.95801V9.59134C17.9154 7.86634 16.507 6.45801 14.782 6.45801H5.21536C4.50703 6.45801 3.85703 6.69134 3.33203 7.09134C2.5737 7.65801 2.08203 8.56634 2.08203 9.59134V11.0747C2.08203 11.3913 2.41536 11.5913 2.71536 11.4913C3.18203 11.333 3.6737 11.2497 4.16536 11.2497C6.69036 11.2497 8.7487 13.308 8.7487 15.833C8.7487 16.433 8.59036 17.0913 8.34036 17.6747C8.20703 17.9747 8.41536 18.333 8.74036 18.333H14.782C16.507 18.333 17.9154 16.9247 17.9154 15.1997V15.0413C17.9154 14.583 17.5404 14.208 17.082 14.208H16.357C15.557 14.208 14.7904 13.7163 14.582 12.9413C14.4154 12.308 14.6154 11.6913 15.032 11.2913C15.3404 10.9747 15.7654 10.7913 16.232 10.7913ZM11.6654 10.6247H7.4987C7.15703 10.6247 6.8737 10.3413 6.8737 9.99967C6.8737 9.65801 7.15703 9.37467 7.4987 9.37467H11.6654C12.007 9.37467 12.2904 9.65801 12.2904 9.99967C12.2904 10.3413 12.007 10.6247 11.6654 10.6247Z" fill="#FFA500"/>
</svg>
