<svg width="20" height="20" viewBox="0 0 20 20" fill="none" xmlns="http://www.w3.org/2000/svg">
<path fill-rule="evenodd" clip-rule="evenodd" d="M2.4987 6.04199C1.23305 6.04199 0.207031 7.13877 0.207031 8.49171V16.5089C0.207031 17.8619 1.23304 18.9587 2.4987 18.9587H17.4987C18.7643 18.9587 19.7904 17.8619 19.7904 16.5089V8.49171C19.7904 7.13877 18.7643 6.04199 17.4987 6.04199H2.4987ZM8.4987 12.5003C8.4987 11.6719 9.17027 11.0003 9.9987 11.0003C10.8271 11.0003 11.4987 11.6719 11.4987 12.5003C11.4987 13.3288 10.8271 14.0003 9.9987 14.0003C9.17027 14.0003 8.4987 13.3288 8.4987 12.5003ZM9.9987 10.0003C8.61799 10.0003 7.4987 11.1196 7.4987 12.5003C7.4987 13.881 8.61799 15.0003 9.9987 15.0003C11.3794 15.0003 12.4987 13.881 12.4987 12.5003C12.4987 11.1196 11.3794 10.0003 9.9987 10.0003ZM18.957 9.58366C18.957 9.92884 18.6772 10.2087 18.332 10.2087H17.9154C16.4196 10.2087 15.207 8.9961 15.207 7.50033C15.207 7.15515 15.4869 6.87533 15.832 6.87533C16.1772 6.87533 16.457 7.15515 16.457 7.50033C16.457 8.30574 17.1099 8.95866 17.9154 8.95866H18.332C18.6772 8.95866 18.957 9.23848 18.957 9.58366ZM18.332 14.792C18.6772 14.792 18.957 15.0718 18.957 15.417C18.957 15.7622 18.6772 16.042 18.332 16.042H17.9154C17.1099 16.042 16.457 16.6949 16.457 17.5003C16.457 17.8455 16.1772 18.1253 15.832 18.1253C15.4869 18.1253 15.207 17.8455 15.207 17.5003C15.207 16.0046 16.4196 14.792 17.9154 14.792H18.332ZM1.04036 9.58366C1.04036 9.92884 1.32019 10.2087 1.66536 10.2087H2.08203C3.5778 10.2087 4.79036 8.9961 4.79036 7.50033C4.79036 7.15515 4.51054 6.87533 4.16536 6.87533C3.82019 6.87533 3.54036 7.15515 3.54036 7.50033C3.54036 8.30574 2.88745 8.95866 2.08203 8.95866H1.66536C1.32019 8.95866 1.04036 9.23848 1.04036 9.58366ZM1.66536 14.792C1.32019 14.792 1.04036 15.0718 1.04036 15.417C1.04036 15.7622 1.32019 16.042 1.66536 16.042H2.08203C2.88745 16.042 3.54036 16.6949 3.54036 17.5003C3.54036 17.8455 3.82019 18.1253 4.16536 18.1253C4.51054 18.1253 4.79036 17.8455 4.79036 17.5003C4.79036 16.0046 3.5778 14.792 2.08203 14.792H1.66536Z" fill="#FFA500"/>
<path fill-rule="evenodd" clip-rule="evenodd" d="M1.875 4.16699C1.875 3.82181 2.15482 3.54199 2.5 3.54199H17.5C17.8452 3.54199 18.125 3.82181 18.125 4.16699C18.125 4.51217 17.8452 4.79199 17.5 4.79199H2.5C2.15482 4.79199 1.875 4.51217 1.875 4.16699Z" fill="#FFA500"/>
<path fill-rule="evenodd" clip-rule="evenodd" d="M3.53906 1.66699C3.53906 1.32181 3.81888 1.04199 4.16406 1.04199H15.8307C16.1759 1.04199 16.4557 1.32181 16.4557 1.66699C16.4557 2.01217 16.1759 2.29199 15.8307 2.29199H4.16406C3.81888 2.29199 3.53906 2.01217 3.53906 1.66699Z" fill="#FFA500"/>
</svg>
