<svg width="30" height="30" viewBox="0 0 30 30" fill="none" xmlns="http://www.w3.org/2000/svg">
<path opacity="0.4" d="M26.25 2.5V17.625C26.25 20 25 21.25 22.625 21.25H7.37499C4.99999 21.25 3.75 20 3.75 17.625V2.5H26.25Z" fill="#FFA500"/>
<path d="M27.5 3.4375H2.5C1.9875 3.4375 1.5625 3.0125 1.5625 2.5C1.5625 1.9875 1.9875 1.5625 2.5 1.5625H27.5C28.0125 1.5625 28.4375 1.9875 28.4375 2.5C28.4375 3.0125 28.0125 3.4375 27.5 3.4375Z" fill="#FFA500"/>
<path d="M20.8383 27.925C20.6758 28.25 20.3383 28.4375 20.0008 28.4375C19.8633 28.4375 19.7133 28.4 19.5883 28.3375L15.0008 26.05L10.4133 28.3375C10.2883 28.4 10.1383 28.4375 10.0008 28.4375C9.66332 28.4375 9.3258 28.25 9.1633 27.925C8.9258 27.45 9.11334 26.8875 9.58834 26.6625L14.0633 24.425V21.25H15.9383V24.425L20.4133 26.6625C20.8883 26.8875 21.0758 27.45 20.8383 27.925Z" fill="#FFA500"/>
<path d="M9.37515 14.6877C9.11265 14.6877 8.83767 14.5752 8.65017 14.3502C8.31267 13.9502 8.37514 13.3627 8.77514 13.0252L12.7127 9.73766C13.0752 9.43766 13.5376 9.31266 13.9751 9.38766C14.4251 9.46266 14.8127 9.73763 15.0502 10.1376L16.3626 12.3251L20.0251 9.27517C20.4251 8.93767 21.0126 9.00014 21.3501 9.40014C21.6876 9.80014 21.6252 10.3876 21.2252 10.7251L17.2876 14.0126C16.9251 14.3126 16.4627 14.4376 16.0252 14.3626C15.5752 14.2876 15.1876 14.0127 14.9501 13.6127L13.6377 11.4252L9.97517 14.4751C9.80017 14.6126 9.58765 14.6877 9.37515 14.6877Z" fill="#FFA500"/>
</svg>
