<svg width="76" height="76" viewBox="0 0 76 76" fill="none" xmlns="http://www.w3.org/2000/svg">
<circle cx="38" cy="38" r="38" fill="#FFF7F0"/>
<path d="M50.5 34.5625H25.5C24.9875 34.5625 24.5625 34.1375 24.5625 33.625C24.5625 33.1125 24.9875 32.6875 25.5 32.6875H50.5C51.0125 32.6875 51.4375 33.1125 51.4375 33.625C51.4375 34.1375 51.0125 34.5625 50.5 34.5625Z" fill="#FF9A3B"/>
<path d="M33 44.5625H30.5C29.9875 44.5625 29.5625 44.1375 29.5625 43.625C29.5625 43.1125 29.9875 42.6875 30.5 42.6875H33C33.5125 42.6875 33.9375 43.1125 33.9375 43.625C33.9375 44.1375 33.5125 44.5625 33 44.5625Z" fill="#FF9A3B"/>
<path d="M41.125 44.5625H36.125C35.6125 44.5625 35.1875 44.1375 35.1875 43.625C35.1875 43.1125 35.6125 42.6875 36.125 42.6875H41.125C41.6375 42.6875 42.0625 43.1125 42.0625 43.625C42.0625 44.1375 41.6375 44.5625 41.125 44.5625Z" fill="#FF9A3B"/>
<path d="M44.95 49.5625H31.05C26.075 49.5625 24.5625 48.0625 24.5625 43.1375V32.8625C24.5625 27.9375 26.075 26.4375 31.05 26.4375H44.9375C49.9125 26.4375 51.425 27.9375 51.425 32.8625V43.125C51.4375 48.0625 49.925 49.5625 44.95 49.5625ZM31.05 28.3125C27.125 28.3125 26.4375 28.9875 26.4375 32.8625V43.125C26.4375 47 27.125 47.675 31.05 47.675H44.9375C48.8625 47.675 49.55 47 49.55 43.125V32.8625C49.55 28.9875 48.8625 28.3125 44.9375 28.3125H31.05Z" fill="#FF9A3B"/>
</svg>
