<svg width="88" height="88" viewBox="0 0 88 88" fill="none" xmlns="http://www.w3.org/2000/svg">
<mask id="mask0_382_10835" style="mask-type:luminance" maskUnits="userSpaceOnUse" x="0" y="0" width="88" height="88">
<path d="M88 0H0V88H88V0Z" fill="white"/>
</mask>
<g mask="url(#mask0_382_10835)">
<mask id="mask1_382_10835" style="mask-type:luminance" maskUnits="userSpaceOnUse" x="-1" y="7" width="89" height="75">
<path d="M87.3047 7.36657H-0.695312V81.0318H87.3047V7.36657Z" fill="white"/>
</mask>
<g mask="url(#mask1_382_10835)">
<path d="M40.9179 74.4256L4.1123 68.2133L50.3689 49.6719L89.9994 57.7189L76.6041 57.7667L68.7959 61.6374L66.9016 67.1132L43.3747 68.0725L40.9179 74.4256Z" fill="black"/>
<path fill-rule="evenodd" clip-rule="evenodd" d="M40.3012 36.4337L49.5636 14.0199L46.1248 13.3037L36.8628 35.7176L27.9814 44.3706L31.4199 45.0866L40.3016 36.4338L40.3012 36.4337ZM25.9639 38.3672L15.4327 59.6309L11.9939 58.9145L22.5251 37.651L25.9639 38.3672ZM4.52068 68.0519L11.2454 54.4738L7.80678 53.7579L1.08203 67.3355L4.52068 68.0519Z" fill="white"/>
<path fill-rule="evenodd" clip-rule="evenodd" d="M40.3012 36.4337L49.5636 14.0199L46.1248 13.3037L36.8628 35.7176L27.9814 44.3706L31.4199 45.0866L40.3016 36.4338L40.3012 36.4337ZM25.9639 38.3672L15.4327 59.6309L11.9939 58.9145L22.5251 37.651L25.9639 38.3672ZM4.52068 68.0519L11.2454 54.4738L7.80678 53.7579L1.08203 67.3355L4.52068 68.0519Z" fill="#FFA500"/>
<path d="M49.5645 14.0199L49.7423 14.1226C49.7696 14.0566 49.7693 13.9792 49.7411 13.9138C49.7126 13.8483 49.6599 13.8023 49.5989 13.7895L49.5645 14.0199ZM40.302 36.4337L40.1242 36.3311C40.0968 36.397 40.0976 36.4743 40.1257 36.5398C40.1539 36.6052 40.2066 36.6512 40.2676 36.664L40.302 36.4337ZM46.1256 13.3037L46.1601 13.0733C46.0733 13.0552 45.9866 13.1073 45.9477 13.2011L46.1256 13.3037ZM36.8636 35.7176L36.6853 35.615C36.658 35.681 36.6588 35.7583 36.6869 35.8237C36.715 35.8891 36.7677 35.9352 36.8287 35.948L36.8636 35.7176ZM36.8636 35.7176L36.9895 35.8982C37.0494 35.8402 37.0747 35.7465 37.0553 35.6583C37.0355 35.57 36.9745 35.5033 36.8984 35.4873L36.8636 35.7176ZM27.9822 44.3706L27.8563 44.19C27.7964 44.248 27.7707 44.3416 27.7905 44.4301C27.8103 44.5185 27.8717 44.585 27.9478 44.6009L27.9822 44.3706ZM31.4207 45.0866L31.3862 45.3173C31.4433 45.329 31.5019 45.3107 31.5466 45.2672L31.4207 45.0866ZM40.3024 36.4338L40.4284 36.6143C40.4882 36.5562 40.5136 36.4625 40.4941 36.3743C40.4743 36.286 40.4129 36.2193 40.3369 36.2034L40.3024 36.4338ZM15.4335 59.6309L15.399 59.8611C15.4806 59.8785 15.5626 59.8335 15.6042 59.7488L15.4335 59.6309ZM25.9647 38.3672L26.1354 38.4853C26.1683 38.4192 26.1715 38.3384 26.1442 38.2689C26.1172 38.1994 26.063 38.1501 25.9992 38.1368L25.9647 38.3672ZM11.9947 58.9145L11.8238 58.7966C11.791 58.8626 11.7878 58.9435 11.815 59.0128C11.8422 59.0825 11.8965 59.1316 11.9603 59.1452L11.9947 58.9145ZM22.5259 37.651L22.5603 37.4206C22.4787 37.4036 22.3967 37.4483 22.3551 37.5328L22.5259 37.651ZM11.2462 54.4738L11.4172 54.5922C11.4499 54.5258 11.4532 54.4453 11.426 54.3755C11.3987 54.3063 11.3445 54.2567 11.2806 54.2436L11.2462 54.4738ZM4.52149 68.0519L4.4871 68.2826C4.56871 68.2994 4.65063 68.2545 4.69246 68.1703L4.52149 68.0519ZM7.80758 53.7579L7.84197 53.5272C7.76037 53.5103 7.67845 53.5553 7.63661 53.6395L7.80758 53.7579ZM1.08284 67.3355L0.911867 67.2175C0.879146 67.2835 0.875858 67.3645 0.903072 67.4342C0.930326 67.5034 0.984595 67.5526 1.04845 67.5662L1.08284 67.3355ZM49.3866 13.9173L40.1242 36.3311L40.4803 36.5363L49.7423 14.1226L49.3866 13.9173ZM46.0915 13.5341L49.53 14.2504L49.5989 13.7895L46.1601 13.0733L46.0915 13.5341ZM37.0414 35.8203L46.3039 13.4064L45.9477 13.2011L36.6853 35.615L37.0414 35.8203ZM36.8984 35.4873L36.898 35.4873L36.8287 35.948L36.8291 35.9481L36.8984 35.4873ZM28.1082 44.5508L36.9895 35.8982L36.7376 35.5372L27.8563 44.19L28.1082 44.5508ZM31.4551 44.8564L28.0167 44.14L27.9478 44.6009L31.3862 45.3173L31.4551 44.8564ZM40.1764 36.2532L31.2947 44.906L31.5466 45.2672L40.4284 36.6143L40.1764 36.2532ZM40.2676 36.664L40.268 36.6641L40.3369 36.2034L40.2676 36.664ZM15.6042 59.7488L26.1354 38.4853L25.7936 38.249L15.2623 59.5125L15.6042 59.7488ZM11.9603 59.1452L15.399 59.8611L15.4679 59.4002L12.0291 58.6843L11.9603 59.1452ZM22.3551 37.5328L11.8238 58.7966L12.1657 59.0329L22.697 37.7691L22.3551 37.5328ZM25.9992 38.1368L22.5603 37.4206L22.4914 37.8814L25.9302 38.5976L25.9992 38.1368ZM11.0753 54.3559L4.35055 67.9339L4.69246 68.1703L11.4172 54.5922L11.0753 54.3559ZM7.7732 53.9881L11.2119 54.7045L11.2806 54.2436L7.84197 53.5272L7.7732 53.9881ZM1.25381 67.4539L7.97852 53.8758L7.63661 53.6395L0.911867 67.2175L1.25381 67.4539ZM4.55591 67.8216L1.11722 67.1052L1.04845 67.5662L4.4871 68.2826L4.55591 67.8216Z" fill="black"/>
<path d="M11.2462 54.4738L4.52148 68.0519L49.5644 50.3162V14.0199L40.3023 36.4338L31.4206 45.0866L25.9646 38.3671L15.4334 59.6309L11.2462 54.4738Z" fill="white" stroke="black" stroke-linejoin="round"/>
<path fill-rule="evenodd" clip-rule="evenodd" d="M63.1469 40.3511L72.4094 17.9371L68.9709 17.2209L59.7085 39.6348L59.7089 39.6349L50.8271 48.2877L54.2656 49.0041L63.1473 40.3511H63.1469Z" fill="white"/>
<path d="M72.4085 17.9371L72.5867 18.0397C72.6137 17.9737 72.6133 17.8964 72.5851 17.8309C72.557 17.7654 72.5043 17.7194 72.4429 17.7067L72.4085 17.9371ZM63.146 40.3511L62.9682 40.2483C62.9408 40.3141 62.9416 40.3918 62.9698 40.4568C62.9979 40.5223 63.0502 40.5687 63.1116 40.5813L63.146 40.3511ZM68.97 17.2209L69.0045 16.9904C68.9173 16.9723 68.8306 17.0245 68.7918 17.1182L68.97 17.2209ZM59.7076 39.6348L59.5293 39.5322C59.5024 39.5983 59.5028 39.6757 59.5313 39.7412C59.5594 39.8067 59.6121 39.8526 59.6735 39.8653L59.7076 39.6348ZM59.708 39.6349L59.834 39.8153C59.8934 39.7572 59.9191 39.6634 59.8993 39.575C59.8795 39.4867 59.8181 39.42 59.7417 39.4044L59.708 39.6349ZM50.8262 48.2877L50.7003 48.1071C50.6405 48.1651 50.6147 48.2592 50.6345 48.3471C50.6543 48.4356 50.7157 48.502 50.7918 48.5179L50.8262 48.2877ZM54.2647 49.0041L54.2302 49.2344C54.2873 49.2461 54.3459 49.2278 54.3907 49.1843L54.2647 49.0041ZM63.1464 40.3511L63.2724 40.5317C63.3322 40.4737 63.3576 40.3796 63.3382 40.2917C63.3184 40.2033 63.2574 40.1366 63.1813 40.1207L63.1464 40.3511ZM72.2306 17.8345L62.9682 40.2483L63.3243 40.4536L72.5867 18.0397L72.2306 17.8345ZM68.9356 17.4513L72.374 18.1675L72.4429 17.7067L69.0045 16.9904L68.9356 17.4513ZM59.8855 39.7374L69.1479 17.3235L68.7918 17.1182L59.5293 39.5322L59.8855 39.7374ZM50.9522 48.4683L59.834 39.8153L59.5816 39.4543L50.7003 48.1071L50.9522 48.4683ZM54.2992 48.7734L50.8603 48.0575L50.7918 48.5179L54.2302 49.2344L54.2992 48.7734ZM63.0205 40.1705L54.1387 48.8235L54.3907 49.1843L63.2724 40.5317L63.0205 40.1705ZM63.1116 40.5813H63.112L63.1813 40.1207L63.1809 40.1206L63.1116 40.5813Z" fill="black"/>
<path d="M48.8099 42.2841L38.2787 63.548L34.8398 62.8316L45.3711 41.5682L48.8099 42.2841Z" fill="white" stroke="black" stroke-linejoin="round"/>
<path d="M34.0904 58.3909L27.3656 71.9689L23.9268 71.253L30.6516 57.675L34.0904 58.3909Z" fill="white" stroke="black" stroke-linejoin="round"/>
<path d="M34.091 58.3909L27.3662 71.969L72.4091 54.2333V17.937L63.1471 40.3511L54.2654 49.0037L48.8094 42.2841L38.2781 63.548L34.091 58.3909Z" fill="white" stroke="black" stroke-linejoin="round"/>
<path d="M47.4248 69.4426L49.9216 68.6522L51.0756 70.0153L48.5787 70.8057L47.4248 69.4426Z" fill="white" stroke="black" stroke-linejoin="bevel"/>
<path d="M62.3076 54.0223L62.9767 51.0724L64.1306 52.4355L63.4616 55.3854L62.3076 54.0223Z" fill="white" stroke="black" stroke-linejoin="bevel"/>
<path d="M64.1455 56.1378L64.8047 53.2314L65.9586 54.5945L65.2994 57.5009L64.1455 56.1378Z" fill="white" stroke="black" stroke-linejoin="bevel"/>
<path d="M49.2529 71.6016L51.7133 70.823L52.8673 72.1861L50.4069 72.9647L49.2529 71.6016Z" fill="white" stroke="black" stroke-linejoin="bevel"/>
<path d="M51.043 73.7724L58.3509 71.4594L59.5048 72.8229L52.1969 75.1355L51.043 73.7724Z" fill="white" stroke="black" stroke-linejoin="bevel"/>
<path d="M64.6836 63.9799L66.6417 55.3475L67.7956 56.7105L65.8375 65.343L64.6836 63.9799Z" fill="white" stroke="black" stroke-linejoin="bevel"/>
<path d="M62.1865 64.7698L64.6838 63.9794L65.8377 65.3425L63.3405 66.1329L62.1865 64.7698Z" fill="white" stroke="black" stroke-linejoin="bevel"/>
<path d="M58.3525 71.4598L59.0216 68.51L60.1756 69.8731L59.5065 72.8229L58.3525 71.4598Z" fill="white" stroke="black" stroke-linejoin="bevel"/>
<path d="M61.5205 67.7196L62.1896 64.7702L63.3435 66.1333L62.6745 69.0827L61.5205 67.7196Z" fill="white" stroke="black" stroke-linejoin="bevel"/>
<path d="M59.0215 68.51L61.5187 67.7196L62.6727 69.0827L60.1754 69.8731L59.0215 68.51Z" fill="white" stroke="black" stroke-linejoin="bevel"/>
<path fill-rule="evenodd" clip-rule="evenodd" d="M49.3829 60.8101L51.8801 60.0198L52.5393 57.1134L54.9997 56.3348L55.6688 53.3849L62.9763 51.0719L62.3072 54.0218L64.8044 53.2314L64.1453 56.1378L66.6421 55.3475L64.684 63.9794L62.1872 64.7698L61.5181 67.7196L59.0209 68.51L58.3518 71.4594L51.0443 73.7724L51.7134 70.823L49.253 71.6016L49.922 68.6518L47.4248 69.4421L49.3829 60.8101Z" fill="white" stroke="black" stroke-linejoin="bevel"/>
<path fill-rule="evenodd" clip-rule="evenodd" d="M56.6902 57.8607L57.6599 57.5538C58.428 57.3109 58.6978 57.2482 58.9945 57.2412C59.1973 57.2351 59.4857 57.265 59.6378 57.3095C59.7991 57.3568 59.9896 57.4934 60.1017 57.6487C60.2324 57.8102 60.3057 58.0067 60.3133 58.1897C60.3228 58.3427 60.3232 58.5799 60.3081 58.7119C60.2982 58.8424 60.2059 59.184 60.1116 59.4685C60.0126 59.7544 59.8438 60.1723 59.5269 60.811L59.6683 61.0558C59.7412 61.1887 59.8399 61.447 59.8834 61.6238C59.9215 61.8031 59.9567 62.081 59.9555 62.2378C59.9599 62.3927 59.9112 62.738 59.8529 62.9935C59.7951 63.249 59.6747 63.6285 59.5844 63.8306C59.4944 64.0328 59.334 64.35 59.227 64.54C59.1213 64.7239 58.9311 64.9981 58.8127 65.1511C58.6891 65.306 58.4051 65.6046 58.182 65.8081C57.9574 66.0182 57.6144 66.2943 57.4135 66.4216C57.0899 66.634 56.9334 66.6953 54.5126 67.4613L54.9226 65.6537L53.2803 66.1731L53.7331 64.1783L55.375 63.6584L55.7993 61.7881L54.1573 62.308L54.6097 60.3132L56.2521 59.7933L56.6902 57.8607ZM55.8136 61.7259C57.5922 61.1685 57.6532 61.1377 57.8525 60.9533C57.9713 60.8405 58.1365 60.6552 58.2157 60.5429C58.3104 60.4091 58.4019 60.2009 58.4613 60.0025C58.5409 59.717 58.5405 59.6534 58.4506 59.5083C58.3928 59.4166 58.2739 59.3328 58.1955 59.3113C58.0862 59.2935 57.7689 59.3712 57.1382 59.5706L56.2378 59.8555L55.8136 61.7259ZM54.9369 65.591C57.1565 64.8886 57.3498 64.8156 57.5367 64.664C57.6556 64.5746 57.8176 64.4015 57.8945 64.2789C57.9852 64.1404 58.0592 63.9434 58.1155 63.7169C58.1694 63.4801 58.1757 63.322 58.1341 63.2022C58.0996 63.1147 58.0145 63.0141 57.9357 62.993C57.8255 62.9584 57.5542 63.0267 56.5793 63.3351L55.3612 63.7207L54.9369 65.591Z" fill="#FFA500"/>
</g>
</g>
</svg>
