<svg width="76" height="76" viewBox="0 0 76 76" fill="none" xmlns="http://www.w3.org/2000/svg">
<circle cx="38" cy="38" r="38" fill="#FFF7F0"/>
<g clip-path="url(#clip0_1135_12062)">
<path d="M49.25 49.25V53H46.75V49.25C46.75 47.8713 45.6288 46.75 44.25 46.75H31.75C30.3713 46.75 29.25 47.8713 29.25 49.25V53H26.75V49.25C26.75 46.4925 28.9925 44.25 31.75 44.25H44.25C47.0075 44.25 49.25 46.4925 49.25 49.25ZM50.5 30.5V36.75H48V41.75H28V36.75H25.5V30.5H28V29.25C28 27.1825 29.6825 25.5 31.75 25.5H36.75V23H39.25V25.5H44.25C46.3175 25.5 48 27.1825 48 29.25V30.5H50.5ZM45.5 29.25C45.5 28.56 44.9388 28 44.25 28H31.75C31.0613 28 30.5 28.56 30.5 29.25V39.25H45.5V29.25ZM34.875 31.75C33.84 31.75 33 32.59 33 33.625C33 34.66 33.84 35.5 34.875 35.5C35.91 35.5 36.75 34.66 36.75 33.625C36.75 32.59 35.91 31.75 34.875 31.75ZM41.125 31.75C40.09 31.75 39.25 32.59 39.25 33.625C39.25 34.66 40.09 35.5 41.125 35.5C42.16 35.5 43 34.66 43 33.625C43 32.59 42.16 31.75 41.125 31.75Z" fill="#FF9A3B"/>
</g>
<defs>
<clipPath id="clip0_1135_12062">
<rect width="30" height="30" fill="white" transform="translate(23 23)"/>
</clipPath>
</defs>
</svg>
