<svg width="76" height="76" viewBox="0 0 76 76" fill="none" xmlns="http://www.w3.org/2000/svg">
<circle cx="38" cy="38" r="38" fill="#FAFAFA"/>
<path d="M42.3747 42.6875C42.1497 42.6875 41.8997 42.675 41.6747 42.6625C41.2122 42.6375 40.8372 42.2625 40.7997 41.8C40.5247 38.3125 37.6872 35.4875 34.2122 35.2125C33.7497 35.175 33.3747 34.8 33.3497 34.3375C33.3372 34.1125 33.3247 33.8625 33.3247 33.6375C33.3247 28.6375 37.3872 24.575 42.3872 24.575C47.3872 24.575 51.4497 28.6375 51.4497 33.6375C51.4497 38.6375 47.3747 42.6875 42.3747 42.6875ZM35.1872 33.45C38.9122 34.1125 41.8997 37.0875 42.5497 40.8125C46.4372 40.7125 49.5622 37.5375 49.5622 33.625C49.5622 29.6625 46.3372 26.4375 42.3747 26.4375C38.4747 26.4375 35.2872 29.5625 35.1872 33.45Z" fill="#71839B"/>
<path d="M33.625 51.4375C28.625 51.4375 24.5625 47.375 24.5625 42.375C24.5625 37.375 28.625 33.3125 33.625 33.3125C33.85 33.3125 34.1 33.325 34.325 33.3375C38.7375 33.6875 42.3125 37.2625 42.65 41.65C42.6625 41.9 42.675 42.15 42.675 42.375C42.6875 47.375 38.625 51.4375 33.625 51.4375ZM33.625 35.1875C29.6625 35.1875 26.4375 38.4125 26.4375 42.375C26.4375 46.3375 29.6625 49.5625 33.625 49.5625C37.5875 49.5625 40.8125 46.3375 40.8125 42.375C40.8125 42.175 40.8 41.975 40.7875 41.775C40.5125 38.3125 37.675 35.475 34.2 35.2C34.025 35.2 33.825 35.1875 33.625 35.1875Z" fill="#71839B"/>
<path d="M33.625 46.4375C33.2875 46.4375 32.9625 46.25 32.8 45.95L31.825 44.175L30.05 43.2C29.75 43.0375 29.5625 42.725 29.5625 42.375C29.5625 42.025 29.75 41.7125 30.05 41.55L31.825 40.575L32.8 38.8C33.125 38.2 34.1125 38.2 34.45 38.8L35.425 40.575L37.2 41.55C37.5 41.7125 37.6875 42.025 37.6875 42.375C37.6875 42.725 37.5 43.0375 37.2 43.2L35.425 44.175L34.45 45.95C34.2875 46.25 33.9625 46.4375 33.625 46.4375ZM32.45 42.375L32.9625 42.6625C33.125 42.75 33.25 42.875 33.3375 43.0375L33.625 43.55L33.9125 43.0375C34 42.875 34.125 42.75 34.2875 42.6625L34.8 42.375L34.2875 42.0875C34.125 42 34 41.875 33.9125 41.7125L33.625 41.2L33.3375 41.7125C33.25 41.875 33.125 42 32.9625 42.0875L32.45 42.375Z" fill="#71839B"/>
</svg>
