<svg width="88" height="88" viewBox="0 0 88 88" fill="none" xmlns="http://www.w3.org/2000/svg">
<path d="M78.9999 70.2182L58.4452 79.7644C55.9366 80.9297 53.0127 80.7709 50.6448 79.3415L22.9355 62.6113L45.6134 51.8349L78.9999 70.2182Z" fill="#CDCDCD"/>
<path d="M21.9023 10.7622C24.0738 9.50394 27.6178 7.38992 28.8942 8.61875L60.1521 79.0194C59.7409 80.6194 54.3942 82.2197 53.5714 81.8194L21.9023 10.7622Z" fill="black"/>
<path d="M60.5137 78.156V29.1263C60.5137 27.853 59.6211 26.3022 58.5201 25.6626L29.0484 8.54005C27.9474 7.90038 27.0549 8.41408 27.0549 9.68741V58.7171C27.0549 59.9904 27.9474 61.5412 29.0484 62.1808L58.5201 79.3034C59.6211 79.943 60.5137 79.4293 60.5137 78.156Z" fill="black" stroke="black"/>
<path d="M55.2988 80.2862V31.427C55.2988 30.1536 54.4063 28.6028 53.3053 27.9632L23.8336 10.8407C22.7326 10.201 21.84 10.7147 21.84 11.988V60.8472C21.84 62.1205 22.7326 63.6713 23.8336 64.311L53.3053 81.4335C54.4063 82.0732 55.2988 81.5595 55.2988 80.2862Z" fill="white" stroke="black"/>
<path d="M35.269 46.1961C36.0206 46.6328 36.6299 46.2821 36.6299 45.4129C36.6299 44.5436 36.0206 43.485 35.269 43.0483L28.2387 38.9638C27.4871 38.5271 26.8778 38.8778 26.8778 39.7471C26.8778 40.6163 27.4871 41.675 28.2387 42.1117L35.269 46.1961Z" fill="black" stroke="black"/>
<path d="M42.9677 57.9552C43.643 58.3475 44.1904 58.0324 44.1904 57.2514C44.1904 56.4705 43.643 55.5193 42.9677 55.127L28.1018 46.4902C27.4265 46.0978 26.8791 46.4129 26.8791 47.1939C26.8791 47.9748 27.4265 48.926 28.1018 49.3183L42.9677 57.9552Z" fill="black" stroke="black"/>
<path d="M42.6849 10.0964L42.7208 10.0783L42.7465 10.047C43.7991 8.75542 45.2444 8.01454 46.9581 7.90085C48.6756 7.7869 50.6727 8.30289 52.8158 9.54782C56.1577 11.4895 59.1939 14.8216 61.3951 18.6461C63.5964 22.4707 64.9521 26.7699 64.9521 30.635V32.0739C64.9521 34.7315 64.3115 36.8228 63.2188 38.267C62.1291 39.7072 60.5806 40.5176 58.7282 40.6041L58.6882 40.606L58.6523 40.6241L58.286 40.8086L58.2263 40.7016L58.1745 40.6094L58.0695 40.6049C56.5413 40.5387 54.8258 40.007 53.0055 38.9496C49.6636 37.008 46.6274 33.6759 44.4261 29.8513C42.2249 26.0268 40.8691 21.7275 40.8691 17.8624V16.4236C40.8691 14.4768 41.2131 12.833 41.8269 11.5254L41.8681 11.4375L41.8209 11.3528L41.4622 10.7116L42.6849 10.0964Z" fill="black" stroke="black"/>
<path d="M61.7168 33.6202V32.1814C61.7168 24.4737 56.3141 15.0866 49.6496 11.2147C42.9851 7.34271 37.5825 10.4521 37.5825 18.1598V19.5986C37.5825 27.3063 42.9851 36.6934 49.6496 40.5653C56.3141 44.4373 61.7168 41.3278 61.7168 33.6202Z" fill="#FFA500" stroke="black"/>
<path d="M49.6171 24.9652C51.6055 26.1026 53.2175 25.1719 53.2175 22.8865C53.2175 20.6011 51.6055 17.8264 49.6171 16.6891C47.6286 15.5518 46.0166 16.4824 46.0166 18.7678C46.0166 21.0532 47.6286 23.8279 49.6171 24.9652Z" fill="white"/>
<path d="M49.3421 25.7736C45.8463 23.7728 43.0127 25.4101 43.0127 29.4307L55.6714 36.6764C55.6714 32.6559 52.8374 27.7745 49.3421 25.7736Z" fill="white"/>
</svg>
