<svg width="88" height="88" viewBox="0 0 88 88" fill="none" xmlns="http://www.w3.org/2000/svg">
<mask id="mask0_382_10765" style="mask-type:alpha" maskUnits="userSpaceOnUse" x="0" y="0" width="88" height="88">
<rect width="88" height="88" fill="#D9D9D9"/>
</mask>
<g mask="url(#mask0_382_10765)">
<path d="M54.4388 17.4718L50.9639 16.2009L46.6016 28.1282L50.0765 29.3991L54.4388 17.4718Z" fill="white" stroke="black" stroke-width="0.7"/>
<path d="M53.5523 20.3C56.6728 20.3 59.2023 17.7704 59.2023 14.65C59.2023 11.5296 56.6728 9 53.5523 9C50.4319 9 47.9023 11.5296 47.9023 14.65C47.9023 17.7704 50.4319 20.3 53.5523 20.3Z" fill="#FFA500" stroke="black" stroke-width="0.7"/>
<path d="M41.0523 79.3C56.8753 79.3 69.7023 66.473 69.7023 50.65C69.7023 34.827 56.8753 22 41.0523 22C25.2294 22 12.4023 34.827 12.4023 50.65C12.4023 66.473 25.2294 79.3 41.0523 79.3Z" fill="#EBE9E9" stroke="black" stroke-width="0.7"/>
<mask id="mask1_382_10765" style="mask-type:alpha" maskUnits="userSpaceOnUse" x="12" y="21" width="59" height="59">
<path d="M41.0523 79.3C56.8753 79.3 69.7023 66.473 69.7023 50.65C69.7023 34.827 56.8753 22 41.0523 22C25.2294 22 12.4023 34.827 12.4023 50.65C12.4023 66.473 25.2294 79.3 41.0523 79.3Z" fill="white" stroke="black" stroke-width="0.7"/>
</mask>
<g mask="url(#mask1_382_10765)">
<path d="M37.0527 73.65C53.069 73.65 66.0527 60.6663 66.0527 44.65C66.0527 28.6337 53.069 15.65 37.0527 15.65C21.0365 15.65 8.05273 28.6337 8.05273 44.65C8.05273 60.6663 21.0365 73.65 37.0527 73.65Z" fill="white"/>
<path d="M41.0523 79.3C56.8753 79.3 69.7023 66.473 69.7023 50.65C69.7023 34.827 56.8753 22 41.0523 22C25.2294 22 12.4023 34.827 12.4023 50.65C12.4023 66.473 25.2294 79.3 41.0523 79.3Z" stroke="black" stroke-width="0.7"/>
</g>
<path d="M46.831 35.6744L28.3953 31.0779C21.6165 29.3877 14.7509 33.5129 13.0608 40.2918C11.3706 47.0707 15.4958 53.9362 22.2747 55.6264L40.7103 60.2229C47.4892 61.9131 54.3547 57.7878 56.0449 51.009C57.735 44.2301 53.6098 37.3646 46.831 35.6744Z" fill="white" stroke="black" stroke-width="0.7"/>
<path d="M46.1046 38.5854L27.669 33.9888C22.4978 32.6995 17.2605 35.8464 15.9711 41.0177C14.6818 46.1889 17.8287 51.4262 22.9999 52.7156L41.4355 57.3121C46.6068 58.6014 51.8441 55.4545 53.1334 50.2833C54.4228 45.112 51.2759 39.8747 46.1046 38.5854Z" fill="black" stroke="black" stroke-width="0.7"/>
<path d="M44.7635 46.6508C45.0507 45.4987 44.3496 44.3318 43.1975 44.0445C42.0453 43.7573 40.8785 44.4584 40.5912 45.6105L39.8654 48.5214C39.5782 49.6736 40.2793 50.8404 41.4314 51.1277C42.5836 51.415 43.7504 50.7138 44.0377 49.5617L44.7635 46.6508Z" fill="white" stroke="black" stroke-width="0.7"/>
<path d="M29.2391 42.7797C29.5263 41.6276 28.8252 40.4607 27.6731 40.1735C26.5209 39.8862 25.354 40.5873 25.0668 41.7395L24.341 44.6503C24.0538 45.8025 24.7549 46.9693 25.907 47.2566C27.0592 47.5439 28.226 46.8427 28.5133 45.6906L29.2391 42.7797Z" fill="white" stroke="black" stroke-width="0.7"/>
<path d="M75.2357 54.6236C74.7757 57.5692 73.6017 60.101 72.0937 61.8152C70.5817 63.5331 68.7737 64.3937 67.0227 64.1204C65.2727 63.8471 63.8117 62.4763 62.8957 60.3794C61.9817 58.287 61.6357 55.5178 62.0947 52.5721C62.5547 49.6265 63.7287 47.0947 65.2377 45.3805C66.7487 43.6626 68.5577 42.802 70.3077 43.0753C72.0587 43.3486 73.5187 44.7194 74.4347 46.8163C75.3487 48.9087 75.6957 51.678 75.2357 54.6236Z" fill="#FFA500" stroke="black" stroke-width="0.7"/>
<mask id="mask2_382_10765" style="mask-type:alpha" maskUnits="userSpaceOnUse" x="61" y="42" width="15" height="23">
<path d="M66.9692 64.4663C70.7889 65.0626 74.6451 60.6801 75.5821 54.6777C76.5191 48.6752 74.1823 43.3259 70.3625 42.7296C66.5428 42.1333 62.6867 46.5158 61.7496 52.5183C60.8126 58.5207 63.1495 63.87 66.9692 64.4663Z" fill="white"/>
</mask>
<g mask="url(#mask2_382_10765)">
<path d="M75.2559 54.3651C74.8769 56.7893 74.0129 58.885 72.9389 60.3143C71.8539 61.7573 70.6199 62.4477 69.4939 62.272C68.3689 62.0962 67.4029 61.0624 66.8109 59.3576C66.2229 57.6689 66.0389 55.4095 66.4169 52.9853C66.7959 50.5611 67.6599 48.4654 68.7339 47.0361C69.8179 45.5931 71.0529 44.9027 72.1779 45.0784C73.3039 45.2542 74.2689 46.288 74.8619 47.9928C75.4499 49.6815 75.6339 51.9409 75.2559 54.3651Z" fill="white" stroke="black" stroke-width="0.7"/>
<path d="M75.2354 54.6237C74.7764 57.5693 73.6014 60.1011 72.0934 61.8153C70.5824 63.5332 68.7734 64.3938 67.0224 64.1205C65.2724 63.8472 63.8124 62.4764 62.8964 60.3795C61.9814 58.2871 61.6354 55.5179 62.0954 52.5722C62.5544 49.6266 63.7294 47.0948 65.2374 45.3806C66.7494 43.6627 68.5574 42.8021 70.3084 43.0754C72.0584 43.3487 73.5194 44.7195 74.4354 46.8164C75.3494 48.9088 75.6954 51.6781 75.2354 54.6237Z" stroke="black" stroke-width="0.7"/>
</g>
<path d="M71.2464 53.2235C71.2884 52.8982 71.4854 52.6306 71.6834 52.6239C71.8814 52.6171 72.0124 52.8713 71.9654 53.1898C71.9234 53.5151 71.7254 53.7889 71.5274 53.7956C71.3294 53.8023 71.2044 53.5426 71.2464 53.2235Z" fill="black"/>
<path d="M72.5757 53.7357C72.6687 53.7318 72.7497 53.7827 72.8077 53.8936C72.9177 54.1147 72.8707 54.4892 72.6957 54.7215L71.4237 56.4868C71.3387 56.6032 71.2407 56.6626 71.1477 56.6665C71.0547 56.6705 70.9727 56.6195 70.9157 56.5087L69.7337 54.1156L69.5377 55.5879C69.4947 55.9132 69.2977 56.187 69.0997 56.1937C68.9017 56.2004 68.7767 55.9407 68.8187 55.6216L69.4297 51.0204C69.4727 50.6951 69.6697 50.4275 69.8677 50.4208C70.0657 50.414 70.1907 50.6676 70.1487 50.9867L69.9517 52.4652L71.7957 49.9139C71.8807 49.7975 71.9787 49.7319 72.0717 49.728C72.1647 49.7241 72.2467 49.775 72.3037 49.8859L73.1217 51.544C73.2307 51.7651 73.1837 52.1396 73.0087 52.3719C72.9237 52.4884 72.8257 52.5477 72.7327 52.5517C72.6397 52.5556 72.5587 52.5047 72.5067 52.3944L71.8757 51.1321L70.3427 53.2523L71.3267 55.2485L72.3007 53.9093C72.3847 53.7928 72.4837 53.7273 72.5767 53.7234L72.5757 53.7357Z" fill="black"/>
</g>
</svg>
