<svg width="76" height="76" viewBox="0 0 76 76" fill="none" xmlns="http://www.w3.org/2000/svg">
<circle cx="38" cy="38" r="38" fill="#FAFAFA"/>
<path d="M49.25 37.6875H26.75C25.55 37.6875 24.5625 36.7 24.5625 35.5V31.35C24.5625 30.5 25.15 29.6375 25.9375 29.325L37.1875 24.825C37.6625 24.6375 38.3375 24.6375 38.8125 24.825L50.0625 29.325C50.85 29.6375 51.4375 30.5125 51.4375 31.35V35.5C51.4375 36.7 50.45 37.6875 49.25 37.6875ZM38 26.55C37.95 26.55 37.9 26.55 37.875 26.5625L26.6375 31.0625C26.5625 31.1 26.4375 31.2625 26.4375 31.35V35.5C26.4375 35.675 26.575 35.8125 26.75 35.8125H49.25C49.425 35.8125 49.5625 35.675 49.5625 35.5V31.35C49.5625 31.2625 49.45 31.1 49.3625 31.0625L38.1125 26.5625C38.0875 26.55 38.05 26.55 38 26.55Z" fill="#71839B"/>
<path d="M50.5 51.4375H25.5C24.9875 51.4375 24.5625 51.0125 24.5625 50.5V46.75C24.5625 45.55 25.55 44.5625 26.75 44.5625H49.25C50.45 44.5625 51.4375 45.55 51.4375 46.75V50.5C51.4375 51.0125 51.0125 51.4375 50.5 51.4375ZM26.4375 49.5625H49.5625V46.75C49.5625 46.575 49.425 46.4375 49.25 46.4375H26.75C26.575 46.4375 26.4375 46.575 26.4375 46.75V49.5625Z" fill="#71839B"/>
<path d="M28 46.4375C27.4875 46.4375 27.0625 46.0125 27.0625 45.5V36.75C27.0625 36.2375 27.4875 35.8125 28 35.8125C28.5125 35.8125 28.9375 36.2375 28.9375 36.75V45.5C28.9375 46.0125 28.5125 46.4375 28 46.4375Z" fill="#71839B"/>
<path d="M33 46.4375C32.4875 46.4375 32.0625 46.0125 32.0625 45.5V36.75C32.0625 36.2375 32.4875 35.8125 33 35.8125C33.5125 35.8125 33.9375 36.2375 33.9375 36.75V45.5C33.9375 46.0125 33.5125 46.4375 33 46.4375Z" fill="#71839B"/>
<path d="M38 46.4375C37.4875 46.4375 37.0625 46.0125 37.0625 45.5V36.75C37.0625 36.2375 37.4875 35.8125 38 35.8125C38.5125 35.8125 38.9375 36.2375 38.9375 36.75V45.5C38.9375 46.0125 38.5125 46.4375 38 46.4375Z" fill="#71839B"/>
<path d="M43 46.4375C42.4875 46.4375 42.0625 46.0125 42.0625 45.5V36.75C42.0625 36.2375 42.4875 35.8125 43 35.8125C43.5125 35.8125 43.9375 36.2375 43.9375 36.75V45.5C43.9375 46.0125 43.5125 46.4375 43 46.4375Z" fill="#71839B"/>
<path d="M48 46.4375C47.4875 46.4375 47.0625 46.0125 47.0625 45.5V36.75C47.0625 36.2375 47.4875 35.8125 48 35.8125C48.5125 35.8125 48.9375 36.2375 48.9375 36.75V45.5C48.9375 46.0125 48.5125 46.4375 48 46.4375Z" fill="#71839B"/>
<path d="M51.75 51.4375H24.25C23.7375 51.4375 23.3125 51.0125 23.3125 50.5C23.3125 49.9875 23.7375 49.5625 24.25 49.5625H51.75C52.2625 49.5625 52.6875 49.9875 52.6875 50.5C52.6875 51.0125 52.2625 51.4375 51.75 51.4375Z" fill="#71839B"/>
<path d="M38 34.5625C36.45 34.5625 35.1875 33.3 35.1875 31.75C35.1875 30.2 36.45 28.9375 38 28.9375C39.55 28.9375 40.8125 30.2 40.8125 31.75C40.8125 33.3 39.55 34.5625 38 34.5625ZM38 30.8125C37.4875 30.8125 37.0625 31.2375 37.0625 31.75C37.0625 32.2625 37.4875 32.6875 38 32.6875C38.5125 32.6875 38.9375 32.2625 38.9375 31.75C38.9375 31.2375 38.5125 30.8125 38 30.8125Z" fill="#71839B"/>
</svg>
