<svg width="88" height="88" viewBox="0 0 88 88" fill="none" xmlns="http://www.w3.org/2000/svg">
<mask id="mask0_382_10797" style="mask-type:alpha" maskUnits="userSpaceOnUse" x="0" y="0" width="88" height="88">
<rect width="88" height="88" fill="#D9D9D9"/>
</mask>
<g mask="url(#mask0_382_10797)">
<path d="M85.1831 49.1889C88.1836 47.4616 88.1836 44.6348 85.1831 42.9075L60.7962 28.8717C57.7957 27.1444 52.8812 27.1444 49.8807 28.8717L3.25039 54.1547C0.249871 55.882 0.249871 58.7089 3.25039 60.4362L27.6374 74.472C30.6379 76.1988 35.5523 76.1988 38.5529 74.472L85.1831 49.1889Z" fill="white" stroke="#121212" stroke-width="0.7" stroke-linecap="round" stroke-linejoin="round"/>
<path d="M77.7161 27.6437V46.1119C77.7161 47.2932 76.0571 48.2523 74.0079 48.2523C71.9578 48.2523 70.2988 47.2932 70.2988 46.1119V27.6437H77.7161Z" fill="#C2C8CF"/>
<path d="M77.7161 27.6437V46.1119C77.7161 47.2932 76.0571 48.2523 74.0079 48.2523C71.9578 48.2523 70.2988 47.2932 70.2988 46.1119V27.6437H77.7161Z" fill="#C2C8CF" stroke="#121212" stroke-width="0.7" stroke-linecap="round" stroke-linejoin="round"/>
<path d="M74.0079 29.7836C76.0553 29.7836 77.7161 28.8252 77.7161 27.6431C77.7161 26.4611 76.0553 25.503 74.0079 25.503C71.9597 25.503 70.2988 26.4611 70.2988 27.6431C70.2988 28.8252 71.9597 29.7836 74.0079 29.7836Z" fill="#C2C8CF" stroke="#121212" stroke-width="0.7" stroke-linecap="round" stroke-linejoin="round"/>
<path d="M71.0443 15.1398V33.6081C71.0443 34.7893 69.3853 35.7484 67.3361 35.7484C65.286 35.7484 63.6279 34.7893 63.6279 33.6081V15.1398H71.0443Z" fill="#C2C8CF"/>
<path d="M71.0443 15.1398V33.6081C71.0443 34.7893 69.3853 35.7484 67.3361 35.7484C65.286 35.7484 63.6279 34.7893 63.6279 33.6081V15.1398H71.0443Z" fill="#C2C8CF" stroke="#121212" stroke-width="0.7" stroke-linecap="round" stroke-linejoin="round"/>
<path d="M67.339 17.2805C69.3873 17.2805 71.0481 16.3222 71.0481 15.1402C71.0481 13.9581 69.3873 13 67.339 13C65.2908 13 63.6309 13.9581 63.6309 15.1402C63.6309 16.3222 65.2908 17.2805 67.339 17.2805Z" fill="#C2C8CF" stroke="#121212" stroke-width="0.7" stroke-linecap="round" stroke-linejoin="round"/>
<path d="M64.2936 38.7527V53.0346C64.2936 54.5426 62.6197 55.7671 60.5509 55.7671C58.4821 55.7671 56.8076 54.5426 56.8076 53.0346V38.7527H64.2936Z" fill="#FFA500"/>
<path d="M64.376 38.5421V53.8125C64.376 54.9939 62.717 55.9529 60.6678 55.9529C58.6177 55.9529 56.959 54.9939 56.959 53.8125V38.5421H64.376Z" fill="#FFA500" stroke="#121212" stroke-width="0.7" stroke-linecap="round" stroke-linejoin="round"/>
<path d="M60.6678 40.682C62.7151 40.682 64.376 39.7238 64.376 38.5418C64.376 37.3597 62.7151 36.4014 60.6678 36.4014C58.6195 36.4014 56.959 37.3597 56.959 38.5418C56.959 39.7238 58.6195 40.682 60.6678 40.682Z" fill="#FFA500" stroke="#121212" stroke-width="0.7" stroke-linecap="round" stroke-linejoin="round"/>
<path d="M57.7051 52.8503V57.6659C57.7051 58.8473 56.0463 59.8061 53.9966 59.8061C51.9469 59.8061 50.2881 58.8473 50.2881 57.6659V52.8503H57.7051Z" fill="#C2C8CF"/>
<path d="M57.7051 52.8503V57.6659C57.7051 58.8473 56.0463 59.8061 53.9966 59.8061C51.9469 59.8061 50.2881 58.8473 50.2881 57.6659V52.8503H57.7051Z" fill="#C2C8CF" stroke="#121212" stroke-width="0.7" stroke-linecap="round" stroke-linejoin="round"/>
<path d="M53.9965 54.9903C56.0447 54.9903 57.705 54.032 57.705 52.85C57.705 51.6679 56.0447 50.7096 53.9965 50.7096C51.9485 50.7096 50.2881 51.6679 50.2881 52.85C50.2881 54.032 51.9485 54.9903 53.9965 54.9903Z" fill="#C2C8CF" stroke="#121212" stroke-width="0.7" stroke-linecap="round" stroke-linejoin="round"/>
<path d="M21.891 64.4732C28.8605 64.4732 34.5105 61.2116 34.5105 57.1881C34.5105 53.1646 28.8605 49.9027 21.891 49.9027C14.9215 49.9027 9.27148 53.1646 9.27148 57.1881C9.27148 61.2116 14.9215 64.4732 21.891 64.4732Z" fill="#121212"/>
<path d="M21.2085 56.5747C22.6203 56.0313 23.9827 55.6651 25.2709 56.4101C26.4851 57.1139 26.2218 58.0524 24.991 58.8344L25.7608 59.283L25.2133 59.5999L24.4355 59.1472C22.859 59.9498 21.295 60.0157 20.0355 59.3242L21.2744 58.6079C21.9905 58.929 22.6533 58.925 23.4311 58.5587L21.7106 57.5584L21.6571 57.5789C20.2907 58.0729 18.9612 58.4928 17.6688 57.7437C16.4999 57.0646 16.788 56.1756 18.0022 55.4017L17.4671 55.0889L18.0145 54.7719L18.5578 55.0889C19.8873 54.4468 21.332 54.3892 22.5544 55.0024L21.3444 55.7023C20.7722 55.4429 20.1384 55.4676 19.5827 55.6815L21.1509 56.5911L21.2127 56.5665L21.2085 56.5747ZM23.9786 58.2458C24.4519 57.9083 24.6453 57.5256 24.1474 57.2374C23.6864 56.97 23.1471 57.0686 22.3939 57.3279L23.9786 58.25M20.48 56.8506L19.0065 55.9945C18.4838 56.3567 18.4015 56.7105 18.8007 56.941C19.2 57.1715 19.6897 57.1181 20.48 56.8506Z" fill="white"/>
</g>
</svg>
