<svg width="25" height="25" viewBox="0 0 25 25" fill="none" xmlns="http://www.w3.org/2000/svg">
<mask id="mask0_1262_28780" style="mask-type:alpha" maskUnits="userSpaceOnUse" x="0" y="0" width="25" height="25">
<rect width="25" height="25" fill="#D9D9D9"/>
</mask>
<g mask="url(#mask0_1262_28780)">
<path d="M20.0447 22.1993C19.9106 23.2638 18.1722 23.9201 16.1641 23.6649C14.1567 23.4089 12.6386 22.3378 12.7749 21.2718C12.9106 20.2072 14.6482 19.5509 16.6556 19.8061C18.6637 20.0621 20.1804 21.1332 20.0447 22.1993ZM4.89412 22.0957C5.05235 23.1639 6.85776 23.8479 8.9286 23.6241C10.9994 23.3995 12.5496 22.3524 12.3921 21.2834C12.2339 20.2159 10.4263 19.532 8.3562 19.7566C6.28537 19.9804 4.73443 21.0282 4.89412 22.0965V22.0957Z" fill="#E48013"/>
<path d="M19.8653 8.20927C19.8653 12.1905 16.6132 15.4185 12.5999 15.4185C8.58875 15.4185 5.33594 12.1898 5.33594 8.20927C5.33594 4.22729 8.58875 1 12.5999 1C16.6132 1 19.8653 4.22729 19.8653 8.20927Z" fill="black"/>
<path d="M4.8238 21.8837C4.98203 22.952 6.78745 23.6352 8.85901 23.4121C10.9298 23.1875 12.4793 22.1397 12.3218 21.0715C12.1643 20.004 10.3567 19.3193 8.28589 19.5438C6.21506 19.7677 4.66412 20.8148 4.8238 21.8837ZM20.121 21.9414C19.9861 23.0059 18.2478 23.6622 16.2396 23.407C14.233 23.151 12.7141 22.0799 12.8505 21.0139C12.9861 19.9493 14.7244 19.293 16.7311 19.5482C18.7392 19.8042 20.2559 20.8753 20.121 21.9414Z" fill="#F5A519"/>
<path d="M19.5019 16.1934C19.5019 19.4185 16.3628 22.0326 12.4924 22.0326C8.62198 22.0326 5.48438 19.4185 5.48438 16.1927C5.48438 12.9676 8.62198 10.3535 12.4924 10.3535C16.3628 10.3535 19.5019 12.9676 19.5019 16.1934Z" fill="black"/>
<path d="M6.62641 15.0323C5.59756 17.0864 3.98318 18.3865 3.50339 18.1313C2.86902 17.7929 2.71589 15.7177 3.74547 13.6651C4.77652 11.6125 6.43756 10.2964 7.23381 10.6952C8.02714 11.0948 7.65599 12.979 6.62641 15.0323ZM18.4586 15.2912C19.4 17.1571 20.7562 18.6052 21.3359 18.4776C21.804 18.3755 22.138 16.1924 21.2812 14.1026C20.4106 11.9778 18.8312 10.4517 18.035 10.8505C17.2402 11.2494 17.4239 13.2407 18.4586 15.2912Z" fill="black"/>
<path d="M7.3522 12.5239C6.90262 13.449 6.66994 14.4645 6.67189 15.4931C6.67189 19.0332 9.33772 21.9024 12.6277 21.9024C15.9163 21.9024 18.5828 19.0332 18.5828 15.4931C18.5828 14.4504 18.3466 13.4682 17.9361 12.5983C14.9049 14.1434 9.35522 13.011 7.3522 12.5239ZM12.1013 6.54691C12.1013 7.50796 11.4647 8.28743 10.6794 8.28743C9.89335 8.28743 9.25751 7.50796 9.25751 6.54691C9.25751 5.58514 9.89335 4.80566 10.6794 4.80566C11.4647 4.80566 12.1013 5.58587 12.1013 6.54691ZM16.1846 6.55639C16.1846 7.51743 15.548 8.29691 14.762 8.29691C13.9774 8.29691 13.3401 7.51743 13.3401 6.55639C13.3401 5.59462 13.9774 4.81587 14.762 4.81587C15.548 4.81587 16.1839 5.59462 16.1839 6.55639H16.1846Z" fill="white"/>
<path d="M12.8485 8.77344C10.8689 8.77344 9.13927 9.23646 8.17969 9.92552C8.42031 10.4928 9.14656 10.934 9.85896 11.343C10.7194 11.8374 12.1325 12.1728 12.8434 12.1728C13.4997 12.1728 15.1243 11.7302 16.0022 11.1571C16.6191 10.7546 17.2702 10.3987 17.5072 9.91896C16.5454 9.23354 14.8217 8.77417 12.8478 8.77417L12.8485 8.77344Z" fill="#F5A519"/>
<path d="M11.8807 6.55612C11.8807 7.16497 11.4826 7.65862 10.9911 7.65862C10.5004 7.65862 10.1016 7.16497 10.1016 6.55685C10.1016 5.94799 10.5004 5.45508 10.9911 5.45508C11.4826 5.45508 11.8807 5.94799 11.8807 6.55612Z" fill="black"/>
<path d="M11.5421 6.30539C11.5421 6.55112 11.3751 6.75018 11.1695 6.75018C10.9631 6.75018 10.7969 6.55112 10.7969 6.30539C10.7969 6.06039 10.9631 5.86133 11.1688 5.86133C11.3751 5.86133 11.5421 6.05966 11.5421 6.30539Z" fill="white"/>
<path d="M14.0617 6.84202C14.0206 6.84197 13.9809 6.82748 13.9494 6.80108C13.9179 6.77469 13.8968 6.73807 13.8896 6.69764C13.88 6.64324 13.8751 6.5881 13.875 6.53285C13.875 6.06691 14.206 5.68848 14.6115 5.68848C15.0161 5.68848 15.3465 6.06764 15.3465 6.53285C15.3465 6.57368 15.3443 6.61306 15.3392 6.65243C15.3334 6.69856 15.3095 6.74049 15.2728 6.769C15.236 6.79751 15.1895 6.81027 15.1434 6.80447C15.0973 6.79866 15.0553 6.77478 15.0268 6.73806C14.9983 6.70135 14.9856 6.65481 14.9914 6.60868C14.9951 6.58358 14.997 6.55824 14.9972 6.53285C14.9972 6.26014 14.8236 6.03848 14.6107 6.03848C14.3985 6.03848 14.2243 6.26014 14.2243 6.53285C14.2243 6.56785 14.2286 6.60285 14.2345 6.63639C14.239 6.66162 14.2379 6.68751 14.2312 6.71226C14.2246 6.73701 14.2126 6.76 14.1962 6.77961C14.1797 6.79922 14.1591 6.81498 14.1358 6.82576C14.1126 6.83654 14.0873 6.84209 14.0617 6.84202Z" fill="black"/>
<path d="M8.875 9.63837C8.875 9.63837 9.96875 10.5746 10.9743 10.8546C12.1504 11.1813 13.8494 11.0267 14.4932 10.8109C15.6643 10.4179 16.9082 9.57129 16.9082 9.57129C16.9082 9.57129 15.8086 10.412 14.6748 11.1536C14.1046 11.5255 13.4804 12.0563 12.1665 11.7712C11.834 11.6997 11.2375 11.2958 11.0479 11.1864C10.0781 10.6249 9.1025 9.86514 8.875 9.63837Z" fill="#8A3322"/>
<path d="M10.0811 14.6277V17.7982C10.0811 17.7982 8.77078 18.4179 7.59755 17.2987C7.14766 16.8699 7.83818 13.8184 7.83818 13.8184L10.0811 14.6277Z" fill="#D42E19"/>
<path d="M7.66406 14.0156L10.0652 15.9384C10.0652 15.9384 10.1053 14.7367 10.0535 14.394C10.001 14.0521 7.66406 13.8457 7.66406 13.8457" fill="#B82C22"/>
<path d="M12.8437 15.169C9.85522 15.1785 6.96625 14.0958 4.72003 12.1247C4.66534 12.0773 4.68211 11.9242 4.68211 11.9242C4.68211 11.9242 4.76815 11.5895 4.9118 10.7874C5.01242 10.2267 5.23992 9.53906 5.36024 9.53906C5.43753 9.6025 5.53013 9.68708 5.62201 9.7724C5.7868 9.92771 5.94649 10.0867 5.99899 10.137C7.85199 11.8779 10.3012 12.8432 12.8437 12.8349C15.3836 12.8404 17.8301 11.8769 19.684 10.1406C19.6993 10.126 20.1033 10.6503 20.2848 11.1833C20.4795 11.7535 20.6757 12.3741 20.4963 12.5155C18.3186 14.2395 15.6211 15.1748 12.8437 15.169Z" fill="#D42E19"/>
</g>
</svg>
