<svg xmlns="http://www.w3.org/2000/svg" xmlns:xlink="http://www.w3.org/1999/xlink" width="17" height="17" viewBox="0 0 17 17">
  <defs>
    <clipPath id="clip-path">
      <rect id="Rectangle_19254" data-name="Rectangle 19254" width="17" height="17" transform="translate(-1638 15408)" fill="#6e3333" opacity="0.33"/>
    </clipPath>
  </defs>
  <g id="Mask_Group_237" data-name="Mask Group 237" transform="translate(1638 -15408)" clip-path="url(#clip-path)">
    <path id="Path_43597" data-name="Path 43597" d="M586.208,472.058a1.727,1.727,0,0,1,.108-1.817,3.331,3.331,0,0,1,1.181-1.062l5.313-2.765a3.662,3.662,0,0,1,3.381,0l5.312,2.767a3.343,3.343,0,0,1,1.181,1.062,1.731,1.731,0,0,1,.108,1.817,1.923,1.923,0,0,1-1.711,1.023h-.207v5.666h.708a.708.708,0,0,1,0,1.417H587.418a.708.708,0,1,1,0-1.417h.708v-5.666h-.207a1.921,1.921,0,0,1-1.712-1.026Zm3.335,6.692h2.125v-5.666h-2.125Zm3.541-5.666v5.666h2.833v-5.666Zm6.374,0h-2.125v5.666h2.125Zm-12-1.682a.506.506,0,0,0,.457.266h13.162a.508.508,0,0,0,.457-.266.328.328,0,0,0,.045-.18.321.321,0,0,0-.062-.174,1.907,1.907,0,0,0-.672-.612l-5.312-2.767a2.244,2.244,0,0,0-2.072,0l-5.312,2.767a1.911,1.911,0,0,0-.672.613.317.317,0,0,0-.018.353Z" transform="translate(-2224 14943)" fill="#777e90"/>
  </g>
</svg>
