<svg width="25" height="25" viewBox="0 0 25 25" fill="none" xmlns="http://www.w3.org/2000/svg">
<path d="M9.2094 12.9626C9.09494 13.1339 9.03385 13.3353 9.03385 13.5413C9.03385 13.6781 9.06079 13.8136 9.11314 13.94C9.16549 14.0664 9.24222 14.1812 9.33894 14.2779C9.43567 14.3746 9.5505 14.4514 9.67688 14.5037C9.80327 14.5561 9.93872 14.583 10.0755 14.583C10.2815 14.583 10.4829 14.5219 10.6542 14.4075C10.8255 14.293 10.959 14.1303 11.0379 13.94C11.1167 13.7496 11.1374 13.5402 11.0972 13.3381C11.057 13.1361 10.9578 12.9505 10.8121 12.8048C10.6664 12.6591 10.4808 12.5599 10.2787 12.5197C10.0767 12.4795 9.86722 12.5001 9.67688 12.579C9.48655 12.6578 9.32386 12.7913 9.2094 12.9626Z" fill="#FF4500"/>
<path d="M12.513 17.208C13.4376 17.2463 14.3469 16.9629 15.0859 16.4059V16.4476C15.1133 16.4209 15.1351 16.3891 15.1502 16.354C15.1653 16.3189 15.1733 16.2811 15.1737 16.2429C15.1742 16.2047 15.1672 16.1668 15.153 16.1313C15.1388 16.0958 15.1178 16.0635 15.0911 16.0361C15.0645 16.0088 15.0327 15.9869 14.9975 15.9719C14.9624 15.9568 14.9247 15.9488 14.8865 15.9483C14.8093 15.9473 14.7349 15.9771 14.6797 16.0309C14.0475 16.4844 13.2795 16.7086 12.5026 16.6663C11.7267 16.701 10.9622 16.4695 10.3359 16.0101C10.282 15.9658 10.2134 15.9432 10.1437 15.9466C10.074 15.95 10.008 15.9793 9.95863 16.0286C9.90926 16.078 9.88001 16.144 9.87659 16.2137C9.87316 16.2834 9.8958 16.352 9.9401 16.4059C10.6791 16.9629 11.5884 17.2463 12.513 17.208Z" fill="#FF4500"/>
<path d="M14.3197 14.4491C14.491 14.5636 14.6924 14.6247 14.8984 14.6247L14.888 14.6663C15.0293 14.6679 15.1693 14.6407 15.2997 14.5863C15.4301 14.532 15.5481 14.4518 15.6465 14.3504C15.7449 14.2491 15.8217 14.1288 15.8722 13.9969C15.9226 13.865 15.9458 13.7241 15.9401 13.583C15.9401 13.377 15.879 13.1756 15.7645 13.0043C15.6501 12.833 15.4874 12.6995 15.2971 12.6206C15.1067 12.5418 14.8973 12.5212 14.6952 12.5614C14.4931 12.6015 14.3075 12.7008 14.1619 12.8464C14.0162 12.9921 13.917 13.1777 13.8768 13.3798C13.8366 13.5819 13.8572 13.7913 13.9361 13.9816C14.0149 14.172 14.1484 14.3347 14.3197 14.4491Z" fill="#FF4500"/>
<path fill-rule="evenodd" clip-rule="evenodd" d="M22.9193 12.4997C22.9193 18.2526 18.2556 22.9163 12.5026 22.9163C6.74964 22.9163 2.08594 18.2526 2.08594 12.4997C2.08594 6.74671 6.74964 2.08301 12.5026 2.08301C18.2556 2.08301 22.9193 6.74671 22.9193 12.4997ZM19.1761 11.6824C19.3445 11.9226 19.4398 12.2065 19.4505 12.4997C19.455 12.7867 19.3781 13.0691 19.2288 13.3143C19.0795 13.5594 18.8638 13.7573 18.6068 13.8851C18.6185 14.0376 18.6185 14.1909 18.6068 14.3434C18.6068 16.6768 15.888 18.5726 12.5338 18.5726C9.17968 18.5726 6.46093 16.6768 6.46093 14.3434C6.4492 14.1909 6.4492 14.0376 6.46093 13.8851C6.26058 13.793 6.08263 13.6585 5.93943 13.4909C5.79623 13.3232 5.6912 13.1264 5.63161 12.9141C5.57202 12.7019 5.55931 12.4792 5.59434 12.2615C5.62938 12.0438 5.71133 11.8363 5.83452 11.6534C5.9577 11.4706 6.11918 11.3167 6.30775 11.2024C6.49633 11.0882 6.70749 11.0163 6.92661 10.9917C7.14573 10.9672 7.36756 10.9906 7.57674 11.0603C7.78592 11.13 7.97743 11.2444 8.13801 11.3955C9.3383 10.5815 10.7504 10.1361 12.2005 10.1143L12.9713 6.49967C12.98 6.45783 12.9969 6.41812 13.021 6.38284C13.0451 6.34757 13.076 6.31743 13.1118 6.29418C13.1477 6.27092 13.1878 6.25501 13.2298 6.24738C13.2719 6.23974 13.315 6.24052 13.3568 6.24967L15.9088 6.76009C16.0335 6.54596 16.2303 6.38327 16.4641 6.30121C16.6979 6.21916 16.9533 6.22311 17.1844 6.31237C17.4155 6.40163 17.6072 6.57034 17.7252 6.78822C17.8431 7.00611 17.8795 7.25889 17.8279 7.50121C17.7763 7.74353 17.6399 7.9595 17.4434 8.11037C17.2469 8.26123 17.003 8.33711 16.7556 8.32438C16.5082 8.31165 16.2734 8.21115 16.0934 8.04091C15.9134 7.87067 15.7999 7.64184 15.7734 7.39551L13.5443 6.92676L12.8672 10.1768C14.2997 10.2075 15.6926 10.6525 16.8776 11.458C17.0893 11.2548 17.3552 11.1172 17.6433 11.0618C17.9314 11.0064 18.2295 11.0354 18.5014 11.1456C18.7734 11.2557 19.0077 11.4421 19.1761 11.6824Z" fill="#FF4500"/>
</svg>
