<svg width="20" height="20" viewBox="0 0 20 20" fill="none" xmlns="http://www.w3.org/2000/svg">
<path fill-rule="evenodd" clip-rule="evenodd" d="M16.6671 10.175C16.6701 10.0584 16.6701 9.94169 16.6671 9.82504V10.175ZM12.9479 12.9475L10.7746 10.7742H16.6662V16.6667L14.7154 14.715C13.8839 15.5455 12.8477 16.1414 11.7118 16.4425C10.5759 16.7437 9.38052 16.7393 8.24682 16.4299C7.11312 16.1205 6.0813 15.517 5.25585 14.6806C4.4304 13.8441 3.84063 12.8044 3.54625 11.6667H6.18291C6.45438 12.2886 6.87358 12.8347 7.40409 13.2578C7.93461 13.6808 8.56039 13.9679 9.22707 14.0941C9.89376 14.2204 10.5812 14.1819 11.2296 13.9821C11.8781 13.7822 12.4679 13.4271 12.9479 12.9475ZM16.4587 8.33337C16.1643 7.19558 15.5745 6.15579 14.7489 5.31931C13.9234 4.48283 12.8914 3.87936 11.7576 3.57002C10.6238 3.26068 9.42834 3.25645 8.29236 3.55777C7.15638 3.85909 6.1202 4.45525 5.28875 5.28587L3.33708 3.33337V9.22587H9.22875L7.05791 7.05337C7.53785 6.57359 8.1277 6.21826 8.77619 6.01827C9.42468 5.81829 10.1122 5.77969 10.779 5.90584C11.4458 6.03199 12.0717 6.31907 12.6023 6.74213C13.133 7.16519 13.5522 7.71142 13.8237 8.33337H16.4587ZM3.33625 10V9.87087V10.1292C3.33583 10.0862 3.33583 10.0431 3.33625 10Z" fill="#71839B"/>
</svg>
