<svg xmlns="http://www.w3.org/2000/svg" xmlns:xlink="http://www.w3.org/1999/xlink" width="17" height="17" viewBox="0 0 17 17">
  <defs>
    <clipPath id="clip-path">
      <rect id="Rectangle_19257" data-name="Rectangle 19257" width="17" height="17" transform="translate(-1686 15474)" fill="#6e3333" opacity="0.33"/>
    </clipPath>
  </defs>
  <g id="Mask_Group_241" data-name="Mask Group 241" transform="translate(1686 -15474)" clip-path="url(#clip-path)">
    <path id="Path_43599" data-name="Path 43599" d="M319.7,737.028a.634.634,0,1,0,.4,1.2Zm4.481.887-.058-.631Zm2.567-.571.278.569Zm2.454-2.232-.493-.4h0Zm-1.678-1.4.448.448Zm-1.13,1.13.448.448h0Zm-3.069-.133a.634.634,0,0,0,0,1.268Zm5.617-1.138-.352.528Zm-8.172-.374.283.567Zm3.071-.281.167-.612h0Zm1.2.327-.167.611Zm.38,1.431-.449-.448h0Zm-1.118.221a.634.634,0,0,0,.9.9Zm-4.2,3.332a1.689,1.689,0,0,1,.583-.026c.3.021.647.074,1.044.136a10.823,10.823,0,0,0,2.509.206l-.115-1.263a9.745,9.745,0,0,1-2.2-.2c-.388-.061-.789-.122-1.15-.148a2.837,2.837,0,0,0-1.075.088Zm4.136.316c.528-.048.971-.071,1.381-.145a5.175,5.175,0,0,0,1.408-.488l-.556-1.139a3.924,3.924,0,0,1-1.077.38c-.336.06-.666.074-1.27.129Zm2.788-.633a6.174,6.174,0,0,0,1.489-1.1,14.384,14.384,0,0,0,1.179-1.3l-.985-.8a13.075,13.075,0,0,1-1.072,1.181,4.955,4.955,0,0,1-1.167.88Zm.049-4.646-1.13,1.13.9.9,1.13-1.13Zm-1.892,1.446h-1.859v1.268h1.859Zm.762-.316a1.077,1.077,0,0,1-.762.316v1.268a2.344,2.344,0,0,0,1.659-.687Zm3.348-1.35a1.757,1.757,0,0,0-2.218.22l.9.9a.489.489,0,0,1,.617-.061Zm.4,2.464a1.684,1.684,0,0,0-.4-2.464l-.7,1.055a.416.416,0,0,1,.12.611Zm-12.932-2.383h2.283V731.86h-2.283Zm2.22-.063V738.2h1.268v-5.136Zm.063,5.072h-2.282v1.268h2.282Zm-2.219.063v-5.136h-1.268V738.2Zm-.063-.063a.063.063,0,0,1,.063.063h-1.268a1.205,1.205,0,0,0,1.205,1.2Zm2.219.063a.063.063,0,0,1,.063-.063v1.268a1.205,1.205,0,0,0,1.205-1.2Zm.063-5.072a.063.063,0,0,1-.063-.063h1.268a1.2,1.2,0,0,0-1.205-1.2Zm-2.283-1.268a1.2,1.2,0,0,0-1.2,1.2h1.268a.063.063,0,0,1-.063.063Zm3.422,2.342.868-.434-.567-1.134-.869.434Zm2.371-.789h.234v-1.268h-.234Zm1.118.119,1.2.327.333-1.223-1.2-.327Zm1.3.7-.669.669.9.9.669-.669Zm-.1-.372a.222.222,0,0,1,.1.372l.9.9a1.49,1.49,0,0,0-.662-2.491Zm-2.083-.445a3.356,3.356,0,0,1,.884.119l.334-1.224a4.62,4.62,0,0,0-1.218-.163Zm-1.737.354a3.362,3.362,0,0,1,1.5-.354v-1.268a4.635,4.635,0,0,0-2.07.488ZM326.4,728.5a1.649,1.649,0,0,1-1.649,1.648v1.268a2.917,2.917,0,0,0,2.917-2.917Zm-1.649,1.648a1.648,1.648,0,0,1-1.648-1.648H321.84a2.916,2.916,0,0,0,2.916,2.917Zm-1.648-1.648a1.648,1.648,0,0,1,1.648-1.648v-1.268a2.916,2.916,0,0,0-2.916,2.917Zm1.648-1.648A1.649,1.649,0,0,1,326.4,728.5h1.268a2.917,2.917,0,0,0-2.917-2.917Zm-2.282,1.014a1.648,1.648,0,0,1-1.648-1.648h-1.268a2.917,2.917,0,0,0,2.917,2.917Zm-1.648-1.648a1.648,1.648,0,0,1,1.648-1.648V723.3a2.916,2.916,0,0,0-2.917,2.917Zm1.648-1.648a1.648,1.648,0,0,1,1.648,1.648h1.268a2.916,2.916,0,0,0-2.916-2.917Z" transform="translate(-2000.562 14750.699)" fill="#777e90"/>
  </g>
</svg>
