<svg width="11" height="21" viewBox="0 0 11 21" fill="none" xmlns="http://www.w3.org/2000/svg">
<path d="M9.45481 7.40786L2.76106 0.714111C2.48782 0.442495 2.11821 0.290039 1.73293 0.290039C1.34766 0.290039 0.978047 0.442495 0.70481 0.714111C0.568123 0.849683 0.459631 1.01098 0.385594 1.18869C0.311556 1.3664 0.273438 1.55701 0.273438 1.74953C0.273438 1.94205 0.311556 2.13266 0.385594 2.31037C0.459631 2.48808 0.568123 2.64937 0.70481 2.78495L7.41314 9.46411C7.54983 9.59968 7.65832 9.76098 7.73236 9.93869C7.8064 10.1164 7.84452 10.307 7.84452 10.4995C7.84452 10.692 7.8064 10.8827 7.73236 11.0604C7.65832 11.2381 7.54983 11.3994 7.41314 11.5349L0.70481 18.2141C0.4302 18.4868 0.275158 18.8574 0.273791 19.2444C0.272423 19.6314 0.424844 20.003 0.69752 20.2777C0.970195 20.5523 1.34079 20.7073 1.72778 20.7087C2.11477 20.71 2.48645 20.5576 2.76106 20.2849L9.45481 13.5912C10.2741 12.7709 10.7343 11.6589 10.7343 10.4995C10.7343 9.34015 10.2741 8.22818 9.45481 7.40786Z" fill="#838999"/>
</svg>
