<svg width="11" height="11" viewBox="0 0 11 11" fill="none" xmlns="http://www.w3.org/2000/svg">
<g opacity="0.5">
<path d="M8.683 8.165C8.64899 8.13099 8.60861 8.10401 8.56417 8.0856C8.51973 8.06719 8.4721 8.05772 8.424 8.05772C8.3759 8.05772 8.32827 8.06719 8.28383 8.0856C8.23939 8.10401 8.19901 8.13099 8.165 8.165C8.13099 8.19901 8.10401 8.23939 8.0856 8.28383C8.06719 8.32827 8.05772 8.3759 8.05772 8.424C8.05772 8.4721 8.06719 8.51973 8.0856 8.56417C8.10401 8.60861 8.13099 8.64899 8.165 8.683L8.683 8.165ZM9.874 10.392C9.94269 10.4607 10.0359 10.4993 10.133 10.4993C10.2301 10.4993 10.3233 10.4607 10.392 10.392C10.4607 10.3233 10.4993 10.2301 10.4993 10.133C10.4993 10.0359 10.4607 9.94269 10.392 9.874L9.874 10.392ZM10.011 5.005C10.0107 3.67767 9.48334 2.40479 8.54478 1.46622C7.60622 0.527661 6.33333 0.000265121 5.006 0V0.733C6.13927 0.733 7.22612 1.18319 8.02747 1.98453C8.82881 2.78588 9.279 3.87273 9.279 5.006L10.011 5.005ZM5.006 0C3.67833 0 2.40503 0.527416 1.46622 1.46622C0.527416 2.40503 0 3.67833 0 5.006H0.733C0.733 3.87273 1.18319 2.78588 1.98453 1.98453C2.78588 1.18319 3.87273 0.733 5.006 0.733V0ZM0 5.006C0 6.33367 0.527416 7.60697 1.46622 8.54578C2.40503 9.48458 3.67833 10.012 5.006 10.012V9.279C3.87273 9.279 2.78588 8.82881 1.98453 8.02747C1.18319 7.22612 0.733 6.13927 0.733 5.006H0ZM5.006 10.012C6.33367 10.012 7.60697 9.48458 8.54578 8.54578C9.48458 7.60697 10.012 6.33367 10.012 5.006H9.279C9.279 6.13927 8.82881 7.22612 8.02747 8.02747C7.22612 8.82881 6.13927 9.279 5.006 9.279V10.012ZM8.166 8.684L9.875 10.393L10.393 9.875L8.683 8.165L8.166 8.684Z" fill="white"/>
</g>
</svg>
