<svg xmlns="http://www.w3.org/2000/svg" xmlns:xlink="http://www.w3.org/1999/xlink" width="17" height="17" viewBox="0 0 17 17">
  <defs>
    <clipPath id="clip-path">
      <rect id="Rectangle_19259" data-name="Rectangle 19259" width="17" height="17" transform="translate(-1604 15635)" fill="#6e3333" opacity="0.33"/>
    </clipPath>
  </defs>
  <g id="Mask_Group_242" data-name="Mask Group 242" transform="translate(1604 -15635)" clip-path="url(#clip-path)">
    <path id="Path_42688" data-name="Path 42688" d="M697,651.145a2.359,2.359,0,0,1-.126-4.083A3.173,3.173,0,0,0,693.812,643H683.188a10.883,10.883,0,0,1-2.869,6.766,3.737,3.737,0,0,1-.192,5.462,3.173,3.173,0,0,0,3.061,4.062h10.624a10.95,10.95,0,0,1,2.866-6.768A3.17,3.17,0,0,0,697,651.145Zm-15.582-4.958a1.77,1.77,0,0,1,1.771-1.771h.354v.708a.708.708,0,0,0,1.417,0v-.708h1.417v.708a.708.708,0,0,0,1.417,0v-.708h6.02a1.771,1.771,0,1,1,0,3.541H683.188a1.77,1.77,0,0,1-1.771-1.771Zm14.166,9.916a1.77,1.77,0,0,1-1.771,1.771H683.188a1.771,1.771,0,1,1,0-3.541h.354v.708a.708.708,0,0,0,1.417,0v-.708h1.417v.708a.708.708,0,0,0,1.417,0v-.708h6.02a1.77,1.77,0,0,1,1.771,1.771Zm-12.395-3.187a1.771,1.771,0,1,1,0-3.541h.354v.708a.708.708,0,0,0,1.417,0v-.708h1.417v.708a.708.708,0,0,0,1.417,0v-.708h6.02a1.771,1.771,0,1,1,0,3.541Z" transform="translate(-2284 14992)" fill="#777e90"/>
  </g>
</svg>
