<svg xmlns="http://www.w3.org/2000/svg" xmlns:xlink="http://www.w3.org/1999/xlink" width="17" height="17" viewBox="0 0 17 17">
  <defs>
    <clipPath id="clip-path">
      <rect id="Rectangle_19260" data-name="Rectangle 19260" width="17" height="17" transform="translate(-1604 15667)" fill="#6e3333" opacity="0.33"/>
    </clipPath>
  </defs>
  <g id="Mask_Group_243" data-name="Mask Group 243" transform="translate(1604 -15667)" clip-path="url(#clip-path)">
    <path id="Path_42680" data-name="Path 42680" d="M694.712,714.211l-1.173-1.174a3.519,3.519,0,0,0-2.5-1.037h-4.493A3.545,3.545,0,0,0,683,715.542v9.917A3.545,3.545,0,0,0,686.542,729h5.667a3.545,3.545,0,0,0,3.542-3.542v-8.743a3.516,3.516,0,0,0-1.038-2.5Zm-1,1a2.058,2.058,0,0,1,.268.329h-1.771v-1.771a2.191,2.191,0,0,1,.329.269Zm.623,10.245a2.126,2.126,0,0,1-2.125,2.125h-5.667a2.126,2.126,0,0,1-2.125-2.125v-9.917a2.126,2.126,0,0,1,2.125-2.125h4.25v2.125a1.417,1.417,0,0,0,1.417,1.417h2.125Zm-2.125-7.083a.708.708,0,0,1,0,1.417h-5.667a.708.708,0,0,1,0-1.417Zm.708,3.542a.709.709,0,0,1-.708.708h-5.667a.708.708,0,0,1,0-1.417h5.667a.709.709,0,0,1,.708.708Zm-.136,2.418a.709.709,0,0,1-.154.987,4.579,4.579,0,0,1-2.448.845,2.3,2.3,0,0,1-1.417-.5c-.232-.159-.321-.213-.5-.213a2.8,2.8,0,0,0-1.3.562.708.708,0,0,1-.86-1.125,4.153,4.153,0,0,1,2.16-.854,2.145,2.145,0,0,1,1.3.464.955.955,0,0,0,.612.244,3.248,3.248,0,0,0,1.613-.573.708.708,0,0,1,.989.157Z" transform="translate(-2285 14955)" fill="#777e90"/>
  </g>
</svg>
