<svg width="50" height="50" viewBox="0 0 50 50" fill="none" xmlns="http://www.w3.org/2000/svg">
<path d="M27.712 16.8955L30.462 22.3955C30.837 23.1455 31.837 23.8955 32.6703 24.0205L37.6495 24.8538C40.837 25.3955 41.587 27.6872 39.2953 29.9788L35.4203 33.8538C34.7745 34.4997 34.3995 35.7705 34.6078 36.6872L35.712 41.4997C36.587 45.2913 34.5662 46.7705 31.212 44.7913L26.5453 42.0205C25.6912 41.5205 24.3162 41.5205 23.462 42.0205L18.7953 44.7913C15.4411 46.7705 13.4203 45.2913 14.2953 41.4997L15.3995 36.6872C15.6079 35.7913 15.2328 34.5205 14.587 33.8538L10.712 29.9788C8.42037 27.6872 9.17032 25.3747 12.3578 24.8538L17.337 24.0205C18.1704 23.8747 19.1703 23.1455 19.5453 22.3955L22.2954 16.8955C23.7745 13.9163 26.2328 13.9163 27.712 16.8955Z" fill="#FFA500"/>
<path opacity="0.4" d="M12.5 20.3128C11.6458 20.3128 10.9375 19.6045 10.9375 18.7503V4.16699C10.9375 3.31283 11.6458 2.60449 12.5 2.60449C13.3542 2.60449 14.0625 3.31283 14.0625 4.16699V18.7503C14.0625 19.6045 13.3542 20.3128 12.5 20.3128Z" fill="#FFA500"/>
<path opacity="0.4" d="M37.5 20.3128C36.6458 20.3128 35.9375 19.6045 35.9375 18.7503V4.16699C35.9375 3.31283 36.6458 2.60449 37.5 2.60449C38.3542 2.60449 39.0625 3.31283 39.0625 4.16699V18.7503C39.0625 19.6045 38.3542 20.3128 37.5 20.3128Z" fill="#FFA500"/>
<path opacity="0.4" d="M25 9.89616C24.1458 9.89616 23.4375 9.18783 23.4375 8.33366V4.16699C23.4375 3.31283 24.1458 2.60449 25 2.60449C25.8542 2.60449 26.5625 3.31283 26.5625 4.16699V8.33366C26.5625 9.18783 25.8542 9.89616 25 9.89616Z" fill="#FFA500"/>
</svg>
