<svg width="20" height="20" viewBox="0 0 20 20" fill="none" xmlns="http://www.w3.org/2000/svg">
<mask id="mask0_50_7639" style="mask-type:alpha" maskUnits="userSpaceOnUse" x="0" y="0" width="20" height="20">
<rect width="20" height="20" fill="#D9D9D9"/>
</mask>
<g mask="url(#mask0_50_7639)">
<path d="M7.4181 19.825H3.2806C2.39654 19.825 1.5487 19.4738 0.923576 18.8487C0.298455 18.2235 -0.0527344 17.3757 -0.0527344 16.4916V12.325C-0.0527344 11.4409 0.298455 10.5931 0.923576 9.96795C1.5487 9.34283 2.39654 8.99164 3.2806 8.99164H10.6614C11.1124 8.99185 11.5557 9.10848 11.9485 9.33024C12.3412 9.552 12.67 9.87138 12.9031 10.2575L15.5839 7.31164C15.8057 7.06779 16.0733 6.87004 16.3715 6.72969C16.6697 6.58933 16.9927 6.50912 17.3219 6.49364C17.6511 6.47816 17.9802 6.52772 18.2902 6.63948C18.6003 6.75124 18.8853 6.92301 19.1289 7.14497C19.6151 7.59158 19.9064 8.21121 19.9402 8.87049C19.9741 9.52976 19.7477 10.176 19.3098 10.67L13.6431 17.0341C12.8607 17.9117 11.9017 18.6139 10.8289 19.0949C9.75609 19.5758 8.59377 19.8246 7.4181 19.825ZM3.2806 10.6583C2.83857 10.6583 2.41465 10.8339 2.10209 11.1465C1.78953 11.459 1.61393 11.8829 1.61393 12.325V16.4916C1.61393 16.9337 1.78953 17.3576 2.10209 17.6701C2.41465 17.9827 2.83857 18.1583 3.2806 18.1583H7.4181C8.35803 18.1579 9.28728 17.9589 10.1449 17.5743C11.0026 17.1897 11.7693 16.6282 12.3948 15.9266L18.0656 9.56164C18.2128 9.3958 18.289 9.17876 18.2778 8.95728C18.2666 8.7358 18.1688 8.52758 18.0056 8.37747C17.8396 8.22824 17.622 8.14962 17.3989 8.1583C17.2884 8.16298 17.1798 8.18963 17.0797 8.23671C16.9795 8.28378 16.8898 8.35033 16.8156 8.43247L13.1273 12.4916C12.9653 12.9398 12.6848 13.3355 12.3155 13.6367C11.9462 13.9379 11.5021 14.1331 11.0306 14.2016L6.72977 14.8166C6.51096 14.848 6.28865 14.7912 6.11174 14.6587C5.93483 14.5262 5.81782 14.3288 5.78643 14.11C5.75505 13.8912 5.81187 13.6689 5.94439 13.4919C6.07692 13.315 6.2743 13.198 6.4931 13.1666L10.7948 12.5525C11.0335 12.5191 11.2508 12.3963 11.4025 12.209C11.5543 12.0216 11.6293 11.7837 11.6123 11.5431C11.5954 11.3026 11.4878 11.0775 11.3113 10.9133C11.1348 10.749 10.9025 10.6579 10.6614 10.6583H3.2806Z" fill="#FFA500"/>
<mask id="mask1_50_7639" style="mask-type:alpha" maskUnits="userSpaceOnUse" x="-7" y="-5" width="30" height="18">
<rect x="22.9766" y="6.98272" width="28.1154" height="12.2241" transform="rotate(168.595 22.9766 6.98272)" fill="#D9D9D9"/>
</mask>
<g mask="url(#mask1_50_7639)">
<path d="M10.9872 12.4131C12.1721 12.1741 13.2596 11.589 14.1121 10.7319C14.9646 9.87481 15.5437 8.78417 15.7763 7.59792C16.009 6.41166 15.8846 5.18307 15.419 4.0675C14.9533 2.95193 14.1674 1.99948 13.1604 1.33061C12.1535 0.661736 10.9708 0.306474 9.76197 0.309749C8.55313 0.313024 7.37241 0.674689 6.36911 1.34901C5.36581 2.02333 4.58501 2.98002 4.12543 4.0981C3.66585 5.21617 3.54814 6.44543 3.78719 7.6304C4.10935 9.21853 5.04835 10.614 6.39816 11.5106C7.74797 12.4073 9.39835 12.7318 10.9872 12.4131ZM8.77133 1.42898C9.75881 1.22977 10.7832 1.32786 11.7149 1.71085C12.6467 2.09383 13.4439 2.7445 14.0058 3.58058C14.5678 4.41666 14.8691 5.4006 14.8719 6.40796C14.8746 7.41533 14.5786 8.40089 14.0212 9.24C13.4638 10.0791 12.6701 10.7341 11.7404 11.1221C10.8108 11.5101 9.78695 11.6138 8.7984 11.4199C7.80986 11.2261 6.901 10.7434 6.18675 10.0331C5.4725 9.32267 4.98495 8.41644 4.78575 7.42896C4.52016 6.10495 4.79064 4.72965 5.53783 3.60481C6.28502 2.47997 7.4479 1.69747 8.77133 1.42898Z" fill="#FFA500"/>
</g>
</g>
<path d="M15 6C15 12.5 12.2614 10 9.5 10C5 10 4 8.76142 4 6C4 3.23858 6.23858 1 9 1C11.7614 1 15 3.23858 15 6Z" fill="#FFA500"/>
</svg>
