<svg width="591" height="281" viewBox="0 0 591 281" fill="none" xmlns="http://www.w3.org/2000/svg">
<g filter="url(#filter0_di_6054_21996)">
<path d="M125 82.5754C83 32.5754 50.1667 177.742 39 256.575H558.5L544.5 216.075C496 72.0747 466.5 25.5747 448 52.0747C429.5 78.5747 385.5 242.576 324 124.076C262.5 5.57617 249.5 118.076 208 184.576C166.5 251.076 177.5 145.075 125 82.5754Z" fill="url(#paint0_linear_6054_21996)" shape-rendering="crispEdges"/>
<path d="M125 82.5754C83 32.5754 50.1667 177.742 39 256.575H558.5L544.5 216.075C496 72.0747 466.5 25.5747 448 52.0747C429.5 78.5747 385.5 242.576 324 124.076C262.5 5.57617 249.5 118.076 208 184.576C166.5 251.076 177.5 145.075 125 82.5754Z" stroke="url(#paint1_linear_6054_21996)" shape-rendering="crispEdges"/>
<path d="M125 82.5754C83 32.5754 50.1667 177.742 39 256.575H558.5L544.5 216.075C496 72.0747 466.5 25.5747 448 52.0747C429.5 78.5747 385.5 242.576 324 124.076C262.5 5.57617 249.5 118.076 208 184.576C166.5 251.076 177.5 145.075 125 82.5754Z" stroke="url(#paint2_linear_6054_21996)" stroke-opacity="0.2" shape-rendering="crispEdges"/>
</g>
<rect width="40" height="18" rx="3" transform="matrix(1 0 0 -1 27 236)" fill="#5EF06D"/>
<path d="M37.053 231V221.497H40.836C42.708 221.497 43.852 222.472 43.852 224.058C43.852 225.111 43.384 225.865 42.487 226.242C43.488 226.567 43.995 227.321 43.995 228.426C43.995 230.051 42.864 231 40.901 231H37.053ZM40.693 222.966H38.717V225.553H40.732C41.642 225.553 42.149 225.072 42.149 224.227C42.149 223.408 41.629 222.966 40.693 222.966ZM40.836 226.957H38.717V229.531H40.836C41.772 229.531 42.292 229.076 42.292 228.218C42.292 227.412 41.759 226.957 40.836 226.957ZM49.6418 224.578H51.2278V231H49.7588L49.6418 230.142C49.2518 230.753 48.4198 231.169 47.5618 231.169C46.0798 231.169 45.2088 230.168 45.2088 228.595V224.578H46.7948V228.036C46.7948 229.258 47.2758 229.752 48.1598 229.752C49.1608 229.752 49.6418 229.167 49.6418 227.945V224.578ZM52.3069 233.977V232.651H53.2559C53.8799 232.651 54.2699 232.508 54.5429 231.754L54.7249 231.273L52.1379 224.578H53.8149L55.4659 229.258L57.2079 224.578H58.8459L55.6999 232.43C55.2189 233.626 54.5429 234.12 53.4899 234.12C53.0479 234.12 52.6579 234.068 52.3069 233.977Z" fill="white"/>
<path d="M47 213L49.5981 218.25H44.4019L47 213Z" fill="#5EF0B8"/>
<rect width="40" height="18" rx="3" transform="matrix(1 0 0 -1 52 140)" fill="#5EF06D"/>
<path d="M62.053 136V126.497H65.836C67.708 126.497 68.852 127.472 68.852 129.058C68.852 130.111 68.384 130.865 67.487 131.242C68.488 131.567 68.995 132.321 68.995 133.426C68.995 135.051 67.864 136 65.901 136H62.053ZM65.693 127.966H63.717V130.553H65.732C66.642 130.553 67.149 130.072 67.149 129.227C67.149 128.408 66.629 127.966 65.693 127.966ZM65.836 131.957H63.717V134.531H65.836C66.772 134.531 67.292 134.076 67.292 133.218C67.292 132.412 66.759 131.957 65.836 131.957ZM74.6418 129.578H76.2278V136H74.7588L74.6418 135.142C74.2518 135.753 73.4198 136.169 72.5618 136.169C71.0798 136.169 70.2088 135.168 70.2088 133.595V129.578H71.7948V133.036C71.7948 134.258 72.2758 134.752 73.1598 134.752C74.1608 134.752 74.6418 134.167 74.6418 132.945V129.578ZM77.3069 138.977V137.651H78.2559C78.8799 137.651 79.2699 137.508 79.5429 136.754L79.7249 136.273L77.1379 129.578H78.8149L80.4659 134.258L82.2079 129.578H83.8459L80.6999 137.43C80.2189 138.626 79.5429 139.12 78.4899 139.12C78.0479 139.12 77.6579 139.068 77.3069 138.977Z" fill="white"/>
<path d="M72 117L74.5981 122.25H69.4019L72 117Z" fill="#5EF0B8"/>
<rect width="40" height="18" rx="3" transform="matrix(1 0 0 -1 487 139)" fill="#5EF06D"/>
<path d="M498.053 133V123.497H501.836C503.708 123.497 504.852 124.472 504.852 126.058C504.852 127.111 504.384 127.865 503.487 128.242C504.488 128.567 504.995 129.321 504.995 130.426C504.995 132.051 503.864 133 501.901 133H498.053ZM501.693 124.966H499.717V127.553H501.732C502.642 127.553 503.149 127.072 503.149 126.227C503.149 125.408 502.629 124.966 501.693 124.966ZM501.836 128.957H499.717V131.531H501.836C502.772 131.531 503.292 131.076 503.292 130.218C503.292 129.412 502.759 128.957 501.836 128.957ZM510.642 126.578H512.228V133H510.759L510.642 132.142C510.252 132.753 509.42 133.169 508.562 133.169C507.08 133.169 506.209 132.168 506.209 130.595V126.578H507.795V130.036C507.795 131.258 508.276 131.752 509.16 131.752C510.161 131.752 510.642 131.167 510.642 129.945V126.578ZM513.307 135.977V134.651H514.256C514.88 134.651 515.27 134.508 515.543 133.754L515.725 133.273L513.138 126.578H514.815L516.466 131.258L518.208 126.578H519.846L516.7 134.43C516.219 135.626 515.543 136.12 514.49 136.12C514.048 136.12 513.658 136.068 513.307 135.977Z" fill="white"/>
<path d="M508 116L510.598 121.25H505.402L508 116Z" fill="#5EF0B8"/>
<rect width="40" height="18" rx="3" transform="matrix(1 0 0 -1 349 189)" fill="#5EF06D"/>
<path d="M358.053 184V174.497H361.836C363.708 174.497 364.852 175.472 364.852 177.058C364.852 178.111 364.384 178.865 363.487 179.242C364.488 179.567 364.995 180.321 364.995 181.426C364.995 183.051 363.864 184 361.901 184H358.053ZM361.693 175.966H359.717V178.553H361.732C362.642 178.553 363.149 178.072 363.149 177.227C363.149 176.408 362.629 175.966 361.693 175.966ZM361.836 179.957H359.717V182.531H361.836C362.772 182.531 363.292 182.076 363.292 181.218C363.292 180.412 362.759 179.957 361.836 179.957ZM370.642 177.578H372.228V184H370.759L370.642 183.142C370.252 183.753 369.42 184.169 368.562 184.169C367.08 184.169 366.209 183.168 366.209 181.595V177.578H367.795V181.036C367.795 182.258 368.276 182.752 369.16 182.752C370.161 182.752 370.642 182.167 370.642 180.945V177.578ZM373.307 186.977V185.651H374.256C374.88 185.651 375.27 185.508 375.543 184.754L375.725 184.273L373.138 177.578H374.815L376.466 182.258L378.208 177.578H379.846L376.7 185.43C376.219 186.626 375.543 187.12 374.49 187.12C374.048 187.12 373.658 187.068 373.307 186.977Z" fill="white"/>
<path d="M369 166L371.598 171.25H366.402L369 166Z" fill="#5EF0B8"/>
<rect x="135" y="123" width="26" height="12" rx="3" fill="#5EF06D"/>
<path d="M142 131.023V125H144.257C145.373 125 146.056 125.618 146.056 126.623C146.056 127.29 145.777 127.768 145.242 128.007C145.839 128.213 146.141 128.691 146.141 129.391C146.141 130.421 145.466 131.023 144.295 131.023H142ZM144.171 125.931H142.993V127.571H144.195C144.737 127.571 145.04 127.266 145.04 126.73C145.04 126.211 144.73 125.931 144.171 125.931ZM144.257 128.46H142.993V130.092H144.257C144.815 130.092 145.125 129.803 145.125 129.26C145.125 128.749 144.807 128.46 144.257 128.46Z" fill="white"/>
<path d="M149.51 126.953H150.456V131.023H149.579L149.51 130.479C149.277 130.866 148.781 131.13 148.269 131.13C147.385 131.13 146.865 130.495 146.865 129.498V126.953H147.811V129.144C147.811 129.919 148.098 130.232 148.625 130.232C149.223 130.232 149.51 129.861 149.51 129.087V126.953Z" fill="white"/>
<path d="M151.099 132.909V132.069H151.665C152.038 132.069 152.27 131.978 152.433 131.501L152.542 131.196L150.999 126.953H151.999L152.984 129.919L154.023 126.953H155L153.123 131.929C152.836 132.687 152.433 133 151.805 133C151.541 133 151.309 132.967 151.099 132.909Z" fill="white"/>
<path d="M148 118L150.598 123.25H145.402L148 118Z" fill="#5EF0B8"/>
<rect x="308" y="123" width="26" height="12" rx="3" fill="#5EF06D"/>
<path d="M315 131.023V125H317.257C318.373 125 319.056 125.618 319.056 126.623C319.056 127.29 318.777 127.768 318.242 128.007C318.839 128.213 319.141 128.691 319.141 129.391C319.141 130.421 318.466 131.023 317.295 131.023H315ZM317.171 125.931H315.993V127.571H317.195C317.737 127.571 318.04 127.266 318.04 126.73C318.04 126.211 317.73 125.931 317.171 125.931ZM317.257 128.46H315.993V130.092H317.257C317.815 130.092 318.125 129.803 318.125 129.26C318.125 128.749 317.807 128.46 317.257 128.46Z" fill="white"/>
<path d="M322.51 126.953H323.456V131.023H322.579L322.51 130.479C322.277 130.866 321.781 131.13 321.269 131.13C320.385 131.13 319.865 130.495 319.865 129.498V126.953H320.811V129.144C320.811 129.919 321.098 130.232 321.625 130.232C322.223 130.232 322.51 129.861 322.51 129.087V126.953Z" fill="white"/>
<path d="M324.099 132.909V132.069H324.665C325.038 132.069 325.27 131.978 325.433 131.501L325.542 131.196L323.999 126.953H324.999L325.984 129.919L327.023 126.953H328L326.123 131.929C325.836 132.687 325.433 133 324.805 133C324.541 133 324.309 132.967 324.099 132.909Z" fill="white"/>
<path d="M321 118L323.598 123.25H318.402L321 118Z" fill="#5EF0B8"/>
<rect x="515" y="171" width="26" height="12" rx="3" fill="#5EF06D"/>
<path d="M522 179.023V173H524.257C525.373 173 526.056 173.618 526.056 174.623C526.056 175.29 525.777 175.768 525.242 176.007C525.839 176.213 526.141 176.691 526.141 177.391C526.141 178.421 525.466 179.023 524.295 179.023H522ZM524.171 173.931H522.993V175.571H524.195C524.737 175.571 525.04 175.266 525.04 174.73C525.04 174.211 524.73 173.931 524.171 173.931ZM524.257 176.46H522.993V178.092H524.257C524.815 178.092 525.125 177.803 525.125 177.26C525.125 176.749 524.807 176.46 524.257 176.46Z" fill="white"/>
<path d="M529.51 174.953H530.456V179.023H529.579L529.51 178.479C529.277 178.866 528.781 179.13 528.269 179.13C527.385 179.13 526.865 178.495 526.865 177.498V174.953H527.811V177.144C527.811 177.919 528.098 178.232 528.625 178.232C529.223 178.232 529.51 177.861 529.51 177.087V174.953Z" fill="white"/>
<path d="M531.099 180.909V180.069H531.665C532.038 180.069 532.27 179.978 532.433 179.501L532.542 179.196L530.999 174.953H531.999L532.984 177.919L534.023 174.953H535L533.123 179.929C532.836 180.687 532.433 181 531.805 181C531.541 181 531.309 180.967 531.099 180.909Z" fill="white"/>
<path d="M528 166L530.598 171.25H525.402L528 166Z" fill="#5EF0B8"/>
<rect x="206" y="148" width="26" height="12" rx="3" fill="#FF4646"/>
<path d="M211.1 152.17C211.1 150.89 212.16 150 213.7 150C215.18 150 216.12 150.82 216.16 152.14H214.88C214.85 151.51 214.4 151.14 213.68 151.14C212.89 151.14 212.38 151.52 212.38 152.13C212.38 152.65 212.66 152.94 213.27 153.08L214.42 153.33C215.67 153.6 216.28 154.24 216.28 155.33C216.28 156.69 215.22 157.57 213.61 157.57C212.05 157.57 211.03 156.74 211 155.43H212.28C212.29 156.05 212.79 156.42 213.61 156.42C214.46 156.42 215 156.05 215 155.44C215 154.95 214.75 154.66 214.15 154.53L212.99 154.27C211.75 154 211.1 153.29 211.1 152.17Z" fill="white"/>
<path d="M219.468 157.57C217.998 157.57 216.968 156.5 216.968 154.97C216.968 153.42 217.978 152.35 219.428 152.35C220.908 152.35 221.848 153.34 221.848 154.88V155.25L218.128 155.26C218.218 156.13 218.678 156.57 219.488 156.57C220.158 156.57 220.598 156.31 220.738 155.84H221.868C221.658 156.92 220.758 157.57 219.468 157.57ZM219.438 153.35C218.718 153.35 218.278 153.74 218.158 154.48H220.638C220.638 153.8 220.168 153.35 219.438 153.35Z" fill="white"/>
<path d="M224.054 157.44H222.844V150H224.054V157.44Z" fill="white"/>
<path d="M226.564 157.44H225.354V150H226.564V157.44Z" fill="white"/>
<path d="M219 165L221.598 159.75H216.402L219 165Z" fill="#FF7878"/>
<rect x="405" y="100" width="26" height="12" rx="3" fill="#FF4646"/>
<path d="M410.1 104.17C410.1 102.89 411.16 102 412.7 102C414.18 102 415.12 102.82 415.16 104.14H413.88C413.85 103.51 413.4 103.14 412.68 103.14C411.89 103.14 411.38 103.52 411.38 104.13C411.38 104.65 411.66 104.94 412.27 105.08L413.42 105.33C414.67 105.6 415.28 106.24 415.28 107.33C415.28 108.69 414.22 109.57 412.61 109.57C411.05 109.57 410.03 108.74 410 107.43H411.28C411.29 108.05 411.79 108.42 412.61 108.42C413.46 108.42 414 108.05 414 107.44C414 106.95 413.75 106.66 413.15 106.53L411.99 106.27C410.75 106 410.1 105.29 410.1 104.17Z" fill="white"/>
<path d="M418.468 109.57C416.998 109.57 415.968 108.5 415.968 106.97C415.968 105.42 416.978 104.35 418.428 104.35C419.908 104.35 420.848 105.34 420.848 106.88V107.25L417.128 107.26C417.218 108.13 417.678 108.57 418.488 108.57C419.158 108.57 419.598 108.31 419.738 107.84H420.868C420.658 108.92 419.758 109.57 418.468 109.57ZM418.438 105.35C417.718 105.35 417.278 105.74 417.158 106.48H419.638C419.638 105.8 419.168 105.35 418.438 105.35Z" fill="white"/>
<path d="M423.054 109.44H421.844V102H423.054V109.44Z" fill="white"/>
<path d="M425.564 109.44H424.354V102H425.564V109.44Z" fill="white"/>
<path d="M418 117L420.598 111.75H415.402L418 117Z" fill="#FF7878"/>
<rect x="44" y="148" width="26" height="12" rx="3" fill="#FF4646"/>
<path d="M49.1 152.17C49.1 150.89 50.16 150 51.7 150C53.18 150 54.12 150.82 54.16 152.14H52.88C52.85 151.51 52.4 151.14 51.68 151.14C50.89 151.14 50.38 151.52 50.38 152.13C50.38 152.65 50.66 152.94 51.27 153.08L52.42 153.33C53.67 153.6 54.28 154.24 54.28 155.33C54.28 156.69 53.22 157.57 51.61 157.57C50.05 157.57 49.03 156.74 49 155.43H50.28C50.29 156.05 50.79 156.42 51.61 156.42C52.46 156.42 53 156.05 53 155.44C53 154.95 52.75 154.66 52.15 154.53L50.99 154.27C49.75 154 49.1 153.29 49.1 152.17Z" fill="white"/>
<path d="M57.468 157.57C55.998 157.57 54.968 156.5 54.968 154.97C54.968 153.42 55.978 152.35 57.428 152.35C58.908 152.35 59.848 153.34 59.848 154.88V155.25L56.128 155.26C56.218 156.13 56.678 156.57 57.488 156.57C58.158 156.57 58.598 156.31 58.738 155.84H59.868C59.658 156.92 58.758 157.57 57.468 157.57ZM57.438 153.35C56.718 153.35 56.278 153.74 56.158 154.48H58.638C58.638 153.8 58.168 153.35 57.438 153.35Z" fill="white"/>
<path d="M62.0544 157.44H60.8444V150H62.0544V157.44Z" fill="white"/>
<path d="M64.5641 157.44H63.3541V150H64.5641V157.44Z" fill="white"/>
<path d="M57 165L59.5981 159.75H54.4019L57 165Z" fill="#FF7878"/>
<rect x="221" y="94" width="40" height="18" rx="3" fill="#FF4646"/>
<path d="M230.507 100.149C230.507 98.485 231.885 97.328 233.887 97.328C235.811 97.328 237.033 98.394 237.085 100.11H235.421C235.382 99.291 234.797 98.81 233.861 98.81C232.834 98.81 232.171 99.304 232.171 100.097C232.171 100.773 232.535 101.15 233.328 101.332L234.823 101.657C236.448 102.008 237.241 102.84 237.241 104.257C237.241 106.025 235.863 107.169 233.77 107.169C231.742 107.169 230.416 106.09 230.377 104.387H232.041C232.054 105.193 232.704 105.674 233.77 105.674C234.875 105.674 235.577 105.193 235.577 104.4C235.577 103.763 235.252 103.386 234.472 103.217L232.964 102.879C231.352 102.528 230.507 101.605 230.507 100.149ZM241.385 107.169C239.474 107.169 238.135 105.778 238.135 103.789C238.135 101.774 239.448 100.383 241.333 100.383C243.257 100.383 244.479 101.67 244.479 103.672V104.153L239.643 104.166C239.76 105.297 240.358 105.869 241.411 105.869C242.282 105.869 242.854 105.531 243.036 104.92H244.505C244.232 106.324 243.062 107.169 241.385 107.169ZM241.346 101.683C240.41 101.683 239.838 102.19 239.682 103.152H242.906C242.906 102.268 242.295 101.683 241.346 101.683ZM247.348 107H245.775V97.328H247.348V107ZM250.61 107H249.037V97.328H250.61V107Z" fill="white"/>
<path d="M241 117L243.598 111.75H238.402L241 117Z" fill="#FF7878"/>
<rect x="419" y="47" width="40" height="18" rx="3" fill="#FF4646"/>
<path d="M428.507 53.149C428.507 51.485 429.885 50.328 431.887 50.328C433.811 50.328 435.033 51.394 435.085 53.11H433.421C433.382 52.291 432.797 51.81 431.861 51.81C430.834 51.81 430.171 52.304 430.171 53.097C430.171 53.773 430.535 54.15 431.328 54.332L432.823 54.657C434.448 55.008 435.241 55.84 435.241 57.257C435.241 59.025 433.863 60.169 431.77 60.169C429.742 60.169 428.416 59.09 428.377 57.387H430.041C430.054 58.193 430.704 58.674 431.77 58.674C432.875 58.674 433.577 58.193 433.577 57.4C433.577 56.763 433.252 56.386 432.472 56.217L430.964 55.879C429.352 55.528 428.507 54.605 428.507 53.149ZM439.385 60.169C437.474 60.169 436.135 58.778 436.135 56.789C436.135 54.774 437.448 53.383 439.333 53.383C441.257 53.383 442.479 54.67 442.479 56.672V57.153L437.643 57.166C437.76 58.297 438.358 58.869 439.411 58.869C440.282 58.869 440.854 58.531 441.036 57.92H442.505C442.232 59.324 441.062 60.169 439.385 60.169ZM439.346 54.683C438.41 54.683 437.838 55.19 437.682 56.152H440.906C440.906 55.268 440.295 54.683 439.346 54.683ZM445.348 60H443.775V50.328H445.348V60ZM448.61 60H447.037V50.328H448.61V60Z" fill="white"/>
<path d="M439 70L441.598 64.75H436.402L439 70Z" fill="#FF7878"/>
<line x1="31" y1="69.5" x2="559" y2="69.5" stroke="url(#paint3_linear_6054_21996)"/>
<line x1="31" y1="117.5" x2="559" y2="117.5" stroke="url(#paint4_linear_6054_21996)"/>
<line x1="31" y1="165.5" x2="559" y2="165.5" stroke="url(#paint5_linear_6054_21996)"/>
<line x1="31" y1="213.5" x2="559" y2="213.5" stroke="url(#paint6_linear_6054_21996)"/>
<line x1="31" y1="213.5" x2="559" y2="213.5" stroke="url(#paint7_linear_6054_21996)" stroke-opacity="0.2"/>
<rect width="40" height="18" rx="3" transform="matrix(1 0 0 -1 145 188)" fill="#5EF06D"/>
<path d="M155.053 183V173.497H158.836C160.708 173.497 161.852 174.472 161.852 176.058C161.852 177.111 161.384 177.865 160.487 178.242C161.488 178.567 161.995 179.321 161.995 180.426C161.995 182.051 160.864 183 158.901 183H155.053ZM158.693 174.966H156.717V177.553H158.732C159.642 177.553 160.149 177.072 160.149 176.227C160.149 175.408 159.629 174.966 158.693 174.966ZM158.836 178.957H156.717V181.531H158.836C159.772 181.531 160.292 181.076 160.292 180.218C160.292 179.412 159.759 178.957 158.836 178.957ZM167.642 176.578H169.228V183H167.759L167.642 182.142C167.252 182.753 166.42 183.169 165.562 183.169C164.08 183.169 163.209 182.168 163.209 180.595V176.578H164.795V180.036C164.795 181.258 165.276 181.752 166.16 181.752C167.161 181.752 167.642 181.167 167.642 179.945V176.578ZM170.307 185.977V184.651H171.256C171.88 184.651 172.27 184.508 172.543 183.754L172.725 183.273L170.138 176.578H171.815L173.466 181.258L175.208 176.578H176.846L173.7 184.43C173.219 185.626 172.543 186.12 171.49 186.12C171.048 186.12 170.658 186.068 170.307 185.977Z" fill="white"/>
<path d="M165 165L167.598 170.25H162.402L165 165Z" fill="#5EF0B8"/>
<rect x="87" y="49" width="40" height="18" rx="3" fill="#FF4646"/>
<path d="M96.507 55.149C96.507 53.485 97.885 52.328 99.887 52.328C101.811 52.328 103.033 53.394 103.085 55.11H101.421C101.382 54.291 100.797 53.81 99.861 53.81C98.834 53.81 98.171 54.304 98.171 55.097C98.171 55.773 98.535 56.15 99.328 56.332L100.823 56.657C102.448 57.008 103.241 57.84 103.241 59.257C103.241 61.025 101.863 62.169 99.77 62.169C97.742 62.169 96.416 61.09 96.377 59.387H98.041C98.054 60.193 98.704 60.674 99.77 60.674C100.875 60.674 101.577 60.193 101.577 59.4C101.577 58.763 101.252 58.386 100.472 58.217L98.964 57.879C97.352 57.528 96.507 56.605 96.507 55.149ZM107.385 62.169C105.474 62.169 104.135 60.778 104.135 58.789C104.135 56.774 105.448 55.383 107.333 55.383C109.257 55.383 110.479 56.67 110.479 58.672V59.153L105.643 59.166C105.76 60.297 106.358 60.869 107.411 60.869C108.282 60.869 108.854 60.531 109.036 59.92H110.505C110.232 61.324 109.062 62.169 107.385 62.169ZM107.346 56.683C106.41 56.683 105.838 57.19 105.682 58.152H108.906C108.906 57.268 108.295 56.683 107.346 56.683ZM113.348 62H111.775V52.328H113.348V62ZM116.61 62H115.037V52.328H116.61V62Z" fill="white"/>
<path d="M107 72L109.598 66.75H104.402L107 72Z" fill="#FF7878"/>
<rect x="265" y="55" width="26" height="12" rx="3" fill="#FF4646"/>
<path d="M270.1 59.17C270.1 57.89 271.16 57 272.7 57C274.18 57 275.12 57.82 275.16 59.14H273.88C273.85 58.51 273.4 58.14 272.68 58.14C271.89 58.14 271.38 58.52 271.38 59.13C271.38 59.65 271.66 59.94 272.27 60.08L273.42 60.33C274.67 60.6 275.28 61.24 275.28 62.33C275.28 63.69 274.22 64.57 272.61 64.57C271.05 64.57 270.03 63.74 270 62.43H271.28C271.29 63.05 271.79 63.42 272.61 63.42C273.46 63.42 274 63.05 274 62.44C274 61.95 273.75 61.66 273.15 61.53L271.99 61.27C270.75 61 270.1 60.29 270.1 59.17Z" fill="white"/>
<path d="M278.468 64.57C276.998 64.57 275.968 63.5 275.968 61.97C275.968 60.42 276.978 59.35 278.428 59.35C279.908 59.35 280.848 60.34 280.848 61.88V62.25L277.128 62.26C277.218 63.13 277.678 63.57 278.488 63.57C279.158 63.57 279.598 63.31 279.738 62.84H280.868C280.658 63.92 279.758 64.57 278.468 64.57ZM278.438 60.35C277.718 60.35 277.278 60.74 277.158 61.48H279.638C279.638 60.8 279.168 60.35 278.438 60.35Z" fill="white"/>
<path d="M283.054 64.44H281.844V57H283.054V64.44Z" fill="white"/>
<path d="M285.564 64.44H284.354V57H285.564V64.44Z" fill="white"/>
<path d="M278 72L280.598 66.75H275.402L278 72Z" fill="#FF7878"/>
<rect x="174" y="211" width="26" height="12" rx="3" fill="#5EF06D"/>
<path d="M181 219.023V213H183.257C184.373 213 185.056 213.618 185.056 214.623C185.056 215.29 184.777 215.768 184.242 216.007C184.839 216.213 185.141 216.691 185.141 217.391C185.141 218.421 184.466 219.023 183.295 219.023H181ZM183.171 213.931H181.993V215.571H183.195C183.737 215.571 184.04 215.266 184.04 214.73C184.04 214.211 183.73 213.931 183.171 213.931ZM183.257 216.46H181.993V218.092H183.257C183.815 218.092 184.125 217.803 184.125 217.26C184.125 216.749 183.807 216.46 183.257 216.46Z" fill="white"/>
<path d="M188.51 214.953H189.456V219.023H188.579L188.51 218.479C188.277 218.866 187.781 219.13 187.269 219.13C186.385 219.13 185.865 218.495 185.865 217.498V214.953H186.811V217.144C186.811 217.919 187.098 218.232 187.625 218.232C188.223 218.232 188.51 217.861 188.51 217.087V214.953Z" fill="white"/>
<path d="M190.099 220.909V220.069H190.665C191.038 220.069 191.27 219.978 191.433 219.501L191.542 219.196L189.999 214.953H190.999L191.984 217.919L193.023 214.953H194L192.123 219.929C191.836 220.687 191.433 221 190.805 221C190.541 221 190.309 220.967 190.099 220.909Z" fill="white"/>
<path d="M187 206L189.598 211.25H184.402L187 206Z" fill="#5EF0B8"/>
<g filter="url(#filter1_f_6054_21996)">
<rect x="14" y="238" width="555" height="29" fill="white"/>
</g>
<defs>
<filter id="filter0_di_6054_21996" x="7.42432" y="0.5" width="582.777" height="274.576" filterUnits="userSpaceOnUse" color-interpolation-filters="sRGB">
<feFlood flood-opacity="0" result="BackgroundImageFix"/>
<feColorMatrix in="SourceAlpha" type="matrix" values="0 0 0 0 0 0 0 0 0 0 0 0 0 0 0 0 0 0 127 0" result="hardAlpha"/>
<feOffset dy="-13"/>
<feGaussianBlur stdDeviation="15.5"/>
<feComposite in2="hardAlpha" operator="out"/>
<feColorMatrix type="matrix" values="0 0 0 0 1 0 0 0 0 0.3 0 0 0 0 0 0 0 0 0.21 0"/>
<feBlend mode="normal" in2="BackgroundImageFix" result="effect1_dropShadow_6054_21996"/>
<feBlend mode="normal" in="SourceGraphic" in2="effect1_dropShadow_6054_21996" result="shape"/>
<feColorMatrix in="SourceAlpha" type="matrix" values="0 0 0 0 0 0 0 0 0 0 0 0 0 0 0 0 0 0 127 0" result="hardAlpha"/>
<feOffset dy="10"/>
<feGaussianBlur stdDeviation="9"/>
<feComposite in2="hardAlpha" operator="arithmetic" k2="-1" k3="1"/>
<feColorMatrix type="matrix" values="0 0 0 0 1 0 0 0 0 0.466667 0 0 0 0 0.466667 0 0 0 0.25 0"/>
<feBlend mode="normal" in2="shape" result="effect2_innerShadow_6054_21996"/>
</filter>
<filter id="filter1_f_6054_21996" x="0" y="224" width="583" height="57" filterUnits="userSpaceOnUse" color-interpolation-filters="sRGB">
<feFlood flood-opacity="0" result="BackgroundImageFix"/>
<feBlend mode="normal" in="SourceGraphic" in2="BackgroundImageFix" result="shape"/>
<feGaussianBlur stdDeviation="7" result="effect1_foregroundBlur_6054_21996"/>
</filter>
<linearGradient id="paint0_linear_6054_21996" x1="298.75" y1="45" x2="298.75" y2="256.575" gradientUnits="userSpaceOnUse">
<stop stop-color="#FFA500"/>
<stop offset="1" stop-color="white" stop-opacity="0"/>
</linearGradient>
<linearGradient id="paint1_linear_6054_21996" x1="298.75" y1="45" x2="298.75" y2="256.575" gradientUnits="userSpaceOnUse">
<stop offset="0.0847014" stop-color="#FFA500"/>
<stop offset="0.937539" stop-color="white" stop-opacity="0"/>
</linearGradient>
<linearGradient id="paint2_linear_6054_21996" x1="298.75" y1="45" x2="298.75" y2="256.575" gradientUnits="userSpaceOnUse">
<stop stop-color="#FA1010"/>
<stop offset="0.912977" stop-color="#FA1010" stop-opacity="0"/>
</linearGradient>
<linearGradient id="paint3_linear_6054_21996" x1="-3.77957e-06" y1="67.5015" x2="634.5" y2="70.0032" gradientUnits="userSpaceOnUse">
<stop stop-color="#EBEBEB" stop-opacity="0"/>
<stop offset="0.0757719" stop-color="#EBEBEB" stop-opacity="0"/>
<stop offset="0.30994" stop-color="#EBEBEB"/>
<stop offset="0.871752" stop-color="#EBEBEB" stop-opacity="0"/>
</linearGradient>
<linearGradient id="paint4_linear_6054_21996" x1="-3.77957e-06" y1="115.501" x2="634.5" y2="118.003" gradientUnits="userSpaceOnUse">
<stop stop-color="#EBEBEB" stop-opacity="0"/>
<stop offset="0.0757719" stop-color="#EBEBEB" stop-opacity="0"/>
<stop offset="0.30994" stop-color="#EBEBEB"/>
<stop offset="0.871752" stop-color="#EBEBEB" stop-opacity="0"/>
</linearGradient>
<linearGradient id="paint5_linear_6054_21996" x1="-3.77957e-06" y1="163.501" x2="634.5" y2="166.003" gradientUnits="userSpaceOnUse">
<stop stop-color="#EBEBEB" stop-opacity="0"/>
<stop offset="0.0757719" stop-color="#EBEBEB" stop-opacity="0"/>
<stop offset="0.30994" stop-color="#EBEBEB"/>
<stop offset="0.871752" stop-color="#EBEBEB" stop-opacity="0"/>
</linearGradient>
<linearGradient id="paint6_linear_6054_21996" x1="-3.77957e-06" y1="211.501" x2="634.5" y2="214.003" gradientUnits="userSpaceOnUse">
<stop stop-color="#EBEBEB" stop-opacity="0"/>
<stop offset="0.0757719" stop-color="#EBEBEB" stop-opacity="0"/>
<stop offset="0.30994" stop-color="#EBEBEB"/>
<stop offset="0.871752" stop-color="#EBEBEB" stop-opacity="0"/>
</linearGradient>
<linearGradient id="paint7_linear_6054_21996" x1="528" y1="214" x2="29" y2="214" gradientUnits="userSpaceOnUse">
<stop stop-opacity="0"/>
<stop offset="0.661458" stop-color="#EBEBEB"/>
<stop offset="0.914226" stop-opacity="0"/>
</linearGradient>
</defs>
</svg>
