<svg width="21" height="20" viewBox="0 0 21 20" fill="none" xmlns="http://www.w3.org/2000/svg">
<mask id="mask0_1868_11414" style="mask-type:alpha" maskUnits="userSpaceOnUse" x="0" y="0" width="21" height="20">
<rect x="0.976562" width="19.9861" height="20" fill="#D9D9D9"/>
</mask>
<g mask="url(#mask0_1868_11414)">
<path d="M8.38752 19.8249H4.25289C3.36945 19.8249 2.52219 19.4738 1.89751 18.8486C1.27282 18.2235 0.921875 17.3757 0.921875 16.4916V12.3249C0.921875 11.4409 1.27282 10.593 1.89751 9.96792C2.52219 9.3428 3.36945 8.99161 4.25289 8.99161H11.6286C12.0793 8.99182 12.5223 9.10845 12.9147 9.33021C13.3072 9.55197 13.6358 9.87135 13.8687 10.2574L16.5477 7.31161C16.7693 7.06776 17.0367 6.87001 17.3347 6.72966C17.6327 6.5893 17.9554 6.50909 18.2844 6.49361C18.6134 6.47813 18.9423 6.52769 19.2521 6.63945C19.5619 6.75121 19.8467 6.92298 20.0902 7.14494C20.576 7.59155 20.8672 8.21118 20.901 8.87046C20.9348 9.52973 20.7085 10.1759 20.2709 10.6699L14.6082 17.0341C13.8263 17.9116 12.868 18.6139 11.7959 19.0948C10.7239 19.5758 9.56237 19.8246 8.38752 19.8249ZM4.25289 10.6583C3.81117 10.6583 3.38754 10.8339 3.0752 11.1464C2.76286 11.459 2.58738 11.8829 2.58738 12.3249V16.4916C2.58738 16.9336 2.76286 17.3576 3.0752 17.6701C3.38754 17.9827 3.81117 18.1583 4.25289 18.1583H8.38752C9.3268 18.1579 10.2554 17.9589 11.1125 17.5743C11.9695 17.1897 12.7357 16.6282 13.3607 15.9266L19.0276 9.56161C19.1748 9.39577 19.2509 9.17873 19.2397 8.95725C19.2285 8.73577 19.1308 8.52755 18.9677 8.37744C18.8018 8.22821 18.5843 8.14959 18.3614 8.15827C18.2509 8.16295 18.1425 8.1896 18.0424 8.23668C17.9423 8.28375 17.8526 8.3503 17.7785 8.43244L14.0927 12.4916C13.9309 12.9397 13.6505 13.3355 13.2815 13.6367C12.9125 13.9378 12.4687 14.1331 11.9975 14.2016L7.69966 14.8166C7.48101 14.848 7.25886 14.7912 7.08207 14.6586C6.90529 14.5261 6.78835 14.3287 6.75699 14.1099C6.72562 13.8911 6.78241 13.6688 6.91484 13.4919C7.04727 13.315 7.24451 13.198 7.46316 13.1666L11.7618 12.5524C12.0005 12.5191 12.2175 12.3963 12.3692 12.2089C12.5208 12.0216 12.5957 11.7836 12.5788 11.5431C12.5619 11.3026 12.4544 11.0775 12.278 10.9132C12.1016 10.749 11.8695 10.6579 11.6286 10.6583H4.25289Z" fill="#081131"/>
<mask id="mask1_1868_11414" style="mask-type:alpha" maskUnits="userSpaceOnUse" x="-7" y="-8" width="31" height="19">
<rect width="28.0966" height="12.2237" transform="matrix(-0.980226 0.197879 -0.197615 -0.98028 23.4297 4.4823)" fill="#D9D9D9"/>
</mask>
<g mask="url(#mask1_1868_11414)">
<path d="M11.9425 12.413C13.1267 12.1739 14.2134 11.5889 15.0653 10.7318C15.9171 9.87468 16.4959 8.78405 16.7283 7.59779C16.9608 6.41154 16.8365 5.18294 16.3712 4.06737C15.9059 2.9518 15.1205 1.99936 14.1142 1.33048C13.108 0.661609 11.9262 0.306348 10.7182 0.309623C9.51015 0.312898 8.33025 0.674563 7.32765 1.34888C6.32505 2.0232 5.54479 2.97989 5.08553 4.09797C4.62627 5.21605 4.50864 6.4453 4.74752 7.63028C5.06946 9.21841 6.00781 10.6139 7.35668 11.5105C8.70555 12.4071 10.3548 12.7317 11.9425 12.413ZM9.72821 1.42885C10.715 1.22965 11.7387 1.32774 12.6697 1.71072C13.6008 2.0937 14.3975 2.74437 14.9591 3.58045C15.5206 4.41653 15.8218 5.40047 15.8245 6.40784C15.8272 7.41521 15.5314 8.40076 14.9744 9.23988C14.4174 10.079 13.6242 10.734 12.6952 11.122C11.7662 11.51 10.7431 11.6137 9.75526 11.4198C8.7674 11.226 7.85917 10.7433 7.14542 10.0329C6.43167 9.32255 5.94445 8.41632 5.74538 7.42884C5.47999 6.10482 5.75028 4.72952 6.49695 3.60468C7.24362 2.47985 8.40569 1.69734 9.72821 1.42885Z" fill="#081131"/>
</g>
</g>
<path d="M16.9682 6.5C16.9682 12.5 13.5082 10 10.4727 10C7.43729 10 4.97656 10.5 4.97656 8C4.97656 5.5 6.47552 1 10.4727 1C13.5082 1 16.9682 3.73858 16.9682 6.5Z" fill="#081131"/>
</svg>
