<svg width="20" height="20" viewBox="0 0 20 20" fill="none" xmlns="http://www.w3.org/2000/svg">
<path d="M13.4891 1.66663H6.50573C3.4724 1.66663 1.66406 3.47496 1.66406 6.50829V13.4833C1.66406 16.525 3.4724 18.3333 6.50573 18.3333H13.4807C16.5141 18.3333 18.3224 16.525 18.3224 13.4916V6.50829C18.3307 3.47496 16.5224 1.66663 13.4891 1.66663ZM14.0641 9.60829C14.0641 9.93329 13.8057 10.1916 13.4807 10.1916C13.1557 10.1916 12.8974 9.93329 12.8974 9.60829V9.45829L10.6307 11.725C10.5057 11.85 10.3391 11.9083 10.1641 11.8916C9.98906 11.875 9.83073 11.7833 9.73906 11.6333L8.88906 10.3666L6.90573 12.35C6.78906 12.4666 6.6474 12.5166 6.4974 12.5166C6.3474 12.5166 6.1974 12.4583 6.08906 12.35C5.86406 12.125 5.86406 11.7583 6.08906 11.525L8.5724 9.04163C8.6974 8.91663 8.86406 8.85829 9.03906 8.87496C9.21406 8.89163 9.3724 8.98329 9.46406 9.13329L10.3141 10.4L12.0724 8.64163H11.9224C11.5974 8.64163 11.3391 8.38329 11.3391 8.05829C11.3391 7.73329 11.5974 7.47496 11.9224 7.47496H13.4724C13.5474 7.47496 13.6224 7.49163 13.6974 7.51663C13.8391 7.57496 13.9557 7.69163 14.0141 7.83329C14.0474 7.90829 14.0557 7.98329 14.0557 8.05829V9.60829H14.0641Z" fill="#081131"/>
</svg>
