<svg width="20" height="22" viewBox="0 0 20 22" fill="none" xmlns="http://www.w3.org/2000/svg">
<mask id="mask0_1868_11480" style="mask-type:alpha" maskUnits="userSpaceOnUse" x="0" y="0" width="20" height="22">
<rect width="20" height="21.229" fill="black"/>
</mask>
<g mask="url(#mask0_1868_11480)">
<path d="M3.14132 12.6047C2.64686 12.6047 2.16351 12.4491 1.75239 12.1575C1.34127 11.8659 1.02084 11.4515 0.831617 10.9666C0.642398 10.4817 0.59289 9.94817 0.689353 9.43342C0.785816 8.91866 1.02392 8.44583 1.37355 8.07472C1.72318 7.7036 2.16864 7.45086 2.65359 7.34847C3.13854 7.24608 3.64121 7.29863 4.09802 7.49948C4.55484 7.70033 4.94529 8.04045 5.21999 8.47684C5.49469 8.91322 5.64132 9.42628 5.64132 9.95112C5.64132 10.6549 5.37792 11.3299 4.90908 11.8275C4.44024 12.3252 3.80436 12.6047 3.14132 12.6047ZM3.14132 7.73976C2.72927 7.73976 2.32648 7.86945 1.98388 8.11244C1.64128 8.35542 1.37425 8.70079 1.21657 9.10487C1.05888 9.50894 1.01763 9.95357 1.09801 10.3825C1.1784 10.8115 1.37682 11.2055 1.66818 11.5148C1.95954 11.824 2.33075 12.0347 2.73488 12.12C3.139 12.2053 3.55789 12.1615 3.93857 11.9941C4.31925 11.8268 4.64462 11.5433 4.87354 11.1797C5.10246 10.816 5.22465 10.3885 5.22465 9.95112C5.22465 9.36463 5.00516 8.80216 4.61446 8.38745C4.22375 7.97274 3.69385 7.73976 3.14132 7.73976Z" fill="#081131"/>
<path d="M13.9747 0.884644C13.1094 0.884644 12.2635 1.157 11.5441 1.66727C10.8246 2.17755 10.2639 2.90282 9.93273 3.75137C9.6016 4.59993 9.51496 5.53365 9.68377 6.43447C9.85258 7.33529 10.2693 8.16274 10.8811 8.8122C11.493 9.46165 12.2725 9.90394 13.1212 10.0831C13.9698 10.2623 14.8495 10.1703 15.6489 9.81886C16.4484 9.46738 17.1317 8.87216 17.6124 8.10849C18.0931 7.34481 18.3497 6.44697 18.3497 5.5285C18.3497 4.29687 17.8888 3.11569 17.0683 2.2448C16.2478 1.37391 15.135 0.884644 13.9747 0.884644ZM13.9747 8.84554C13.3566 8.84554 12.7524 8.651 12.2385 8.28652C11.7246 7.92204 11.3241 7.40398 11.0876 6.79787C10.8511 6.19176 10.7892 5.52482 10.9097 4.88138C11.0303 4.23793 11.328 3.64689 11.765 3.183C12.202 2.7191 12.7589 2.40318 13.365 2.2752C13.9712 2.14721 14.5996 2.21289 15.1706 2.46395C15.7416 2.71501 16.2297 3.14017 16.573 3.68565C16.9164 4.23113 17.0997 4.87245 17.0997 5.5285C17.0997 6.40823 16.7705 7.25193 16.1844 7.874C15.5984 8.49606 14.8035 8.84554 13.9747 8.84554Z" fill="#081131"/>
<path d="M18.686 10.8282L0.677348 14.4743C0.225261 14.5659 -0.0713219 15.0291 0.0149107 15.509C0.101143 15.9888 0.537537 16.3036 0.989624 16.2121L18.9983 12.566C19.4504 12.4745 19.747 12.0113 19.6607 11.5314C19.5745 11.0515 19.1381 10.7367 18.686 10.8282Z" fill="#081131"/>
<path d="M7.00307 20.4759H12.5256C12.6238 20.4765 12.72 20.4461 12.8018 20.3885C12.8836 20.3308 12.9475 20.2487 12.9851 20.1524C13.0228 20.0561 13.0326 19.9501 13.0133 19.8479C12.9939 19.7457 12.9464 19.6519 12.8767 19.5785L10.1129 16.6502C10.0203 16.5524 9.89497 16.4976 9.76435 16.4976C9.63374 16.4976 9.50843 16.5524 9.41579 16.6502L6.65204 19.5785C6.58232 19.6519 6.53476 19.7457 6.51545 19.8479C6.49613 19.9501 6.50593 20.0561 6.54358 20.1524C6.58124 20.2487 6.64506 20.3308 6.72689 20.3885C6.80872 20.4461 6.90487 20.4765 7.00307 20.4759Z" fill="#081131"/>
</g>
<ellipse cx="14" cy="5.30733" rx="4" ry="4.24581" fill="#081131"/>
</svg>
