<svg width="65" height="65" viewBox="0 0 65 65" fill="none" xmlns="http://www.w3.org/2000/svg">
<circle cx="32.5" cy="32.5" r="32.5" fill="#BDFFBC"/>
<path d="M19.6848 31.1334C19.0481 31.1352 18.4249 31.3172 17.8873 31.6584C17.3498 31.9996 16.9198 32.486 16.6471 33.0613C16.3744 33.6367 16.2703 34.2775 16.3466 34.9096C16.4229 35.5417 16.6767 36.1393 17.0785 36.6333L25.6438 47.1257C25.9492 47.5049 26.3406 47.8058 26.7857 48.0033C27.2307 48.2009 27.7164 48.2894 28.2025 48.2615C29.2421 48.2057 30.1808 47.6495 30.7792 46.7351L48.5715 18.0806C48.5744 18.0759 48.5775 18.0711 48.5806 18.0664C48.7475 17.8101 48.6934 17.3021 48.3488 16.983C48.2542 16.8954 48.1426 16.828 48.0209 16.7852C47.8992 16.7423 47.7701 16.7248 47.6414 16.7337C47.5127 16.7426 47.3872 16.7778 47.2726 16.8371C47.158 16.8963 47.0568 16.9784 46.9752 17.0783C46.9688 17.0861 46.9622 17.0939 46.9554 17.1015L29.0116 37.3753C28.9434 37.4524 28.8604 37.5152 28.7677 37.5601C28.6749 37.6049 28.5742 37.6309 28.4713 37.6364C28.3684 37.642 28.2655 37.6271 28.1684 37.5925C28.0714 37.5579 27.9822 37.5044 27.906 37.4351L21.9507 32.0158C21.3322 31.4488 20.5239 31.134 19.6848 31.1334Z" fill="#0ECB81"/>
</svg>
