<svg width="20" height="20" viewBox="0 0 20 20" fill="none" xmlns="http://www.w3.org/2000/svg">
<path d="M9.99997 5.4032C7.46125 5.4032 5.4032 7.46125 5.4032 9.99997C5.4032 12.5387 7.46125 14.5967 9.99997 14.5967C12.5387 14.5967 14.5967 12.5387 14.5967 9.99997C14.5967 7.46125 12.5387 5.4032 9.99997 5.4032Z" fill="#555A5F"/>
<path fill-rule="evenodd" clip-rule="evenodd" d="M10 2.5C10.4008 2.5 10.7258 2.82496 10.7258 3.22581V3.28146C10.7258 3.68231 10.4008 4.00727 10 4.00727C9.59917 4.00727 9.27417 3.68231 9.27417 3.28146V3.22581C9.27417 2.82496 9.59917 2.5 10 2.5ZM4.64805 4.64807C4.93149 4.36463 5.39105 4.36463 5.67449 4.64807L5.76249 4.73607C6.04593 5.01951 6.04593 5.47907 5.76249 5.76251C5.47904 6.04596 5.01949 6.04596 4.73604 5.76251L4.64805 5.67452C4.3646 5.39107 4.3646 4.93151 4.64805 4.64807ZM15.352 4.64807C15.6354 4.93152 15.6354 5.39107 15.352 5.67452L15.264 5.76251C14.9805 6.04596 14.521 6.04596 14.2375 5.76251C13.9541 5.47907 13.9541 5.01951 14.2375 4.73607L14.3255 4.64807C14.609 4.36463 15.0685 4.36463 15.352 4.64807ZM2.5 10C2.5 9.59917 2.82496 9.27417 3.22581 9.27417H3.28146C3.68231 9.27417 4.00727 9.59917 4.00727 10C4.00727 10.4008 3.68231 10.7258 3.28146 10.7258H3.22581C2.82496 10.7258 2.5 10.4008 2.5 10ZM15.9927 10C15.9927 9.59917 16.3177 9.27417 16.7186 9.27417H16.7742C17.1751 9.27417 17.5 9.59917 17.5 10C17.5 10.4008 17.1751 10.7258 16.7742 10.7258H16.7186C16.3177 10.7258 15.9927 10.4008 15.9927 10ZM14.2375 14.2376C14.5209 13.9541 14.9804 13.9541 15.2639 14.2375L15.3519 14.3254C15.6353 14.6088 15.6354 15.0684 15.352 15.3519C15.0686 15.6353 14.609 15.6354 14.3255 15.352L14.2376 15.264C13.9541 14.9806 13.9541 14.5211 14.2375 14.2376ZM5.76243 14.2375C6.04592 14.5209 6.04597 14.9804 5.76255 15.2639L5.67458 15.3519C5.39117 15.6354 4.93161 15.6354 4.64813 15.3521C4.36466 15.0687 4.3646 14.6091 4.64802 14.3256L4.73599 14.2376C5.0194 13.9541 5.47896 13.9541 5.76243 14.2375ZM10 15.9927C10.4008 15.9927 10.7258 16.3177 10.7258 16.7186V16.7742C10.7258 17.1751 10.4008 17.5 10 17.5C9.59917 17.5 9.27417 17.1751 9.27417 16.7742V16.7186C9.27417 16.3177 9.59917 15.9927 10 15.9927Z" fill="#555A5F"/>
</svg>
