<svg width="58" height="58" viewBox="0 0 58 58" fill="none" xmlns="http://www.w3.org/2000/svg">
<mask id="mask0_2008_32794" style="mask-type:alpha" maskUnits="userSpaceOnUse" x="2" y="0" width="58" height="58">
<rect x="2" width="58" height="58" fill="#D9D9D9"/>
</mask>
<g mask="url(#mask0_2008_32794)">
</g>
<g filter="url(#filter0_d_2008_32794)">
<rect x="7" y="7" width="48" height="44" rx="8" fill="#0088CC"/>
<path d="M28.8478 31.5451L28.517 36.0122C28.9903 36.0122 29.1953 35.817 29.4412 35.5827L31.6604 33.5467L36.2588 36.7794C37.1022 37.2306 37.6964 36.993 37.9239 36.0346L40.9423 22.4571L40.9431 22.4563C41.2106 21.2595 40.4923 20.7915 39.6706 21.0851L21.9285 27.6059C20.7176 28.0571 20.736 28.7051 21.7227 28.9987L26.2586 30.3531L36.7947 24.0243C37.2905 23.7091 37.7414 23.8835 37.3705 24.1987L28.8478 31.5451Z" fill="white"/>
<rect x="7.5" y="7.5" width="47" height="43" rx="7.5" stroke="#0088CC"/>
</g>
<defs>
<filter id="filter0_d_2008_32794" x="0" y="1" width="62" height="58" filterUnits="userSpaceOnUse" color-interpolation-filters="sRGB">
<feFlood flood-opacity="0" result="BackgroundImageFix"/>
<feColorMatrix in="SourceAlpha" type="matrix" values="0 0 0 0 0 0 0 0 0 0 0 0 0 0 0 0 0 0 127 0" result="hardAlpha"/>
<feOffset dy="1"/>
<feGaussianBlur stdDeviation="3.5"/>
<feColorMatrix type="matrix" values="0 0 0 0 0 0 0 0 0 0.533333 0 0 0 0 0.8 0 0 0 0.61 0"/>
<feBlend mode="normal" in2="BackgroundImageFix" result="effect1_dropShadow_2008_32794"/>
<feBlend mode="normal" in="SourceGraphic" in2="effect1_dropShadow_2008_32794" result="shape"/>
</filter>
</defs>
</svg>
