<svg width="58" height="58" viewBox="0 0 58 58" fill="none" xmlns="http://www.w3.org/2000/svg">
<mask id="mask0_1982_34261" style="mask-type:alpha" maskUnits="userSpaceOnUse" x="0" y="0" width="58" height="58">
<rect width="58" height="58" fill="#D9D9D9"/>
</mask>
<g mask="url(#mask0_1982_34261)">
</g>
<rect x="5.5" y="7.5" width="47" height="43" rx="7.5" fill="white"/>
<path d="M26.8478 31.5451L26.517 36.0122C26.9903 36.0122 27.1953 35.817 27.4412 35.5827L29.6604 33.5467L34.2588 36.7794C35.1022 37.2306 35.6964 36.993 35.9239 36.0346L38.9423 22.4571L38.9431 22.4563C39.2106 21.2595 38.4923 20.7915 37.6706 21.0851L19.9285 27.6059C18.7176 28.0571 18.736 28.7051 19.7227 28.9987L24.2586 30.3531L34.7947 24.0243C35.2905 23.7091 35.7414 23.8835 35.3705 24.1987L26.8478 31.5451Z" fill="#0088CC"/>
<rect x="5.5" y="7.5" width="47" height="43" rx="7.5" stroke="#ECECEC"/>
</svg>
