<svg width="24" height="24" viewBox="0 0 24 24" fill="none" xmlns="http://www.w3.org/2000/svg">
<g clip-path="url(#clip0_1254_29245)">
<path d="M20.7273 0H3.27273C1.46525 0 0 1.46525 0 3.27273V20.7273C0 22.5347 1.46525 24 3.27273 24H20.7273C22.5347 24 24 22.5347 24 20.7273V3.27273C24 1.46525 22.5347 0 20.7273 0Z" fill="#1C8ADB"/>
<path d="M18.5362 6.2043L18.288 6.2943L4.81802 11.1475C4.72256 11.177 4.6396 11.2374 4.58213 11.3191C4.52466 11.4008 4.49594 11.4993 4.50046 11.5991C4.50499 11.6989 4.5425 11.7944 4.60712 11.8706C4.67175 11.9468 4.75983 11.9994 4.85757 12.0202L8.34438 12.9748L8.99484 14.8838L9.64529 16.7929C9.68266 16.8865 9.7423 16.9696 9.81905 17.0349C9.8958 17.1002 9.98733 17.1458 10.0857 17.1677C10.184 17.1896 10.2863 17.1871 10.3835 17.1606C10.4807 17.134 10.5699 17.0841 10.6435 17.0152L12.4448 15.3134L15.9821 17.712C16.4144 18.0066 17.0307 17.7884 17.1412 17.3029L19.4839 6.95158C19.5985 6.43885 19.0585 6.01748 18.5362 6.2043ZM16.8167 8.50203L10.7307 13.4766L10.4444 13.7111C10.3815 13.761 10.3404 13.8334 10.3298 13.9129L10.2657 14.442L10.0898 15.9284C10.0913 15.9465 10.0855 15.9644 10.0737 15.9782C10.062 15.992 10.0452 16.0006 10.0271 16.002C10.009 16.0035 9.99111 15.9977 9.9773 15.9859C9.96349 15.9742 9.95492 15.9574 9.95347 15.9393L9.45847 14.4543L8.94711 12.9338C8.92548 12.8655 8.92836 12.7918 8.95524 12.7253C8.98212 12.6589 9.03132 12.6038 9.09438 12.5698L15.4271 8.93976L16.6189 8.25794C16.7921 8.15703 16.9694 8.37658 16.8167 8.50203Z" fill="white"/>
</g>
<defs>
<clipPath id="clip0_1254_29245">
<rect width="24" height="24" fill="white"/>
</clipPath>
</defs>
</svg>
