<svg width="157" height="122" viewBox="0 0 157 122" fill="none" xmlns="http://www.w3.org/2000/svg">
<path d="M156.47 46.6666H18.5243C18.2285 46.6603 17.9938 46.4154 18.0001 46.1197C18.0063 45.8329 18.2374 45.6018 18.5243 45.5957H156.47C156.766 45.602 157 45.8469 156.994 46.1426C156.988 46.4294 156.757 46.6605 156.47 46.6666Z" fill="#CACACA"/>
<path d="M109.46 64.71H71.3268C68.4626 64.71 66.1406 67.0312 66.1406 69.8946V69.8946C66.1406 72.7581 68.4626 75.0793 71.3268 75.0793H109.46C112.325 75.0793 114.647 72.7581 114.647 69.8946C114.647 67.0312 112.325 64.71 109.46 64.71Z" fill="#F5F5F5"/>
<path d="M46.6901 85.4492H134.093C136.957 85.4492 139.279 87.7705 139.279 90.6339C139.279 93.4973 136.957 95.8186 134.093 95.8186H46.6901C43.8259 95.8186 41.5039 93.4973 41.5039 90.6339C41.5039 87.7705 43.8259 85.4492 46.6901 85.4492Z" fill="#F5F5F5"/>
<path d="M69.8721 106H135.128C137.266 106 139 108.462 139 111.5C139 114.538 137.266 117 135.128 117H69.8721C67.7336 117 66 114.538 66 111.5C66 108.462 67.7336 106 69.8721 106Z" fill="#F5F5F5"/>
<path d="M58.4616 94.0879C58.4019 94.0899 58.3421 94.0912 58.2823 94.0928C58.2567 94.1592 58.2291 94.2249 58.1973 94.2895L58.4616 94.0879Z" fill="#2F2E41"/>
<path d="M60.4922 86.8887C60.5038 86.9616 60.5216 87.0334 60.5453 87.1034C60.5355 87.0301 60.5177 86.9581 60.4922 86.8887Z" fill="#2F2E41"/>
<path d="M25.5228 39.8833C26.9074 39.8833 28.0299 38.7361 28.0299 37.321C28.0299 35.9059 26.9074 34.7588 25.5228 34.7588C24.1381 34.7588 23.0156 35.9059 23.0156 37.321C23.0156 38.7361 24.1381 39.8833 25.5228 39.8833Z" fill="#3F3D56"/>
<path d="M34.1829 39.8833C35.5676 39.8833 36.6901 38.7361 36.6901 37.321C36.6901 35.9059 35.5676 34.7588 34.1829 34.7588C32.7983 34.7588 31.6758 35.9059 31.6758 37.321C31.6758 38.7361 32.7983 39.8833 34.1829 39.8833Z" fill="#3F3D56"/>
<path d="M42.845 39.8833C44.2297 39.8833 45.3522 38.7361 45.3522 37.321C45.3522 35.9059 44.2297 34.7588 42.845 34.7588C41.4604 34.7588 40.3379 35.9059 40.3379 37.321C40.3379 38.7361 41.4604 39.8833 42.845 39.8833Z" fill="#3F3D56"/>
<path d="M52.7206 39.346C52.6436 39.346 52.5667 39.3162 52.5087 39.2568L50.817 37.528C50.7042 37.4128 50.7042 37.2288 50.817 37.1136L52.5087 35.3849C52.6235 35.268 52.8114 35.2661 52.9279 35.3803C53.045 35.4947 53.047 35.6824 52.9325 35.7994L51.4437 37.3208L52.9325 38.8424C53.047 38.9593 53.045 39.147 52.9279 39.2615C52.8703 39.3179 52.7954 39.346 52.7206 39.346Z" fill="#3F3D56"/>
<path d="M55.5641 39.3462C55.4892 39.3462 55.4144 39.3181 55.3568 39.2617C55.2397 39.1472 55.2376 38.9597 55.3521 38.8426L56.8409 37.321L55.3521 35.7996C55.2376 35.6827 55.2397 35.495 55.3568 35.3805C55.4736 35.2659 55.6615 35.268 55.776 35.3851L57.4675 37.1138C57.5803 37.229 57.5803 37.4131 57.4675 37.5282L55.776 39.2571C55.7179 39.3164 55.6411 39.3462 55.5641 39.3462Z" fill="#3F3D56"/>
<path d="M144.062 35.0557H140.917C140.558 35.0557 140.268 35.3461 140.268 35.7047V38.8523C140.268 39.211 140.558 39.5014 140.917 39.5014H144.062C144.421 39.5014 144.715 39.211 144.715 38.8523V35.7047C144.715 35.3461 144.421 35.0557 144.062 35.0557Z" fill="#3F3D56"/>
<path d="M136.353 35.0557H133.208C132.849 35.0557 132.559 35.3461 132.559 35.7047V38.8523C132.559 39.211 132.849 39.5014 133.208 39.5014H136.353C136.712 39.5014 137.006 39.211 137.006 38.8523V35.7047C137.006 35.3461 136.712 35.0557 136.353 35.0557Z" fill="#3F3D56"/>
<path d="M151.326 35.2041H148.181C147.822 35.2041 147.531 35.4945 147.531 35.8532V39.0008C147.531 39.3594 147.822 39.6498 148.181 39.6498H151.326C151.685 39.6498 151.978 39.3594 151.978 39.0008V35.8532C151.978 35.4945 151.685 35.2041 151.326 35.2041Z" fill="#3F3D56"/>
<path d="M103.914 36.4014H78.7701C78.3313 36.4014 77.9785 36.757 77.9785 37.1927C77.9785 37.6284 78.3313 37.9841 78.7701 37.9841H103.914C104.35 37.9841 104.705 37.6284 104.705 37.1927C104.705 36.757 104.35 36.4014 103.914 36.4014Z" fill="#3F3D56"/>
<path opacity="0.4" d="M43.4942 98.2396C41.827 96.3554 39.7535 94.8747 37.4303 93.9092C35.1071 92.9437 32.5949 92.5187 30.0833 92.6663H17.4167C4.56 92.6663 0 102.071 0 110.146C0 117.366 3.83167 121.166 11.0833 121.166H34.01C34.1751 121.164 34.3367 121.119 34.4791 121.035C34.6214 120.952 34.7394 120.832 34.8216 120.689C34.9037 120.546 34.9471 120.384 34.9475 120.219C34.9479 120.054 34.9053 119.891 34.8238 119.748C33.8851 117.92 33.3526 115.911 33.2629 113.859C33.1731 111.806 33.5283 109.759 34.304 107.856C35.0797 105.954 36.2576 104.241 37.757 102.837C39.2564 101.432 41.0417 100.368 42.9907 99.7185C43.1384 99.6764 43.2737 99.5992 43.385 99.4934C43.4963 99.3876 43.5803 99.2563 43.6298 99.111C43.6793 98.9656 43.6929 98.8104 43.6692 98.6586C43.6456 98.5068 43.5855 98.3631 43.4942 98.2396Z" fill="#FFA500"/>
<path d="M23.778 86.3333C30.7736 86.3333 36.4447 80.6623 36.4447 73.6667C36.4447 66.6711 30.7736 61 23.778 61C16.7824 61 11.1113 66.6711 11.1113 73.6667C11.1113 80.6623 16.7824 86.3333 23.778 86.3333Z" fill="#FFA500"/>
<path d="M46.9703 120.904C46.6584 120.904 46.3496 120.842 46.0616 120.723C45.7736 120.603 45.5121 120.428 45.2919 120.207L41.0708 115.986C40.8495 115.766 40.6739 115.504 40.5538 115.215C40.4338 114.927 40.3717 114.618 40.3711 114.306C40.3699 113.675 40.6193 113.07 41.0644 112.623C41.5096 112.176 42.1139 111.925 42.7446 111.923C43.3753 111.922 43.9806 112.172 44.4274 112.617L46.9608 115.15L53.7374 108.405C54.1877 107.985 54.7831 107.757 55.3984 107.768C56.0137 107.779 56.6008 108.028 57.0359 108.463C57.471 108.898 57.7203 109.485 57.7312 110.101C57.742 110.716 57.5136 111.311 57.0941 111.762L48.6486 120.217C48.4277 120.436 48.1658 120.609 47.8778 120.727C47.5898 120.845 47.2814 120.905 46.9703 120.904Z" fill="#FFA500"/>
<path d="M76.8568 1.30322L78.5421 6.27929L83.3274 4.11069L79.1156 7.25123L82.6568 11.1322L78.3685 8.09705L75.7718 12.6642L77.3332 7.64786L72.1872 6.58958L77.4405 6.52442L76.8568 1.30322Z" fill="#F5F5F5"/>
</svg>
