<svg width="44" height="44" viewBox="0 0 44 44" fill="none" xmlns="http://www.w3.org/2000/svg">
<rect x="0.5" y="0.5" width="43" height="43" rx="21.5" fill="#1D9BF0"/>
<rect x="0.5" y="0.5" width="43" height="43" rx="21.5" stroke="#1D9BF0"/>
<path d="M17.53 31.5147C26.5926 31.5147 31.5479 24.0051 31.5479 17.4968C31.5479 17.2822 31.5479 17.0677 31.5377 16.8633C32.4981 16.1686 33.3359 15.3001 34 14.3091C33.1213 14.6973 32.1711 14.963 31.1699 15.0856C32.1916 14.4725 32.9681 13.5121 33.3359 12.3576C32.3857 12.9195 31.3333 13.3282 30.2094 13.553C29.3103 12.5926 28.0332 12 26.613 12C23.8953 12 21.6884 14.2069 21.6884 16.9246C21.6884 17.3129 21.7292 17.6909 21.8212 18.0485C17.7241 17.8442 14.0971 15.8825 11.6654 12.8991C11.2465 13.6245 11.0013 14.4725 11.0013 15.3716C11.0013 17.0779 11.8697 18.59 13.198 19.4687C12.3908 19.4483 11.6347 19.2235 10.9706 18.8557C10.9706 18.8761 10.9706 18.8966 10.9706 18.917C10.9706 21.3078 12.6667 23.2899 14.9246 23.7497C14.516 23.8621 14.0766 23.9234 13.6271 23.9234C13.3103 23.9234 13.0038 23.8927 12.6973 23.8314C13.3206 25.7931 15.1392 27.2133 17.295 27.2542C15.6092 28.5722 13.484 29.3589 11.175 29.3589C10.7765 29.3589 10.3883 29.3384 10 29.2874C12.1558 30.6973 14.751 31.5147 17.53 31.5147Z" fill="white"/>
</svg>
