<svg width="60" height="60" viewBox="0 0 60 60" fill="none" xmlns="http://www.w3.org/2000/svg">
<path d="M30 60C46.5685 60 60 46.5685 60 30C60 13.4315 46.5685 0 30 0C13.4315 0 0 13.4315 0 30C0 46.5685 13.4315 60 30 60Z" fill="#FAFAFA" fill-opacity="0.980392"/>
<path d="M19.9129 35.7874C19.6754 35.7874 19.4379 35.6999 19.2504 35.5124C18.8879 35.1499 18.8879 34.5499 19.2504 34.1874L34.1879 19.2499C34.5504 18.8874 35.1504 18.8874 35.5129 19.2499C35.8754 19.6124 35.8754 20.2124 35.5129 20.5749L20.5754 35.5249C20.4004 35.6999 20.1504 35.7874 19.9129 35.7874Z" fill="#71839B"/>
<path d="M28.8758 38.7874C28.6383 38.7874 28.4008 38.6999 28.2133 38.5124C27.8508 38.1499 27.8508 37.5499 28.2133 37.1874L29.7133 35.6874C30.0758 35.3249 30.6758 35.3249 31.0383 35.6874C31.4008 36.0499 31.4008 36.6499 31.0383 37.0124L29.5383 38.5124C29.3633 38.6874 29.1258 38.7874 28.8758 38.7874Z" fill="#71839B"/>
<path d="M32.2371 35.4248C31.9996 35.4248 31.7621 35.3373 31.5746 35.1498C31.2121 34.7873 31.2121 34.1873 31.5746 33.8248L34.5621 30.8373C34.9246 30.4748 35.5246 30.4748 35.8871 30.8373C36.2496 31.1998 36.2496 31.7998 35.8871 32.1623L32.8996 35.1498C32.7246 35.3248 32.4746 35.4248 32.2371 35.4248Z" fill="#71839B"/>
<path d="M28.8746 43.4376C27.6496 43.4376 26.4246 42.6876 24.9371 41.2001L18.7996 35.0626C15.8121 32.0751 15.8246 30.1501 18.8371 27.1376L27.1371 18.8376C30.1496 15.8251 32.0746 15.8126 35.0621 18.8001L41.1996 24.9376C44.1871 27.9251 44.1746 29.8501 41.1621 32.8626L32.8621 41.1626C31.3496 42.6751 30.1121 43.4376 28.8746 43.4376ZM31.1246 18.4376C30.4746 18.4376 29.6496 18.9751 28.4621 20.1626L20.1621 28.4626C18.9746 29.6501 18.4371 30.4751 18.4371 31.1126C18.4371 31.7626 18.9371 32.5501 20.1246 33.7376L26.2621 39.8751C27.4496 41.0626 28.2246 41.5626 28.8746 41.5626C28.8746 41.5626 28.8746 41.5626 28.8871 41.5626C29.5371 41.5626 30.3496 41.0251 31.5371 39.8376L39.8372 31.5376C41.0246 30.3501 41.5621 29.5251 41.5621 28.8876C41.5621 28.2376 41.0621 27.4501 39.8746 26.2626L33.7371 20.1251C32.5621 18.9376 31.7746 18.4376 31.1246 18.4376Z" fill="#71839B"/>
<path d="M42.5 43.4375H17.5C16.9875 43.4375 16.5625 43.0125 16.5625 42.5C16.5625 41.9875 16.9875 41.5625 17.5 41.5625H42.5C43.0125 41.5625 43.4375 41.9875 43.4375 42.5C43.4375 43.0125 43.0125 43.4375 42.5 43.4375Z" fill="#71839B"/>
</svg>
