<svg width="60" height="60" viewBox="0 0 60 60" fill="none" xmlns="http://www.w3.org/2000/svg">
<path d="M30 60C46.5685 60 60 46.5685 60 30C60 13.4315 46.5685 0 30 0C13.4315 0 0 13.4315 0 30C0 46.5685 13.4315 60 30 60Z" fill="#FAFAFA" fill-opacity="0.980392"/>
<path d="M29.9999 31.6251C29.8374 31.6251 29.6749 31.5876 29.5249 31.5001L18.4874 25.1126C18.0499 24.8501 17.8874 24.2751 18.1499 23.8251C18.4124 23.3751 18.9874 23.2251 19.4374 23.4876L29.9999 29.6001L40.4999 23.5251C40.9499 23.2626 41.5249 23.4251 41.7874 23.8626C42.0499 24.3126 41.8874 24.8876 41.4499 25.1501L30.4874 31.5001C30.3249 31.5751 30.1624 31.6251 29.9999 31.6251Z" fill="#71839B"/>
<path d="M30 42.9498C29.4875 42.9498 29.0625 42.5248 29.0625 42.0123V30.6748C29.0625 30.1623 29.4875 29.7373 30 29.7373C30.5125 29.7373 30.9375 30.1623 30.9375 30.6748V42.0123C30.9375 42.5248 30.5125 42.9498 30 42.9498Z" fill="#71839B"/>
<path d="M30.0008 43.4375C28.9008 43.4375 27.8133 43.2 26.9508 42.725L20.2758 39.0125C18.4633 38.0125 17.0508 35.6 17.0508 33.525V26.4625C17.0508 24.3875 18.4633 21.9875 20.2758 20.975L26.9508 17.275C28.6633 16.325 31.3383 16.325 33.0508 17.275L39.7258 20.9875C41.5383 21.9875 42.9508 24.4 42.9508 26.475V33.5375C42.9508 35.6125 41.5383 38.0125 39.7258 39.025L33.0508 42.725C32.1883 43.2 31.1008 43.4375 30.0008 43.4375ZM30.0008 18.4375C29.2133 18.4375 28.4383 18.6 27.8633 18.9125L21.1883 22.625C19.9883 23.2875 18.9258 25.0875 18.9258 26.4625V33.525C18.9258 34.9 19.9883 36.7 21.1883 37.375L27.8633 41.0875C29.0008 41.725 31.0008 41.725 32.1383 41.0875L38.8133 37.375C40.0133 36.7 41.0758 34.9125 41.0758 33.525V26.4625C41.0758 25.0875 40.0133 23.2875 38.8133 22.6125L32.1383 18.9C31.5633 18.6 30.7883 18.4375 30.0008 18.4375Z" fill="#71839B"/>
</svg>
