<svg width="40" height="40" viewBox="0 0 40 40" fill="none" xmlns="http://www.w3.org/2000/svg">
<path opacity="0.4" d="M35 11.6663V28.333C35 33.333 32.5 36.6663 26.6667 36.6663H13.3333C7.5 36.6663 5 33.333 5 28.333V11.6663C5 6.66634 7.5 3.33301 13.3333 3.33301H26.6667C32.5 3.33301 35 6.66634 35 11.6663Z" fill="#FFA500"/>
<path d="M30.8327 15.4167H27.4993C24.966 15.4167 22.916 13.3667 22.916 10.8333V7.5C22.916 6.81667 23.4827 6.25 24.166 6.25C24.8493 6.25 25.416 6.81667 25.416 7.5V10.8333C25.416 11.9833 26.3493 12.9167 27.4993 12.9167H30.8327C31.516 12.9167 32.0827 13.4833 32.0827 14.1667C32.0827 14.85 31.516 15.4167 30.8327 15.4167Z" fill="#FFA500"/>
<path d="M20.0007 22.917H13.334C12.6507 22.917 12.084 22.3503 12.084 21.667C12.084 20.9837 12.6507 20.417 13.334 20.417H20.0007C20.684 20.417 21.2507 20.9837 21.2507 21.667C21.2507 22.3503 20.684 22.917 20.0007 22.917Z" fill="#FFA500"/>
<path d="M26.6673 29.583H13.334C12.6507 29.583 12.084 29.0163 12.084 28.333C12.084 27.6497 12.6507 27.083 13.334 27.083H26.6673C27.3507 27.083 27.9173 27.6497 27.9173 28.333C27.9173 29.0163 27.3507 29.583 26.6673 29.583Z" fill="#FFA500"/>
</svg>
