<svg width="15" height="15" viewBox="0 0 15 15" fill="none" xmlns="http://www.w3.org/2000/svg">
<path d="M7.5 9.0625C7.9144 9.0625 8.31183 8.89788 8.60485 8.60485C8.89788 8.31183 9.0625 7.9144 9.0625 7.5C9.0625 7.0856 8.89788 6.68817 8.60485 6.39515C8.31183 6.10212 7.9144 5.9375 7.5 5.9375C7.0856 5.9375 6.68817 6.10212 6.39515 6.39515C6.10212 6.68817 5.9375 7.0856 5.9375 7.5C5.9375 7.9144 6.10212 8.31183 6.39515 8.60485C6.68817 8.89788 7.0856 9.0625 7.5 9.0625Z" fill="#71839B"/>
<path fill-rule="evenodd" clip-rule="evenodd" d="M4.09687 3.94372L0.625 7.49997L4.09687 11.0562C4.53822 11.5129 5.06697 11.8761 5.65163 12.1242C6.23629 12.3722 6.8649 12.5001 7.5 12.5001C8.1351 12.5001 8.76371 12.3722 9.34837 12.1242C9.93303 11.8761 10.4618 11.5129 10.9031 11.0562L14.375 7.49997L10.9031 3.94372C10.4618 3.48701 9.93303 3.12382 9.34837 2.87577C8.76371 2.62771 8.1351 2.49988 7.5 2.49988C6.8649 2.49988 6.23629 2.62771 5.65163 2.87577C5.06697 3.12382 4.53822 3.48701 4.09687 3.94372ZM10.625 7.49997C10.625 8.32877 10.2958 9.12362 9.70971 9.70967C9.12366 10.2957 8.3288 10.625 7.5 10.625C6.6712 10.625 5.87634 10.2957 5.29029 9.70967C4.70424 9.12362 4.375 8.32877 4.375 7.49997C4.375 6.67116 4.70424 5.87631 5.29029 5.29026C5.87634 4.70421 6.6712 4.37497 7.5 4.37497C8.3288 4.37497 9.12366 4.70421 9.70971 5.29026C10.2958 5.87631 10.625 6.67116 10.625 7.49997Z" fill="#71839B"/>
</svg>
