<svg width="20" height="20" viewBox="0 0 20 20" fill="none" xmlns="http://www.w3.org/2000/svg">
<path d="M18.2672 13.9575C17.9922 16.1742 16.1755 17.9908 13.9589 18.2658C12.6172 18.4325 11.3672 18.0658 10.3922 17.3492C9.83387 16.9408 9.9672 16.0742 10.6339 15.8742C11.8719 15.4959 12.9982 14.8193 13.9136 13.9039C14.829 12.9885 15.5056 11.8622 15.8839 10.6242C16.0839 9.96583 16.9505 9.8325 17.3589 10.3825C18.1047 11.4156 18.4294 12.6937 18.2672 13.9575V13.9575Z" fill="#FFA500"/>
<path d="M8.32435 1.66667C4.64935 1.66667 1.66602 4.65 1.66602 8.325C1.66602 12 4.64935 14.9833 8.32435 14.9833C11.9993 14.9833 14.9827 12 14.9827 8.325C14.9743 4.65 11.9993 1.66667 8.32435 1.66667ZM7.54102 7.39167L9.54935 8.09167C10.2743 8.35 10.6243 8.85834 10.6243 9.64167C10.6243 10.5417 9.90768 11.2833 9.03268 11.2833H8.95768V11.325C8.95768 11.6667 8.67435 11.95 8.33268 11.95C7.99102 11.95 7.70768 11.6667 7.70768 11.325V11.275C6.78268 11.2333 6.04102 10.4583 6.04102 9.49167C6.04102 9.15001 6.32435 8.86667 6.66602 8.86667C7.00768 8.86667 7.29102 9.15001 7.29102 9.49167C7.29102 9.79167 7.50768 10.0333 7.77435 10.0333H9.02435C9.21602 10.0333 9.36602 9.85834 9.36602 9.64167C9.36602 9.35 9.31602 9.33334 9.12435 9.26667L7.11602 8.56667C6.39935 8.31667 6.04102 7.80834 6.04102 7.01667C6.04102 6.11667 6.75768 5.375 7.63268 5.375H7.70768V5.34167C7.70768 5 7.99102 4.71667 8.33268 4.71667C8.67435 4.71667 8.95768 5 8.95768 5.34167V5.39167C9.88268 5.43334 10.6243 6.20834 10.6243 7.175C10.6243 7.51667 10.341 7.8 9.99935 7.8C9.65768 7.8 9.37435 7.51667 9.37435 7.175C9.37435 6.875 9.15768 6.63334 8.89102 6.63334H7.64102C7.44935 6.63334 7.29935 6.80834 7.29935 7.02501C7.29102 7.30834 7.34102 7.325 7.54102 7.39167V7.39167Z" fill="#FFA500"/>
</svg>
