<svg width="35" height="35" viewBox="0 0 35 35" fill="none" xmlns="http://www.w3.org/2000/svg">
<path d="M11 24.7336C11 22.9635 12.316 21.4557 14.1045 21.1767C16.3539 20.8258 18.6461 20.8258 20.8955 21.1767C22.684 21.4557 24 22.9635 24 24.7336V25.1255C24 26.1608 23.1413 27 22.0821 27H12.9179C11.8587 27 11 26.1608 11 25.1255V24.7336Z" stroke="#FFA500" stroke-width="1.5"/>
<path d="M21.2917 12.7059C21.2917 14.7526 19.5941 16.4118 17.5 16.4118C15.4059 16.4118 13.7083 14.7526 13.7083 12.7059C13.7083 10.6592 15.4059 9 17.5 9C19.5941 9 21.2917 10.6592 21.2917 12.7059Z" stroke="#FFA500" stroke-width="1.5"/>
<path d="M33 9.44444C33 5.88528 29.1447 3 24.3889 3M2 23.9444C2 28.3934 5.08426 32 8.88889 32M8.88889 3C5.08426 3 2 5.88528 2 9.44444M24.3889 32C29.1447 32 33 28.3934 33 23.9444" stroke="#FFA500" stroke-opacity="0.5" stroke-width="1.5" stroke-linecap="round"/>
</svg>
