<svg width="40" height="40" viewBox="0 0 40 40" fill="none" xmlns="http://www.w3.org/2000/svg">
<path d="M30.0007 21.667C28.434 21.667 26.984 22.217 25.834 23.1337C24.3007 24.3503 23.334 26.2337 23.334 28.3337C23.334 29.5837 23.684 30.767 24.3006 31.767C25.4506 33.7003 27.5673 35.0003 30.0007 35.0003C31.684 35.0003 33.2173 34.3837 34.384 33.3337C34.9007 32.9003 35.3507 32.367 35.7007 31.767C36.3173 30.767 36.6673 29.5837 36.6673 28.3337C36.6673 24.6503 33.684 21.667 30.0007 21.667ZM33.4507 27.617L29.9007 30.9003C29.6673 31.117 29.3506 31.2336 29.0506 31.2336C28.734 31.2336 28.4173 31.117 28.1673 30.867L26.5173 29.217C26.034 28.7337 26.034 27.9336 26.5173 27.4503C27.0007 26.9669 27.8007 26.9669 28.284 27.4503L29.084 28.2503L31.7506 25.7836C32.2506 25.3169 33.0506 25.3503 33.5173 25.8503C33.984 26.3503 33.9507 27.1337 33.4507 27.617Z" fill="#FFA500"/>
<path opacity="0.4" d="M35.1496 35.833C35.1496 36.2997 34.7829 36.6663 34.3163 36.6663H5.68294C5.21628 36.6663 4.84961 36.2997 4.84961 35.833C4.84961 28.933 11.6496 23.333 19.9996 23.333C21.7163 23.333 23.383 23.5663 24.9163 24.0163C23.933 25.183 23.3329 26.6997 23.3329 28.333C23.3329 29.583 23.6829 30.7663 24.2996 31.7663C24.6329 32.333 25.0663 32.8496 25.5663 33.283C26.7329 34.3496 28.2829 34.9997 29.9996 34.9997C31.8663 34.9997 33.5496 34.233 34.7496 32.9997C35.0163 33.8997 35.1496 34.8497 35.1496 35.833Z" fill="#FFA500"/>
<path d="M19.9993 19.9997C24.6017 19.9997 28.3327 16.2687 28.3327 11.6663C28.3327 7.06397 24.6017 3.33301 19.9993 3.33301C15.397 3.33301 11.666 7.06397 11.666 11.6663C11.666 16.2687 15.397 19.9997 19.9993 19.9997Z" fill="#FFA500"/>
</svg>
