<svg width="50" height="50" viewBox="0 0 50 50" fill="none" xmlns="http://www.w3.org/2000/svg">
<path d="M31.5977 24.2158L23.2918 18.178C22.987 17.9571 22.5823 17.9238 22.2482 18.0955C21.9115 18.2659 21.7012 18.612 21.7012 18.986V31.0575C21.7012 31.4355 21.9115 31.7802 22.2482 31.9506C22.3907 32.0225 22.5464 32.0584 22.7035 32.0584C22.9085 32.0584 23.1161 31.9932 23.2918 31.8641L31.5977 25.8317C31.8599 25.6387 32.013 25.3405 32.013 25.0237C32.0143 24.7016 31.8572 24.4048 31.5977 24.2158Z" fill="#FFBB3F"/>
<path d="M25.0007 5C13.9528 5 5 13.9528 5 25.0007C5 36.0446 13.9528 44.9947 25.0007 44.9947C36.0459 44.9947 45 36.0432 45 25.0007C45.0013 13.9528 36.0459 5 25.0007 5ZM25.0007 41.6577C15.8003 41.6577 8.34099 34.2024 8.34099 25.0007C8.34099 15.803 15.8003 8.33832 25.0007 8.33832C34.1997 8.33832 41.6577 15.8016 41.6577 25.0007C41.659 34.2024 34.1997 41.6577 25.0007 41.6577Z" fill="#FFBB3F"/>
</svg>
