<svg xmlns="http://www.w3.org/2000/svg" xmlns:xlink="http://www.w3.org/1999/xlink" width="17" height="17" viewBox="0 0 17 17">
  <defs>
    <clipPath id="clip-path">
      <rect id="Rectangle_19227" data-name="Rectangle 19227" width="17" height="17" transform="translate(-1638 15378)" fill="#6e3333" opacity="0.33"/>
    </clipPath>
  </defs>
  <g id="Mask_Group_239" data-name="Mask Group 239" transform="translate(1638 -15378)" clip-path="url(#clip-path)">
    <path id="Path_43595" data-name="Path 43595" d="M103.584,645.887a1.365,1.365,0,0,0-1.492.3l-1.77,1.77-3.139-3.139a1.368,1.368,0,0,0-1.936,0l-3.139,3.139-1.77-1.77a1.369,1.369,0,0,0-2.337.968V654.4a3.428,3.428,0,0,0,3.423,3.423h9.584a3.427,3.427,0,0,0,3.423-3.423v-7.247a1.368,1.368,0,0,0-.845-1.265Zm-.524,8.512a2.054,2.054,0,0,1-2.054,2.054H91.423a2.054,2.054,0,0,1-2.054-2.054v-7.247l2.254,2.254a.686.686,0,0,0,.968,0l3.623-3.623,3.623,3.623a.686.686,0,0,0,.968,0l2.254-2.254Z" transform="translate(-1725.7 14735.086)" fill="#777e90" stroke="#777e90" stroke-width="0.3"/>
  </g>
</svg>
