<svg width="58" height="58" viewBox="0 0 58 58" fill="none" xmlns="http://www.w3.org/2000/svg">
<mask id="mask0_2018_33494" style="mask-type:alpha" maskUnits="userSpaceOnUse" x="0" y="0" width="58" height="58">
<rect width="58" height="58" fill="#D9D9D9"/>
</mask>
<g mask="url(#mask0_2018_33494)">
</g>
<rect x="5.5" y="7.5" width="47" height="43" rx="7.5" fill="white"/>
<path d="M19.0391 39L20.4453 33.8633C19.5781 32.3633 19.125 30.6562 19.125 28.9102C19.125 23.4453 23.5742 19 29.0391 19C31.6914 19 34.1797 20.0352 36.0508 21.9062C37.9219 23.7812 38.9531 26.2695 38.9531 28.918C38.9492 34.3828 34.5039 38.8281 29.0391 38.8281H29.0352C27.375 38.8281 25.7461 38.4102 24.2969 37.6211L19.0391 39ZM24.5391 35.8281L24.8398 36.0078C26.1055 36.7578 27.5547 37.1562 29.0352 37.1562H29.0391C33.582 37.1562 37.2773 33.4609 37.2773 28.918C37.2773 26.7188 36.4219 24.6484 34.8672 23.0898C33.3125 21.5312 31.2422 20.6758 29.043 20.6758C24.4961 20.6758 20.8008 24.3711 20.8008 28.9141C20.8008 30.4688 21.2344 31.9844 22.0586 33.2969L22.2539 33.6094L21.4219 36.6484L24.5391 35.8281Z" fill="url(#paint0_linear_2018_33494)"/>
<path fill-rule="evenodd" clip-rule="evenodd" d="M26.5625 24.7666C26.375 24.3525 26.1797 24.3447 26.0039 24.3369C25.8594 24.3291 25.6953 24.333 25.5273 24.333C25.3633 24.333 25.0938 24.3955 24.8672 24.6416C24.6406 24.8877 24 25.4893 24 26.708C24 27.9268 24.8867 29.1064 25.0117 29.2705C25.1367 29.4346 26.7266 32.0166 29.2422 33.0088C31.3359 33.833 31.7617 33.6689 32.2148 33.6299C32.668 33.5908 33.6797 33.0322 33.8867 32.4541C34.0938 31.876 34.0938 31.3799 34.0313 31.2783C33.9688 31.1768 33.8047 31.1143 33.5547 30.9893C33.3086 30.8643 32.0898 30.2666 31.8633 30.1846C31.6367 30.1025 31.4727 30.0596 31.3047 30.3096C31.1406 30.5557 30.6641 31.1143 30.5195 31.2783C30.375 31.4424 30.2305 31.4658 29.9844 31.3408C29.7383 31.2158 28.9375 30.9541 27.9922 30.1104C27.2539 29.4541 26.7578 28.6416 26.6133 28.3955C26.4688 28.1494 26.5977 28.0127 26.7227 27.8916C26.832 27.7822 26.9688 27.6025 27.0938 27.458C27.2188 27.3135 27.2578 27.2119 27.3398 27.0439C27.4219 26.8799 27.3828 26.7354 27.3203 26.6104C27.2656 26.4814 26.7852 25.2588 26.5625 24.7666Z" fill="url(#paint1_linear_2018_33494)"/>
<rect x="5.5" y="7.5" width="47" height="43" rx="7.5" stroke="#ECECEC"/>
<defs>
<linearGradient id="paint0_linear_2018_33494" x1="28.996" y1="39.0017" x2="28.996" y2="18.9986" gradientUnits="userSpaceOnUse">
<stop stop-color="#20B038"/>
<stop offset="1" stop-color="#60D66A"/>
</linearGradient>
<linearGradient id="paint1_linear_2018_33494" x1="29.0338" y1="33.6702" x2="29.0338" y2="24.3314" gradientUnits="userSpaceOnUse">
<stop stop-color="#20B038"/>
<stop offset="0.0001" stop-color="#20B038"/>
<stop offset="1" stop-color="#60D66A"/>
</linearGradient>
</defs>
</svg>
