<svg width="58" height="58" viewBox="0 0 58 58" fill="none" xmlns="http://www.w3.org/2000/svg">
<mask id="mask0_2018_33509" style="mask-type:alpha" maskUnits="userSpaceOnUse" x="2" y="0" width="58" height="58">
<rect x="2" width="58" height="58" fill="#D9D9D9"/>
</mask>
<g mask="url(#mask0_2018_33509)">
</g>
<g filter="url(#filter0_d_2018_33509)">
<rect x="7" y="7" width="48" height="44" rx="8" fill="url(#paint0_linear_2018_33509)"/>
<path d="M21.0391 39L22.4453 33.8633C21.5781 32.3633 21.125 30.6562 21.125 28.9102C21.125 23.4453 25.5742 19 31.0391 19C33.6914 19 36.1797 20.0352 38.0508 21.9062C39.9219 23.7812 40.9531 26.2695 40.9531 28.918C40.9492 34.3828 36.5039 38.8281 31.0391 38.8281H31.0352C29.375 38.8281 27.7461 38.4102 26.2969 37.6211L21.0391 39ZM26.5391 35.8281L26.8398 36.0078C28.1055 36.7578 29.5547 37.1562 31.0352 37.1562H31.0391C35.582 37.1562 39.2773 33.4609 39.2773 28.918C39.2773 26.7188 38.4219 24.6484 36.8672 23.0898C35.3125 21.5312 33.2422 20.6758 31.043 20.6758C26.4961 20.6758 22.8008 24.3711 22.8008 28.9141C22.8008 30.4688 23.2344 31.9844 24.0586 33.2969L24.2539 33.6094L23.4219 36.6484L26.5391 35.8281Z" fill="white"/>
<path fill-rule="evenodd" clip-rule="evenodd" d="M28.5625 24.7666C28.375 24.3525 28.1797 24.3447 28.0039 24.3369C27.8594 24.3291 27.6953 24.333 27.5273 24.333C27.3633 24.333 27.0938 24.3955 26.8672 24.6416C26.6406 24.8877 26 25.4893 26 26.708C26 27.9268 26.8867 29.1064 27.0117 29.2705C27.1367 29.4346 28.7266 32.0166 31.2422 33.0088C33.3359 33.833 33.7617 33.6689 34.2148 33.6299C34.668 33.5908 35.6797 33.0322 35.8867 32.4541C36.0938 31.876 36.0938 31.3799 36.0313 31.2783C35.9688 31.1768 35.8047 31.1143 35.5547 30.9893C35.3086 30.8643 34.0898 30.2666 33.8633 30.1846C33.6367 30.1025 33.4727 30.0596 33.3047 30.3096C33.1406 30.5557 32.6641 31.1143 32.5195 31.2783C32.375 31.4424 32.2305 31.4658 31.9844 31.3408C31.7383 31.2158 30.9375 30.9541 29.9922 30.1104C29.2539 29.4541 28.7578 28.6416 28.6133 28.3955C28.4688 28.1494 28.5977 28.0127 28.7227 27.8916C28.832 27.7822 28.9688 27.6025 29.0938 27.458C29.2188 27.3135 29.2578 27.2119 29.3398 27.0439C29.4219 26.8799 29.3828 26.7354 29.3203 26.6104C29.2656 26.4814 28.7852 25.2588 28.5625 24.7666Z" fill="white"/>
<rect x="7.5" y="7.5" width="47" height="43" rx="7.5" stroke="#0088CC"/>
</g>
<defs>
<filter id="filter0_d_2018_33509" x="0" y="1" width="62" height="58" filterUnits="userSpaceOnUse" color-interpolation-filters="sRGB">
<feFlood flood-opacity="0" result="BackgroundImageFix"/>
<feColorMatrix in="SourceAlpha" type="matrix" values="0 0 0 0 0 0 0 0 0 0 0 0 0 0 0 0 0 0 127 0" result="hardAlpha"/>
<feOffset dy="1"/>
<feGaussianBlur stdDeviation="3.5"/>
<feColorMatrix type="matrix" values="0 0 0 0 0.12549 0 0 0 0 0.690196 0 0 0 0 0.219608 0 0 0 0.61 0"/>
<feBlend mode="normal" in2="BackgroundImageFix" result="effect1_dropShadow_2018_33509"/>
<feBlend mode="normal" in="SourceGraphic" in2="effect1_dropShadow_2018_33509" result="shape"/>
</filter>
<linearGradient id="paint0_linear_2018_33509" x1="31" y1="7" x2="31" y2="51" gradientUnits="userSpaceOnUse">
<stop stop-color="#20B038"/>
<stop offset="1" stop-color="#60D66A" stop-opacity="0"/>
</linearGradient>
</defs>
</svg>
