<svg width="30" height="30" viewBox="0 0 30 30" fill="none" xmlns="http://www.w3.org/2000/svg">
<path d="M27.5003 13.7125V16.2875C27.5003 16.975 26.9503 17.5375 26.2503 17.5625H23.8002C22.4502 17.5625 21.2128 16.575 21.1003 15.225C21.0253 14.4375 21.3252 13.7 21.8502 13.1875C22.3127 12.7125 22.9502 12.4375 23.6502 12.4375H26.2503C26.9503 12.4625 27.5003 13.025 27.5003 13.7125Z" fill="#FFA500"/>
<path opacity="0.4" d="M21.85 13.1875C21.325 13.7 21.025 14.4375 21.1 15.225C21.2125 16.575 22.45 17.5625 23.8 17.5625H26.25V19.375C26.25 23.125 23.75 25.625 20 25.625H8.75C5 25.625 2.5 23.125 2.5 19.375V10.625C2.5 7.225 4.55 4.85 7.7375 4.45C8.0625 4.4 8.4 4.375 8.75 4.375H20C20.325 4.375 20.6375 4.38748 20.9375 4.43748C24.1625 4.81248 26.25 7.2 26.25 10.625V12.4375H23.65C22.95 12.4375 22.3125 12.7125 21.85 13.1875Z" fill="#FFA500"/>
<path d="M16.25 12.1875H8.75C8.2375 12.1875 7.8125 11.7625 7.8125 11.25C7.8125 10.7375 8.2375 10.3125 8.75 10.3125H16.25C16.7625 10.3125 17.1875 10.7375 17.1875 11.25C17.1875 11.7625 16.7625 12.1875 16.25 12.1875Z" fill="#FFA500"/>
</svg>
