<svg width="20" height="20" viewBox="0 0 20 20" fill="none" xmlns="http://www.w3.org/2000/svg">
<path d="M9.95065 1.84167L7.94232 6.51667H5.93398C5.60065 6.51667 5.27565 6.54167 4.95898 6.60833L5.79232 4.60833L5.82565 4.53333L5.87565 4.4C5.90065 4.34167 5.91732 4.29167 5.94232 4.25C6.90898 2.00833 7.99232 1.30833 9.95065 1.84167Z" fill="#FFA500"/>
<path d="M15.6079 6.74167L15.5913 6.73334C15.0913 6.59167 14.5829 6.51667 14.0663 6.51667H8.84961L10.7246 2.15834L10.7496 2.10001C10.8663 2.14167 10.9913 2.20001 11.1163 2.24167L12.9579 3.01667C13.9829 3.44167 14.6996 3.88334 15.1413 4.41667C15.2163 4.51667 15.2829 4.60834 15.3496 4.71667C15.4246 4.83334 15.4829 4.95001 15.5163 5.07501C15.5496 5.15001 15.5746 5.21667 15.5913 5.29167C15.7163 5.71667 15.7246 6.20001 15.6079 6.74167Z" fill="#FFA500"/>
<path d="M10.4336 14.7167H10.6419C10.8919 14.7167 11.1003 14.4917 11.1003 14.2167C11.1003 13.8667 11.0003 13.8167 10.7836 13.7333L10.4336 13.6083V14.7167Z" fill="#FFA500"/>
<path d="M15.2422 7.93333C14.8672 7.825 14.4755 7.76666 14.0672 7.76666H5.93385C5.36719 7.76666 4.83385 7.875 4.33385 8.09166C2.88385 8.71666 1.86719 10.1583 1.86719 11.8333V13.4583C1.86719 13.6583 1.88385 13.85 1.90885 14.05C2.09219 16.7 3.50885 18.1167 6.15885 18.2917C6.35052 18.3167 6.54219 18.3333 6.75052 18.3333H13.2505C16.3339 18.3333 17.9589 16.8667 18.1172 13.95C18.1255 13.7917 18.1339 13.625 18.1339 13.4583V11.8333C18.1339 9.99166 16.9089 8.44166 15.2422 7.93333ZM11.0672 12.9167C11.4505 13.05 11.9672 13.3333 11.9672 14.2167C11.9672 14.975 11.3755 15.5833 10.6422 15.5833H10.4339V15.7667C10.4339 16.0083 10.2422 16.2 10.0005 16.2C9.75885 16.2 9.56719 16.0083 9.56719 15.7667V15.5833H9.49219C8.69219 15.5833 8.03385 14.9083 8.03385 14.075C8.03385 13.8333 8.22552 13.6417 8.46719 13.6417C8.70885 13.6417 8.90052 13.8333 8.90052 14.075C8.90052 14.425 9.16719 14.7167 9.49219 14.7167H9.56719V13.3083L8.93385 13.0833C8.55052 12.95 8.03385 12.6667 8.03385 11.7833C8.03385 11.025 8.62552 10.4167 9.35885 10.4167H9.56719V10.2333C9.56719 9.99166 9.75885 9.8 10.0005 9.8C10.2422 9.8 10.4339 9.99166 10.4339 10.2333V10.4167H10.5089C11.3089 10.4167 11.9672 11.0917 11.9672 11.925C11.9672 12.1667 11.7755 12.3583 11.5339 12.3583C11.2922 12.3583 11.1005 12.1667 11.1005 11.925C11.1005 11.575 10.8339 11.2833 10.5089 11.2833H10.4339V12.6917L11.0672 12.9167Z" fill="#FFA500"/>
<path d="M8.90039 11.7833C8.90039 12.1333 9.00039 12.1833 9.21706 12.2667L9.56706 12.3917V11.2833H9.35872C9.10039 11.2833 8.90039 11.5083 8.90039 11.7833Z" fill="#FFA500"/>
</svg>
