<svg width="25" height="25" viewBox="0 0 25 25" fill="none" xmlns="http://www.w3.org/2000/svg">
<path fill-rule="evenodd" clip-rule="evenodd" d="M21.4505 4.64615C22.4371 4.91026 23.2125 5.68559 23.4765 6.67221C23.9538 8.45867 23.9557 12.1882 23.9557 12.1882C23.9557 12.1882 23.9557 15.9177 23.4765 17.7042C23.2125 18.6908 22.4371 19.4662 21.4505 19.7302C19.6641 20.2094 12.4974 20.2094 12.4974 20.2094C12.4974 20.2094 5.33074 20.2094 3.54427 19.7302C2.55766 19.4662 1.78233 18.6908 1.51822 17.7042C1.03906 15.9177 1.03906 12.1882 1.03906 12.1882C1.03906 12.1882 1.03906 8.45867 1.51822 6.67221C1.78233 5.68559 2.55766 4.91026 3.54427 4.64615C5.33074 4.16699 12.4974 4.16699 12.4974 4.16699C12.4974 4.16699 19.6641 4.16699 21.4505 4.64615ZM16.1572 12.1885L10.2035 15.6256V8.75138L16.1572 12.1885Z" fill="#f6465d"/>
</svg>
