<svg width="18" height="18" viewBox="0 0 18 18" fill="none" xmlns="http://www.w3.org/2000/svg">
<path d="M16.5 10C16.3689 11.4185 15.8366 12.4287 14.9652 13.5557C14.0939 14.6826 12.9196 15.5382 11.5798 16.0221C10.2399 16.5061 8.79 16.5984 7.39959 16.2884C6.00919 15.9784 4.73584 15.2788 3.72853 14.2715C2.72122 13.2642 2.02163 11.9908 1.7116 10.6004C1.40157 9.21001 1.49394 7.76007 1.97789 6.42025C2.46185 5.08042 3.31737 3.90614 4.44435 3.03479C5.57134 2.16345 6.92317 1.63109 8.34168 1.5C7.51119 2.62356 7.11155 4.00787 7.21545 5.40118C7.31936 6.79448 7.91989 8.10422 8.90784 9.09217C9.89579 10.0801 11.2055 10.6807 12.5988 10.7846C13.9921 10.8885 15.3765 10.4888 16.5 9.65833L16.5 10Z" stroke="white" stroke-width="2" stroke-linecap="round" stroke-linejoin="round"/>
</svg>
